<?xml version="1.0" standalone="no"?>
<!DOCTYPE svg PUBLIC "-//W3C//DTD SVG 1.1//EN" "http://www.w3.org/Graphics/SVG/1.1/DTD/svg11.dtd" >
<svg xmlns="http://www.w3.org/2000/svg" xmlns:xlink="http://www.w3.org/1999/xlink" version="1.1">
<metadata>
Created by FontForge 20170910 at Mon Jul  9 21:21:32 2012
 By Jimmy Wärting
Copyright (c) 2012 by Dieter Hofrichter. All rights reserved.
</metadata>
<defs>
<font id="EpocaClassic-Light" horiz-adv-x="221" >
  <font-face 
    font-family="EpocaClassic-Light"
    font-weight="300"
    font-stretch="normal"
    units-per-em="1000"
    panose-1="0 0 0 0 0 0 0 0 0 0"
    ascent="760"
    descent="-240"
    x-height="504"
    cap-height="706"
    bbox="-145 -261 1174 993"
    underline-thickness="50"
    underline-position="-100"
    stemh="49"
    stemv="74"
    unicode-range="U+0020-FB04"
  />
<missing-glyph horiz-adv-x="333" 
 />
    <glyph glyph-name="T_h" unicode="Th" horiz-adv-x="1108" 
d="M952 0v281c0 61 -3 98 -10 123c-12 40 -39 61 -90 61c-41 0 -93 -14 -122 -49c-20 -25 -22 -46 -22 -102v-314h-75v666l-119 -9h-192v-657h-80v657h-220v49h611v40h76v-301c51 57 124 72 172 72c73 0 123 -29 139 -105c6 -27 6 -55 6 -115v-297h-74z" />
    <glyph glyph-name="Tcaron_h" unicode="&#x164;h" horiz-adv-x="1108" 
d="M952 0v281c0 61 -3 98 -10 123c-12 40 -39 61 -90 61c-41 0 -93 -14 -122 -49c-20 -25 -22 -46 -22 -102v-314h-75v666l-119 -9h-192v-657h-80v657h-220v49h611v40h76v-301c51 57 124 72 172 72c73 0 123 -29 139 -105c6 -27 6 -55 6 -115v-297h-74zM110 903h84l96 -80
l97 80h69l-143 -137h-61z" />
    <glyph glyph-name="f_b" unicode="fb" horiz-adv-x="889" 
d="M483 740v-310c36 52 98 85 163 85c125 0 194 -83 194 -250c0 -191 -82 -275 -208 -275c-58 0 -115 16 -155 65c0 -6 -2 -35 -5 -55h-67c3 36 4 93 4 135v561c-25 3 -68 4 -92 4c-41 0 -77 -6 -98 -24c-24 -19 -37 -55 -37 -118v-54h115v-45h-115v-459h-75v459h-84v45h84
v50c0 64 14 109 45 142c34 36 94 57 158 57c63 0 115 -4 173 -13zM484 248c0 -71 6 -122 20 -148c23 -43 65 -65 115 -65c90 0 142 69 142 229c0 141 -52 201 -137 201c-41 0 -93 -22 -119 -70c-16 -30 -21 -78 -21 -147z" />
    <glyph glyph-name="f_f" unicode="ff" horiz-adv-x="612" 
d="M409 0v459h-227v-459h-75v459h-84v45h84v37c0 60 14 109 41 139c28 31 77 51 123 51c21 0 58 -2 78 -6v-57c-17 4 -42 10 -75 10c-26 0 -53 -12 -67 -29c-16 -20 -25 -53 -25 -100v-45h227v47c0 66 10 115 36 146c28 34 72 56 130 56c29 0 60 -3 80 -7v-58
c-17 6 -46 12 -74 12c-26 0 -58 -11 -72 -29c-16 -20 -26 -53 -26 -111v-56h113v-45h-113v-459h-74z" />
    <glyph glyph-name="f_f_b" unicode="ffb" horiz-adv-x="1191" 
d="M711 135v561c-24 3 -71 4 -95 4c-42 0 -75 -6 -97 -24c-23 -19 -36 -56 -36 -118v-54h116v-45h-116v-459h-74v459h-227v-459h-75v459h-84v45h84v47c0 57 10 108 37 135c27 29 71 45 125 45c21 0 57 -2 80 -6v-57c-17 5 -48 10 -70 10c-30 0 -56 -6 -70 -20
c-19 -19 -27 -42 -27 -92v-62h227v50c0 62 14 109 44 142c33 37 92 57 155 57c58 0 127 -4 177 -13v-310c36 52 98 85 163 85c125 0 194 -83 194 -250c0 -191 -82 -275 -208 -275c-58 0 -115 16 -155 65c0 -6 -2 -35 -5 -55h-67c3 36 4 93 4 135zM786 248
c0 -71 6 -122 20 -148c23 -43 65 -65 115 -65c90 0 142 69 142 229c0 141 -52 201 -137 201c-41 0 -93 -22 -119 -70c-16 -30 -21 -78 -21 -147z" />
    <glyph glyph-name="f_f_h" unicode="ffh" horiz-adv-x="1152" 
d="M785 740v-295c51 57 125 72 173 72c73 0 123 -29 139 -105c6 -27 6 -55 6 -115v-297h-74v281c0 61 -3 98 -10 123c-12 40 -39 61 -90 61c-41 0 -93 -14 -122 -49c-20 -25 -22 -46 -22 -102v-314h-75v696c-24 3 -66 4 -90 4c-42 0 -78 -6 -100 -24
c-23 -19 -37 -56 -37 -118v-54h116v-45h-116v-459h-74v459h-227v-459h-75v459h-84v45h84v47c0 57 10 108 37 135c27 29 71 45 125 45c21 0 57 -2 80 -6v-57c-17 5 -48 10 -70 10c-30 0 -56 -6 -70 -20c-19 -19 -27 -42 -27 -92v-62h227v50c0 62 15 109 45 142
c33 37 95 57 158 57c58 0 123 -4 173 -13z" />
    <glyph glyph-name="f_f_i" unicode="ffi" horiz-adv-x="864" 
d="M409 0v459h-227v-459h-75v459h-84v45h84v57c0 61 13 100 40 128c27 30 69 41 123 41c21 0 59 -1 79 -5v-56c-17 4 -58 9 -78 9c-28 0 -53 -9 -67 -24c-18 -21 -22 -33 -22 -87v-63h227v78c0 57 11 96 35 124c26 30 72 47 129 47c21 0 50 -1 71 -5v-57c-17 5 -42 9 -62 9
c-27 0 -57 -5 -73 -20c-16 -17 -26 -34 -26 -93v-83h297v-504h-76v459h-221v-459h-74zM788 660c0 -37 -15 -50 -47 -50c-31 0 -46 11 -46 50c0 37 16 50 48 50c31 0 45 -12 45 -50z" />
    <glyph glyph-name="f_f_j" unicode="ffj" horiz-adv-x="867" 
d="M710 -44v503h-227v-459h-74v459h-227v-459h-75v459h-84v45h84v57c0 61 13 100 40 128c27 30 70 41 124 41c21 0 58 -1 78 -5v-55c-17 4 -57 8 -77 8c-28 0 -54 -9 -68 -24c-17 -20 -22 -37 -22 -92v-58h227v74c0 57 8 94 31 123c24 31 69 52 126 52c22 0 56 -1 78 -5v-56
c-19 5 -51 8 -73 8c-26 0 -53 -9 -66 -24c-15 -17 -22 -44 -22 -89v-83h303v-541c0 -65 -9 -108 -30 -133c-27 -30 -67 -45 -126 -45c-16 0 -40 2 -57 6v48c16 -4 41 -6 51 -6c32 0 52 9 65 22c16 15 21 49 21 101zM794 660c0 -37 -15 -50 -47 -50c-31 0 -46 11 -46 50
c0 37 16 50 48 50c31 0 45 -12 45 -50z" />
    <glyph glyph-name="f_f_k" unicode="ffk" horiz-adv-x="1120" 
d="M784 740v-461l222 225h80c-145 -142 -194 -187 -226 -216c43 -47 92 -101 253 -288h-98l-231 266v-266h-75v696c-24 3 -62 4 -86 4c-42 0 -80 -6 -102 -24c-23 -19 -38 -56 -38 -118v-54h116v-45h-116v-459h-74v459h-227v-459h-75v459h-84v45h84v47c0 57 10 108 37 135
c27 29 71 45 125 45c21 0 57 -2 80 -6v-57c-17 5 -48 10 -70 10c-30 0 -56 -6 -70 -20c-19 -19 -27 -42 -27 -92v-62h227v50c0 62 16 109 46 142c33 37 101 57 163 57c58 0 116 -4 166 -13z" />
    <glyph glyph-name="f_f_l" unicode="ffl" horiz-adv-x="871" 
d="M785 0h-75v696c-24 3 -64 4 -88 4c-42 0 -81 -6 -103 -24c-23 -19 -36 -56 -36 -118v-54h116v-45h-116v-459h-74v459h-227v-459h-75v459h-84v45h84v47c0 57 10 108 37 135c27 29 71 45 125 45c21 0 57 -2 80 -6v-57c-17 5 -48 10 -70 10c-30 0 -56 -6 -70 -20
c-19 -19 -27 -42 -27 -92v-62h227v50c0 62 14 109 44 142c33 37 98 57 161 57c58 0 121 -4 171 -13v-740z" />
    <glyph glyph-name="f_f_t" unicode="fft" horiz-adv-x="920" 
d="M483 459v-459h-74v459h-227v-459h-75v459h-84v45h84v37c0 60 14 109 41 139c28 31 77 51 123 51c21 0 58 -2 78 -6v-57c-17 4 -42 10 -75 10c-26 0 -53 -12 -67 -29c-16 -20 -25 -53 -25 -100v-45h227v47c0 66 10 115 36 146c28 34 72 56 130 56c29 0 60 -3 80 -7v-58
c-17 6 -46 12 -74 12c-26 0 -58 -11 -72 -29c-16 -20 -26 -53 -26 -111v-56h224s2 57 7 130h67v-130h113v-45h-113v-307c0 -43 3 -65 10 -79c8 -17 31 -28 53 -28c20 0 42 2 59 8v-50c-21 -6 -49 -10 -74 -10c-56 0 -88 19 -105 49c-17 29 -17 65 -17 109v308h-224z" />
    <glyph glyph-name="f_h" unicode="fh" horiz-adv-x="884" 
d="M409 0v696c-25 3 -66 4 -90 4c-41 0 -79 -6 -100 -24c-24 -19 -37 -55 -37 -118v-54h115v-45h-115v-459h-75v459h-84v45h84v50c0 64 14 109 45 142c34 36 96 57 160 57c63 0 113 -4 171 -13v-295c51 57 126 72 174 72c73 0 123 -29 139 -105c6 -27 6 -55 6 -115v-297h-74
v281c0 61 -3 98 -10 123c-12 40 -39 61 -90 61c-41 0 -93 -14 -122 -49c-20 -25 -22 -46 -22 -102v-314h-75z" />
    <glyph glyph-name="f_j" unicode="fj" horiz-adv-x="557" 
d="M409 -44v503h-227v-459h-75v459h-84v45h84v78c0 64 12 94 36 124c25 30 72 47 138 47c21 0 41 -1 62 -5v-57c-18 5 -43 9 -63 9c-34 0 -59 -8 -71 -19c-18 -18 -27 -36 -27 -91v-86h302v-541c0 -65 -9 -108 -30 -133c-27 -30 -67 -45 -126 -45c-16 0 -39 2 -56 6v48
c15 -4 40 -6 51 -6c32 0 52 9 65 22c16 15 21 49 21 101zM493 660c0 -37 -16 -50 -47 -50s-47 11 -47 50c0 37 17 50 49 50c30 0 45 -12 45 -50z" />
    <glyph glyph-name="f_k" unicode="fk" horiz-adv-x="821" 
d="M483 740v-461l223 225h80c-145 -142 -194 -187 -226 -216c43 -47 92 -101 253 -288h-98l-232 266v-266h-74v696c-25 3 -65 4 -89 4c-41 0 -81 -6 -102 -24c-24 -19 -36 -55 -36 -118v-54h115v-45h-115v-459h-75v459h-84v45h84v50c0 64 13 109 44 142c34 36 98 57 162 57
c63 0 112 -4 170 -13z" />
    <glyph glyph-name="f_t" unicode="ft" horiz-adv-x="619" 
d="M602 3c-21 -6 -49 -10 -74 -10c-56 0 -88 19 -105 49c-17 29 -17 65 -17 109v308h-224v-459h-75v459h-84v45h84v75c0 56 11 97 34 125c26 31 69 49 132 49c22 0 49 -1 69 -5v-57c-17 5 -43 9 -64 9c-28 0 -57 -6 -72 -21c-19 -18 -24 -42 -24 -96v-79h224s2 57 7 130h67
v-130h113v-45h-113v-307c0 -43 3 -65 10 -79c8 -17 31 -28 53 -28c20 0 42 2 59 8v-50z" />
    <glyph glyph-name="fi" unicode="fi" horiz-adv-x="569" 
d="M483 0h-75v459h-226v-459h-75v459h-84v45h84v56c0 65 12 109 36 138c25 31 71 55 138 55c21 0 41 -1 62 -5v-57c-18 5 -43 9 -63 9c-34 0 -60 -14 -71 -28c-17 -20 -27 -52 -27 -106v-62h301v-504zM493 660c0 -37 -15 -50 -47 -50c-31 0 -47 11 -47 50c0 37 17 50 49 50
c30 0 45 -12 45 -50z" />
    <glyph glyph-name="fl" unicode="fl" horiz-adv-x="567" 
d="M483 0h-74v696c-25 3 -63 4 -87 4c-41 0 -82 -6 -103 -24c-24 -19 -37 -55 -37 -118v-54h115v-45h-115v-459h-75v459h-84v45h84v50c0 64 14 109 45 142c34 36 99 57 163 57c63 0 110 -4 168 -13v-740z" />
    <glyph glyph-name="uni0162_h" unicode="&#x162;h" horiz-adv-x="1108" 
d="M952 0v281c0 61 -3 98 -10 123c-12 40 -39 61 -90 61c-41 0 -93 -14 -122 -49c-20 -25 -22 -46 -22 -102v-314h-75v666l-119 -9h-192v-657h-80v657h-220v49h611v40h76v-301c51 57 124 72 172 72c73 0 123 -29 139 -105c6 -27 6 -55 6 -115v-297h-74zM212 -238v40
c18 -4 34 -5 40 -5c45 0 59 21 59 53c0 33 -19 52 -55 52c-9 0 -22 -1 -33 -2l43 110h38l-28 -74c72 0 103 -28 103 -83c0 -65 -45 -95 -121 -95c-15 0 -36 2 -46 4z" />
    <glyph glyph-name="uni021A_h" unicode="&#x21a;h" horiz-adv-x="1108" 
d="M952 0v281c0 61 -3 98 -10 123c-12 40 -39 61 -90 61c-41 0 -93 -14 -122 -49c-20 -25 -22 -46 -22 -102v-314h-75v666l-119 -9h-192v-657h-80v657h-220v49h611v40h76v-301c51 57 124 72 172 72c73 0 123 -29 139 -105c6 -27 6 -55 6 -115v-297h-74zM319 -69
c0 -88 -35 -137 -68 -172h-52c30 44 43 88 43 172h77z" />
    <glyph glyph-name=".notdef" horiz-adv-x="333" 
 />
    <glyph glyph-name="A" unicode="A" horiz-adv-x="600" 
d="M504 0l-83 245h-251l-86 -245h-75l260 706h80l242 -706h-87zM187 295h218c-73 220 -86 265 -106 326c-19 -56 -32 -97 -112 -326z" />
    <glyph glyph-name="AE" unicode="&#xc6;" horiz-adv-x="920" 
d="M870 657h-321v-264h303v-50h-303v-294h331v-49h-410v245h-249l-149 -245h-80l445 706h433v-49zM470 653c-39 -67 -72 -123 -216 -359h216v359z" />
    <glyph glyph-name="AEacute" unicode="&#x1fc;" horiz-adv-x="920" 
d="M870 657h-321v-264h303v-50h-303v-294h331v-49h-410v245h-249l-149 -245h-80l445 706h433v-49zM470 653c-39 -67 -72 -123 -216 -359h216v359zM629 766h-68l125 138h119z" />
    <glyph glyph-name="Aacute" unicode="&#xc1;" horiz-adv-x="600" 
d="M504 0l-83 245h-251l-86 -245h-75l260 706h80l242 -706h-87zM187 295h218c-73 220 -86 265 -106 326c-19 -56 -32 -97 -112 -326zM285 766h-68l125 138h119z" />
    <glyph glyph-name="Abreve" unicode="&#x102;" horiz-adv-x="600" 
d="M504 0l-83 245h-251l-86 -245h-75l260 706h80l242 -706h-87zM187 295h218c-73 220 -86 265 -106 326c-19 -56 -32 -97 -112 -326zM170 895h53c3 -52 37 -76 83 -76c49 0 89 24 93 76h52c-3 -82 -53 -132 -146 -132c-89 0 -135 50 -135 132z" />
    <glyph glyph-name="Acircumflex" unicode="&#xc2;" horiz-adv-x="600" 
d="M504 0l-83 245h-251l-86 -245h-75l260 706h80l242 -706h-87zM187 295h218c-73 220 -86 265 -106 326c-19 -56 -32 -97 -112 -326zM485 766h-85l-97 80l-97 -80h-67l144 137h61z" />
    <glyph glyph-name="Adieresis" unicode="&#xc4;" horiz-adv-x="600" 
d="M504 0l-83 245h-251l-86 -245h-75l260 706h80l242 -706h-87zM187 295h218c-73 220 -86 265 -106 326c-19 -56 -32 -97 -112 -326zM256 815c0 -33 -19 -46 -46 -46c-25 0 -43 10 -43 46s18 49 45 49c25 0 44 -9 44 -49zM442 815c0 -33 -19 -46 -46 -46
c-25 0 -44 10 -44 46s19 49 46 49c25 0 44 -9 44 -49z" />
    <glyph glyph-name="Agrave" unicode="&#xc0;" horiz-adv-x="600" 
d="M504 0l-83 245h-251l-86 -245h-75l260 706h80l242 -706h-87zM187 295h218c-73 220 -86 265 -106 326c-19 -56 -32 -97 -112 -326zM394 766h-67l-176 138h118z" />
    <glyph glyph-name="Amacron" unicode="&#x100;" horiz-adv-x="600" 
d="M504 0l-83 245h-251l-86 -245h-75l260 706h80l242 -706h-87zM187 295h218c-73 220 -86 265 -106 326c-19 -56 -32 -97 -112 -326zM462 793h-301v58h301v-58z" />
    <glyph glyph-name="Aogonek" unicode="&#x104;" horiz-adv-x="600" 
d="M504 0l-83 245h-251l-86 -245h-75l260 706h80l242 -706h-35c-52 -37 -81 -75 -81 -137c0 -41 20 -64 50 -64c14 0 35 4 52 13l15 -34c-25 -15 -52 -22 -82 -22c-68 0 -104 40 -104 103c0 55 38 101 104 141h-6zM187 295h218c-73 220 -86 265 -106 326
c-19 -56 -32 -97 -112 -326z" />
    <glyph glyph-name="Aring" unicode="&#xc5;" horiz-adv-x="600" 
d="M504 0l-83 245h-251l-86 -245h-75l260 706h80l242 -706h-87zM187 295h218c-73 220 -86 265 -106 326c-19 -56 -32 -97 -112 -326zM309 948c53 0 97 -31 97 -95c0 -65 -44 -102 -99 -102c-53 0 -98 34 -98 99c0 63 50 98 100 98zM307 914c-29 0 -52 -20 -52 -64
c0 -47 22 -66 54 -66c31 0 52 21 52 68c0 43 -23 62 -54 62z" />
    <glyph glyph-name="Aringacute" unicode="&#x1fa;" horiz-adv-x="600" 
d="M310 869c53 0 97 -30 97 -94c0 -45 -21 -76 -51 -91l235 -684h-87l-83 245h-251l-86 -245h-75l251 683c-30 14 -50 44 -50 88c0 63 50 98 100 98zM187 295h218c-73 220 -86 265 -106 326c-19 -58 -32 -97 -112 -326zM308 836c-29 0 -52 -20 -52 -65c0 -47 22 -65 54 -65
c31 0 52 20 52 67c0 44 -24 63 -54 63zM318 886h-60l97 107h108z" />
    <glyph glyph-name="Atilde" unicode="&#xc3;" horiz-adv-x="600" 
d="M504 0l-83 245h-251l-86 -245h-75l260 706h80l242 -706h-87zM187 295h218c-73 220 -86 265 -106 326c-19 -56 -32 -97 -112 -326zM179 768l-38 16c28 60 58 92 101 92c19 0 36 -7 64 -21l29 -15c17 -8 30 -10 40 -10c30 0 43 16 57 47l40 -13c-27 -68 -58 -96 -97 -96
c-20 0 -37 5 -62 17l-31 15c-21 10 -34 15 -45 15c-22 0 -40 -12 -58 -47z" />
    <glyph glyph-name="B" unicode="B" horiz-adv-x="598" 
d="M89 706h183c33 0 69 -2 95 -4c100 -8 157 -65 157 -172c0 -84 -43 -134 -117 -159c88 -16 142 -72 142 -170c0 -81 -39 -153 -116 -181c-39 -14 -89 -20 -161 -20h-183v706zM169 49h109c58 0 94 6 120 18c40 19 68 64 68 131c0 52 -23 106 -69 129c-26 12 -54 16 -114 16
h-114v-294zM169 392h109c56 0 86 7 109 20c33 19 56 62 56 115c0 55 -25 104 -71 119c-23 7 -60 11 -106 11h-97v-265z" />
    <glyph glyph-name="C" unicode="C" horiz-adv-x="583" 
d="M543 627c-46 24 -103 40 -170 40c-147 0 -234 -94 -234 -318c0 -210 79 -305 224 -305c71 0 136 18 183 47v-64c-36 -19 -107 -41 -192 -41c-180 0 -300 103 -300 356c0 257 122 379 317 379c75 0 129 -14 172 -30v-64z" />
    <glyph glyph-name="Cacute" unicode="&#x106;" horiz-adv-x="583" 
d="M543 627c-46 24 -103 40 -170 40c-147 0 -234 -94 -234 -318c0 -210 79 -305 224 -305c71 0 136 18 183 47v-64c-36 -19 -107 -41 -192 -41c-180 0 -300 103 -300 356c0 257 122 379 317 379c75 0 129 -14 172 -30v-64zM349 766h-68l125 138h119z" />
    <glyph glyph-name="Ccaron" unicode="&#x10c;" horiz-adv-x="583" 
d="M543 627c-46 24 -103 40 -170 40c-147 0 -234 -94 -234 -318c0 -210 79 -305 224 -305c71 0 136 18 183 47v-64c-36 -19 -107 -41 -192 -41c-180 0 -300 103 -300 356c0 257 122 379 317 379c75 0 129 -14 172 -30v-64zM184 903h84l96 -80l97 80h69l-143 -137h-61z" />
    <glyph glyph-name="Ccedilla" unicode="&#xc7;" horiz-adv-x="583" 
d="M276 -238v40c18 -4 34 -5 40 -5c45 0 59 21 59 53c0 33 -19 52 -55 52c-9 0 -22 -1 -33 -2l34 88c-162 12 -267 117 -267 354c0 257 122 379 317 379c75 0 129 -14 172 -30v-64c-46 24 -103 40 -170 40c-147 0 -234 -94 -234 -318c0 -210 79 -305 224 -305
c71 0 136 18 183 47v-64c-36 -19 -105 -40 -187 -41l-19 -50c72 0 103 -28 103 -83c0 -65 -45 -95 -121 -95c-15 0 -36 2 -46 4z" />
    <glyph glyph-name="Ccircumflex" unicode="&#x108;" horiz-adv-x="583" 
d="M543 627c-46 24 -103 40 -170 40c-147 0 -234 -94 -234 -318c0 -210 79 -305 224 -305c71 0 136 18 183 47v-64c-36 -19 -107 -41 -192 -41c-180 0 -300 103 -300 356c0 257 122 379 317 379c75 0 129 -14 172 -30v-64zM527 766h-85l-97 80l-97 -80h-67l144 137h61z" />
    <glyph glyph-name="Cdotaccent" unicode="&#x10a;" horiz-adv-x="583" 
d="M543 627c-46 24 -103 40 -170 40c-147 0 -234 -94 -234 -318c0 -210 79 -305 224 -305c71 0 136 18 183 47v-64c-36 -19 -107 -41 -192 -41c-180 0 -300 103 -300 356c0 257 122 379 317 379c75 0 129 -14 172 -30v-64zM404 815c0 -33 -19 -46 -46 -46
c-25 0 -43 10 -43 46s18 49 45 49c25 0 44 -9 44 -49z" />
    <glyph glyph-name="D" unicode="D" horiz-adv-x="687" 
d="M89 0v706h184c82 0 139 -7 184 -20c119 -33 175 -144 175 -323c0 -140 -40 -290 -179 -338c-52 -18 -90 -25 -195 -25h-169zM169 657v-608h105c80 0 134 11 173 38c62 43 100 137 100 276c0 117 -25 222 -110 266c-37 19 -94 28 -167 28h-101z" />
    <glyph glyph-name="Dcaron" unicode="&#x10e;" horiz-adv-x="687" 
d="M89 0v706h184c82 0 139 -7 184 -20c119 -33 175 -144 175 -323c0 -140 -40 -290 -179 -338c-52 -18 -90 -25 -195 -25h-169zM169 657v-608h105c80 0 134 11 173 38c62 43 100 137 100 276c0 117 -25 222 -110 266c-37 19 -94 28 -167 28h-101zM153 903h84l96 -80l97 80
h69l-143 -137h-61z" />
    <glyph glyph-name="Dcroat" unicode="&#x110;" horiz-adv-x="687" 
d="M89 0v347h-75v51h75v308h184c82 0 139 -7 184 -20c119 -33 175 -144 175 -323c0 -140 -40 -290 -179 -338c-52 -18 -90 -25 -195 -25h-169zM387 347h-218v-298h105c80 0 134 11 173 38c62 43 100 137 100 276c0 117 -25 222 -110 266c-37 19 -94 28 -167 28h-101v-259
h218v-51z" />
    <glyph glyph-name="Delta" unicode="&#x2206;" horiz-adv-x="674" 
d="M653 0h-638l279 706h82zM326 633c-22 -61 -38 -106 -214 -571h424c-175 472 -188 507 -210 571z" />
    <glyph glyph-name="Dotlessi" horiz-adv-x="258" 
d="M169 706v-706h-80v706h80z" />
    <glyph glyph-name="E" unicode="E" horiz-adv-x="540" 
d="M489 657h-320v-264h304v-50h-304v-294h331v-49h-411v706h400v-49z" />
    <glyph glyph-name="Eacute" unicode="&#xc9;" horiz-adv-x="540" 
d="M489 657h-320v-264h304v-50h-304v-294h331v-49h-411v706h400v-49zM289 766h-68l125 138h119z" />
    <glyph glyph-name="Ebreve" unicode="&#x114;" horiz-adv-x="540" 
d="M489 657h-320v-264h304v-50h-304v-294h331v-49h-411v706h400v-49zM166 895h53c3 -52 37 -76 83 -76c49 0 89 24 93 76h52c-3 -82 -53 -132 -146 -132c-89 0 -135 50 -135 132z" />
    <glyph glyph-name="Ecaron" unicode="&#x11a;" horiz-adv-x="540" 
d="M489 657h-320v-264h304v-50h-304v-294h331v-49h-411v706h400v-49zM130 903h84l96 -80l97 80h69l-143 -137h-61z" />
    <glyph glyph-name="Ecircumflex" unicode="&#xca;" horiz-adv-x="540" 
d="M489 657h-320v-264h304v-50h-304v-294h331v-49h-411v706h400v-49zM458 766h-85l-97 80l-97 -80h-67l144 137h61z" />
    <glyph glyph-name="Edieresis" unicode="&#xcb;" horiz-adv-x="540" 
d="M489 657h-320v-264h304v-50h-304v-294h331v-49h-411v706h400v-49zM255 815c0 -33 -19 -46 -46 -46c-25 0 -43 10 -43 46s18 49 45 49c25 0 44 -9 44 -49zM441 815c0 -33 -19 -46 -46 -46c-25 0 -44 10 -44 46s19 49 46 49c25 0 44 -9 44 -49z" />
    <glyph glyph-name="Edotaccent" unicode="&#x116;" horiz-adv-x="540" 
d="M489 657h-320v-264h304v-50h-304v-294h331v-49h-411v706h400v-49zM355 815c0 -33 -19 -46 -46 -46c-25 0 -43 10 -43 46s18 49 45 49c25 0 44 -9 44 -49z" />
    <glyph glyph-name="Egrave" unicode="&#xc8;" horiz-adv-x="540" 
d="M489 657h-320v-264h304v-50h-304v-294h331v-49h-411v706h400v-49zM382 766h-67l-176 138h118z" />
    <glyph glyph-name="Emacron" unicode="&#x112;" horiz-adv-x="540" 
d="M489 657h-320v-264h304v-50h-304v-294h331v-49h-411v706h400v-49zM452 793h-301v58h301v-58z" />
    <glyph glyph-name="Eng" unicode="&#x14a;" horiz-adv-x="711" 
d="M153 0h-64v706h92c271 -412 332 -509 380 -597c-3 145 -5 242 -5 597h64v-758c0 -68 -12 -107 -34 -131c-28 -31 -72 -47 -132 -47c-17 0 -38 1 -56 5v49c16 -4 42 -5 53 -5c37 0 65 10 77 25c16 18 22 55 22 103v38c-299 469 -346 540 -400 629c3 -144 3 -303 3 -614z
" />
    <glyph glyph-name="Eogonek" unicode="&#x118;" horiz-adv-x="540" 
d="M489 657h-320v-264h304v-50h-304v-294h331v-49h-23c-52 -37 -81 -75 -81 -137c0 -41 20 -64 50 -64c14 0 35 4 52 13l15 -34c-25 -15 -52 -22 -82 -22c-68 0 -104 40 -104 103c0 55 38 101 104 141h-342v706h400v-49z" />
    <glyph glyph-name="Eth" unicode="&#xd0;" horiz-adv-x="687" 
d="M89 0v347h-75v51h75v308h184c82 0 139 -7 184 -20c119 -33 175 -144 175 -323c0 -140 -40 -290 -179 -338c-52 -18 -90 -25 -195 -25h-169zM387 347h-218v-298h105c80 0 134 11 173 38c62 43 100 137 100 276c0 117 -25 222 -110 266c-37 19 -94 28 -167 28h-101v-259
h218v-51z" />
    <glyph glyph-name="Euro" unicode="&#x20ac;" horiz-adv-x="652" 
d="M513 246h-283c19 -137 89 -200 206 -200c68 0 118 19 165 44v-57c-39 -18 -92 -39 -174 -39c-153 0 -254 74 -276 252h-75v45h71c-1 11 -1 23 -1 36c0 18 0 37 2 54h-72v45h77c28 172 131 256 290 256c72 0 114 -14 155 -29v-58c-44 22 -89 36 -153 36
c-118 0 -194 -62 -215 -205h283v-45h-288c-1 -15 -1 -31 -1 -47c0 -15 0 -30 1 -43h288v-45z" />
    <glyph glyph-name="Euro.denominator" horiz-adv-x="407" 
d="M274 30c41 0 80 14 113 32v-45c-27 -13 -65 -28 -115 -28c-99 0 -166 44 -181 159h-43v38h40c-1 19 -1 23 -1 29c0 2 0 8 1 21h-40v38h46c19 107 85 153 185 153c44 0 73 -7 104 -20v-48c-33 18 -69 27 -106 27c-65 0 -105 -33 -116 -112h160v-38h-167
c-1 -11 -1 -21 -1 -25c0 -5 0 -11 1 -25h167v-38h-161c10 -81 46 -118 114 -118z" />
    <glyph glyph-name="Euro.inferior" horiz-adv-x="407" 
d="M274 -129c41 0 80 14 113 32v-45c-27 -13 -65 -28 -115 -28c-99 0 -166 44 -181 159h-43v38h40c-1 19 -1 23 -1 29c0 2 0 8 1 21h-40v38h46c19 107 85 153 185 153c44 0 73 -7 104 -20v-48c-33 18 -69 27 -106 27c-65 0 -105 -33 -116 -112h160v-38h-167
c-1 -11 -1 -21 -1 -25c0 -5 0 -11 1 -25h167v-38h-161c10 -81 46 -118 114 -118z" />
    <glyph glyph-name="Euro.numerator" horiz-adv-x="407" 
d="M274 291c41 0 80 14 113 32v-45c-27 -13 -65 -28 -115 -28c-99 0 -166 44 -181 159h-43v38h43v50h-43v38h46c20 107 85 153 185 153c44 0 73 -7 104 -20v-48c-33 18 -69 27 -106 27c-65 0 -106 -33 -117 -112h161v-38h-166v-50h166v-38h-164c11 -81 49 -118 117 -118z
" />
    <glyph glyph-name="Euro.oldstyle" horiz-adv-x="597" 
d="M403 37c60 0 113 19 158 42v-55c-39 -17 -91 -36 -166 -36c-139 0 -233 65 -254 230h-65v46h61c0 25 0 51 1 77h-62v46h67c26 155 121 226 265 226c65 0 105 -10 146 -25v-60c-42 23 -90 36 -146 36c-102 0 -164 -54 -183 -177h236v-46h-241c-2 -25 -2 -51 -2 -77h243
v-46h-240c17 -125 75 -181 182 -181z" />
    <glyph glyph-name="Euro.superior" horiz-adv-x="407" 
d="M274 480c41 0 80 14 113 32v-45c-27 -13 -65 -28 -115 -28c-99 0 -166 44 -181 159h-43v38h40c-1 19 -1 23 -1 29c0 2 0 8 1 21h-40v38h46c19 107 85 153 185 153c44 0 73 -7 104 -20v-48c-33 18 -69 27 -106 27c-65 0 -105 -33 -116 -112h160v-38h-167
c-1 -11 -1 -21 -1 -25c0 -5 0 -11 1 -25h167v-38h-161c10 -81 46 -118 114 -118z" />
    <glyph glyph-name="F" unicode="F" horiz-adv-x="495" 
d="M477 657h-308v-274h286v-51h-286v-332h-80v706h388v-49z" />
    <glyph glyph-name="G" unicode="G" horiz-adv-x="674" 
d="M365 39c61 0 120 10 160 27v236h-181v50h260v-313c-66 -34 -145 -53 -239 -53c-183 0 -311 103 -311 356c0 255 125 379 324 379c87 0 149 -12 194 -30v-63c-48 24 -120 40 -194 40c-147 0 -239 -99 -239 -319c0 -209 80 -310 226 -310z" />
    <glyph glyph-name="Gbreve" unicode="&#x11e;" horiz-adv-x="674" 
d="M365 39c61 0 120 10 160 27v236h-181v50h260v-313c-66 -34 -145 -53 -239 -53c-183 0 -311 103 -311 356c0 255 125 379 324 379c87 0 149 -12 194 -30v-63c-48 24 -120 40 -194 40c-147 0 -239 -99 -239 -319c0 -209 80 -310 226 -310zM232 895h53c3 -52 37 -76 83 -76
c49 0 89 24 93 76h52c-3 -82 -53 -132 -146 -132c-89 0 -135 50 -135 132z" />
    <glyph glyph-name="Gcircumflex" unicode="&#x11c;" horiz-adv-x="674" 
d="M365 39c61 0 120 10 160 27v236h-181v50h260v-313c-66 -34 -145 -53 -239 -53c-183 0 -311 103 -311 356c0 255 125 379 324 379c87 0 149 -12 194 -30v-63c-48 24 -120 40 -194 40c-147 0 -239 -99 -239 -319c0 -209 80 -310 226 -310zM554 766h-85l-97 80l-97 -80h-67
l144 137h61z" />
    <glyph glyph-name="Gcommaaccent" unicode="&#x122;" horiz-adv-x="674" 
d="M365 39c61 0 120 10 160 27v236h-181v50h260v-313c-66 -34 -145 -53 -239 -53c-183 0 -311 103 -311 356c0 255 125 379 324 379c87 0 149 -12 194 -30v-63c-48 24 -120 40 -194 40c-147 0 -239 -99 -239 -319c0 -209 80 -310 226 -310zM407 -69c0 -88 -35 -137 -68 -172
h-52c30 44 43 88 43 172h77z" />
    <glyph glyph-name="Gdotaccent" unicode="&#x120;" horiz-adv-x="674" 
d="M365 39c61 0 120 10 160 27v236h-181v50h260v-313c-66 -34 -145 -53 -239 -53c-183 0 -311 103 -311 356c0 255 125 379 324 379c87 0 149 -12 194 -30v-63c-48 24 -120 40 -194 40c-147 0 -239 -99 -239 -319c0 -209 80 -310 226 -310zM419 815c0 -33 -19 -46 -46 -46
c-25 0 -43 10 -43 46s18 49 45 49c25 0 44 -9 44 -49z" />
    <glyph glyph-name="H" unicode="H" horiz-adv-x="686" 
d="M517 343h-348v-343h-80v706h80v-313h348v313h79v-706h-79v343z" />
    <glyph glyph-name="Hbar" unicode="&#x126;" horiz-adv-x="686" 
d="M169 0h-80v505h-75v50h75v151h80v-151h348v151h79v-151h75v-50h-75v-505h-79v343h-348v-343zM169 393h348v112h-348v-112z" />
    <glyph glyph-name="Hcircumflex" unicode="&#x124;" horiz-adv-x="686" 
d="M517 343h-348v-343h-80v706h80v-313h348v313h79v-706h-79v343zM530 766h-85l-97 80l-97 -80h-67l144 137h61z" />
    <glyph glyph-name="I" unicode="I" horiz-adv-x="258" 
d="M169 706v-706h-80v706h80z" />
    <glyph glyph-name="IJ" unicode="&#x132;" horiz-adv-x="640" 
d="M169 706v-706h-80v706h80zM259 2v63c33 -13 71 -21 106 -21c36 0 76 9 94 42c17 29 22 64 22 148v472h79v-481c0 -81 -8 -123 -27 -156c-27 -50 -80 -82 -163 -82c-45 0 -79 6 -111 15z" />
    <glyph glyph-name="Iacute" unicode="&#xcd;" horiz-adv-x="258" 
d="M169 706v-706h-80v706h80zM113 766h-68l125 138h119z" />
    <glyph glyph-name="Ibreve" unicode="&#x12c;" horiz-adv-x="258" 
d="M169 706v-706h-80v706h80zM-10 895h53c3 -52 37 -76 83 -76c49 0 89 24 93 76h52c-3 -82 -53 -132 -146 -132c-89 0 -135 50 -135 132z" />
    <glyph glyph-name="Icircumflex" unicode="&#xce;" horiz-adv-x="258" 
d="M169 706v-706h-80v706h80zM304 766h-85l-97 80l-97 -80h-67l144 137h61z" />
    <glyph glyph-name="Idieresis" unicode="&#xcf;" horiz-adv-x="258" 
d="M169 706v-706h-80v706h80zM81 815c0 -33 -19 -46 -46 -46c-25 0 -43 10 -43 46s18 49 45 49c25 0 44 -9 44 -49zM267 815c0 -33 -19 -46 -46 -46c-25 0 -44 10 -44 46s19 49 46 49c25 0 44 -9 44 -49z" />
    <glyph glyph-name="Idotaccent" unicode="&#x130;" horiz-adv-x="258" 
d="M169 706v-706h-80v706h80zM179 815c0 -33 -19 -46 -46 -46c-25 0 -43 10 -43 46s18 49 45 49c25 0 44 -9 44 -49z" />
    <glyph glyph-name="Igrave" unicode="&#xcc;" horiz-adv-x="258" 
d="M169 706v-706h-80v706h80zM217 766h-67l-176 138h118z" />
    <glyph glyph-name="Imacron" unicode="&#x12a;" horiz-adv-x="269" 
d="M169 706v-706h-80v706h80zM280 793h-301v58h301v-58z" />
    <glyph glyph-name="Iogonek" unicode="&#x12e;" horiz-adv-x="258" 
d="M169 706v-706h-8c-52 -37 -81 -75 -81 -137c0 -41 20 -64 50 -64c14 0 35 4 52 13l15 -34c-25 -15 -52 -22 -82 -22c-68 0 -104 40 -104 103c0 55 38 101 104 141h-26v706h80z" />
    <glyph glyph-name="Itilde" unicode="&#x128;" horiz-adv-x="258" 
d="M169 706v-706h-80v706h80zM2 768l-38 16c28 60 58 92 101 92c19 0 36 -7 64 -21l29 -15c17 -8 30 -10 40 -10c30 0 43 16 57 47l40 -13c-27 -68 -58 -96 -97 -96c-20 0 -37 5 -62 17l-31 15c-21 10 -34 15 -45 15c-22 0 -40 -12 -58 -47z" />
    <glyph glyph-name="J" unicode="J" horiz-adv-x="390" 
d="M5 2v63c33 -13 71 -21 106 -21c36 0 76 9 94 42c17 29 22 64 22 148v472h79v-481c0 -81 -8 -123 -27 -156c-27 -50 -80 -82 -163 -82c-45 0 -79 6 -111 15z" />
    <glyph glyph-name="Jcircumflex" unicode="&#x134;" horiz-adv-x="390" 
d="M5 2v63c33 -13 71 -21 106 -21c36 0 76 9 94 42c17 29 22 64 22 148v472h79v-481c0 -81 -8 -123 -27 -156c-27 -50 -80 -82 -163 -82c-45 0 -79 6 -111 15zM436 766h-85l-97 80l-97 -80h-67l144 137h61z" />
    <glyph glyph-name="K" unicode="K" horiz-adv-x="580" 
d="M169 0h-80v706h80v-332l302 332h86c-225 -239 -256 -270 -305 -318c42 -46 74 -83 334 -388h-103l-314 361v-361z" />
    <glyph glyph-name="Kcommaaccent" unicode="&#x136;" horiz-adv-x="580" 
d="M169 0h-80v706h80v-332l302 332h86c-225 -239 -256 -270 -305 -318c42 -46 74 -83 334 -388h-103l-314 361v-361zM349 -69c0 -88 -35 -137 -68 -172h-52c30 44 43 88 43 172h77z" />
    <glyph glyph-name="Kgreenlandic" horiz-adv-x="580" 
d="M169 0h-80v706h80v-332l302 332h86c-225 -239 -256 -270 -305 -318c42 -46 74 -83 334 -388h-103l-314 361v-361z" />
    <glyph glyph-name="L" unicode="L" horiz-adv-x="480" 
d="M169 706v-657h295v-49h-375v706h80z" />
    <glyph glyph-name="Lacute" unicode="&#x139;" horiz-adv-x="480" 
d="M169 706v-657h295v-49h-375v706h80zM151 766h-68l125 138h119z" />
    <glyph glyph-name="Lcaron" unicode="&#x13d;" horiz-adv-x="480" 
d="M169 706v-657h295v-49h-375v706h80zM350 706c0 -73 -34 -132 -68 -164h-49c29 43 38 97 38 164h79z" />
    <glyph glyph-name="Lcommaaccent" unicode="&#x13b;" horiz-adv-x="480" 
d="M169 706v-657h295v-49h-375v706h80zM318 -69c0 -88 -35 -137 -68 -172h-52c30 44 43 88 43 172h77z" />
    <glyph glyph-name="Ldot" unicode="&#x13f;" horiz-adv-x="480" 
d="M169 706v-657h295v-49h-375v706h80zM414 330c0 -36 -22 -54 -54 -54c-31 0 -53 16 -53 54s23 56 55 56c30 0 52 -17 52 -56z" />
    <glyph glyph-name="Lslash" unicode="&#x141;" horiz-adv-x="480" 
d="M169 706v-321l178 120v-60l-178 -120v-276h295v-49h-375v275l-78 -52v60l78 52v371h80z" />
    <glyph glyph-name="M" unicode="M" horiz-adv-x="846" 
d="M760 0h-84c-9 406 -9 501 -9 642c-35 -119 -58 -186 -215 -642h-67c-155 435 -176 491 -228 641c0 -149 -1 -253 -10 -641h-64c18 703 18 706 18 706h117c146 -410 173 -478 216 -599c32 107 58 187 199 599h111s0 -1 16 -706z" />
    <glyph glyph-name="N" unicode="N" horiz-adv-x="711" 
d="M622 0h-79c-300 468 -339 525 -393 614c3 -144 3 -303 3 -614h-64v706h92c270 -409 332 -507 380 -594c-3 143 -4 241 -4 594h65v-706z" />
    <glyph glyph-name="Nacute" unicode="&#x143;" horiz-adv-x="711" 
d="M622 0h-79c-300 468 -339 525 -393 614c3 -144 3 -303 3 -614h-64v706h92c270 -409 332 -507 380 -594c-3 143 -4 241 -4 594h65v-706zM351 766h-68l125 138h119z" />
    <glyph glyph-name="Ncaron" unicode="&#x147;" horiz-adv-x="711" 
d="M622 0h-79c-300 468 -339 525 -393 614c3 -144 3 -303 3 -614h-64v706h92c270 -409 332 -507 380 -594c-3 143 -4 241 -4 594h65v-706zM181 903h84l96 -80l97 80h69l-143 -137h-61z" />
    <glyph glyph-name="Ncommaaccent" unicode="&#x145;" horiz-adv-x="711" 
d="M622 0h-79c-300 468 -339 525 -393 614c3 -144 3 -303 3 -614h-64v706h92c270 -409 332 -507 380 -594c-3 143 -4 241 -4 594h65v-706zM401 -69c0 -88 -35 -137 -68 -172h-52c30 44 43 88 43 172h77z" />
    <glyph glyph-name="Ntilde" unicode="&#xd1;" horiz-adv-x="711" 
d="M622 0h-79c-300 468 -339 525 -393 614c3 -144 3 -303 3 -614h-64v706h92c270 -409 332 -507 380 -594c-3 143 -4 241 -4 594h65v-706zM237 768l-38 16c28 60 58 92 101 92c19 0 36 -7 64 -21l29 -15c17 -8 30 -10 40 -10c30 0 43 16 57 47l40 -13
c-27 -68 -58 -96 -97 -96c-20 0 -37 5 -62 17l-31 15c-21 10 -34 15 -45 15c-22 0 -40 -12 -58 -47z" />
    <glyph glyph-name="O" unicode="O" horiz-adv-x="697" 
d="M642 364c0 -253 -97 -378 -299 -378c-193 0 -288 121 -288 367c0 253 118 368 302 368c196 0 285 -119 285 -357zM558 356c0 212 -59 315 -205 315c-139 0 -214 -100 -214 -316c0 -232 78 -319 206 -319c143 0 213 97 213 320z" />
    <glyph glyph-name="OE" unicode="&#x152;" horiz-adv-x="966" 
d="M916 657h-320v-264h304v-50h-304v-294h330v-49h-410c-37 -6 -90 -11 -149 -11c-209 0 -312 94 -312 364c0 269 123 365 323 365c48 0 96 -4 138 -12h400v-49zM372 41c63 0 115 4 144 12v597c-52 12 -83 16 -138 16c-147 0 -239 -68 -239 -311c0 -232 77 -314 233 -314z
" />
    <glyph glyph-name="Oacute" unicode="&#xd3;" horiz-adv-x="697" 
d="M642 364c0 -253 -97 -378 -299 -378c-193 0 -288 121 -288 367c0 253 118 368 302 368c196 0 285 -119 285 -357zM558 356c0 212 -59 315 -205 315c-139 0 -214 -100 -214 -316c0 -232 78 -319 206 -319c143 0 213 97 213 320zM317 766h-68l125 138h119z" />
    <glyph glyph-name="Obreve" unicode="&#x14e;" horiz-adv-x="697" 
d="M642 364c0 -253 -97 -378 -299 -378c-193 0 -288 121 -288 367c0 253 118 368 302 368c196 0 285 -119 285 -357zM558 356c0 212 -59 315 -205 315c-139 0 -214 -100 -214 -316c0 -232 78 -319 206 -319c143 0 213 97 213 320zM207 895h53c3 -52 37 -76 83 -76
c49 0 89 24 93 76h52c-3 -82 -53 -132 -146 -132c-89 0 -135 50 -135 132z" />
    <glyph glyph-name="Ocircumflex" unicode="&#xd4;" horiz-adv-x="697" 
d="M642 364c0 -253 -97 -378 -299 -378c-193 0 -288 121 -288 367c0 253 118 368 302 368c196 0 285 -119 285 -357zM558 356c0 212 -59 315 -205 315c-139 0 -214 -100 -214 -316c0 -232 78 -319 206 -319c143 0 213 97 213 320zM510 766h-85l-97 80l-97 -80h-67l144 137
h61z" />
    <glyph glyph-name="Odieresis" unicode="&#xd6;" horiz-adv-x="697" 
d="M642 364c0 -253 -97 -378 -299 -378c-193 0 -288 121 -288 367c0 253 118 368 302 368c196 0 285 -119 285 -357zM558 356c0 212 -59 315 -205 315c-139 0 -214 -100 -214 -316c0 -232 78 -319 206 -319c143 0 213 97 213 320zM300 815c0 -33 -19 -46 -46 -46
c-25 0 -43 10 -43 46s18 49 45 49c25 0 44 -9 44 -49zM486 815c0 -33 -19 -46 -46 -46c-25 0 -44 10 -44 46s19 49 46 49c25 0 44 -9 44 -49z" />
    <glyph glyph-name="Ograve" unicode="&#xd2;" horiz-adv-x="697" 
d="M642 364c0 -253 -97 -378 -299 -378c-193 0 -288 121 -288 367c0 253 118 368 302 368c196 0 285 -119 285 -357zM558 356c0 212 -59 315 -205 315c-139 0 -214 -100 -214 -316c0 -232 78 -319 206 -319c143 0 213 97 213 320zM432 766h-67l-176 138h118z" />
    <glyph glyph-name="Ohungarumlaut" unicode="&#x150;" horiz-adv-x="697" 
d="M642 364c0 -253 -97 -378 -299 -378c-193 0 -288 121 -288 367c0 253 118 368 302 368c196 0 285 -119 285 -357zM558 356c0 212 -59 315 -205 315c-139 0 -214 -100 -214 -316c0 -232 78 -319 206 -319c143 0 213 97 213 320zM260 766h-57l121 140h117zM424 766h-56
l121 140h115z" />
    <glyph glyph-name="Omacron" unicode="&#x14c;" horiz-adv-x="697" 
d="M642 364c0 -253 -97 -378 -299 -378c-193 0 -288 121 -288 367c0 253 118 368 302 368c196 0 285 -119 285 -357zM558 356c0 212 -59 315 -205 315c-139 0 -214 -100 -214 -316c0 -232 78 -319 206 -319c143 0 213 97 213 320zM497 793h-301v58h301v-58z" />
    <glyph glyph-name="Omega" unicode="&#x2126;" horiz-adv-x="698" 
d="M306 0h-252v68h159c-113 58 -153 172 -153 302c0 266 143 351 294 351c174 0 285 -80 285 -350c0 -135 -51 -250 -160 -303h167v-68h-252v65c102 27 160 138 160 307c0 224 -77 297 -202 297c-113 0 -208 -70 -208 -298c0 -179 64 -281 162 -307v-64z" />
    <glyph glyph-name="Oslash" unicode="&#xd8;" horiz-adv-x="697" 
d="M144 -63l-48 24l51 93c-61 60 -92 159 -92 299c0 253 118 368 302 368c55 0 102 -10 141 -29l50 91l49 -24l-54 -97c67 -57 99 -157 99 -298c0 -253 -97 -378 -299 -378c-61 0 -111 12 -153 36zM558 356c0 109 -16 189 -51 241l-286 -519c33 -29 75 -42 124 -42
c143 0 213 97 213 320zM139 355c0 -106 16 -181 46 -232l283 515c-30 22 -68 33 -115 33c-139 0 -214 -100 -214 -316z" />
    <glyph glyph-name="Oslashacute" unicode="&#x1fe;" horiz-adv-x="697" 
d="M144 -63l-48 24l51 93c-61 60 -92 159 -92 299c0 253 118 368 302 368c55 0 102 -10 141 -29l50 91l49 -24l-54 -97c67 -57 99 -157 99 -298c0 -253 -97 -378 -299 -378c-61 0 -111 12 -153 36zM558 356c0 109 -16 189 -51 241l-286 -519c33 -29 75 -42 124 -42
c143 0 213 97 213 320zM139 355c0 -106 16 -181 46 -232l283 515c-30 22 -68 33 -115 33c-139 0 -214 -100 -214 -316zM356 766h-68l125 138h119z" />
    <glyph glyph-name="Otilde" unicode="&#xd5;" horiz-adv-x="697" 
d="M642 364c0 -253 -97 -378 -299 -378c-193 0 -288 121 -288 367c0 253 118 368 302 368c196 0 285 -119 285 -357zM558 356c0 212 -59 315 -205 315c-139 0 -214 -100 -214 -316c0 -232 78 -319 206 -319c143 0 213 97 213 320zM220 768l-38 16c28 60 58 92 101 92
c19 0 36 -7 64 -21l29 -15c17 -8 30 -10 40 -10c30 0 43 16 57 47l40 -13c-27 -68 -58 -96 -97 -96c-20 0 -37 5 -62 17l-31 15c-21 10 -34 15 -45 15c-22 0 -40 -12 -58 -47z" />
    <glyph glyph-name="P" unicode="P" horiz-adv-x="617" 
d="M434 317c-38 -9 -91 -14 -138 -14h-127v-303h-80v706h214c72 0 119 -6 159 -21c68 -26 102 -88 102 -169c0 -90 -37 -178 -130 -199zM169 354h129c61 0 102 10 127 25c37 22 55 71 55 134c0 48 -15 99 -56 123c-31 18 -74 21 -120 21h-135v-303z" />
    <glyph glyph-name="Q" unicode="Q" horiz-adv-x="697" 
d="M642 364c0 -145 -32 -248 -97 -310l150 -105l-45 -53l-165 118c-40 -18 -87 -28 -142 -28c-193 0 -288 121 -288 367c0 253 118 368 302 368c196 0 285 -119 285 -357zM558 356c0 212 -59 315 -205 315c-139 0 -214 -100 -214 -316c0 -232 78 -319 206 -319
c143 0 213 97 213 320z" />
    <glyph glyph-name="R" unicode="R" horiz-adv-x="629" 
d="M583 0h-82l-42 180c-15 62 -38 108 -69 127c-32 19 -64 22 -109 22h-112v-329h-80v706h212c70 0 123 -5 162 -21c62 -26 92 -77 92 -161c0 -94 -49 -150 -141 -170c66 -18 97 -53 123 -163zM169 379h125c58 0 100 7 124 23c35 22 53 63 53 120c0 55 -12 101 -54 119
c-27 12 -60 16 -113 16h-135v-278z" />
    <glyph glyph-name="Racute" unicode="&#x154;" horiz-adv-x="629" 
d="M583 0h-82l-42 180c-15 62 -38 108 -69 127c-32 19 -64 22 -109 22h-112v-329h-80v706h212c70 0 123 -5 162 -21c62 -26 92 -77 92 -161c0 -94 -49 -150 -141 -170c66 -18 97 -53 123 -163zM169 379h125c58 0 100 7 124 23c35 22 53 63 53 120c0 55 -12 101 -54 119
c-27 12 -60 16 -113 16h-135v-278zM297 766h-68l125 138h119z" />
    <glyph glyph-name="Rcaron" unicode="&#x158;" horiz-adv-x="629" 
d="M583 0h-82l-42 180c-15 62 -38 108 -69 127c-32 19 -64 22 -109 22h-112v-329h-80v706h212c70 0 123 -5 162 -21c62 -26 92 -77 92 -161c0 -94 -49 -150 -141 -170c66 -18 97 -53 123 -163zM169 379h125c58 0 100 7 124 23c35 22 53 63 53 120c0 55 -12 101 -54 119
c-27 12 -60 16 -113 16h-135v-278zM115 903h84l96 -80l97 80h69l-143 -137h-61z" />
    <glyph glyph-name="Rcommaaccent" unicode="&#x156;" horiz-adv-x="629" 
d="M583 0h-82l-42 180c-15 62 -38 108 -69 127c-32 19 -64 22 -109 22h-112v-329h-80v706h212c70 0 123 -5 162 -21c62 -26 92 -77 92 -161c0 -94 -49 -150 -141 -170c66 -18 97 -53 123 -163zM169 379h125c58 0 100 7 124 23c35 22 53 63 53 120c0 55 -12 101 -54 119
c-27 12 -60 16 -113 16h-135v-278zM374 -69c0 -88 -35 -137 -68 -172h-52c30 44 43 88 43 172h77z" />
    <glyph glyph-name="S" unicode="S" horiz-adv-x="522" 
d="M388 185c0 55 -35 95 -113 129l-68 29c-103 45 -149 98 -149 191c0 115 85 187 216 187c60 0 115 -11 160 -31v-67c-49 24 -93 44 -158 44c-93 0 -145 -40 -145 -126c0 -43 25 -85 108 -121l66 -29c122 -55 161 -111 161 -207c0 -115 -88 -198 -237 -198
c-62 0 -135 15 -182 37v69c53 -27 110 -52 183 -52c111 0 158 58 158 145z" />
    <glyph glyph-name="S_S" horiz-adv-x="1044" 
d="M388 185c0 55 -35 95 -113 129l-68 29c-103 45 -149 98 -149 191c0 115 85 187 216 187c60 0 115 -11 160 -31v-67c-49 24 -93 44 -158 44c-93 0 -145 -40 -145 -126c0 -43 25 -85 108 -121l66 -29c122 -55 161 -111 161 -207c0 -115 -88 -198 -237 -198
c-62 0 -135 15 -182 37v69c53 -27 110 -52 183 -52c111 0 158 58 158 145zM910 185c0 55 -35 95 -113 129l-68 29c-103 45 -149 98 -149 191c0 115 85 187 216 187c60 0 115 -11 160 -31v-67c-49 24 -93 44 -158 44c-93 0 -145 -40 -145 -126c0 -43 25 -85 108 -121l66 -29
c122 -55 161 -111 161 -207c0 -115 -88 -198 -237 -198c-62 0 -135 15 -182 37v69c53 -27 110 -52 183 -52c111 0 158 58 158 145z" />
    <glyph glyph-name="Sacute" unicode="&#x15a;" horiz-adv-x="522" 
d="M388 185c0 55 -35 95 -113 129l-68 29c-103 45 -149 98 -149 191c0 115 85 187 216 187c60 0 115 -11 160 -31v-67c-49 24 -93 44 -158 44c-93 0 -145 -40 -145 -126c0 -43 25 -85 108 -121l66 -29c122 -55 161 -111 161 -207c0 -115 -88 -198 -237 -198
c-62 0 -135 15 -182 37v69c53 -27 110 -52 183 -52c111 0 158 58 158 145zM269 766h-68l125 138h119z" />
    <glyph glyph-name="Scaron" unicode="&#x160;" horiz-adv-x="522" 
d="M388 185c0 55 -35 95 -113 129l-68 29c-103 45 -149 98 -149 191c0 115 85 187 216 187c60 0 115 -11 160 -31v-67c-49 24 -93 44 -158 44c-93 0 -145 -40 -145 -126c0 -43 25 -85 108 -121l66 -29c122 -55 161 -111 161 -207c0 -115 -88 -198 -237 -198
c-62 0 -135 15 -182 37v69c53 -27 110 -52 183 -52c111 0 158 58 158 145zM98 903h84l96 -80l97 80h69l-143 -137h-61z" />
    <glyph glyph-name="Scedilla" unicode="&#x15e;" horiz-adv-x="522" 
d="M165 -238v40c18 -4 34 -5 40 -5c45 0 59 21 59 53c0 33 -19 52 -55 52c-9 0 -22 -1 -33 -2l33 87c-57 2 -120 16 -162 36v69c53 -27 110 -52 183 -52c111 0 158 58 158 145c0 55 -35 95 -113 129l-68 29c-103 45 -149 98 -149 191c0 115 85 187 216 187
c60 0 115 -11 160 -31v-67c-49 24 -93 44 -158 44c-93 0 -145 -40 -145 -126c0 -43 25 -85 108 -121l66 -29c122 -55 161 -111 161 -207c0 -110 -81 -190 -218 -197l-19 -51c72 0 103 -28 103 -83c0 -65 -45 -95 -121 -95c-15 0 -36 2 -46 4z" />
    <glyph glyph-name="Scircumflex" unicode="&#x15c;" horiz-adv-x="522" 
d="M388 185c0 55 -35 95 -113 129l-68 29c-103 45 -149 98 -149 191c0 115 85 187 216 187c60 0 115 -11 160 -31v-67c-49 24 -93 44 -158 44c-93 0 -145 -40 -145 -126c0 -43 25 -85 108 -121l66 -29c122 -55 161 -111 161 -207c0 -115 -88 -198 -237 -198
c-62 0 -135 15 -182 37v69c53 -27 110 -52 183 -52c111 0 158 58 158 145zM443 766h-85l-97 80l-97 -80h-67l144 137h61z" />
    <glyph glyph-name="T" unicode="T" horiz-adv-x="571" 
d="M549 706v-49h-227v-657h-80v657h-220v49h527z" />
    <glyph glyph-name="Tbar" unicode="&#x166;" horiz-adv-x="571" 
d="M502 375h-180v-375h-80v375h-180v50h180v232h-220v49h527v-49h-227v-232h180v-50z" />
    <glyph glyph-name="Tcaron" unicode="&#x164;" horiz-adv-x="571" 
d="M549 706v-49h-227v-657h-80v657h-220v49h527zM109 903h84l96 -80l97 80h69l-143 -137h-61z" />
    <glyph glyph-name="Thorn" unicode="&#xde;" horiz-adv-x="617" 
d="M431 175c-39 -9 -91 -13 -138 -13h-124v-162h-80v706h80v-139h133c68 0 122 -6 162 -25c65 -30 100 -92 100 -172c0 -91 -37 -173 -133 -195zM169 214h131c61 0 101 6 126 22c36 22 54 71 54 133c0 48 -14 103 -55 126c-30 18 -72 21 -119 21h-137v-302z" />
    <glyph glyph-name="U" unicode="U" horiz-adv-x="701" 
d="M614 706v-420c0 -106 -8 -152 -33 -197c-35 -66 -119 -104 -231 -104c-104 0 -199 32 -237 118c-21 47 -26 107 -26 181v422h80v-420c0 -74 7 -121 19 -155c20 -58 83 -91 169 -91c54 0 109 11 136 37c37 34 51 83 51 204v425h72z" />
    <glyph glyph-name="Uacute" unicode="&#xda;" horiz-adv-x="701" 
d="M614 706v-420c0 -106 -8 -152 -33 -197c-35 -66 -119 -104 -231 -104c-104 0 -199 32 -237 118c-21 47 -26 107 -26 181v422h80v-420c0 -74 7 -121 19 -155c20 -58 83 -91 169 -91c54 0 109 11 136 37c37 34 51 83 51 204v425h72zM336 766h-68l125 138h119z" />
    <glyph glyph-name="Ubreve" unicode="&#x16c;" horiz-adv-x="701" 
d="M614 706v-420c0 -106 -8 -152 -33 -197c-35 -66 -119 -104 -231 -104c-104 0 -199 32 -237 118c-21 47 -26 107 -26 181v422h80v-420c0 -74 7 -121 19 -155c20 -58 83 -91 169 -91c54 0 109 11 136 37c37 34 51 83 51 204v425h72zM215 895h53c3 -52 37 -76 83 -76
c49 0 89 24 93 76h52c-3 -82 -53 -132 -146 -132c-89 0 -135 50 -135 132z" />
    <glyph glyph-name="Ucircumflex" unicode="&#xdb;" horiz-adv-x="701" 
d="M614 706v-420c0 -106 -8 -152 -33 -197c-35 -66 -119 -104 -231 -104c-104 0 -199 32 -237 118c-21 47 -26 107 -26 181v422h80v-420c0 -74 7 -121 19 -155c20 -58 83 -91 169 -91c54 0 109 11 136 37c37 34 51 83 51 204v425h72zM529 766h-85l-97 80l-97 -80h-67
l144 137h61z" />
    <glyph glyph-name="Udieresis" unicode="&#xdc;" horiz-adv-x="701" 
d="M614 706v-420c0 -106 -8 -152 -33 -197c-35 -66 -119 -104 -231 -104c-104 0 -199 32 -237 118c-21 47 -26 107 -26 181v422h80v-420c0 -74 7 -121 19 -155c20 -58 83 -91 169 -91c54 0 109 11 136 37c37 34 51 83 51 204v425h72zM303 815c0 -33 -19 -46 -46 -46
c-25 0 -43 10 -43 46s18 49 45 49c25 0 44 -9 44 -49zM489 815c0 -33 -19 -46 -46 -46c-25 0 -44 10 -44 46s19 49 46 49c25 0 44 -9 44 -49z" />
    <glyph glyph-name="Ugrave" unicode="&#xd9;" horiz-adv-x="701" 
d="M614 706v-420c0 -106 -8 -152 -33 -197c-35 -66 -119 -104 -231 -104c-104 0 -199 32 -237 118c-21 47 -26 107 -26 181v422h80v-420c0 -74 7 -121 19 -155c20 -58 83 -91 169 -91c54 0 109 11 136 37c37 34 51 83 51 204v425h72zM431 766h-67l-176 138h118z" />
    <glyph glyph-name="Uhungarumlaut" unicode="&#x170;" horiz-adv-x="701" 
d="M614 706v-420c0 -106 -8 -152 -33 -197c-35 -66 -119 -104 -231 -104c-104 0 -199 32 -237 118c-21 47 -26 107 -26 181v422h80v-420c0 -74 7 -121 19 -155c20 -58 83 -91 169 -91c54 0 109 11 136 37c37 34 51 83 51 204v425h72zM265 766h-57l121 140h117zM429 766h-56
l121 140h115z" />
    <glyph glyph-name="Umacron" unicode="&#x16a;" horiz-adv-x="701" 
d="M614 706v-420c0 -106 -8 -152 -33 -197c-35 -66 -119 -104 -231 -104c-104 0 -199 32 -237 118c-21 47 -26 107 -26 181v422h80v-420c0 -74 7 -121 19 -155c20 -58 83 -91 169 -91c54 0 109 11 136 37c37 34 51 83 51 204v425h72zM502 793h-301v58h301v-58z" />
    <glyph glyph-name="Uogonek" unicode="&#x172;" horiz-adv-x="701" 
d="M614 706v-420c0 -106 -8 -152 -33 -197c-29 -55 -92 -90 -176 -100c-42 -34 -65 -70 -65 -126c0 -41 20 -64 50 -64c14 0 35 4 52 13l15 -34c-25 -15 -52 -22 -82 -22c-68 0 -104 40 -104 103c0 48 30 89 79 126c-104 0 -199 32 -237 118c-21 47 -26 107 -26 181v422h80
v-420c0 -74 7 -121 19 -155c20 -58 83 -91 169 -91c54 0 109 11 136 37c37 34 51 83 51 204v425h72z" />
    <glyph glyph-name="Uring" unicode="&#x16e;" horiz-adv-x="701" 
d="M614 706v-420c0 -106 -8 -152 -33 -197c-35 -66 -119 -104 -231 -104c-104 0 -199 32 -237 118c-21 47 -26 107 -26 181v422h80v-420c0 -74 7 -121 19 -155c20 -58 83 -91 169 -91c54 0 109 11 136 37c37 34 51 83 51 204v425h72zM359 948c53 0 97 -31 97 -95
c0 -65 -44 -102 -99 -102c-53 0 -98 34 -98 99c0 63 50 98 100 98zM357 914c-29 0 -52 -20 -52 -64c0 -47 22 -66 54 -66c31 0 52 21 52 68c0 43 -23 62 -54 62z" />
    <glyph glyph-name="Utilde" unicode="&#x168;" horiz-adv-x="701" 
d="M614 706v-420c0 -106 -8 -152 -33 -197c-35 -66 -119 -104 -231 -104c-104 0 -199 32 -237 118c-21 47 -26 107 -26 181v422h80v-420c0 -74 7 -121 19 -155c20 -58 83 -91 169 -91c54 0 109 11 136 37c37 34 51 83 51 204v425h72zM230 768l-38 16c28 60 58 92 101 92
c19 0 36 -7 64 -21l29 -15c17 -8 30 -10 40 -10c30 0 43 16 57 47l40 -13c-27 -68 -58 -96 -97 -96c-20 0 -37 5 -62 17l-31 15c-21 10 -34 15 -45 15c-22 0 -40 -12 -58 -47z" />
    <glyph glyph-name="V" unicode="V" horiz-adv-x="611" 
d="M341 0h-79l-242 706h90c154 -469 168 -516 199 -618c32 101 53 161 205 618h81z" />
    <glyph glyph-name="W" unicode="W" horiz-adv-x="934" 
d="M725 0h-85c-123 438 -147 526 -168 602c-19 -74 -44 -161 -177 -602h-79l-182 706h89c88 -372 119 -507 140 -607c32 119 61 220 174 607h81c108 -389 146 -524 167 -609c23 94 52 225 145 609h81z" />
    <glyph glyph-name="Wacute" unicode="&#x1e82;" horiz-adv-x="934" 
d="M725 0h-85c-123 438 -147 526 -168 602c-19 -74 -44 -161 -177 -602h-79l-182 706h89c88 -372 119 -507 140 -607c32 119 61 220 174 607h81c108 -389 146 -524 167 -609c23 94 52 225 145 609h81zM470 766h-68l125 138h119z" />
    <glyph glyph-name="Wcircumflex" unicode="&#x174;" horiz-adv-x="934" 
d="M725 0h-85c-123 438 -147 526 -168 602c-19 -74 -44 -161 -177 -602h-79l-182 706h89c88 -372 119 -507 140 -607c32 119 61 220 174 607h81c108 -389 146 -524 167 -609c23 94 52 225 145 609h81zM646 766h-85l-97 80l-97 -80h-67l144 137h61z" />
    <glyph glyph-name="Wdieresis" unicode="&#x1e84;" horiz-adv-x="934" 
d="M725 0h-85c-123 438 -147 526 -168 602c-19 -74 -44 -161 -177 -602h-79l-182 706h89c88 -372 119 -507 140 -607c32 119 61 220 174 607h81c108 -389 146 -524 167 -609c23 94 52 225 145 609h81zM424 815c0 -33 -19 -46 -46 -46c-25 0 -43 10 -43 46s18 49 45 49
c25 0 44 -9 44 -49zM610 815c0 -33 -19 -46 -46 -46c-25 0 -44 10 -44 46s19 49 46 49c25 0 44 -9 44 -49z" />
    <glyph glyph-name="Wgrave" unicode="&#x1e80;" horiz-adv-x="934" 
d="M725 0h-85c-123 438 -147 526 -168 602c-19 -74 -44 -161 -177 -602h-79l-182 706h89c88 -372 119 -507 140 -607c32 119 61 220 174 607h81c108 -389 146 -524 167 -609c23 94 52 225 145 609h81zM544 766h-67l-176 138h118z" />
    <glyph glyph-name="X" unicode="X" horiz-adv-x="642" 
d="M614 0h-103c-138 220 -166 264 -194 310c-29 -45 -66 -101 -195 -310h-94l247 364l-221 342h101c124 -202 145 -234 172 -277c23 38 53 82 175 277h90l-223 -331z" />
    <glyph glyph-name="Y" unicode="Y" horiz-adv-x="620" 
d="M347 0h-80v290l-252 416h99c140 -242 169 -293 201 -352c34 59 57 101 202 352h92l-262 -416v-290z" />
    <glyph glyph-name="Yacute" unicode="&#xdd;" horiz-adv-x="620" 
d="M347 0h-80v290l-252 416h99c140 -242 169 -293 201 -352c34 59 57 101 202 352h92l-262 -416v-290zM296 766h-68l125 138h119z" />
    <glyph glyph-name="Ycircumflex" unicode="&#x176;" horiz-adv-x="620" 
d="M347 0h-80v290l-252 416h99c140 -242 169 -293 201 -352c34 59 57 101 202 352h92l-262 -416v-290zM485 766h-85l-97 80l-97 -80h-67l144 137h61z" />
    <glyph glyph-name="Ydieresis" unicode="&#x178;" horiz-adv-x="620" 
d="M347 0h-80v290l-252 416h99c140 -242 169 -293 201 -352c34 59 57 101 202 352h92l-262 -416v-290zM263 815c0 -33 -19 -46 -46 -46c-25 0 -43 10 -43 46s18 49 45 49c25 0 44 -9 44 -49zM449 815c0 -33 -19 -46 -46 -46c-25 0 -44 10 -44 46s19 49 46 49
c25 0 44 -9 44 -49z" />
    <glyph glyph-name="Ygrave" unicode="&#x1ef2;" horiz-adv-x="620" 
d="M347 0h-80v290l-252 416h99c140 -242 169 -293 201 -352c34 59 57 101 202 352h92l-262 -416v-290zM399 766h-67l-176 138h118z" />
    <glyph glyph-name="Z" unicode="Z" horiz-adv-x="584" 
d="M547 0h-518v42c330 492 370 548 412 611h-380v53h481v-45c-318 -470 -359 -528 -413 -608h418v-53z" />
    <glyph glyph-name="Zacute" unicode="&#x179;" horiz-adv-x="584" 
d="M547 0h-518v42c330 492 370 548 412 611h-380v53h481v-45c-318 -470 -359 -528 -413 -608h418v-53zM321 766h-68l125 138h119z" />
    <glyph glyph-name="Zcaron" unicode="&#x17d;" horiz-adv-x="584" 
d="M547 0h-518v42c330 492 370 548 412 611h-380v53h481v-45c-318 -470 -359 -528 -413 -608h418v-53zM131 903h84l96 -80l97 80h69l-143 -137h-61z" />
    <glyph glyph-name="Zdotaccent" unicode="&#x17b;" horiz-adv-x="584" 
d="M547 0h-518v42c330 492 370 548 412 611h-380v53h481v-45c-318 -470 -359 -528 -413 -608h418v-53zM355 815c0 -33 -19 -46 -46 -46c-25 0 -43 10 -43 46s18 49 45 49c25 0 44 -9 44 -49z" />
    <glyph glyph-name="a" unicode="a" horiz-adv-x="514" 
d="M373 0c-5 17 -11 51 -12 70c-26 -47 -73 -82 -153 -82c-102 0 -161 65 -161 154c0 98 74 153 249 153c19 0 45 -1 63 -2v45c0 37 -6 72 -23 94s-46 32 -83 32c-42 0 -96 -7 -158 -41v58c53 25 118 36 167 36c50 0 100 -8 131 -39c26 -27 40 -60 40 -132v-235
c0 -34 1 -73 13 -111h-73zM359 252c-14 1 -33 1 -49 1c-144 0 -187 -49 -187 -109c0 -64 36 -105 100 -105c47 0 86 22 112 54c19 22 24 55 24 88v71z" />
    <glyph glyph-name="a.sc" horiz-adv-x="496" 
d="M405 0l-64 174h-196l-67 -174h-65l213 526h67l193 -526h-81zM162 219h162c-54 152 -64 184 -79 229c-14 -42 -21 -61 -83 -229z" />
    <glyph glyph-name="aacute" unicode="&#xe1;" horiz-adv-x="514" 
d="M373 0c-5 17 -11 51 -12 70c-26 -47 -73 -82 -153 -82c-102 0 -161 65 -161 154c0 98 74 153 249 153c19 0 45 -1 63 -2v45c0 37 -6 72 -23 94s-46 32 -83 32c-42 0 -96 -7 -158 -41v58c53 25 118 36 167 36c50 0 100 -8 131 -39c26 -27 40 -60 40 -132v-235
c0 -34 1 -73 13 -111h-73zM359 252c-14 1 -33 1 -49 1c-144 0 -187 -49 -187 -109c0 -64 36 -105 100 -105c47 0 86 22 112 54c19 22 24 55 24 88v71zM255 586h-60l106 137h107z" />
    <glyph glyph-name="aacute.sc" horiz-adv-x="496" 
d="M405 0l-64 174h-196l-67 -174h-65l213 526h67l193 -526h-81zM162 219h162c-54 152 -64 184 -79 229c-14 -42 -21 -61 -83 -229zM250 596h-60l106 137h107z" />
    <glyph glyph-name="abreve" unicode="&#x103;" horiz-adv-x="514" 
d="M373 0c-5 17 -11 51 -12 70c-26 -47 -73 -82 -153 -82c-102 0 -161 65 -161 154c0 98 74 153 249 153c19 0 45 -1 63 -2v45c0 37 -6 72 -23 94s-46 32 -83 32c-42 0 -96 -7 -158 -41v58c53 25 118 36 167 36c50 0 100 -8 131 -39c26 -27 40 -60 40 -132v-235
c0 -34 1 -73 13 -111h-73zM359 252c-14 1 -33 1 -49 1c-144 0 -187 -49 -187 -109c0 -64 36 -105 100 -105c47 0 86 22 112 54c19 22 24 55 24 88v71zM142 722h51c0 -51 25 -82 74 -82c47 0 80 26 80 82h48c0 -79 -39 -141 -132 -141c-88 0 -121 57 -121 141z" />
    <glyph glyph-name="abreve.sc" horiz-adv-x="496" 
d="M405 0l-64 174h-196l-67 -174h-65l213 526h67l193 -526h-81zM162 219h162c-54 152 -64 184 -79 229c-14 -42 -21 -61 -83 -229zM133 733h51c0 -53 25 -83 74 -83c47 0 80 26 80 83h48c0 -80 -39 -142 -132 -142c-88 0 -121 56 -121 142z" />
    <glyph glyph-name="acircumflex" unicode="&#xe2;" horiz-adv-x="514" 
d="M373 0c-5 17 -11 51 -12 70c-26 -47 -73 -82 -153 -82c-102 0 -161 65 -161 154c0 98 74 153 249 153c19 0 45 -1 63 -2v45c0 37 -6 72 -23 94s-46 32 -83 32c-42 0 -96 -7 -158 -41v58c53 25 118 36 167 36c50 0 100 -8 131 -39c26 -27 40 -60 40 -132v-235
c0 -34 1 -73 13 -111h-73zM359 252c-14 1 -33 1 -49 1c-144 0 -187 -49 -187 -109c0 -64 36 -105 100 -105c47 0 86 22 112 54c19 22 24 55 24 88v71zM411 586h-69l-84 101l-85 -101h-57l114 152h67z" />
    <glyph glyph-name="acircumflex.sc" horiz-adv-x="496" 
d="M405 0l-64 174h-196l-67 -174h-65l213 526h67l193 -526h-81zM162 219h162c-54 152 -64 184 -79 229c-14 -42 -21 -61 -83 -229zM405 596h-69l-84 101l-85 -101h-57l114 152h67z" />
    <glyph glyph-name="acute" unicode="&#xb4;" 
d="M63 586h-60l106 137h107z" />
    <glyph glyph-name="acute.cap" 
d="M57 766h-68l125 138h119z" />
    <glyph glyph-name="acute.sc" 
d="M63 596h-60l106 137h107z" />
    <glyph glyph-name="adieresis" unicode="&#xe4;" horiz-adv-x="514" 
d="M373 0c-5 17 -11 51 -12 70c-26 -47 -73 -82 -153 -82c-102 0 -161 65 -161 154c0 98 74 153 249 153c19 0 45 -1 63 -2v45c0 37 -6 72 -23 94s-46 32 -83 32c-42 0 -96 -7 -158 -41v58c53 25 118 36 167 36c50 0 100 -8 131 -39c26 -27 40 -60 40 -132v-235
c0 -34 1 -73 13 -111h-73zM359 252c-14 1 -33 1 -49 1c-144 0 -187 -49 -187 -109c0 -64 36 -105 100 -105c47 0 86 22 112 54c19 22 24 55 24 88v71zM214 659c0 -34 -19 -46 -46 -46c-25 0 -44 9 -44 46c0 36 19 48 46 48c25 0 44 -8 44 -48zM390 659
c0 -34 -18 -46 -45 -46c-26 0 -44 9 -44 46c0 36 18 48 45 48c26 0 44 -8 44 -48z" />
    <glyph glyph-name="adieresis.sc" horiz-adv-x="496" 
d="M405 0l-64 174h-196l-67 -174h-65l213 526h67l193 -526h-81zM162 219h162c-54 152 -64 184 -79 229c-14 -42 -21 -61 -83 -229zM216 671c0 -34 -19 -46 -46 -46c-25 0 -44 9 -44 46c0 36 19 48 46 48c25 0 44 -8 44 -48zM392 671c0 -34 -18 -46 -45 -46
c-26 0 -44 9 -44 46c0 36 18 48 45 48c26 0 44 -8 44 -48z" />
    <glyph glyph-name="ae" unicode="&#xe6;" horiz-adv-x="804" 
d="M435 253c1 -148 58 -216 159 -216c73 0 117 24 154 44v-56c-34 -19 -90 -38 -166 -38c-92 0 -151 32 -188 102c-39 -60 -104 -101 -186 -101c-105 0 -165 60 -165 148c0 120 104 158 280 158h38v51c0 31 -7 57 -15 73c-18 38 -54 48 -92 48c-39 0 -102 -3 -163 -40v49
c48 31 122 42 169 42c68 0 130 -23 153 -90c33 53 91 90 161 90c94 0 140 -42 169 -100c18 -38 25 -97 25 -148v-16h-333zM361 253h-35c-158 0 -206 -45 -206 -115c0 -64 44 -98 106 -98s124 37 145 102c-5 37 -9 81 -10 111zM685 295c0 110 -20 178 -114 178
c-62 0 -131 -41 -134 -178h248z" />
    <glyph glyph-name="ae.sc" horiz-adv-x="748" 
d="M703 478h-251v-179h238v-47h-238v-204h260v-48h-336v179h-180l-114 -179h-76l351 526h346v-48zM376 466c-29 -49 -42 -68 -151 -242h151v242z" />
    <glyph glyph-name="aeacute" unicode="&#x1fd;" horiz-adv-x="804" 
d="M435 253c1 -148 58 -216 159 -216c73 0 117 24 154 44v-56c-34 -19 -90 -38 -166 -38c-92 0 -151 32 -188 102c-39 -60 -104 -101 -186 -101c-105 0 -165 60 -165 148c0 120 104 158 280 158h38v51c0 31 -7 57 -15 73c-18 38 -54 48 -92 48c-39 0 -102 -3 -163 -40v49
c48 31 122 42 169 42c68 0 130 -23 153 -90c33 53 91 90 161 90c94 0 140 -42 169 -100c18 -38 25 -97 25 -148v-16h-333zM361 253h-35c-158 0 -206 -45 -206 -115c0 -64 44 -98 106 -98s124 37 145 102c-5 37 -9 81 -10 111zM685 295c0 110 -20 178 -114 178
c-62 0 -131 -41 -134 -178h248zM432 586h-60l106 137h107z" />
    <glyph glyph-name="aeacute.sc" horiz-adv-x="748" 
d="M703 478h-251v-179h238v-47h-238v-204h260v-48h-336v179h-180l-114 -179h-76l351 526h346v-48zM376 466c-29 -49 -42 -68 -151 -242h151v242zM493 596h-60l106 137h107z" />
    <glyph glyph-name="afii61289" unicode="&#x2113;" horiz-adv-x="468" 
d="M430 78v-57c-46 -23 -91 -35 -137 -35c-110 0 -170 63 -182 188c-14 -11 -33 -26 -50 -37l-26 39c22 14 51 32 72 47c-4 56 -5 106 -5 132c0 96 9 167 29 221c28 76 83 114 152 114c81 0 132 -42 132 -131c0 -142 -122 -256 -227 -342c7 -113 38 -182 116 -182
c39 0 84 16 126 43zM181 272c93 92 169 191 169 289c0 61 -32 79 -66 79c-27 0 -59 -15 -78 -61c-20 -48 -27 -111 -27 -213c0 -21 0 -54 2 -94z" />
    <glyph glyph-name="agrave" unicode="&#xe0;" horiz-adv-x="514" 
d="M373 0c-5 17 -11 51 -12 70c-26 -47 -73 -82 -153 -82c-102 0 -161 65 -161 154c0 98 74 153 249 153c19 0 45 -1 63 -2v45c0 37 -6 72 -23 94s-46 32 -83 32c-42 0 -96 -7 -158 -41v58c53 25 118 36 167 36c50 0 100 -8 131 -39c26 -27 40 -60 40 -132v-235
c0 -34 1 -73 13 -111h-73zM359 252c-14 1 -33 1 -49 1c-144 0 -187 -49 -187 -109c0 -64 36 -105 100 -105c47 0 86 22 112 54c19 22 24 55 24 88v71zM330 586h-67l-144 137h107z" />
    <glyph glyph-name="agrave.sc" horiz-adv-x="496" 
d="M405 0l-64 174h-196l-67 -174h-65l213 526h67l193 -526h-81zM162 219h162c-54 152 -64 184 -79 229c-14 -42 -21 -61 -83 -229zM318 596h-67l-144 137h107z" />
    <glyph glyph-name="amacron" unicode="&#x101;" horiz-adv-x="514" 
d="M373 0c-5 17 -11 51 -12 70c-26 -47 -73 -82 -153 -82c-102 0 -161 65 -161 154c0 98 74 153 249 153c19 0 45 -1 63 -2v45c0 37 -6 72 -23 94s-46 32 -83 32c-42 0 -96 -7 -158 -41v58c53 25 118 36 167 36c50 0 100 -8 131 -39c26 -27 40 -60 40 -132v-235
c0 -34 1 -73 13 -111h-73zM359 252c-14 1 -33 1 -49 1c-144 0 -187 -49 -187 -109c0 -64 36 -105 100 -105c47 0 86 22 112 54c19 22 24 55 24 88v71zM406 605h-281v62h281v-62z" />
    <glyph glyph-name="amacron.sc" horiz-adv-x="496" 
d="M405 0l-64 174h-196l-67 -174h-65l213 526h67l193 -526h-81zM162 219h162c-54 152 -64 184 -79 229c-14 -42 -21 -61 -83 -229zM402 618h-281v62h281v-62z" />
    <glyph glyph-name="ampersand" unicode="&#x26;" horiz-adv-x="777" 
d="M736 525l49 -48c-29 -40 -90 -87 -201 -138c24 -29 40 -74 40 -105c0 -190 -146 -248 -300 -248c-145 0 -271 57 -271 205c0 119 67 164 143 187c-74 27 -107 76 -107 148c0 131 105 186 234 186c67 0 118 -10 155 -25v-63c-33 19 -94 37 -151 37
c-104 0 -157 -45 -157 -135c0 -89 69 -130 131 -130h22v-48h-26c-94 0 -160 -46 -160 -154c0 -124 101 -158 188 -158c116 0 227 36 227 202c0 21 -5 57 -16 83c-40 -16 -107 -37 -162 -48l-14 53c234 64 324 137 376 199z" />
    <glyph glyph-name="ampersand.alt" horiz-adv-x="673" 
d="M547 383h78c0 -139 -38 -211 -68 -256l117 -127h-109l-57 63c-52 -47 -113 -76 -215 -76c-152 0 -247 80 -247 198c0 95 50 153 163 207c-45 49 -80 102 -80 161c0 83 62 151 184 151c94 0 162 -44 162 -128c0 -97 -69 -137 -160 -187l195 -218c17 34 37 86 37 212z
M467 104l-226 250c-84 -47 -114 -92 -114 -169c0 -83 65 -147 172 -147c73 0 135 21 168 66zM409 571c0 56 -44 84 -99 84c-70 0 -105 -39 -105 -94c0 -43 32 -87 77 -135c84 48 127 76 127 145z" />
    <glyph glyph-name="ampersand.sc" horiz-adv-x="627" 
d="M576 402l55 -36c-25 -41 -61 -70 -155 -114c18 -18 31 -45 31 -75c0 -141 -114 -189 -242 -189c-112 0 -212 43 -212 155c0 87 59 125 123 141c-61 17 -93 58 -93 113c0 99 81 141 181 141c50 0 90 -6 119 -17v-53c-25 14 -72 26 -116 26c-71 0 -108 -39 -108 -100
c0 -65 41 -92 88 -92h17v-46h-21c-68 0 -109 -38 -109 -111c0 -78 62 -113 131 -113c100 0 173 29 173 143c0 21 -6 44 -14 56c-31 -13 -68 -26 -114 -39l-14 53c186 49 249 109 280 157z" />
    <glyph glyph-name="ampersand.scalt" horiz-adv-x="592" 
d="M466 289h70c0 -106 -25 -155 -49 -189l102 -100h-111l-42 43c-44 -32 -93 -56 -171 -56c-132 0 -212 59 -212 153c0 73 39 121 132 157c-38 38 -60 76 -60 120c0 63 43 121 155 121c79 0 136 -36 136 -101c0 -75 -47 -104 -129 -139l159 -164c14 27 20 63 20 155zM402 74
l-192 195c-67 -36 -78 -78 -78 -125c0 -63 50 -112 138 -112c60 0 97 11 132 42zM352 434c0 33 -25 62 -75 62c-53 0 -78 -27 -78 -67c0 -34 19 -66 61 -102c74 34 92 64 92 107z" />
    <glyph glyph-name="aogonek" unicode="&#x105;" horiz-adv-x="514" 
d="M379 0h-6c-5 17 -11 54 -12 73c-27 -46 -74 -85 -153 -85c-102 0 -161 65 -161 154c0 98 74 153 249 153c19 0 45 -1 63 -2v45c0 37 -6 72 -23 94s-46 32 -83 32c-42 0 -96 -7 -158 -41v58c53 25 118 36 167 36c50 0 100 -8 131 -39c26 -27 40 -60 40 -132v-235
c0 -34 1 -73 13 -111h-27c-49 -35 -77 -70 -77 -129c0 -39 22 -58 49 -58c17 0 35 4 50 9l14 -30c-24 -14 -52 -21 -79 -21c-65 0 -100 37 -100 96c0 52 40 95 103 133zM359 252c-14 1 -33 1 -49 1c-144 0 -187 -49 -187 -109c0 -64 36 -105 100 -105c47 0 86 22 112 54
c19 22 24 55 24 88v71z" />
    <glyph glyph-name="aogonek.sc" horiz-adv-x="496" 
d="M405 0l-64 174h-196l-67 -174h-65l213 526h67l193 -526h-31c-52 -38 -81 -74 -81 -138c0 -40 20 -63 50 -63c14 0 35 4 52 12l15 -33c-25 -15 -52 -22 -82 -22c-68 0 -104 40 -104 103c0 55 38 101 104 141h-4zM162 219h162c-54 152 -64 184 -79 229
c-14 -42 -21 -61 -83 -229z" />
    <glyph glyph-name="approxequal" unicode="&#x2248;" horiz-adv-x="741" 
d="M136 307l-48 35c55 77 109 109 165 109c33 0 60 -4 142 -50c43 -25 66 -33 91 -33c41 0 76 19 118 84l49 -39c-50 -72 -100 -113 -167 -113c-35 0 -70 12 -120 40c-69 39 -94 46 -113 46c-41 0 -76 -20 -117 -79zM136 117l-48 35c55 77 109 109 165 109
c33 0 60 -4 142 -50c43 -25 66 -33 91 -33c41 0 76 19 118 84l49 -39c-50 -72 -100 -113 -167 -113c-35 0 -70 12 -120 40c-69 39 -94 46 -113 46c-41 0 -76 -20 -117 -79z" />
    <glyph glyph-name="aring" unicode="&#xe5;" horiz-adv-x="514" 
d="M373 0c-5 17 -11 51 -12 70c-26 -47 -73 -82 -153 -82c-102 0 -161 65 -161 154c0 98 74 153 249 153c19 0 45 -1 63 -2v45c0 37 -6 72 -23 94s-46 32 -83 32c-42 0 -96 -7 -158 -41v58c53 25 118 36 167 36c50 0 100 -8 131 -39c26 -27 40 -60 40 -132v-235
c0 -34 1 -73 13 -111h-73zM359 252c-14 1 -33 1 -49 1c-144 0 -187 -49 -187 -109c0 -64 36 -105 100 -105c47 0 86 22 112 54c19 22 24 55 24 88v71zM259 771c55 0 100 -28 100 -98c0 -73 -45 -106 -102 -106c-55 0 -101 31 -101 103c0 69 51 101 103 101zM257 738
c-31 0 -56 -18 -56 -68c0 -51 25 -70 58 -70s56 19 56 72c0 49 -24 66 -58 66z" />
    <glyph glyph-name="aring.sc" horiz-adv-x="496" 
d="M405 0l-64 174h-196l-67 -174h-65l213 526h67l193 -526h-81zM162 219h162c-54 152 -64 184 -79 229c-14 -42 -21 -61 -83 -229zM262 781c55 0 100 -28 100 -98c0 -73 -45 -106 -102 -106c-55 0 -101 31 -101 103c0 69 51 101 103 101zM260 748c-31 0 -56 -18 -56 -68
c0 -51 25 -70 58 -70s56 19 56 72c0 49 -24 66 -58 66z" />
    <glyph glyph-name="aringacute" unicode="&#x1fb;" horiz-adv-x="514" 
d="M373 0c-5 17 -11 51 -12 70c-26 -47 -73 -82 -153 -82c-102 0 -161 65 -161 154c0 98 74 153 249 153c19 0 45 -1 63 -2v45c0 37 -6 72 -23 94s-46 32 -83 32c-42 0 -96 -7 -158 -41v58c53 25 118 36 167 36c50 0 100 -8 131 -39c26 -27 40 -60 40 -132v-235
c0 -34 1 -73 13 -111h-73zM359 252c-14 1 -33 1 -49 1c-144 0 -187 -49 -187 -109c0 -64 36 -105 100 -105c47 0 86 22 112 54c19 22 24 55 24 88v71zM259 771c55 0 100 -28 100 -98c0 -73 -45 -106 -102 -106c-55 0 -101 31 -101 103c0 69 51 101 103 101zM257 738
c-31 0 -56 -18 -56 -68c0 -51 25 -70 58 -70s56 19 56 72c0 49 -24 66 -58 66zM254 804h-60l106 137h107z" />
    <glyph glyph-name="aringacute.sc" horiz-adv-x="496" 
d="M405 0l-64 174h-196l-67 -174h-65l213 526h67l193 -526h-81zM162 219h162c-54 152 -64 184 -79 229c-14 -42 -21 -61 -83 -229zM257 773c55 0 100 -28 100 -98c0 -73 -45 -106 -102 -106c-55 0 -101 31 -101 103c0 69 51 101 103 101zM255 740c-31 0 -56 -18 -56 -68
c0 -51 25 -70 58 -70s56 19 56 72c0 49 -24 66 -58 66zM253 806h-60l106 137h107z" />
    <glyph glyph-name="asciicircum" unicode="^" horiz-adv-x="741" 
d="M611 295h-74l-168 342l-166 -342h-73l204 411h74z" />
    <glyph glyph-name="asciitilde" unicode="~" horiz-adv-x="741" 
d="M136 237l-48 36c55 76 109 108 165 108c33 0 60 -3 142 -50c43 -24 66 -32 91 -32c41 0 76 19 118 83l49 -39c-50 -72 -100 -112 -167 -112c-35 0 -70 11 -120 39c-69 39 -94 46 -113 46c-41 0 -76 -20 -117 -79z" />
    <glyph glyph-name="asterisk" unicode="*" horiz-adv-x="421" 
d="M379 598l16 -59c-55 -15 -107 -25 -157 -34c34 -37 82 -82 109 -123l-56 -35c-31 45 -54 98 -80 141c-29 -44 -54 -97 -84 -139l-53 37c31 43 78 84 112 121c-51 11 -107 22 -159 39l22 60c54 -18 100 -47 148 -67c-8 51 -15 109 -16 162h66c-2 -51 -13 -112 -21 -164
c48 18 103 45 153 61z" />
    <glyph glyph-name="at" unicode="@" horiz-adv-x="869" 
d="M520 135c-45 -62 -92 -91 -159 -91c-77 0 -130 51 -130 140c0 60 19 122 53 181c55 94 139 121 191 121c48 0 81 -15 103 -38c1 5 5 17 9 26h62c-10 -39 -20 -76 -29 -121l-31 -152c-3 -14 -6 -46 -6 -53c0 -41 16 -60 47 -60c70 0 132 124 132 252
c0 176 -102 279 -274 279c-209 0 -369 -170 -369 -399c0 -198 128 -329 323 -329c128 0 222 39 303 99v-58c-79 -53 -190 -87 -306 -87c-228 0 -384 154 -384 374c0 255 179 441 433 441c206 0 334 -123 334 -317c0 -157 -93 -299 -210 -299c-51 0 -84 35 -92 91zM538 280
c13 54 16 91 16 107c0 40 -27 59 -79 59c-50 0 -91 -32 -126 -90c-25 -42 -47 -104 -47 -163c0 -68 26 -106 81 -106c30 0 65 16 87 41c27 33 47 68 68 152z" />
    <glyph glyph-name="atilde" unicode="&#xe3;" horiz-adv-x="514" 
d="M373 0c-5 17 -11 51 -12 70c-26 -47 -73 -82 -153 -82c-102 0 -161 65 -161 154c0 98 74 153 249 153c19 0 45 -1 63 -2v45c0 37 -6 72 -23 94s-46 32 -83 32c-42 0 -96 -7 -158 -41v58c53 25 118 36 167 36c50 0 100 -8 131 -39c26 -27 40 -60 40 -132v-235
c0 -34 1 -73 13 -111h-73zM359 252c-14 1 -33 1 -49 1c-144 0 -187 -49 -187 -109c0 -64 36 -105 100 -105c47 0 86 22 112 54c19 22 24 55 24 88v71zM140 598l-36 14c26 61 59 94 92 94c18 0 32 -5 62 -22l21 -11c15 -8 30 -14 41 -14c23 0 40 18 54 48l39 -12
c-26 -70 -59 -99 -92 -99c-20 0 -36 4 -60 17l-23 12c-22 12 -36 19 -45 19c-20 0 -35 -13 -53 -46z" />
    <glyph glyph-name="atilde.sc" horiz-adv-x="496" 
d="M405 0l-64 174h-196l-67 -174h-65l213 526h67l193 -526h-81zM162 219h162c-54 152 -64 184 -79 229c-14 -42 -21 -61 -83 -229zM138 599l-31 14c26 60 54 94 87 94c18 0 32 -5 62 -22l21 -11c15 -8 30 -14 41 -14c23 0 40 18 54 48l32 -12c-26 -70 -53 -99 -86 -99
c-20 0 -35 4 -59 17l-23 12c-22 12 -36 19 -45 19c-21 0 -35 -13 -53 -46z" />
    <glyph glyph-name="b" unicode="b" horiz-adv-x="564" 
d="M147 0h-67c3 36 4 93 4 135v611h74v-316c36 52 98 85 163 85c125 0 194 -83 194 -250c0 -191 -82 -275 -208 -275c-58 0 -115 16 -155 65c0 -6 -2 -35 -5 -55zM159 248c0 -71 6 -122 20 -148c23 -43 65 -65 115 -65c90 0 142 69 142 229c0 141 -52 201 -137 201
c-41 0 -93 -22 -119 -70c-16 -30 -21 -78 -21 -147z" />
    <glyph glyph-name="b.sc" horiz-adv-x="525" 
d="M85 526h163c25 0 58 -1 78 -2c77 -6 123 -49 123 -129c0 -60 -47 -101 -101 -119c68 -11 120 -54 120 -126c0 -61 -30 -115 -90 -136c-30 -10 -69 -14 -125 -14h-168v526zM162 45h79c43 0 73 0 94 10c32 13 53 42 53 92c0 39 -18 77 -54 94c-21 9 -47 11 -89 11h-83v-207
zM162 295h79c44 0 67 3 85 12c27 15 44 46 44 85c0 42 -20 71 -56 82c-17 5 -46 7 -82 7h-70v-186z" />
    <glyph glyph-name="backslash" unicode="\" horiz-adv-x="402" 
d="M408 -51h-76l-332 776h77z" />
    <glyph glyph-name="bar" unicode="|" horiz-adv-x="232" 
d="M149 -194h-66v949h66v-949z" />
    <glyph glyph-name="braceleft" unicode="{" horiz-adv-x="319" 
d="M130 -15v116c0 129 -22 150 -89 161v37c75 18 89 42 89 161v117c0 132 65 168 162 168h16v-41h-12c-51 0 -94 -14 -94 -117v-124c0 -142 -37 -157 -99 -181c64 -15 99 -53 99 -185v-122c0 -103 43 -117 94 -117h12v-41h-16c-98 0 -162 36 -162 168z" />
    <glyph glyph-name="braceleft.cap" horiz-adv-x="319" 
d="M130 65v86c0 129 -22 150 -89 161v37c75 18 89 42 89 161v87c0 132 65 168 162 168h16v-41h-12c-51 0 -94 -14 -94 -117v-94c0 -142 -37 -157 -99 -181c64 -15 99 -53 99 -185v-92c0 -103 43 -117 94 -117h12v-41h-16c-98 0 -162 36 -162 168z" />
    <glyph glyph-name="braceright" unicode="}" horiz-adv-x="319" 
d="M190 576v-115c0 -129 22 -150 88 -161v-37c-75 -18 -88 -42 -88 -161v-117c0 -132 -66 -168 -162 -168h-16v41h12c50 0 93 14 93 117v124c0 142 37 157 99 181c-63 15 -99 53 -99 185v122c0 103 -43 117 -93 117h-12v41h16c97 0 162 -36 162 -169z" />
    <glyph glyph-name="braceright.cap" horiz-adv-x="319" 
d="M190 596v-85c0 -129 22 -150 88 -161v-37c-75 -18 -88 -42 -88 -161v-87c0 -132 -66 -168 -162 -168h-16v41h12c50 0 93 14 93 117v94c0 142 37 157 99 181c-63 15 -99 53 -99 185v92c0 103 -43 117 -93 117h-12v41h16c97 0 162 -36 162 -169z" />
    <glyph glyph-name="bracketleft" unicode="[" horiz-adv-x="289" 
d="M278 -173h-195v907h195v-46h-123v-815h123v-46z" />
    <glyph glyph-name="bracketleft.cap" horiz-adv-x="289" 
d="M278 -93h-195v847h195v-46h-123v-755h123v-46z" />
    <glyph glyph-name="bracketright" unicode="]" horiz-adv-x="289" 
d="M12 734h194v-907h-194v46h122v815h-122v46z" />
    <glyph glyph-name="bracketright.cap" horiz-adv-x="289" 
d="M12 754h194v-847h-194v46h122v755h-122v46z" />
    <glyph glyph-name="breve" unicode="&#x2d8;" 
d="M-16 722h51c0 -51 25 -82 74 -82c47 0 80 26 80 82h48c0 -79 -39 -141 -132 -141c-88 0 -121 57 -121 141z" />
    <glyph glyph-name="breve.cap" 
d="M-30 895h53c3 -52 37 -76 83 -76c49 0 89 24 93 76h52c-3 -82 -53 -132 -146 -132c-89 0 -135 50 -135 132z" />
    <glyph glyph-name="breve.sc" 
d="M-16 733h51c0 -53 25 -83 74 -83c47 0 80 26 80 83h48c0 -80 -39 -142 -132 -142c-88 0 -121 56 -121 142z" />
    <glyph glyph-name="brokenbar" unicode="&#xa6;" horiz-adv-x="233" 
d="M149 355h-65v351h65v-351zM149 -135h-65v351h65v-351z" />
    <glyph glyph-name="bullet" unicode="&#x2022;" horiz-adv-x="319" 
d="M278 282c0 -89 -41 -118 -120 -118c-75 0 -117 24 -117 118s43 123 122 123c76 0 115 -28 115 -123z" />
    <glyph glyph-name="bullet.cap" horiz-adv-x="319" 
d="M278 282c0 -89 -41 -118 -120 -118c-75 0 -117 24 -117 118s43 123 122 123c76 0 115 -28 115 -123z" />
    <glyph glyph-name="c" unicode="c" horiz-adv-x="435" 
d="M408 15c-30 -14 -71 -28 -137 -28c-136 0 -221 80 -221 257c0 184 87 273 234 273c47 0 88 -5 121 -15v-66c-34 21 -77 28 -122 28c-98 0 -155 -68 -155 -215c0 -148 65 -211 157 -211c48 0 87 14 123 33v-56z" />
    <glyph glyph-name="c.sc" horiz-adv-x="479" 
d="M446 463c-35 18 -82 29 -135 29c-117 0 -180 -65 -180 -232c0 -156 60 -224 175 -224c55 0 106 15 143 35v-53c-32 -14 -97 -30 -164 -30c-141 0 -234 78 -234 267c0 191 95 283 247 283c59 0 115 -10 148 -22v-53z" />
    <glyph glyph-name="cacute" unicode="&#x107;" horiz-adv-x="435" 
d="M408 15c-30 -14 -71 -28 -137 -28c-136 0 -221 80 -221 257c0 184 87 273 234 273c47 0 88 -5 121 -15v-66c-34 21 -77 28 -122 28c-98 0 -155 -68 -155 -215c0 -148 65 -211 157 -211c48 0 87 14 123 33v-56zM269 586h-60l106 137h107z" />
    <glyph glyph-name="cacute.sc" horiz-adv-x="479" 
d="M446 463c-35 18 -82 29 -135 29c-117 0 -180 -65 -180 -232c0 -156 60 -224 175 -224c55 0 106 15 143 35v-53c-32 -14 -97 -30 -164 -30c-141 0 -234 78 -234 267c0 191 95 283 247 283c59 0 115 -10 148 -22v-53zM283 596h-60l106 137h107z" />
    <glyph glyph-name="caron" unicode="&#x2c7;" 
d="M-37 727h69l83 -101l85 101h58l-114 -152h-67z" />
    <glyph glyph-name="caron.alt" horiz-adv-x="211" 
d="M163 706c0 -73 -34 -132 -68 -164h-49c29 43 38 97 38 164h79z" />
    <glyph glyph-name="caron.cap" 
d="M-63 903h84l96 -80l97 80h69l-143 -137h-61z" />
    <glyph glyph-name="caron.sc" 
d="M-37 737h69l83 -101l85 101h58l-114 -152h-67z" />
    <glyph glyph-name="ccaron" unicode="&#x10d;" horiz-adv-x="435" 
d="M408 15c-30 -14 -71 -28 -137 -28c-136 0 -221 80 -221 257c0 184 87 273 234 273c47 0 88 -5 121 -15v-66c-34 21 -77 28 -122 28c-98 0 -155 -68 -155 -215c0 -148 65 -211 157 -211c48 0 87 14 123 33v-56zM113 727h69l83 -101l85 101h58l-114 -152h-67z" />
    <glyph glyph-name="ccaron.sc" horiz-adv-x="479" 
d="M446 463c-35 18 -82 29 -135 29c-117 0 -180 -65 -180 -232c0 -156 60 -224 175 -224c55 0 106 15 143 35v-53c-32 -14 -97 -30 -164 -30c-141 0 -234 78 -234 267c0 191 95 283 247 283c59 0 115 -10 148 -22v-53zM142 737h69l83 -101l85 101h58l-114 -152h-67z" />
    <glyph glyph-name="ccedilla" unicode="&#xe7;" horiz-adv-x="435" 
d="M189 -226v37c17 -4 33 -5 39 -5c43 0 56 20 56 51s-17 50 -52 50c-9 0 -22 -1 -32 -2l34 84c-115 13 -184 93 -184 255c0 184 87 273 234 273c47 0 88 -5 121 -15v-66c-34 21 -77 28 -122 28c-98 0 -155 -68 -155 -215s66 -211 155 -211c50 0 90 16 125 35v-56
c-29 -15 -73 -30 -138 -30l-19 -48c74 0 99 -27 99 -79c0 -62 -43 -90 -116 -90c-15 0 -35 2 -45 4z" />
    <glyph glyph-name="ccedilla.sc" horiz-adv-x="479" 
d="M211 -226v37c17 -4 33 -5 39 -5c43 0 56 20 56 51c0 32 -17 50 -52 50c-9 0 -22 -1 -32 -2l34 85c-125 10 -205 89 -205 265c0 191 95 283 247 283c59 0 115 -10 148 -22v-53c-35 18 -82 29 -135 29c-117 0 -180 -65 -180 -232c0 -156 60 -224 175 -224
c55 0 106 15 143 35v-53c-31 -14 -92 -29 -156 -30l-20 -49c74 0 99 -27 99 -78c0 -63 -43 -91 -116 -91c-14 0 -35 2 -45 4z" />
    <glyph glyph-name="ccircumflex" unicode="&#x109;" horiz-adv-x="435" 
d="M408 15c-30 -14 -71 -28 -137 -28c-136 0 -221 80 -221 257c0 184 87 273 234 273c47 0 88 -5 121 -15v-66c-34 21 -77 28 -122 28c-98 0 -155 -68 -155 -215c0 -148 65 -211 157 -211c48 0 87 14 123 33v-56zM422 586h-69l-84 101l-85 -101h-57l114 152h67z" />
    <glyph glyph-name="ccircumflex.sc" horiz-adv-x="479" 
d="M446 463c-35 18 -82 29 -135 29c-117 0 -180 -65 -180 -232c0 -156 60 -224 175 -224c55 0 106 15 143 35v-53c-32 -14 -97 -30 -164 -30c-141 0 -234 78 -234 267c0 191 95 283 247 283c59 0 115 -10 148 -22v-53zM431 596h-69l-84 101l-85 -101h-57l114 152h67z" />
    <glyph glyph-name="cdotaccent" unicode="&#x10b;" horiz-adv-x="435" 
d="M408 15c-30 -14 -71 -28 -137 -28c-136 0 -221 80 -221 257c0 184 87 273 234 273c47 0 88 -5 121 -15v-66c-34 21 -77 28 -122 28c-98 0 -155 -68 -155 -215c0 -148 65 -211 157 -211c48 0 87 14 123 33v-56zM320 659c0 -34 -19 -46 -46 -46c-25 0 -43 9 -43 46
c0 36 18 48 45 48c25 0 44 -8 44 -48z" />
    <glyph glyph-name="cdotaccent.sc" horiz-adv-x="479" 
d="M446 463c-35 18 -82 29 -135 29c-117 0 -180 -65 -180 -232c0 -156 60 -224 175 -224c55 0 106 15 143 35v-53c-32 -14 -97 -30 -164 -30c-141 0 -234 78 -234 267c0 191 95 283 247 283c59 0 115 -10 148 -22v-53zM328 671c0 -34 -19 -46 -46 -46c-25 0 -43 9 -43 46
c0 36 18 48 45 48c25 0 44 -8 44 -48z" />
    <glyph glyph-name="cedilla" unicode="&#xb8;" 
d="M30 -226v37c17 -4 33 -5 39 -5c43 0 56 20 56 51s-17 50 -52 50c-9 0 -22 -1 -32 -2l43 105h37l-29 -71c74 0 99 -27 99 -79c0 -62 -43 -90 -116 -90c-15 0 -35 2 -45 4z" />
    <glyph glyph-name="cedilla.cap" 
d="M27 -238v40c18 -4 34 -5 40 -5c45 0 59 21 59 53c0 33 -19 52 -55 52c-9 0 -22 -1 -33 -2l43 110h38l-28 -74c72 0 103 -28 103 -83c0 -65 -45 -95 -121 -95c-15 0 -36 2 -46 4z" />
    <glyph glyph-name="cedilla.sc" 
d="M30 -226v37c17 -4 33 -5 39 -5c43 0 56 20 56 51c0 32 -17 50 -52 50c-9 0 -22 -1 -32 -2l42 103h37l-28 -69c74 0 99 -27 99 -78c0 -63 -43 -91 -116 -91c-14 0 -35 2 -45 4z" />
    <glyph glyph-name="cent" unicode="&#xa2;" horiz-adv-x="490" 
d="M317 603v-97c51 -1 90 -9 120 -21v-58c-29 17 -75 28 -120 30v-415c45 3 92 17 123 34v-53c-24 -13 -70 -26 -123 -30v-94h-51v94c-129 7 -200 80 -200 251c0 166 72 248 200 260v99h51zM145 249c0 -126 42 -191 121 -204v408c-76 -15 -121 -77 -121 -204z" />
    <glyph glyph-name="cent.denominator" horiz-adv-x="334" 
d="M214 -57h-34v57c-82 7 -132 56 -132 161c0 102 54 158 132 168v60h34v-58c33 -1 57 -7 78 -16v-44c-23 13 -51 20 -78 21v-253c29 2 59 11 80 23v-40c-17 -9 -47 -19 -80 -22v-57zM110 164c0 -83 22 -116 70 -125v252c-46 -7 -70 -55 -70 -127z" />
    <glyph glyph-name="cent.inferior" horiz-adv-x="334" 
d="M214 -223h-34v57c-82 7 -132 56 -132 161c0 102 54 158 132 168v60h34v-58c33 -1 57 -7 78 -16v-44c-23 13 -51 20 -78 21v-253c29 2 59 11 80 23v-40c-17 -9 -47 -19 -80 -22v-57zM110 -2c0 -83 22 -116 70 -125v252c-46 -7 -70 -55 -70 -127z" />
    <glyph glyph-name="cent.numerator" horiz-adv-x="334" 
d="M214 200h-34v57c-82 7 -132 56 -132 161c0 102 54 158 132 168v60h34v-58c33 -1 57 -7 78 -16v-44c-23 13 -51 20 -78 21v-253c29 2 59 11 80 23v-40c-17 -9 -47 -19 -80 -22v-57zM110 421c0 -83 22 -116 70 -125v252c-46 -7 -70 -55 -70 -127z" />
    <glyph glyph-name="cent.oldstyle" horiz-adv-x="491" 
d="M319 516v-92c44 -1 79 -7 107 -18v-52c-26 15 -66 24 -107 25v-338c39 2 82 13 109 28v-48c-21 -11 -63 -21 -109 -25v-94h-50v94c-113 6 -179 68 -179 210c0 135 68 204 179 216v94h50zM163 210c0 -104 40 -153 106 -166v331c-64 -14 -106 -63 -106 -165z" />
    <glyph glyph-name="cent.superior" horiz-adv-x="334" 
d="M214 391h-34v57c-82 7 -132 56 -132 161c0 102 54 158 132 168v60h34v-58c33 -1 57 -7 78 -16v-44c-23 13 -51 20 -78 21v-253c29 2 59 11 80 23v-40c-17 -9 -47 -19 -80 -22v-57zM110 612c0 -83 22 -116 70 -125v252c-46 -7 -70 -55 -70 -127z" />
    <glyph glyph-name="circumflex" unicode="&#x2c6;" 
d="M258 586h-69l-84 101l-85 -101h-57l114 152h67z" />
    <glyph glyph-name="circumflex.cap" 
d="M283 766h-85l-97 80l-97 -80h-67l144 137h61z" />
    <glyph glyph-name="circumflex.sc" 
d="M258 596h-69l-84 101l-85 -101h-57l114 152h67z" />
    <glyph glyph-name="colon" unicode=":" horiz-adv-x="241" 
d="M184 46c0 -36 -22 -54 -54 -54c-31 0 -53 16 -53 54c0 39 23 56 55 56c30 0 52 -16 52 -56zM184 450c0 -37 -22 -54 -54 -54c-31 0 -53 15 -53 54c0 38 23 56 55 56c30 0 52 -17 52 -56z" />
    <glyph glyph-name="comma" unicode="," 
d="M158 118c0 -102 -30 -217 -67 -278h-61c31 72 46 175 46 278h82z" />
    <glyph glyph-name="comma.denominator" horiz-adv-x="146" 
d="M113 87c0 -80 -25 -133 -55 -176h-48c26 55 35 103 35 176h68z" />
    <glyph glyph-name="comma.inferior" horiz-adv-x="146" 
d="M113 -72c0 -80 -25 -133 -55 -176h-48c26 55 35 103 35 176h68z" />
    <glyph glyph-name="comma.numerator" horiz-adv-x="146" 
d="M113 348c0 -80 -25 -133 -55 -176h-48c26 55 35 103 35 176h68z" />
    <glyph glyph-name="comma.superior" horiz-adv-x="146" 
d="M113 537c0 -80 -25 -133 -55 -176h-48c26 55 35 103 35 176h68z" />
    <glyph glyph-name="commaaccent" horiz-adv-x="211" 
d="M165 -69c0 -88 -35 -137 -68 -172h-52c30 44 43 88 43 172h77z" />
    <glyph glyph-name="commaaccent.sc" horiz-adv-x="211" 
d="M165 -69c0 -88 -35 -137 -68 -172h-52c30 44 43 88 43 172h77z" />
    <glyph glyph-name="copyright" unicode="&#xa9;" horiz-adv-x="837" 
d="M571 518c-32 17 -76 27 -124 27c-91 0 -154 -60 -154 -195c0 -131 60 -192 149 -192c49 0 98 16 131 34v-51c-27 -14 -76 -30 -141 -30c-130 0 -213 74 -213 234c0 168 88 249 225 249c56 0 94 -9 127 -22v-54zM789 359c0 -211 -161 -374 -366 -374
c-215 0 -375 161 -375 370c0 205 164 366 373 366c204 0 368 -160 368 -362zM748 351c0 191 -137 338 -326 338c-190 0 -333 -148 -333 -335c0 -185 147 -336 335 -336c183 0 324 148 324 333z" />
    <glyph glyph-name="currency" unicode="&#xa4;" horiz-adv-x="540" 
d="M93 580l51 -69c35 31 85 42 128 42c47 0 100 -13 125 -40l48 65l52 -45l-67 -54c31 -38 40 -81 40 -133c0 -44 -11 -96 -40 -131l68 -57l-51 -46l-50 69c-27 -25 -86 -41 -128 -41c-47 0 -100 11 -127 38l-50 -66l-48 48l65 52c-30 35 -41 81 -41 134s13 96 40 130
l-69 57zM139 348c0 -111 52 -160 131 -160c75 0 128 55 128 158c0 110 -52 160 -128 160c-77 0 -131 -50 -131 -158z" />
    <glyph glyph-name="d" unicode="d" horiz-adv-x="560" 
d="M408 66c-41 -48 -86 -77 -159 -77c-121 0 -199 87 -199 256c0 218 125 270 215 270c59 0 105 -14 141 -46v277h74v-628c0 -38 4 -85 9 -118h-72c-3 15 -7 50 -9 66zM407 257c0 109 -4 149 -26 174c-27 29 -66 38 -108 38c-79 0 -145 -65 -145 -223
c0 -146 55 -210 136 -210c50 0 80 16 101 39c30 32 42 67 42 182z" />
    <glyph glyph-name="d.sc" horiz-adv-x="573" 
d="M85 0v526h152c64 0 114 -6 150 -16c94 -25 135 -106 135 -240c0 -107 -31 -215 -140 -251c-40 -13 -77 -19 -158 -19h-139zM162 480v-434h72c63 0 104 9 135 29c48 32 74 92 74 195c0 91 -16 157 -82 190c-29 15 -69 20 -126 20h-73z" />
    <glyph glyph-name="dagger" unicode="&#x2020;" horiz-adv-x="475" 
d="M276 718v-218h175v-56h-175v-533h-76v533h-175v57h175v217h76z" />
    <glyph glyph-name="daggerdbl" unicode="&#x2021;" horiz-adv-x="475" 
d="M451 153h-175v-242h-76v242h-175v57h175v244h-175v58h175v206h76v-206h175v-58h-175v-244h175v-57z" />
    <glyph glyph-name="dcaron" unicode="&#x10f;" horiz-adv-x="560" 
d="M408 66c-41 -48 -86 -77 -159 -77c-121 0 -199 87 -199 256c0 218 125 270 215 270c59 0 105 -14 141 -46v277h74v-628c0 -38 4 -85 9 -118h-72c-3 15 -7 50 -9 66zM407 257c0 109 -4 149 -26 174c-27 29 -66 38 -108 38c-79 0 -145 -65 -145 -223
c0 -146 55 -210 136 -210c50 0 80 16 101 39c30 32 42 67 42 182zM639 746c0 -73 -34 -132 -68 -164h-49c29 43 38 97 38 164h79z" />
    <glyph glyph-name="dcaron.sc" horiz-adv-x="573" 
d="M85 0v526h152c64 0 114 -6 150 -16c94 -25 135 -106 135 -240c0 -107 -31 -215 -140 -251c-40 -13 -77 -19 -158 -19h-139zM162 480v-434h72c63 0 104 9 135 29c48 32 74 92 74 195c0 91 -16 157 -82 190c-29 15 -69 20 -126 20h-73zM119 737h69l83 -101l85 101h58
l-114 -152h-67z" />
    <glyph glyph-name="dcroat" unicode="&#x111;" horiz-adv-x="560" 
d="M550 577h-70v-459c0 -38 4 -85 9 -118h-72c-3 15 -7 50 -9 66c-41 -48 -86 -77 -159 -77c-121 0 -199 87 -199 256c0 218 125 270 215 270c59 0 105 -14 141 -46v108h-145v46h145v123h74v-123h70v-46zM407 257c0 109 -4 149 -26 174c-27 29 -66 38 -108 38
c-79 0 -145 -65 -145 -223c0 -146 55 -210 136 -210c50 0 80 16 101 39c30 32 42 67 42 182z" />
    <glyph glyph-name="dcroat.sc" horiz-adv-x="573" 
d="M85 0v252h-66v46h66v228h152c64 0 114 -6 150 -16c94 -25 135 -108 135 -242c0 -107 -31 -213 -140 -249c-40 -13 -77 -19 -158 -19h-139zM322 252h-160v-206h72c63 0 104 9 135 29c48 32 74 89 74 192c0 91 -16 160 -82 193c-29 15 -69 20 -126 20h-73v-182h160v-46z
" />
    <glyph glyph-name="degree" unicode="&#xb0;" horiz-adv-x="339" 
d="M311 585c0 -89 -58 -143 -143 -143c-77 0 -140 51 -140 142c0 90 61 143 146 143c84 0 137 -51 137 -142zM255 584c0 66 -33 99 -85 99c-47 0 -82 -33 -82 -101c0 -64 35 -96 83 -96c52 0 84 33 84 98z" />
    <glyph glyph-name="dieresis" unicode="&#xa8;" 
d="M67 659c0 -34 -19 -46 -46 -46c-25 0 -44 9 -44 46c0 36 19 48 46 48c25 0 44 -8 44 -48zM243 659c0 -34 -18 -46 -45 -46c-26 0 -44 9 -44 46c0 36 18 48 45 48c26 0 44 -8 44 -48z" />
    <glyph glyph-name="dieresis.cap" 
d="M62 815c0 -33 -19 -46 -46 -46c-25 0 -43 10 -43 46s18 49 45 49c25 0 44 -9 44 -49zM248 815c0 -33 -19 -46 -46 -46c-25 0 -44 10 -44 46s19 49 46 49c25 0 44 -9 44 -49z" />
    <glyph glyph-name="dieresis.sc" 
d="M67 671c0 -34 -19 -46 -46 -46c-25 0 -44 9 -44 46c0 36 19 48 46 48c25 0 44 -8 44 -48zM243 671c0 -34 -18 -46 -45 -46c-26 0 -44 9 -44 46c0 36 18 48 45 48c26 0 44 -8 44 -48z" />
    <glyph glyph-name="divide" unicode="&#xf7;" horiz-adv-x="741" 
d="M415 478c0 -33 -19 -46 -46 -46c-25 0 -44 10 -44 46s19 49 46 49c25 0 44 -9 44 -49zM642 275h-543v64h543v-64zM415 131c0 -33 -19 -46 -46 -46c-25 0 -44 10 -44 46s19 49 46 49c25 0 44 -9 44 -49z" />
    <glyph glyph-name="dollar" unicode="$" horiz-adv-x="507" 
d="M285 779v-94c53 -2 102 -13 143 -30v-68c-45 22 -87 40 -143 43v-250l16 -7c120 -52 158 -103 158 -195c0 -93 -64 -163 -174 -181v-97h-51v92h-8c-61 0 -133 14 -180 35v70c53 -27 109 -51 181 -51h7v266l-30 13c-101 43 -146 95 -146 184c0 98 67 162 176 174v96h51z
M129 515c0 -41 25 -78 105 -113v226c-68 -9 -105 -43 -105 -113zM383 179c0 49 -32 81 -98 111v-238c68 15 98 61 98 127z" />
    <glyph glyph-name="dollar.denominator" horiz-adv-x="344" 
d="M192 2v-58h-35v56c-39 1 -88 8 -113 23v49c26 -14 58 -31 113 -33v146l-20 8c-61 24 -97 52 -97 117c0 74 61 107 117 113v55h35v-53c44 -2 69 -10 94 -20v-46c-24 10 -60 21 -94 24v-147l14 -5c81 -30 104 -62 104 -112c0 -74 -56 -109 -118 -117zM96 318
c0 -26 13 -51 61 -69v134c-38 -4 -61 -22 -61 -65zM253 107c0 28 -15 46 -61 64v-131c40 5 61 25 61 67z" />
    <glyph glyph-name="dollar.inferior" horiz-adv-x="344" 
d="M192 -163v-58h-35v56c-39 1 -88 8 -113 23v49c26 -14 58 -31 113 -33v146l-20 8c-61 24 -97 52 -97 117c0 74 61 107 117 113v55h35v-53c44 -2 69 -10 94 -20v-46c-24 10 -60 21 -94 24v-147l14 -5c81 -30 104 -62 104 -112c0 -74 -56 -109 -118 -117zM96 153
c0 -26 13 -51 61 -69v134c-38 -4 -61 -22 -61 -65zM253 -58c0 28 -15 46 -61 64v-131c40 5 61 25 61 67z" />
    <glyph glyph-name="dollar.numerator" horiz-adv-x="344" 
d="M192 258v-58h-35v56c-39 1 -88 8 -113 23v49c26 -14 58 -31 113 -33v146l-20 8c-61 24 -97 52 -97 117c0 74 61 107 117 113v55h35v-53c44 -2 69 -10 94 -20v-46c-24 10 -60 21 -94 24v-147l14 -5c81 -30 104 -62 104 -112c0 -74 -56 -109 -118 -117zM96 574
c0 -26 13 -51 61 -69v134c-38 -4 -61 -22 -61 -65zM253 363c0 28 -15 46 -61 64v-131c40 5 61 25 61 67z" />
    <glyph glyph-name="dollar.oldstyle" horiz-adv-x="507" 
d="M282 696v-90c47 -2 90 -12 127 -27v-59c-39 19 -77 36 -127 38v-222l16 -7c105 -46 139 -91 139 -172s-60 -143 -155 -159v-95h-48v90h-7c-53 0 -118 12 -158 31v62c45 -24 96 -43 159 -43h6v232l-26 11c-90 36 -130 85 -130 163c0 85 63 143 156 154v93h48zM142 455
c0 -37 20 -68 92 -99v199c-58 -8 -92 -39 -92 -100zM368 158c0 44 -27 71 -86 97v-207c60 13 86 51 86 110z" />
    <glyph glyph-name="dollar.superior" horiz-adv-x="344" 
d="M192 449v-58h-35v56c-39 1 -88 8 -113 23v49c26 -14 58 -31 113 -33v146l-20 8c-61 24 -97 52 -97 117c0 74 61 107 117 113v55h35v-53c44 -2 69 -10 94 -20v-46c-24 10 -60 21 -94 24v-147l14 -5c81 -30 104 -62 104 -112c0 -74 -56 -109 -118 -117zM96 765
c0 -26 13 -51 61 -69v134c-38 -4 -61 -22 -61 -65zM253 554c0 28 -15 46 -61 64v-131c40 5 61 25 61 67z" />
    <glyph glyph-name="dotaccent" unicode="&#x2d9;" 
d="M155 659c0 -34 -19 -46 -46 -46c-25 0 -43 9 -43 46c0 36 18 48 45 48c25 0 44 -8 44 -48z" />
    <glyph glyph-name="dotaccent.cap" 
d="M155 815c0 -33 -19 -46 -46 -46c-25 0 -43 10 -43 46s18 49 45 49c25 0 44 -9 44 -49z" />
    <glyph glyph-name="dotaccent.sc" 
d="M155 671c0 -34 -19 -46 -46 -46c-25 0 -43 9 -43 46c0 36 18 48 45 48c25 0 44 -8 44 -48z" />
    <glyph glyph-name="dotlessi" unicode="&#x131;" horiz-adv-x="245" 
d="M167 0h-81v504h81v-504z" />
    <glyph glyph-name="dotlessi.sc" horiz-adv-x="247" 
d="M162 526v-526h-77v526h77z" />
    <glyph glyph-name="e" unicode="e" horiz-adv-x="498" 
d="M462 253h-335c1 -142 58 -215 161 -215c70 0 113 22 154 44v-57c-35 -19 -86 -38 -166 -38c-148 0 -226 82 -226 267c0 169 79 263 217 263c101 0 143 -38 171 -97c19 -41 24 -93 24 -147v-20zM381 295c0 108 -18 178 -117 178c-64 0 -131 -42 -135 -178h252z" />
    <glyph glyph-name="e.sc" horiz-adv-x="456" 
d="M412 478h-250v-179h238v-47h-238v-204h258v-48h-335v526h327v-48z" />
    <glyph glyph-name="eacute" unicode="&#xe9;" horiz-adv-x="498" 
d="M462 253h-335c1 -142 58 -215 161 -215c70 0 113 22 154 44v-57c-35 -19 -86 -38 -166 -38c-148 0 -226 82 -226 267c0 169 79 263 217 263c101 0 143 -38 171 -97c19 -41 24 -93 24 -147v-20zM381 295c0 108 -18 178 -117 178c-64 0 -131 -42 -135 -178h252zM255 586
h-60l106 137h107z" />
    <glyph glyph-name="eacute.sc" horiz-adv-x="456" 
d="M412 478h-250v-179h238v-47h-238v-204h258v-48h-335v526h327v-48zM249 596h-60l106 137h107z" />
    <glyph glyph-name="ebreve" unicode="&#x115;" horiz-adv-x="498" 
d="M462 253h-335c1 -142 58 -215 161 -215c70 0 113 22 154 44v-57c-35 -19 -86 -38 -166 -38c-148 0 -226 82 -226 267c0 169 79 263 217 263c101 0 143 -38 171 -97c19 -41 24 -93 24 -147v-20zM381 295c0 108 -18 178 -117 178c-64 0 -131 -42 -135 -178h252zM146 722h51
c0 -51 25 -82 74 -82c47 0 80 26 80 82h48c0 -79 -39 -141 -132 -141c-88 0 -121 57 -121 141z" />
    <glyph glyph-name="ebreve.sc" horiz-adv-x="456" 
d="M412 478h-250v-179h238v-47h-238v-204h258v-48h-335v526h327v-48zM125 733h51c0 -53 25 -83 74 -83c47 0 80 26 80 83h48c0 -80 -39 -142 -132 -142c-88 0 -121 56 -121 142z" />
    <glyph glyph-name="ecaron" unicode="&#x11b;" horiz-adv-x="498" 
d="M462 253h-335c1 -142 58 -215 161 -215c70 0 113 22 154 44v-57c-35 -19 -86 -38 -166 -38c-148 0 -226 82 -226 267c0 169 79 263 217 263c101 0 143 -38 171 -97c19 -41 24 -93 24 -147v-20zM381 295c0 108 -18 178 -117 178c-64 0 -131 -42 -135 -178h252zM133 727h69
l83 -101l85 101h58l-114 -152h-67z" />
    <glyph glyph-name="ecaron.sc" horiz-adv-x="456" 
d="M412 478h-250v-179h238v-47h-238v-204h258v-48h-335v526h327v-48zM97 737h69l83 -101l85 101h58l-114 -152h-67z" />
    <glyph glyph-name="ecircumflex" unicode="&#xea;" horiz-adv-x="498" 
d="M462 253h-335c1 -142 58 -215 161 -215c70 0 113 22 154 44v-57c-35 -19 -86 -38 -166 -38c-148 0 -226 82 -226 267c0 169 79 263 217 263c101 0 143 -38 171 -97c19 -41 24 -93 24 -147v-20zM381 295c0 108 -18 178 -117 178c-64 0 -131 -42 -135 -178h252zM418 586
h-69l-84 101l-85 -101h-57l114 152h67z" />
    <glyph glyph-name="ecircumflex.sc" horiz-adv-x="456" 
d="M412 478h-250v-179h238v-47h-238v-204h258v-48h-335v526h327v-48zM398 596h-69l-84 101l-85 -101h-57l114 152h67z" />
    <glyph glyph-name="edieresis" unicode="&#xeb;" horiz-adv-x="498" 
d="M462 253h-335c1 -142 58 -215 161 -215c70 0 113 22 154 44v-57c-35 -19 -86 -38 -166 -38c-148 0 -226 82 -226 267c0 169 79 263 217 263c101 0 143 -38 171 -97c19 -41 24 -93 24 -147v-20zM381 295c0 108 -18 178 -117 178c-64 0 -131 -42 -135 -178h252zM223 659
c0 -34 -19 -46 -46 -46c-25 0 -44 9 -44 46c0 36 19 48 46 48c25 0 44 -8 44 -48zM399 659c0 -34 -18 -46 -45 -46c-26 0 -44 9 -44 46c0 36 18 48 45 48c26 0 44 -8 44 -48z" />
    <glyph glyph-name="edieresis.sc" horiz-adv-x="456" 
d="M412 478h-250v-179h238v-47h-238v-204h258v-48h-335v526h327v-48zM205 671c0 -34 -19 -46 -46 -46c-25 0 -44 9 -44 46c0 36 19 48 46 48c25 0 44 -8 44 -48zM381 671c0 -34 -18 -46 -45 -46c-26 0 -44 9 -44 46c0 36 18 48 45 48c26 0 44 -8 44 -48z" />
    <glyph glyph-name="edotaccent" unicode="&#x117;" horiz-adv-x="498" 
d="M462 253h-335c1 -142 58 -215 161 -215c70 0 113 22 154 44v-57c-35 -19 -86 -38 -166 -38c-148 0 -226 82 -226 267c0 169 79 263 217 263c101 0 143 -38 171 -97c19 -41 24 -93 24 -147v-20zM381 295c0 108 -18 178 -117 178c-64 0 -131 -42 -135 -178h252zM311 659
c0 -34 -19 -46 -46 -46c-25 0 -43 9 -43 46c0 36 18 48 45 48c25 0 44 -8 44 -48z" />
    <glyph glyph-name="edotaccent.sc" horiz-adv-x="456" 
d="M412 478h-250v-179h238v-47h-238v-204h258v-48h-335v526h327v-48zM297 671c0 -34 -19 -46 -46 -46c-25 0 -43 9 -43 46c0 36 18 48 45 48c25 0 44 -8 44 -48z" />
    <glyph glyph-name="egrave" unicode="&#xe8;" horiz-adv-x="498" 
d="M462 253h-335c1 -142 58 -215 161 -215c70 0 113 22 154 44v-57c-35 -19 -86 -38 -166 -38c-148 0 -226 82 -226 267c0 169 79 263 217 263c101 0 143 -38 171 -97c19 -41 24 -93 24 -147v-20zM381 295c0 108 -18 178 -117 178c-64 0 -131 -42 -135 -178h252zM341 586
h-67l-144 137h107z" />
    <glyph glyph-name="egrave.sc" horiz-adv-x="456" 
d="M412 478h-250v-179h238v-47h-238v-204h258v-48h-335v526h327v-48zM302 596h-67l-144 137h107z" />
    <glyph glyph-name="eight" unicode="8" horiz-adv-x="572" 
d="M416 510c0 70 -31 131 -131 131c-95 0 -128 -63 -128 -134c0 -92 61 -128 129 -128c58 0 130 24 130 131zM432 182c0 111 -66 150 -145 150c-83 0 -149 -41 -149 -148c0 -109 67 -149 148 -149c90 0 146 51 146 147zM385 357c74 -17 126 -79 126 -174
c0 -116 -75 -197 -226 -197s-224 71 -224 195c0 93 47 150 127 176c-63 24 -106 70 -106 156c0 95 64 177 206 177s204 -69 204 -177c0 -83 -44 -129 -107 -156z" />
    <glyph glyph-name="eight.denominator" horiz-adv-x="391" 
d="M338 314c0 -46 -21 -75 -67 -94c51 -15 78 -51 78 -105c0 -74 -54 -126 -153 -126s-152 45 -152 124c0 54 26 89 81 106c-49 17 -66 49 -66 95c0 62 46 113 138 113c95 0 141 -44 141 -113zM283 113c0 62 -41 85 -86 85c-48 0 -87 -24 -87 -83c0 -62 40 -85 87 -85
c53 0 86 29 86 83zM272 312c0 38 -18 74 -75 74c-56 0 -76 -37 -76 -76c0 -51 36 -71 76 -71c34 0 75 13 75 73z" />
    <glyph glyph-name="eight.fitted" horiz-adv-x="569" 
d="M415 510c0 70 -32 131 -131 131c-95 0 -129 -63 -129 -134c0 -92 61 -128 129 -128c59 0 131 24 131 131zM431 182c0 111 -67 150 -146 150c-82 0 -148 -41 -148 -148c0 -109 67 -149 148 -149c90 0 146 51 146 147zM383 357c75 -17 126 -79 126 -174
c0 -116 -74 -197 -226 -197c-151 0 -223 71 -223 195c0 93 46 150 127 176c-63 24 -106 70 -106 156c0 95 64 177 206 177s204 -69 204 -177c0 -83 -44 -129 -108 -156z" />
    <glyph glyph-name="eight.inferior" unicode="&#x2088;" horiz-adv-x="391" 
d="M338 155c0 -46 -21 -75 -67 -94c51 -15 78 -51 78 -105c0 -74 -54 -126 -153 -126s-152 45 -152 124c0 54 26 89 81 106c-49 17 -66 49 -66 95c0 62 46 113 138 113c95 0 141 -44 141 -113zM283 -46c0 62 -41 85 -86 85c-48 0 -87 -24 -87 -83c0 -62 40 -85 87 -85
c53 0 86 29 86 83zM272 153c0 38 -18 74 -75 74c-56 0 -76 -37 -76 -76c0 -51 36 -71 76 -71c34 0 75 13 75 73z" />
    <glyph glyph-name="eight.numerator" horiz-adv-x="391" 
d="M338 575c0 -46 -21 -75 -67 -94c51 -15 78 -51 78 -105c0 -74 -54 -126 -153 -126s-152 45 -152 124c0 54 26 89 81 106c-49 17 -66 49 -66 95c0 62 46 113 138 113c95 0 141 -44 141 -113zM283 374c0 62 -41 85 -86 85c-48 0 -87 -24 -87 -83c0 -62 40 -85 87 -85
c53 0 86 29 86 83zM272 573c0 38 -18 74 -75 74c-56 0 -76 -37 -76 -76c0 -51 36 -71 76 -71c34 0 75 13 75 73z" />
    <glyph glyph-name="eight.oldstyle" horiz-adv-x="567" 
d="M411 510c0 70 -34 133 -128 133c-90 0 -125 -65 -125 -136c0 -92 60 -130 125 -130c56 0 128 26 128 133zM431 182c0 110 -68 151 -148 151c-82 0 -148 -43 -148 -149c0 -109 72 -152 148 -152c86 0 148 54 148 150zM376 357c76 -16 129 -79 129 -174
c0 -116 -78 -197 -225 -197c-148 0 -218 73 -218 195c0 91 47 152 127 176c-67 28 -101 70 -101 156c0 96 63 177 197 177c135 0 196 -69 196 -177c0 -82 -41 -131 -105 -156z" />
    <glyph glyph-name="eight.superior" unicode="&#x2078;" horiz-adv-x="391" 
d="M338 764c0 -46 -21 -75 -67 -94c51 -15 78 -51 78 -105c0 -74 -54 -126 -153 -126s-152 45 -152 124c0 54 26 89 81 106c-49 17 -66 49 -66 95c0 62 46 113 138 113c95 0 141 -44 141 -113zM283 563c0 62 -41 85 -86 85c-48 0 -87 -24 -87 -83c0 -62 40 -85 87 -85
c53 0 86 29 86 83zM272 762c0 38 -18 74 -75 74c-56 0 -76 -37 -76 -76c0 -51 36 -71 76 -71c34 0 75 13 75 73z" />
    <glyph glyph-name="eight.taboldstyle" horiz-adv-x="538" 
d="M397 510c0 70 -34 133 -128 133c-89 0 -126 -65 -126 -136c0 -92 61 -130 127 -130c55 0 127 26 127 133zM417 182c0 110 -67 151 -148 151c-82 0 -149 -43 -149 -149c0 -109 73 -152 149 -152c87 0 148 54 148 150zM362 357c77 -16 129 -79 129 -174
c0 -116 -76 -197 -222 -197c-150 0 -221 71 -221 195c0 91 46 152 126 176c-67 28 -101 70 -101 156c0 96 65 177 198 177c136 0 197 -69 197 -177c0 -82 -42 -131 -106 -156z" />
    <glyph glyph-name="ellipsis" unicode="&#x2026;" horiz-adv-x="823" 
d="M187 46c0 -36 -22 -54 -54 -54c-31 0 -53 16 -53 54c0 39 23 56 54 56s53 -16 53 -56zM453 46c0 -36 -21 -54 -54 -54c-30 0 -53 16 -53 54c0 39 24 56 55 56s52 -16 52 -56zM720 46c0 -36 -21 -54 -54 -54c-30 0 -53 16 -53 54c0 39 24 56 55 56s52 -16 52 -56z" />
    <glyph glyph-name="emacron" unicode="&#x113;" horiz-adv-x="498" 
d="M462 253h-335c1 -142 58 -215 161 -215c70 0 113 22 154 44v-57c-35 -19 -86 -38 -166 -38c-148 0 -226 82 -226 267c0 169 79 263 217 263c101 0 143 -38 171 -97c19 -41 24 -93 24 -147v-20zM381 295c0 108 -18 178 -117 178c-64 0 -131 -42 -135 -178h252zM409 605
h-281v62h281v-62z" />
    <glyph glyph-name="emacron.sc" horiz-adv-x="456" 
d="M412 478h-250v-179h238v-47h-238v-204h258v-48h-335v526h327v-48zM382 618h-281v62h281v-62z" />
    <glyph glyph-name="emdash" unicode="&#x2014;" horiz-adv-x="1071" 
d="M1026 245h-982v67h982v-67z" />
    <glyph glyph-name="emdash.cap" horiz-adv-x="1071" 
d="M1026 305h-982v67h982v-67z" />
    <glyph glyph-name="endash" unicode="&#x2013;" horiz-adv-x="549" 
d="M504 245h-460v67h460v-67z" />
    <glyph glyph-name="endash.cap" horiz-adv-x="549" 
d="M504 305h-460v67h460v-67z" />
    <glyph glyph-name="eng" unicode="&#x14b;" horiz-adv-x="562" 
d="M162 0h-75v313c0 59 -3 144 -10 191h74c4 -17 8 -64 8 -73c46 66 129 86 175 86c70 0 129 -27 140 -105c4 -27 6 -55 6 -115v-337c0 -68 -11 -107 -33 -132c-27 -30 -64 -43 -123 -43c-17 0 -43 3 -59 7v47c17 -4 42 -6 57 -6c32 0 53 10 65 25c17 19 19 45 19 98v327
c0 61 -2 98 -9 124c-11 39 -40 59 -91 59c-45 0 -95 -20 -122 -59c-18 -27 -22 -46 -22 -104v-303z" />
    <glyph glyph-name="eng.sc" horiz-adv-x="603" 
d="M146 0h-61v526h95c207 -291 239 -342 280 -406c-3 105 -3 138 -3 406h61v-566c0 -68 -9 -110 -31 -134c-27 -28 -60 -41 -118 -41c-17 0 -43 3 -59 7v47c17 -4 44 -6 59 -6c32 0 56 9 68 24c13 15 20 41 20 90v43c-235 348 -275 394 -314 454c2 -107 3 -170 3 -444z" />
    <glyph glyph-name="eogonek" unicode="&#x119;" horiz-adv-x="498" 
d="M462 253h-335c1 -142 58 -215 161 -215c70 0 113 22 154 44v-57c-29 -16 -69 -31 -127 -36c-40 -32 -62 -65 -62 -118c0 -39 22 -58 49 -58c17 0 35 4 50 9l14 -30c-24 -14 -52 -21 -79 -21c-65 0 -100 37 -100 96c0 46 30 85 80 120c-142 3 -217 85 -217 267
c0 169 79 263 217 263c101 0 143 -38 171 -97c19 -41 24 -93 24 -147v-20zM381 295c0 108 -18 178 -117 178c-64 0 -131 -42 -135 -178h252z" />
    <glyph glyph-name="eogonek.sc" horiz-adv-x="456" 
d="M412 478h-250v-179h238v-47h-238v-204h258v-48h-23c-52 -38 -81 -74 -81 -138c0 -40 20 -63 50 -63c14 0 35 4 52 12l15 -33c-25 -15 -52 -22 -82 -22c-68 0 -104 40 -104 103c0 55 38 101 104 141h-266v526h327v-48z" />
    <glyph glyph-name="equal" unicode="=" horiz-adv-x="741" 
d="M641 177h-541v65h541v-65zM641 368h-541v64h541v-64z" />
    <glyph glyph-name="estimated" unicode="&#x212e;" horiz-adv-x="810" 
d="M776 329h-600c-3 0 -5 -1 -5 -4v-191c0 -7 4 -16 10 -22c56 -63 137 -103 226 -103c95 0 181 44 239 116h55c-70 -83 -176 -138 -295 -138c-203 0 -371 158 -371 350c0 196 168 354 371 354c204 0 370 -158 370 -354v-8zM641 355v193c0 10 -4 16 -11 21
c-56 62 -136 100 -223 100c-89 0 -168 -39 -225 -102c-7 -6 -11 -15 -11 -24v-188c0 -4 2 -6 5 -6h460c3 0 5 2 5 6z" />
    <glyph glyph-name="estimated.alt" horiz-adv-x="770" 
d="M641 380c-1 159 -69 262 -241 262c-128 0 -259 -63 -268 -262h509zM429 -14c-244 0 -376 114 -376 353c0 222 126 351 352 351c249 0 315 -152 315 -334v-24h-588c2 -190 102 -294 314 -294c118 0 194 32 252 59v-61c-56 -24 -142 -50 -269 -50z" />
    <glyph glyph-name="eth" unicode="&#xf0;" horiz-adv-x="550" 
d="M474 707l-94 -55c83 -78 118 -202 118 -378c0 -179 -73 -286 -221 -286c-144 0 -227 90 -227 253c0 168 79 269 230 269c53 0 110 -21 134 -64c-10 69 -43 129 -90 173l-123 -71l-22 39l108 62c-35 25 -76 43 -118 51l12 43c65 -12 118 -32 162 -62l108 63zM419 263
c0 111 -42 199 -137 199c-111 0 -154 -89 -154 -222s57 -208 151 -208c101 0 140 81 140 231z" />
    <glyph glyph-name="eth.sc" horiz-adv-x="573" 
d="M85 0v252h-66v46h66v228h152c64 0 114 -6 150 -16c94 -25 135 -108 135 -242c0 -107 -31 -213 -140 -249c-40 -13 -77 -19 -158 -19h-139zM322 252h-160v-206h72c63 0 104 9 135 29c48 32 74 89 74 192c0 91 -16 160 -82 193c-29 15 -69 20 -126 20h-73v-182h160v-46z
" />
    <glyph glyph-name="exclam" unicode="!" horiz-adv-x="287" 
d="M186 204h-64c-12 494 -12 501 -12 502h88c0 -1 0 -8 -12 -502zM207 46c0 -36 -22 -54 -54 -54c-31 0 -53 16 -53 54c0 39 23 56 55 56c30 0 52 -16 52 -56z" />
    <glyph glyph-name="exclam.sc" horiz-adv-x="244" 
d="M164 204h-57c-12 393 -12 403 -12 404h81c0 -1 0 -11 -12 -404zM188 46c0 -36 -21 -54 -54 -54c-31 0 -53 16 -53 54c0 39 23 56 55 56c31 0 52 -16 52 -56z" />
    <glyph glyph-name="exclamdown" unicode="&#xa1;" horiz-adv-x="288" 
d="M123 300h63c13 -494 12 -501 12 -502h-87c0 1 0 8 12 502zM102 458c0 36 21 54 54 54c31 0 53 -16 53 -54c0 -39 -23 -56 -55 -56c-30 0 -52 16 -52 56z" />
    <glyph glyph-name="exclamdown.sc" horiz-adv-x="244" 
d="M80 250h57c12 -392 12 -402 12 -403h-82c0 1 0 11 13 403zM56 408c0 37 21 54 54 54c30 0 53 -15 53 -54c0 -38 -24 -56 -55 -56s-52 17 -52 56z" />
    <glyph glyph-name="f" unicode="f" horiz-adv-x="301" 
d="M107 0v459h-84v45h84v46c0 68 10 118 35 149c28 34 71 54 129 54c21 0 52 -2 74 -7v-58c-18 7 -47 12 -65 12c-30 0 -56 -10 -73 -26c-19 -18 -25 -59 -25 -112v-58h113v-45h-113v-459h-75z" />
    <glyph glyph-name="f.sc" horiz-adv-x="428" 
d="M402 478h-240v-187h223v-47h-223v-244h-77v526h317v-48z" />
    <glyph glyph-name="f_i.sc" horiz-adv-x="676" 
d="M402 478h-240v-187h223v-47h-223v-244h-77v526h317v-48zM591 526v-526h-77v526h77z" />
    <glyph glyph-name="f_l.sc" horiz-adv-x="844" 
d="M402 478h-240v-187h223v-47h-223v-244h-77v526h317v-48zM591 526v-480h230v-46h-307v526h77z" />
    <glyph glyph-name="five" unicode="5" horiz-adv-x="572" 
d="M425 208c0 135 -68 166 -157 166c-49 0 -89 -5 -167 -37l27 339h343v-70h-289l-15 -195c46 14 85 21 126 21c139 0 210 -77 210 -223c0 -156 -106 -223 -244 -223c-47 0 -118 3 -179 32v61c64 -34 133 -40 178 -40c116 0 167 58 167 169z" />
    <glyph glyph-name="five.denominator" horiz-adv-x="391" 
d="M271 129c0 69 -36 89 -85 89c-35 0 -65 -4 -121 -27l17 224h232v-57h-190l-7 -100c25 7 60 10 83 10c91 0 138 -47 138 -138c0 -101 -67 -141 -161 -141c-32 0 -81 3 -122 20v49c45 -22 94 -25 122 -25c68 0 94 33 94 96z" />
    <glyph glyph-name="five.fitted" horiz-adv-x="554" 
d="M417 208c0 135 -69 166 -157 166c-49 0 -94 -5 -171 -37l26 339h347v-70h-295l-14 -195c45 14 90 21 132 21c139 0 210 -77 210 -223c0 -156 -107 -223 -245 -223c-47 0 -123 3 -184 32v61c64 -34 138 -40 184 -40c112 0 167 58 167 169z" />
    <glyph glyph-name="five.inferior" unicode="&#x2085;" horiz-adv-x="391" 
d="M271 -30c0 69 -36 89 -85 89c-35 0 -65 -4 -121 -27l17 224h232v-57h-190l-7 -100c25 7 60 10 83 10c91 0 138 -47 138 -138c0 -101 -67 -141 -161 -141c-32 0 -81 3 -122 20v49c45 -22 94 -25 122 -25c68 0 94 33 94 96z" />
    <glyph glyph-name="five.numerator" horiz-adv-x="391" 
d="M271 390c0 69 -36 89 -85 89c-35 0 -65 -4 -121 -27l17 224h232v-57h-190l-7 -100c25 7 60 10 83 10c91 0 138 -47 138 -138c0 -101 -67 -141 -161 -141c-32 0 -81 3 -122 20v49c45 -22 94 -25 122 -25c68 0 94 33 94 96z" />
    <glyph glyph-name="five.oldstyle" horiz-adv-x="522" 
d="M72 -165v51c22 -2 45 -3 67 -3c125 0 254 51 254 205c0 121 -71 145 -149 145c-51 0 -89 -2 -161 -31l27 322h331v-68h-280l-14 -178c42 11 82 16 116 16c132 0 204 -64 204 -202c0 -172 -144 -260 -328 -260c-26 0 -51 1 -67 3z" />
    <glyph glyph-name="five.superior" unicode="&#x2075;" horiz-adv-x="391" 
d="M271 579c0 69 -36 89 -85 89c-35 0 -65 -4 -121 -27l17 224h232v-57h-190l-7 -100c25 7 60 10 83 10c91 0 138 -47 138 -138c0 -101 -67 -141 -161 -141c-32 0 -81 3 -122 20v49c45 -22 94 -25 122 -25c68 0 94 33 94 96z" />
    <glyph glyph-name="five.taboldstyle" horiz-adv-x="538" 
d="M84 -165v51c23 -2 45 -3 67 -3c126 0 255 51 255 205c0 121 -72 145 -150 145c-51 0 -89 -2 -160 -31l26 322h332v-68h-281l-13 -178c41 11 81 16 116 16c132 0 203 -64 203 -202c0 -172 -143 -260 -328 -260c-25 0 -50 1 -67 3z" />
    <glyph glyph-name="fiveeighths" unicode="&#x215d;" horiz-adv-x="830" 
d="M560 676h60l-330 -676h-60zM260 390c0 69 -36 89 -85 89c-35 0 -65 -4 -121 -27l17 224h232v-57h-190l-7 -100c25 7 60 10 83 10c91 0 138 -47 138 -138c0 -101 -67 -141 -161 -141c-32 0 -81 3 -122 20v49c45 -22 94 -25 122 -25c68 0 94 33 94 96zM805 314
c0 -46 -21 -75 -67 -94c51 -15 78 -51 78 -105c0 -74 -54 -126 -153 -126s-152 45 -152 124c0 54 26 89 81 106c-49 17 -66 49 -66 95c0 62 46 113 138 113c95 0 141 -44 141 -113zM750 113c0 62 -41 85 -86 85c-48 0 -87 -24 -87 -83c0 -62 40 -85 87 -85c53 0 86 29 86 83
zM739 312c0 38 -18 74 -75 74c-56 0 -76 -37 -76 -76c0 -51 36 -71 76 -71c34 0 75 13 75 73z" />
    <glyph glyph-name="florin" unicode="&#x192;" horiz-adv-x="483" 
d="M273 383l-31 -370c-8 -94 -44 -149 -156 -149c-29 0 -53 5 -69 9v51c19 -6 40 -11 59 -11c59 0 80 21 87 106l29 364h-91v48h96l9 106c7 83 45 153 160 153c29 0 65 -5 80 -10v-52c-21 7 -48 14 -68 14c-57 0 -84 -22 -91 -109l-8 -102h117v-48h-123z" />
    <glyph glyph-name="florin.denominator" horiz-adv-x="313" 
d="M176 225l-20 -218c-5 -60 -27 -95 -105 -95c-20 0 -36 3 -51 6v40c15 -5 35 -9 45 -9c33 0 49 12 53 58l18 218h-58v42h61l5 60c5 55 34 100 109 100c21 0 45 -4 57 -7v-44c-17 7 -38 12 -49 12c-32 0 -51 -14 -55 -61l-5 -60h73v-42h-78z" />
    <glyph glyph-name="florin.inferior" horiz-adv-x="313" 
d="M176 66l-20 -218c-5 -60 -27 -95 -105 -95c-20 0 -36 3 -51 6v40c15 -5 35 -9 45 -9c33 0 49 12 53 58l18 218h-58v42h61l5 60c5 55 34 100 109 100c21 0 45 -4 57 -7v-44c-17 7 -38 12 -49 12c-32 0 -51 -14 -55 -61l-5 -60h73v-42h-78z" />
    <glyph glyph-name="florin.numerator" horiz-adv-x="313" 
d="M176 486l-20 -218c-5 -60 -27 -95 -105 -95c-20 0 -36 3 -51 6v40c15 -5 35 -9 45 -9c33 0 49 12 53 58l18 218h-58v42h61l5 60c5 55 34 100 109 100c21 0 45 -4 57 -7v-44c-17 7 -38 12 -49 12c-32 0 -51 -14 -55 -61l-5 -60h73v-42h-78z" />
    <glyph glyph-name="florin.oldstyle" horiz-adv-x="439" 
d="M238 313l-30 -340c-8 -92 -29 -145 -142 -145c-31 0 -62 7 -81 10v52c29 -9 56 -13 72 -13c51 0 73 25 79 96l29 340h-90v47h93l9 98c7 84 34 156 146 156c39 0 72 -7 90 -12v-53c-25 10 -61 16 -79 16c-55 0 -76 -29 -83 -103l-9 -102h115v-47h-119z" />
    <glyph glyph-name="florin.superior" horiz-adv-x="313" 
d="M176 675l-20 -218c-5 -60 -27 -95 -105 -95c-20 0 -36 3 -51 6v40c15 -5 35 -9 45 -9c33 0 49 12 53 58l18 218h-58v42h61l5 60c5 55 34 100 109 100c21 0 45 -4 57 -7v-44c-17 7 -38 12 -49 12c-32 0 -51 -14 -55 -61l-5 -60h73v-42h-78z" />
    <glyph glyph-name="four" unicode="4" horiz-adv-x="572" 
d="M117 246h240c0 165 0 224 2 350c-47 -74 -86 -125 -242 -350zM434 0h-77v185h-315v56l314 435h78v-430h107v-61h-107v-185z" />
    <glyph glyph-name="four.denominator" horiz-adv-x="391" 
d="M98 149h142c0 110 0 160 1 205c-25 -38 -50 -76 -143 -205zM302 0h-62v100h-200v41l196 274h66v-266h67v-49h-67v-100z" />
    <glyph glyph-name="four.fitted" horiz-adv-x="592" 
d="M119 246h251c0 165 0 224 2 349c-48 -71 -87 -123 -253 -349zM447 0h-77v185h-326v56l325 435h78v-430h111v-61h-111v-185z" />
    <glyph glyph-name="four.inferior" unicode="&#x2084;" horiz-adv-x="391" 
d="M98 -10h142c0 110 0 160 1 205c-25 -38 -50 -76 -143 -205zM302 -159h-62v100h-200v41l196 274h66v-266h67v-49h-67v-100z" />
    <glyph glyph-name="four.numerator" horiz-adv-x="391" 
d="M98 410h142c0 110 0 160 1 205c-25 -38 -50 -76 -143 -205zM302 261h-62v100h-200v41l196 274h66v-266h67v-49h-67v-100z" />
    <glyph glyph-name="four.oldstyle" horiz-adv-x="568" 
d="M113 61h251c0 165 0 259 2 384c-44 -74 -100 -162 -253 -384zM436 -165h-72v165h-324v50l322 474h74v-463h108v-61h-108v-165z" />
    <glyph glyph-name="four.superior" unicode="&#x2074;" horiz-adv-x="391" 
d="M98 599h142c0 110 0 160 1 205c-25 -38 -50 -76 -143 -205zM302 450h-62v100h-200v41l196 274h66v-266h67v-49h-67v-100z" />
    <glyph glyph-name="four.taboldstyle" horiz-adv-x="538" 
d="M99 61h241c0 165 0 252 2 377c-43 -73 -93 -155 -243 -377zM412 -165h-72v165h-314v50l312 474h74v-463h108v-61h-108v-165z" />
    <glyph glyph-name="fourfifths" horiz-adv-x="830" 
d="M575 676h60l-330 -676h-60zM91 410h142c0 110 0 160 1 205c-25 -38 -50 -76 -143 -205zM295 261h-62v100h-200v41l196 274h66v-266h67v-49h-67v-100zM745 129c0 69 -36 89 -85 89c-35 0 -65 -4 -121 -27l17 224h232v-57h-190l-7 -100c25 7 60 10 83 10
c91 0 138 -47 138 -138c0 -101 -67 -141 -161 -141c-32 0 -81 3 -122 20v49c45 -22 94 -25 122 -25c68 0 94 33 94 96z" />
    <glyph glyph-name="fraction" unicode="&#x2044;" horiz-adv-x="101" 
d="M185 676h60l-330 -676h-60z" />
    <glyph glyph-name="g" unicode="g" horiz-adv-x="564" 
d="M480 360v-347c0 -81 -12 -133 -40 -168c-39 -50 -113 -69 -188 -69c-62 0 -113 10 -157 29v62c52 -29 110 -37 157 -37c46 0 92 13 116 37c25 25 38 72 38 145v51c-37 -44 -89 -65 -158 -65c-126 0 -198 79 -198 249c0 201 104 268 215 268c65 0 114 -21 145 -58
c1 11 3 28 6 47h69c-4 -50 -5 -97 -5 -144zM407 269c0 110 -7 129 -27 154c-25 33 -65 44 -107 44c-79 0 -145 -69 -145 -221c0 -136 58 -200 143 -200c38 0 74 14 92 29c36 30 44 43 44 194z" />
    <glyph glyph-name="g.sc" horiz-adv-x="556" 
d="M304 33c48 0 85 8 117 23v162h-133v48h209v-237c-52 -25 -131 -41 -205 -41c-147 0 -241 78 -241 267s99 283 252 283c63 0 124 -8 160 -21v-56c-36 18 -96 30 -150 30c-116 0 -182 -68 -182 -231c0 -156 59 -227 173 -227z" />
    <glyph glyph-name="gbreve" unicode="&#x11f;" horiz-adv-x="564" 
d="M480 360v-347c0 -81 -12 -133 -40 -168c-39 -50 -113 -69 -188 -69c-62 0 -113 10 -157 29v62c52 -29 110 -37 157 -37c46 0 92 13 116 37c25 25 38 72 38 145v51c-37 -44 -89 -65 -158 -65c-126 0 -198 79 -198 249c0 201 104 268 215 268c65 0 114 -21 145 -58
c1 11 3 28 6 47h69c-4 -50 -5 -97 -5 -144zM407 269c0 110 -7 129 -27 154c-25 33 -65 44 -107 44c-79 0 -145 -69 -145 -221c0 -136 58 -200 143 -200c38 0 74 14 92 29c36 30 44 43 44 194zM158 722h51c0 -51 25 -82 74 -82c47 0 80 26 80 82h48c0 -79 -39 -141 -132 -141
c-88 0 -121 57 -121 141z" />
    <glyph glyph-name="gbreve.sc" horiz-adv-x="556" 
d="M304 33c48 0 85 8 117 23v162h-133v48h209v-237c-52 -25 -131 -41 -205 -41c-147 0 -241 78 -241 267s99 283 252 283c63 0 124 -8 160 -21v-56c-36 18 -96 30 -150 30c-116 0 -182 -68 -182 -231c0 -156 59 -227 173 -227zM174 733h51c0 -53 25 -83 74 -83
c47 0 80 26 80 83h48c0 -80 -39 -142 -132 -142c-88 0 -121 56 -121 142z" />
    <glyph glyph-name="gcircumflex" unicode="&#x11d;" horiz-adv-x="564" 
d="M480 360v-347c0 -81 -12 -133 -40 -168c-39 -50 -113 -69 -188 -69c-62 0 -113 10 -157 29v62c52 -29 110 -37 157 -37c46 0 92 13 116 37c25 25 38 72 38 145v51c-37 -44 -89 -65 -158 -65c-126 0 -198 79 -198 249c0 201 104 268 215 268c65 0 114 -21 145 -58
c1 11 3 28 6 47h69c-4 -50 -5 -97 -5 -144zM407 269c0 110 -7 129 -27 154c-25 33 -65 44 -107 44c-79 0 -145 -69 -145 -221c0 -136 58 -200 143 -200c38 0 74 14 92 29c36 30 44 43 44 194zM435 586h-69l-84 101l-85 -101h-57l114 152h67z" />
    <glyph glyph-name="gcircumflex.sc" horiz-adv-x="556" 
d="M304 33c48 0 85 8 117 23v162h-133v48h209v-237c-52 -25 -131 -41 -205 -41c-147 0 -241 78 -241 267s99 283 252 283c63 0 124 -8 160 -21v-56c-36 18 -96 30 -150 30c-116 0 -182 -68 -182 -231c0 -156 59 -227 173 -227zM450 596h-69l-84 101l-85 -101h-57l114 152h67
z" />
    <glyph glyph-name="gcommaaccent" unicode="&#x123;" horiz-adv-x="564" 
d="M480 360v-347c0 -81 -12 -133 -40 -168c-39 -50 -113 -69 -188 -69c-62 0 -113 10 -157 29v62c52 -29 110 -37 157 -37c46 0 92 13 116 37c25 25 38 72 38 145v51c-37 -44 -89 -65 -158 -65c-126 0 -198 79 -198 249c0 201 104 268 215 268c65 0 114 -21 145 -58
c1 11 3 28 6 47h69c-4 -50 -5 -97 -5 -144zM407 269c0 110 -7 129 -27 154c-25 33 -65 44 -107 44c-79 0 -145 -69 -145 -221c0 -136 58 -200 143 -200c38 0 74 14 92 29c36 30 44 43 44 194zM233 583c0 88 35 136 68 171h51c-29 -44 -42 -87 -42 -171h-77z" />
    <glyph glyph-name="gcommaaccent.sc" horiz-adv-x="556" 
d="M304 33c48 0 85 8 117 23v162h-133v48h209v-237c-52 -25 -131 -41 -205 -41c-147 0 -241 78 -241 267s99 283 252 283c63 0 124 -8 160 -21v-56c-36 18 -96 30 -150 30c-116 0 -182 -68 -182 -231c0 -156 59 -227 173 -227zM340 -69c0 -88 -35 -137 -68 -172h-52
c30 44 43 88 43 172h77z" />
    <glyph glyph-name="gdotaccent" unicode="&#x121;" horiz-adv-x="564" 
d="M480 360v-347c0 -81 -12 -133 -40 -168c-39 -50 -113 -69 -188 -69c-62 0 -113 10 -157 29v62c52 -29 110 -37 157 -37c46 0 92 13 116 37c25 25 38 72 38 145v51c-37 -44 -89 -65 -158 -65c-126 0 -198 79 -198 249c0 201 104 268 215 268c65 0 114 -21 145 -58
c1 11 3 28 6 47h69c-4 -50 -5 -97 -5 -144zM407 269c0 110 -7 129 -27 154c-25 33 -65 44 -107 44c-79 0 -145 -69 -145 -221c0 -136 58 -200 143 -200c38 0 74 14 92 29c36 30 44 43 44 194zM327 659c0 -34 -19 -46 -46 -46c-25 0 -43 9 -43 46c0 36 18 48 45 48
c25 0 44 -8 44 -48z" />
    <glyph glyph-name="gdotaccent.sc" horiz-adv-x="556" 
d="M304 33c48 0 85 8 117 23v162h-133v48h209v-237c-52 -25 -131 -41 -205 -41c-147 0 -241 78 -241 267s99 283 252 283c63 0 124 -8 160 -21v-56c-36 18 -96 30 -150 30c-116 0 -182 -68 -182 -231c0 -156 59 -227 173 -227zM345 671c0 -34 -19 -46 -46 -46
c-25 0 -43 9 -43 46c0 36 18 48 45 48c25 0 44 -8 44 -48z" />
    <glyph glyph-name="germandbls" unicode="&#xdf;" horiz-adv-x="546" 
d="M88 0v522c0 48 7 104 27 137c33 54 93 85 174 85c120 0 172 -67 172 -167c0 -106 -50 -154 -118 -176c102 -13 153 -88 153 -204c0 -134 -61 -206 -181 -206c-24 0 -55 1 -88 9v51c28 -12 50 -14 78 -14c71 0 113 56 113 157c0 105 -26 178 -166 178h-18v46h19
c70 0 129 33 129 157c0 73 -32 124 -104 124c-40 0 -80 -15 -98 -53c-13 -29 -17 -85 -17 -135v-511h-75z" />
    <glyph glyph-name="germandbls.sc" horiz-adv-x="814" 
d="M302 136c0 34 -22 64 -81 89l-52 22c-81 33 -121 74 -121 151c0 86 71 140 173 140c46 0 92 -8 128 -23v-55c-39 18 -77 32 -127 32c-72 0 -107 -29 -107 -87c0 -26 17 -60 78 -86l52 -22c99 -43 129 -80 129 -158c0 -89 -71 -151 -188 -151c-49 0 -110 10 -146 26v61
c41 -20 89 -39 145 -39c83 0 117 38 117 100zM709 136c0 34 -22 64 -81 89l-52 22c-81 33 -121 74 -121 151c0 86 71 140 173 140c46 0 92 -8 128 -23v-55c-39 18 -77 32 -127 32c-72 0 -107 -29 -107 -87c0 -26 17 -60 78 -86l52 -22c99 -43 129 -80 129 -158
c0 -89 -71 -151 -188 -151c-49 0 -110 10 -146 26v61c41 -20 89 -39 145 -39c83 0 117 38 117 100z" />
    <glyph glyph-name="grave" unicode="`" 
d="M216 586h-67l-144 137h107z" />
    <glyph glyph-name="grave.cap" 
d="M232 766h-67l-176 138h118z" />
    <glyph glyph-name="grave.sc" 
d="M216 596h-67l-144 137h107z" />
    <glyph glyph-name="greater" unicode="&#x3e;" horiz-adv-x="741" 
d="M145 577l479 -229v-75l-479 -234v74l412 196l-412 191v77z" />
    <glyph glyph-name="greaterequal" unicode="&#x2265;" horiz-adv-x="741" 
d="M127 655l479 -219v-75l-479 -223v75l410 185l-410 180v77zM606 0h-479v63h479v-63z" />
    <glyph glyph-name="guillemotleft" unicode="&#xab;" horiz-adv-x="473" 
d="M232 488v-80l-120 -124l120 -125v-94l-183 189v47zM419 488v-80l-120 -124l120 -125v-94l-183 189v47z" />
    <glyph glyph-name="guillemotleft.cap" horiz-adv-x="473" 
d="M232 548v-80l-120 -124l120 -125v-94l-183 189v47zM419 548v-80l-120 -124l120 -125v-94l-183 189v47z" />
    <glyph glyph-name="guillemotright" unicode="&#xbb;" horiz-adv-x="473" 
d="M242 65v79l120 124l-120 126v94l182 -189v-47zM54 65v79l120 124l-120 126v94l183 -189v-47z" />
    <glyph glyph-name="guillemotright.cap" horiz-adv-x="473" 
d="M242 125v79l120 124l-120 126v94l182 -189v-47zM54 125v79l120 124l-120 126v94l183 -189v-47z" />
    <glyph glyph-name="guilsinglleft" unicode="&#x2039;" horiz-adv-x="286" 
d="M232 488v-80l-120 -124l120 -125v-94l-183 189v47z" />
    <glyph glyph-name="guilsinglleft.cap" horiz-adv-x="286" 
d="M232 548v-80l-120 -124l120 -125v-94l-183 189v47z" />
    <glyph glyph-name="guilsinglright" unicode="&#x203a;" horiz-adv-x="286" 
d="M54 65v79l120 124l-120 126v94l183 -189v-47z" />
    <glyph glyph-name="guilsinglright.cap" horiz-adv-x="286" 
d="M54 125v79l120 124l-120 126v94l183 -189v-47z" />
    <glyph glyph-name="h" unicode="h" horiz-adv-x="560" 
d="M404 0v281c0 61 -3 98 -10 123c-12 40 -39 61 -90 61c-41 0 -93 -14 -122 -49c-20 -25 -22 -46 -22 -102v-314h-75v746h76v-301c51 57 124 72 172 72c73 0 123 -29 139 -105c6 -27 6 -55 6 -115v-297h-74z" />
    <glyph glyph-name="h.sc" horiz-adv-x="592" 
d="M430 252h-268v-252h-77v526h77v-229h268v229h77v-526h-77v252z" />
    <glyph glyph-name="hbar" unicode="&#x127;" horiz-adv-x="560" 
d="M309 577h-148v-132c51 57 124 72 172 72c73 0 123 -29 139 -105c6 -27 6 -55 6 -115v-297h-74v281c0 61 -3 98 -10 123c-12 40 -39 61 -90 61c-41 0 -93 -14 -122 -49c-20 -25 -22 -46 -22 -102v-314h-75v577h-65v46h65v123h76v-123h148v-46z" />
    <glyph glyph-name="hbar.sc" horiz-adv-x="592" 
d="M162 0h-77v371h-68v46h68v109h77v-109h268v109h77v-109h67v-46h-67v-371h-77v252h-268v-252zM162 297h268v74h-268v-74z" />
    <glyph glyph-name="hcircumflex" unicode="&#x125;" horiz-adv-x="560" 
d="M404 0v281c0 61 -3 98 -10 123c-12 40 -39 61 -90 61c-41 0 -93 -14 -122 -49c-20 -25 -22 -46 -22 -102v-314h-75v746h76v-301c51 57 124 72 172 72c73 0 123 -29 139 -105c6 -27 6 -55 6 -115v-297h-74zM334 766h-85l-97 80l-97 -80h-67l144 137h61z" />
    <glyph glyph-name="hcircumflex.sc" horiz-adv-x="592" 
d="M430 252h-268v-252h-77v526h77v-229h268v229h77v-526h-77v252zM442 596h-69l-84 101l-85 -101h-57l114 152h67z" />
    <glyph glyph-name="hungarumlaut" unicode="&#x2dd;" 
d="M-9 587h-50l92 137h98zM139 587h-51l93 137h98z" />
    <glyph glyph-name="hungarumlaut.cap" 
d="M-33 766h-57l121 140h117zM131 766h-56l121 140h115z" />
    <glyph glyph-name="hungarumlaut.sc" 
d="M-9 597h-50l92 137h98zM139 597h-51l93 137h98z" />
    <glyph glyph-name="hyphen" unicode="-" horiz-adv-x="340" 
d="M296 243h-252v71h252v-71z" />
    <glyph glyph-name="hyphen.cap" horiz-adv-x="340" 
d="M296 303h-252v71h252v-71z" />
    <glyph glyph-name="hyphen.denominator" horiz-adv-x="263" 
d="M224 156h-184v59h184v-59z" />
    <glyph glyph-name="hyphen.inferior" horiz-adv-x="263" 
d="M224 -3h-184v59h184v-59z" />
    <glyph glyph-name="hyphen.numerator" horiz-adv-x="263" 
d="M224 417h-184v59h184v-59z" />
    <glyph glyph-name="hyphen.superior" horiz-adv-x="263" 
d="M224 606h-184v59h184v-59z" />
    <glyph glyph-name="i" unicode="i" horiz-adv-x="245" 
d="M161 0h-76v504h76v-504zM169 660c0 -37 -15 -50 -47 -50c-31 0 -46 11 -46 50c0 37 16 50 48 50c31 0 45 -12 45 -50z" />
    <glyph glyph-name="i.sc" horiz-adv-x="247" 
d="M162 526v-526h-77v526h77z" />
    <glyph glyph-name="iacute" unicode="&#xed;" horiz-adv-x="245" 
d="M120 586h-60l106 137h107zM167 0h-81v504h81v-504z" />
    <glyph glyph-name="iacute.sc" horiz-adv-x="247" 
d="M162 526v-526h-77v526h77zM113 596h-60l106 137h107z" />
    <glyph glyph-name="ibreve" unicode="&#x12d;" horiz-adv-x="245" 
d="M-4 722h51c0 -51 25 -82 74 -82c47 0 80 26 80 82h48c0 -79 -39 -141 -132 -141c-88 0 -121 57 -121 141zM167 0h-81v504h81v-504z" />
    <glyph glyph-name="ibreve.sc" horiz-adv-x="247" 
d="M162 526v-526h-77v526h77zM-4 733h51c0 -53 25 -83 74 -83c47 0 80 26 80 83h48c0 -80 -39 -142 -132 -142c-88 0 -121 56 -121 142z" />
    <glyph glyph-name="icircumflex" unicode="&#xee;" horiz-adv-x="245" 
d="M167 0h-81v504h81v-504zM272 586h-69l-84 101l-85 -101h-57l114 152h67z" />
    <glyph glyph-name="icircumflex.sc" horiz-adv-x="247" 
d="M162 526v-526h-77v526h77zM267 596h-69l-84 101l-85 -101h-57l114 152h67z" />
    <glyph glyph-name="idieresis" unicode="&#xef;" horiz-adv-x="245" 
d="M75 659c0 -34 -19 -46 -46 -46c-25 0 -44 9 -44 46c0 36 19 48 46 48c25 0 44 -8 44 -48zM251 659c0 -34 -18 -46 -45 -46c-26 0 -44 9 -44 46c0 36 18 48 45 48c26 0 44 -8 44 -48zM167 0h-81v504h81v-504z" />
    <glyph glyph-name="idieresis.sc" horiz-adv-x="247" 
d="M162 526v-526h-77v526h77zM79 671c0 -34 -19 -46 -46 -46c-25 0 -44 9 -44 46c0 36 19 48 46 48c25 0 44 -8 44 -48zM255 671c0 -34 -18 -46 -45 -46c-26 0 -44 9 -44 46c0 36 18 48 45 48c26 0 44 -8 44 -48z" />
    <glyph glyph-name="idotaccent" horiz-adv-x="245" 
d="M161 0h-76v504h76v-504zM169 660c0 -37 -15 -50 -47 -50c-31 0 -46 11 -46 50c0 37 16 50 48 50c31 0 45 -12 45 -50z" />
    <glyph glyph-name="idotaccent.sc" horiz-adv-x="247" 
d="M162 526v-526h-77v526h77zM167 671c0 -34 -19 -46 -46 -46c-25 0 -43 9 -43 46c0 36 18 48 45 48c25 0 44 -8 44 -48z" />
    <glyph glyph-name="igrave" unicode="&#xec;" horiz-adv-x="245" 
d="M196 586h-67l-144 137h107zM167 0h-81v504h81v-504z" />
    <glyph glyph-name="igrave.sc" horiz-adv-x="247" 
d="M162 526v-526h-77v526h77zM182 596h-67l-144 137h107z" />
    <glyph glyph-name="ij" unicode="&#x133;" horiz-adv-x="505" 
d="M161 0h-76v504h76v-504zM169 660c0 -37 -15 -50 -47 -50c-31 0 -46 11 -46 50c0 37 16 50 48 50c31 0 45 -12 45 -50zM338 -44v548h76v-541c0 -65 -9 -108 -30 -133c-27 -30 -67 -45 -126 -45c-17 0 -40 2 -57 6v48c15 -4 40 -6 51 -6c32 0 52 9 65 22
c16 15 21 49 21 101zM423 660c0 -37 -15 -50 -47 -50c-31 0 -46 11 -46 50c0 37 16 50 48 50c31 0 45 -12 45 -50z" />
    <glyph glyph-name="ij.sc" horiz-adv-x="610" 
d="M162 526v-526h-77v526h77zM282 -1v55c27 -11 56 -17 83 -17c28 0 59 5 74 31c13 21 15 55 15 110v348h76v-358c0 -61 -9 -92 -23 -117c-23 -39 -74 -63 -138 -63c-36 0 -62 5 -87 11z" />
    <glyph glyph-name="imacron" unicode="&#x12b;" horiz-adv-x="245" 
d="M167 0h-81v504h81v-504zM263 605h-281v62h281v-62z" />
    <glyph glyph-name="imacron.sc" horiz-adv-x="247" 
d="M162 526v-526h-77v526h77zM264 618h-281v62h281v-62z" />
    <glyph glyph-name="infinity" unicode="&#x221e;" horiz-adv-x="772" 
d="M386 350c60 80 115 108 173 108c88 0 149 -63 149 -155c0 -96 -64 -161 -154 -161c-47 0 -103 22 -169 110c-59 -80 -112 -109 -174 -109c-85 0 -147 58 -147 153c0 98 65 163 156 163c57 0 112 -23 166 -109zM350 301c-50 72 -93 101 -133 101c-56 0 -92 -44 -92 -101
c0 -59 37 -101 89 -101c45 0 90 29 136 101zM422 302c60 -83 102 -104 135 -104c54 0 89 43 89 100c0 60 -36 103 -89 103c-43 0 -83 -27 -135 -99z" />
    <glyph glyph-name="integral" unicode="&#x222b;" horiz-adv-x="360" 
d="M154 -52c0 24 -2 70 -3 93l-18 531c-1 27 -1 53 -1 75c0 81 36 123 122 123c27 0 47 -2 65 -6v-50c-19 6 -33 9 -54 9c-34 0 -61 -12 -61 -73c0 -22 1 -52 2 -78l19 -532c1 -28 2 -59 2 -91c0 -80 -41 -123 -124 -123c-25 0 -42 2 -61 6v50c20 -6 38 -9 53 -9
c33 0 59 12 59 75z" />
    <glyph glyph-name="iogonek" unicode="&#x12f;" horiz-adv-x="245" 
d="M161 0h-9c-49 -35 -77 -70 -77 -129c0 -39 22 -58 49 -58c17 0 35 4 50 9l14 -30c-24 -14 -52 -21 -79 -21c-65 0 -100 37 -100 96c0 52 37 95 100 133h-24v504h76v-504zM169 660c0 -37 -15 -50 -47 -50c-31 0 -46 11 -46 50c0 37 16 50 48 50c31 0 45 -12 45 -50z" />
    <glyph glyph-name="iogonek.sc" horiz-adv-x="247" 
d="M162 526v-526h-11c-52 -38 -81 -74 -81 -138c0 -40 20 -63 50 -63c14 0 35 4 52 12l15 -33c-25 -15 -52 -22 -82 -22c-68 0 -104 40 -104 103c0 55 38 101 104 141h-20v526h77z" />
    <glyph glyph-name="itilde" unicode="&#x129;" horiz-adv-x="245" 
d="M167 0h-81v504h81v-504zM4 598l-36 14c26 61 59 94 92 94c18 0 32 -5 62 -22l21 -11c15 -8 30 -14 41 -14c23 0 40 18 54 48l39 -12c-26 -70 -59 -99 -92 -99c-20 0 -36 4 -60 17l-23 12c-22 12 -36 19 -45 19c-20 0 -35 -13 -53 -46z" />
    <glyph glyph-name="itilde.sc" horiz-adv-x="247" 
d="M162 526v-526h-77v526h77zM8 608l-31 14c26 60 54 94 87 94c18 0 32 -5 62 -22l21 -11c15 -8 30 -14 41 -14c23 0 40 18 54 48l32 -12c-26 -70 -53 -99 -86 -99c-20 0 -35 4 -59 17l-23 12c-22 12 -36 19 -45 19c-21 0 -35 -13 -53 -46z" />
    <glyph glyph-name="j" unicode="j" horiz-adv-x="249" 
d="M91 -44v548h76v-541c0 -65 -9 -108 -30 -133c-27 -30 -67 -45 -126 -45c-17 0 -40 2 -57 6v48c15 -4 40 -6 51 -6c32 0 52 9 65 22c16 15 21 49 21 101zM176 660c0 -37 -15 -50 -47 -50c-31 0 -46 11 -46 50c0 37 16 50 48 50c31 0 45 -12 45 -50z" />
    <glyph glyph-name="j.sc" horiz-adv-x="333" 
d="M5 -1v55c27 -11 56 -17 83 -17c28 0 59 5 74 31c13 21 15 55 15 110v348h76v-358c0 -61 -9 -92 -23 -117c-23 -39 -74 -63 -138 -63c-36 0 -62 5 -87 11z" />
    <glyph glyph-name="jcircumflex" unicode="&#x135;" horiz-adv-x="249" 
d="M91 -44v548h76v-541c0 -65 -9 -108 -30 -133c-27 -30 -67 -45 -126 -45c-17 0 -40 2 -57 6v48c15 -4 40 -6 51 -6c32 0 52 9 65 22c16 15 21 49 21 101zM282 586h-69l-84 101l-84 -101h-58l114 152h67z" />
    <glyph glyph-name="jcircumflex.sc" horiz-adv-x="333" 
d="M5 -1v55c27 -11 56 -17 83 -17c28 0 59 5 74 31c13 21 15 55 15 110v348h76v-358c0 -61 -9 -92 -23 -117c-23 -39 -74 -63 -138 -63c-36 0 -62 5 -87 11zM355 596h-69l-84 101l-85 -101h-57l114 152h67z" />
    <glyph glyph-name="k" unicode="k" horiz-adv-x="497" 
d="M160 0h-75v746h75v-467l222 225h80c-145 -142 -194 -187 -226 -216c43 -47 92 -101 253 -288h-98l-231 266v-266z" />
    <glyph glyph-name="k.sc" horiz-adv-x="494" 
d="M162 0h-77v526h77v-246l226 246h83c-174 -177 -200 -206 -237 -241c33 -34 58 -60 255 -285h-98l-229 265v-265z" />
    <glyph glyph-name="kcommaaccent" unicode="&#x137;" horiz-adv-x="497" 
d="M160 0h-75v746h75v-467l222 225h80c-145 -142 -194 -187 -226 -216c43 -47 92 -101 253 -288h-98l-231 266v-266zM304 -69c0 -88 -35 -137 -68 -172h-52c30 44 43 88 43 172h77z" />
    <glyph glyph-name="kcommaaccent.sc" horiz-adv-x="494" 
d="M162 0h-77v526h77v-246l226 246h83c-174 -177 -200 -206 -237 -241c33 -34 58 -60 255 -285h-98l-229 265v-265zM302 -69c0 -88 -35 -137 -68 -172h-52c30 44 43 88 43 172h77z" />
    <glyph glyph-name="kgreenlandic" unicode="&#x138;" horiz-adv-x="497" 
d="M160 0h-75v504h75v-225l222 225h80c-145 -142 -194 -187 -226 -216c43 -47 92 -101 253 -288h-98l-231 266v-266z" />
    <glyph glyph-name="kgreenlandic.sc" horiz-adv-x="494" 
d="M162 0h-77v526h77v-246l226 246h83c-174 -177 -200 -206 -237 -241c33 -34 58 -60 255 -285h-98l-229 265v-265z" />
    <glyph glyph-name="l" unicode="l" horiz-adv-x="246" 
d="M161 0h-76v746h76v-746z" />
    <glyph glyph-name="l.sc" horiz-adv-x="415" 
d="M162 526v-480h230v-46h-307v526h77z" />
    <glyph glyph-name="lacute" unicode="&#x13a;" horiz-adv-x="246" 
d="M161 0h-76v746h76v-746zM124 776h-68l125 138h119z" />
    <glyph glyph-name="lacute.sc" horiz-adv-x="415" 
d="M162 526v-480h230v-46h-307v526h77zM133 596h-60l106 137h107z" />
    <glyph glyph-name="lcaron" unicode="&#x13e;" horiz-adv-x="246" 
d="M161 0h-76v746h76v-746zM325 745c0 -73 -34 -132 -68 -164h-49c29 43 38 97 38 164h79z" />
    <glyph glyph-name="lcaron.sc" horiz-adv-x="415" 
d="M162 526v-480h230v-46h-307v526h77zM346 537c0 -73 -34 -132 -68 -164h-49c29 43 38 97 38 164h79z" />
    <glyph glyph-name="lcommaaccent" unicode="&#x13c;" horiz-adv-x="246" 
d="M161 0h-76v746h76v-746zM168 -69c0 -88 -35 -137 -68 -172h-52c30 44 43 88 43 172h77z" />
    <glyph glyph-name="lcommaaccent.sc" horiz-adv-x="415" 
d="M162 526v-480h230v-46h-307v526h77zM273 -69c0 -88 -35 -137 -68 -172h-52c30 44 43 88 43 172h77z" />
    <glyph glyph-name="ldot" unicode="&#x140;" horiz-adv-x="316" 
d="M161 0h-76v746h76v-746zM332 339c0 -35 -22 -52 -52 -52c-29 0 -52 16 -52 52c0 38 24 54 53 54s51 -15 51 -54z" />
    <glyph glyph-name="ldot.sc" horiz-adv-x="415" 
d="M162 526v-480h230v-46h-307v526h77zM373 268c0 -36 -21 -53 -52 -53c-29 0 -51 16 -51 53s23 53 53 53c29 0 50 -15 50 -53z" />
    <glyph glyph-name="less" unicode="&#x3c;" horiz-adv-x="741" 
d="M595 40l-479 229v75l479 234v-75l-413 -195l413 -192v-76z" />
    <glyph glyph-name="lessequal" unicode="&#x2264;" horiz-adv-x="741" 
d="M596 138l-479 219v75l479 223v-75l-411 -184l411 -181v-77zM596 0h-479v63h479v-63z" />
    <glyph glyph-name="logicalnot" unicode="&#xac;" horiz-adv-x="741" 
d="M623 36h-66v239h-477v64h543v-303z" />
    <glyph glyph-name="longs" unicode="&#x17f;" horiz-adv-x="253" 
d="M151 0h-74v550c0 68 10 118 35 149c27 34 71 54 128 54c21 0 53 -2 75 -7v-58c-18 7 -48 12 -66 12c-29 0 -56 -10 -72 -26c-19 -19 -26 -59 -26 -112v-562z" />
    <glyph glyph-name="lozenge" unicode="&#x25ca;" horiz-adv-x="741" 
d="M335 706h74l179 -351l-179 -355h-74l-182 354zM229 354l145 -288l138 289l-140 288z" />
    <glyph glyph-name="lslash" unicode="&#x142;" horiz-adv-x="246" 
d="M161 0h-76v321l-75 -50v52l75 50v373h76v-325l75 50v-52l-75 -50v-369z" />
    <glyph glyph-name="lslash.sc" horiz-adv-x="415" 
d="M285 322l-123 -84v-192h230v-46h-307v187l-70 -47v52l70 47v287h77v-236l123 84v-52z" />
    <glyph glyph-name="m" unicode="m" horiz-adv-x="865" 
d="M472 314v-314h-74v282c0 61 -3 98 -10 123c-11 40 -36 61 -87 61c-40 0 -88 -15 -117 -49c-21 -25 -22 -46 -22 -103v-314h-75v313c0 59 -3 144 -10 191h74c4 -17 8 -54 8 -63c48 59 124 76 170 76c62 0 113 -21 132 -82c51 62 132 82 179 82c69 0 125 -27 136 -105
c4 -27 6 -55 6 -115v-297h-74v282c0 61 -2 98 -9 123c-12 40 -37 61 -88 61c-40 0 -88 -15 -117 -49c-21 -25 -22 -46 -22 -103z" />
    <glyph glyph-name="m.sc" horiz-adv-x="691" 
d="M612 0h-77c-3 192 -5 288 -5 358v107c-23 -86 -36 -125 -153 -465h-70c-114 330 -125 362 -158 467c-1 -111 -3 -178 -10 -467h-61c16 519 16 525 16 526h110c106 -304 119 -343 145 -433c22 77 38 126 141 433h113c0 -1 0 -5 9 -526z" />
    <glyph glyph-name="macron" unicode="&#xaf;" 
d="M251 605h-281v62h281v-62z" />
    <glyph glyph-name="macron.cap" 
d="M261 793h-301v58h301v-58z" />
    <glyph glyph-name="macron.sc" 
d="M251 618h-281v62h281v-62z" />
    <glyph glyph-name="minus" unicode="&#x2212;" horiz-adv-x="741" 
d="M642 274h-543v65h543v-65z" />
    <glyph glyph-name="mu" unicode="&#xb5;" horiz-adv-x="562" 
d="M154 -211h-73v715h75v-308c0 -42 3 -76 9 -96c12 -41 42 -62 89 -62c42 0 93 13 123 45c23 24 23 38 23 103v318h74v-313c0 -59 1 -118 7 -191h-74c-2 16 -3 43 -5 58c-48 -63 -112 -71 -154 -71c-35 0 -75 12 -94 39v-237z" />
    <glyph glyph-name="multiply" unicode="&#xd7;" horiz-adv-x="741" 
d="M595 130l-45 -47l-180 178l-179 -179l-44 45l179 180l-182 182l46 47l181 -183l183 182l44 -45l-183 -182z" />
    <glyph glyph-name="n" unicode="n" horiz-adv-x="562" 
d="M406 0v283c0 61 -2 98 -9 124c-11 39 -40 59 -91 59c-45 0 -95 -20 -122 -59c-18 -27 -22 -46 -22 -104v-303h-75v313c0 59 -3 144 -10 191h74c4 -17 8 -64 8 -73c46 66 129 86 175 86c70 0 129 -27 140 -105c4 -27 6 -55 6 -115v-297h-74z" />
    <glyph glyph-name="n.sc" horiz-adv-x="603" 
d="M518 0h-86c-229 347 -250 381 -289 444c2 -106 3 -170 3 -444h-61v526h95c210 -311 242 -365 280 -430c-2 105 -3 164 -3 430h61v-526z" />
    <glyph glyph-name="nacute" unicode="&#x144;" horiz-adv-x="562" 
d="M405 0v283c0 61 -2 98 -9 124c-11 39 -40 59 -91 59c-45 0 -95 -20 -122 -59c-18 -27 -22 -46 -22 -104v-303h-75v313c0 59 -3 144 -10 191h74c4 -17 8 -64 8 -73c46 66 129 86 175 86c70 0 129 -27 140 -105c4 -27 6 -55 6 -115v-297h-74zM279 586h-60l106 137h107z" />
    <glyph glyph-name="nacute.sc" horiz-adv-x="603" 
d="M518 0h-86c-229 347 -250 381 -289 444c2 -106 3 -170 3 -444h-61v526h95c210 -311 242 -365 280 -430c-2 105 -3 164 -3 430h61v-526zM310 596h-60l106 137h107z" />
    <glyph glyph-name="napostrophe" unicode="&#x149;" horiz-adv-x="562" 
d="M405 0v283c0 61 -2 98 -9 124c-11 39 -40 59 -91 59c-45 0 -95 -20 -122 -59c-18 -27 -22 -46 -22 -104v-303h-75v313c0 59 -3 144 -10 191h74c4 -17 8 -64 8 -73c46 66 129 86 175 86c70 0 129 -27 140 -105c4 -27 6 -55 6 -115v-297h-74zM176 729
c0 -73 -34 -132 -68 -164h-49c29 43 38 97 38 164h79z" />
    <glyph glyph-name="ncaron" unicode="&#x148;" horiz-adv-x="562" 
d="M405 0v283c0 61 -2 98 -9 124c-11 39 -40 59 -91 59c-45 0 -95 -20 -122 -59c-18 -27 -22 -46 -22 -104v-303h-75v313c0 59 -3 144 -10 191h74c4 -17 8 -64 8 -73c46 66 129 86 175 86c70 0 129 -27 140 -105c4 -27 6 -55 6 -115v-297h-74zM128 727h69l83 -101l85 101h58
l-114 -152h-67z" />
    <glyph glyph-name="ncaron.sc" horiz-adv-x="603" 
d="M518 0h-86c-229 347 -250 381 -289 444c2 -106 3 -170 3 -444h-61v526h95c210 -311 242 -365 280 -430c-2 105 -3 164 -3 430h61v-526zM159 737h69l83 -101l85 101h58l-114 -152h-67z" />
    <glyph glyph-name="ncommaaccent" unicode="&#x146;" horiz-adv-x="562" 
d="M405 0v283c0 61 -2 98 -9 124c-11 39 -40 59 -91 59c-45 0 -95 -20 -122 -59c-18 -27 -22 -46 -22 -104v-303h-75v313c0 59 -3 144 -10 191h74c4 -17 8 -64 8 -73c46 66 129 86 175 86c70 0 129 -27 140 -105c4 -27 6 -55 6 -115v-297h-74zM328 -69
c0 -88 -35 -137 -68 -172h-52c30 44 43 88 43 172h77z" />
    <glyph glyph-name="ncommaaccent.sc" horiz-adv-x="603" 
d="M518 0h-86c-229 347 -250 381 -289 444c2 -106 3 -170 3 -444h-61v526h95c210 -311 242 -365 280 -430c-2 105 -3 164 -3 430h61v-526zM346 -69c0 -88 -35 -137 -68 -172h-52c30 44 43 88 43 172h77z" />
    <glyph glyph-name="nine" unicode="9" horiz-adv-x="572" 
d="M97 6v56c43 -20 80 -29 136 -29c124 0 197 104 207 293c-35 -57 -113 -89 -181 -89c-125 0 -209 63 -209 219c0 145 91 233 229 233c119 0 232 -49 232 -319c0 -301 -123 -385 -279 -385c-63 0 -100 8 -135 21zM131 453c0 -112 50 -165 144 -165c104 0 155 73 155 156
c0 90 -42 196 -152 196c-94 0 -147 -69 -147 -187z" />
    <glyph glyph-name="nine.denominator" horiz-adv-x="391" 
d="M71 3v46c32 -13 57 -16 92 -16c68 0 109 42 115 151c-19 -29 -64 -45 -99 -45c-92 0 -141 39 -141 142c0 90 52 146 151 146c82 0 153 -30 153 -201c0 -189 -72 -237 -174 -237c-44 0 -73 7 -97 14zM103 280c0 -64 29 -98 82 -98c67 0 88 47 88 94c0 53 -21 110 -86 110
c-55 0 -84 -38 -84 -106z" />
    <glyph glyph-name="nine.fitted" horiz-adv-x="588" 
d="M101 7v56c43 -20 80 -29 136 -29c124 0 197 104 207 293c-35 -57 -113 -89 -181 -89c-125 0 -209 63 -209 219c0 145 91 233 229 233c119 0 232 -49 232 -318c0 -302 -123 -386 -279 -386c-63 0 -100 8 -135 21zM135 454c0 -112 50 -165 144 -165c104 0 155 73 155 156
c0 90 -42 196 -152 196c-94 0 -147 -69 -147 -187z" />
    <glyph glyph-name="nine.inferior" unicode="&#x2089;" horiz-adv-x="391" 
d="M71 -156v46c32 -13 57 -16 92 -16c68 0 109 42 115 151c-19 -29 -64 -45 -99 -45c-92 0 -141 39 -141 142c0 90 52 146 151 146c82 0 153 -30 153 -201c0 -189 -72 -237 -174 -237c-44 0 -73 7 -97 14zM103 121c0 -64 29 -98 82 -98c67 0 88 47 88 94
c0 53 -21 110 -86 110c-55 0 -84 -38 -84 -106z" />
    <glyph glyph-name="nine.numerator" horiz-adv-x="391" 
d="M71 264v46c32 -13 57 -16 92 -16c68 0 109 42 115 151c-19 -29 -64 -45 -99 -45c-92 0 -141 39 -141 142c0 90 52 146 151 146c82 0 153 -30 153 -201c0 -189 -72 -237 -174 -237c-44 0 -73 7 -97 14zM103 541c0 -64 29 -98 82 -98c67 0 88 47 88 94
c0 53 -21 110 -86 110c-55 0 -84 -38 -84 -106z" />
    <glyph glyph-name="nine.oldstyle" horiz-adv-x="572" 
d="M133 304c0 -110 48 -168 137 -168c98 0 149 83 149 162c0 88 -40 193 -140 193c-94 0 -146 -69 -146 -187zM107 -166v53c17 -2 40 -3 56 -3c155 0 251 107 264 295c-29 -56 -96 -92 -172 -92c-119 0 -196 60 -196 220c0 140 79 231 223 231c121 0 217 -63 217 -323
c0 -297 -174 -383 -334 -383c-18 0 -41 1 -58 2z" />
    <glyph glyph-name="nine.superior" unicode="&#x2079;" horiz-adv-x="391" 
d="M71 453v46c32 -13 57 -16 92 -16c68 0 109 42 115 151c-19 -29 -64 -45 -99 -45c-92 0 -141 39 -141 142c0 90 52 146 151 146c82 0 153 -30 153 -201c0 -189 -72 -237 -174 -237c-44 0 -73 7 -97 14zM103 730c0 -64 29 -98 82 -98c67 0 88 47 88 94
c0 53 -21 110 -86 110c-55 0 -84 -38 -84 -106z" />
    <glyph glyph-name="nine.taboldstyle" horiz-adv-x="538" 
d="M121 304c0 -110 48 -168 137 -168c98 0 149 83 149 162c0 88 -40 193 -140 193c-94 0 -146 -69 -146 -187zM95 -166v52c17 -2 40 -3 56 -3c155 0 251 108 264 296c-29 -56 -96 -92 -172 -92c-119 0 -196 60 -196 220c0 140 79 231 223 231c121 0 216 -62 216 -322
c0 -297 -173 -384 -333 -384c-18 0 -41 1 -58 2z" />
    <glyph glyph-name="notequal" unicode="&#x2260;" horiz-adv-x="741" 
d="M543 593l-79 -160h177v-65h-209l-63 -126h272v-65h-303l-84 -171h-61l85 171h-178v65h209l62 126h-271v65h303l79 160h61z" />
    <glyph glyph-name="ntilde" unicode="&#xf1;" horiz-adv-x="562" 
d="M405 0v283c0 61 -2 98 -9 124c-11 39 -40 59 -91 59c-45 0 -95 -20 -122 -59c-18 -27 -22 -46 -22 -104v-303h-75v313c0 59 -3 144 -10 191h74c4 -17 8 -64 8 -73c46 66 129 86 175 86c70 0 129 -27 140 -105c4 -27 6 -55 6 -115v-297h-74zM162 598l-36 14
c26 61 59 94 92 94c18 0 32 -5 62 -22l21 -11c15 -8 30 -14 41 -14c23 0 40 18 54 48l39 -12c-26 -70 -59 -99 -92 -99c-20 0 -36 4 -60 17l-23 12c-22 12 -36 19 -45 19c-20 0 -35 -13 -53 -46z" />
    <glyph glyph-name="ntilde.sc" horiz-adv-x="603" 
d="M518 0h-86c-229 347 -250 381 -289 444c2 -106 3 -170 3 -444h-61v526h95c210 -311 242 -365 280 -430c-2 105 -3 164 -3 430h61v-526zM195 599l-31 14c26 60 54 94 87 94c18 0 32 -5 62 -22l21 -11c15 -8 30 -14 41 -14c23 0 40 18 54 48l32 -12
c-26 -70 -53 -99 -86 -99c-20 0 -35 4 -59 17l-23 12c-22 12 -36 19 -45 19c-21 0 -35 -13 -53 -46z" />
    <glyph glyph-name="numbersign" unicode="#" horiz-adv-x="641" 
d="M206 -10h-48l33 234h-143v68h153l16 116h-145v68h155l30 209h48l-30 -209h132l30 209h48l-30 -209h139v-68h-149l-16 -116h141v-68h-151l-33 -234h-48l33 234h-132zM265 408l-16 -116h132l16 116h-132z" />
    <glyph glyph-name="numbersign.oldstyle" horiz-adv-x="622" 
d="M549 170h-145l-31 -217h-46l31 217h-126l-31 -217h-45l31 217h-136v63h145l15 103h-137v64h146l29 198h46l-29 -198h125l29 198h46l-29 -198h135v-64h-144l-15 -103h136v-63zM256 336l-15 -103h126l15 103h-126z" />
    <glyph glyph-name="o" unicode="o" horiz-adv-x="542" 
d="M492 253c0 -166 -67 -265 -223 -265c-143 0 -219 91 -219 264s86 265 228 265c148 0 214 -80 214 -264zM414 254c0 150 -40 218 -138 218c-93 0 -148 -69 -148 -221c0 -144 48 -219 145 -219c105 0 141 88 141 222z" />
    <glyph glyph-name="o.sc" horiz-adv-x="573" 
d="M522 271c0 -188 -77 -283 -240 -283c-156 0 -231 92 -231 275c0 188 94 275 242 275c160 0 229 -90 229 -267zM443 265c0 156 -46 230 -154 230c-102 0 -158 -72 -158 -231c0 -170 59 -232 153 -232c104 0 159 69 159 233z" />
    <glyph glyph-name="oacute" unicode="&#xf3;" horiz-adv-x="542" 
d="M492 253c0 -166 -67 -265 -223 -265c-143 0 -219 91 -219 264s86 265 228 265c148 0 214 -80 214 -264zM414 254c0 150 -40 218 -138 218c-93 0 -148 -69 -148 -221c0 -144 48 -219 145 -219c105 0 141 88 141 222zM263 586h-60l106 137h107z" />
    <glyph glyph-name="oacute.sc" horiz-adv-x="573" 
d="M522 271c0 -188 -77 -283 -240 -283c-156 0 -231 92 -231 275c0 188 94 275 242 275c160 0 229 -90 229 -267zM443 265c0 156 -46 230 -154 230c-102 0 -158 -72 -158 -231c0 -170 59 -232 153 -232c104 0 159 69 159 233zM275 596h-60l106 137h107z" />
    <glyph glyph-name="obreve" unicode="&#x14f;" horiz-adv-x="542" 
d="M492 253c0 -166 -67 -265 -223 -265c-143 0 -219 91 -219 264s86 265 228 265c148 0 214 -80 214 -264zM414 254c0 150 -40 218 -138 218c-93 0 -148 -69 -148 -221c0 -144 48 -219 145 -219c105 0 141 88 141 222zM148 722h51c0 -51 25 -82 74 -82c47 0 80 26 80 82h48
c0 -79 -39 -141 -132 -141c-88 0 -121 57 -121 141z" />
    <glyph glyph-name="obreve.sc" horiz-adv-x="573" 
d="M522 271c0 -188 -77 -283 -240 -283c-156 0 -231 92 -231 275c0 188 94 275 242 275c160 0 229 -90 229 -267zM443 265c0 156 -46 230 -154 230c-102 0 -158 -72 -158 -231c0 -170 59 -232 153 -232c104 0 159 69 159 233zM164 733h51c0 -53 25 -83 74 -83
c47 0 80 26 80 83h48c0 -80 -39 -142 -132 -142c-88 0 -121 56 -121 142z" />
    <glyph glyph-name="ocircumflex" unicode="&#xf4;" horiz-adv-x="542" 
d="M492 253c0 -166 -67 -265 -223 -265c-143 0 -219 91 -219 264s86 265 228 265c148 0 214 -80 214 -264zM414 254c0 150 -40 218 -138 218c-93 0 -148 -69 -148 -221c0 -144 48 -219 145 -219c105 0 141 88 141 222zM416 586h-69l-84 101l-85 -101h-57l114 152h67z" />
    <glyph glyph-name="ocircumflex.sc" horiz-adv-x="573" 
d="M522 271c0 -188 -77 -283 -240 -283c-156 0 -231 92 -231 275c0 188 94 275 242 275c160 0 229 -90 229 -267zM443 265c0 156 -46 230 -154 230c-102 0 -158 -72 -158 -231c0 -170 59 -232 153 -232c104 0 159 69 159 233zM437 596h-69l-84 101l-85 -101h-57l114 152h67z
" />
    <glyph glyph-name="odieresis" unicode="&#xf6;" horiz-adv-x="542" 
d="M492 253c0 -166 -67 -265 -223 -265c-143 0 -219 91 -219 264s86 265 228 265c148 0 214 -80 214 -264zM414 254c0 150 -40 218 -138 218c-93 0 -148 -69 -148 -221c0 -144 48 -219 145 -219c105 0 141 88 141 222zM226 659c0 -34 -19 -46 -46 -46c-25 0 -44 9 -44 46
c0 36 19 48 46 48c25 0 44 -8 44 -48zM402 659c0 -34 -18 -46 -45 -46c-26 0 -44 9 -44 46c0 36 18 48 45 48c26 0 44 -8 44 -48z" />
    <glyph glyph-name="odieresis.sc" horiz-adv-x="573" 
d="M522 271c0 -188 -77 -283 -240 -283c-156 0 -231 92 -231 275c0 188 94 275 242 275c160 0 229 -90 229 -267zM443 265c0 156 -46 230 -154 230c-102 0 -158 -72 -158 -231c0 -170 59 -232 153 -232c104 0 159 69 159 233zM246 671c0 -34 -19 -46 -46 -46
c-25 0 -44 9 -44 46c0 36 19 48 46 48c25 0 44 -8 44 -48zM422 671c0 -34 -18 -46 -45 -46c-26 0 -44 9 -44 46c0 36 18 48 45 48c26 0 44 -8 44 -48z" />
    <glyph glyph-name="oe" unicode="&#x153;" horiz-adv-x="855" 
d="M819 253h-333v-12c3 -139 60 -204 160 -204c68 0 112 22 153 44v-56c-35 -19 -86 -38 -166 -38c-87 0 -147 30 -185 93c-35 -59 -88 -92 -176 -92c-142 0 -222 91 -222 264s88 265 230 265c85 0 138 -29 173 -89c36 55 92 89 169 89c96 0 143 -39 172 -99
c18 -39 25 -91 25 -145v-20zM415 254c0 157 -42 218 -137 218c-91 0 -150 -69 -150 -221c0 -144 55 -219 149 -219c103 0 138 88 138 222zM736 295c0 108 -22 178 -115 178c-64 0 -130 -42 -133 -178h248z" />
    <glyph glyph-name="oe.sc" horiz-adv-x="774" 
d="M730 478h-250v-179h238v-47h-238v-204h259v-48h-336c-28 -4 -62 -8 -109 -8c-163 0 -243 70 -243 271c0 192 98 272 251 272c39 0 69 -3 101 -9h327v-48zM308 35c50 0 73 4 95 9v437c-41 8 -61 11 -99 11c-113 0 -173 -58 -173 -228c0 -173 55 -229 177 -229z" />
    <glyph glyph-name="ogonek" unicode="&#x2db;" 
d="M172 5c-54 -37 -85 -72 -85 -134c0 -39 22 -58 49 -58c17 0 35 4 50 9l14 -30c-24 -14 -52 -21 -79 -21c-65 0 -100 37 -100 96c0 54 41 98 109 138h42z" />
    <glyph glyph-name="ogonek.cap" 
d="M175 5c-56 -39 -88 -77 -88 -142c0 -41 20 -64 50 -64c14 0 35 4 52 13l15 -34c-25 -15 -52 -22 -82 -22c-68 0 -104 40 -104 103c0 57 42 104 113 146h44z" />
    <glyph glyph-name="ogonek.sc" 
d="M175 5c-56 -40 -88 -77 -88 -143c0 -40 20 -63 50 -63c14 0 35 4 52 12l15 -33c-25 -15 -52 -22 -82 -22c-68 0 -104 40 -104 103c0 57 42 104 113 146h44z" />
    <glyph glyph-name="ograve" unicode="&#xf2;" horiz-adv-x="542" 
d="M492 253c0 -166 -67 -265 -223 -265c-143 0 -219 91 -219 264s86 265 228 265c148 0 214 -80 214 -264zM414 254c0 150 -40 218 -138 218c-93 0 -148 -69 -148 -221c0 -144 48 -219 145 -219c105 0 141 88 141 222zM329 586h-67l-144 137h107z" />
    <glyph glyph-name="ograve.sc" horiz-adv-x="573" 
d="M522 271c0 -188 -77 -283 -240 -283c-156 0 -231 92 -231 275c0 188 94 275 242 275c160 0 229 -90 229 -267zM443 265c0 156 -46 230 -154 230c-102 0 -158 -72 -158 -231c0 -170 59 -232 153 -232c104 0 159 69 159 233zM361 596h-67l-144 137h107z" />
    <glyph glyph-name="ohungarumlaut" unicode="&#x151;" horiz-adv-x="542" 
d="M492 253c0 -166 -67 -265 -223 -265c-143 0 -219 91 -219 264s86 265 228 265c148 0 214 -80 214 -264zM414 254c0 150 -40 218 -138 218c-93 0 -148 -69 -148 -221c0 -144 48 -219 145 -219c105 0 141 88 141 222zM202 587h-50l92 137h98zM350 587h-51l93 137h98z" />
    <glyph glyph-name="ohungarumlaut.sc" horiz-adv-x="573" 
d="M522 271c0 -188 -77 -283 -240 -283c-156 0 -231 92 -231 275c0 188 94 275 242 275c160 0 229 -90 229 -267zM443 265c0 156 -46 230 -154 230c-102 0 -158 -72 -158 -231c0 -170 59 -232 153 -232c104 0 159 69 159 233zM222 597h-50l92 137h98zM370 597h-51l93 137h98
z" />
    <glyph glyph-name="omacron" unicode="&#x14d;" horiz-adv-x="542" 
d="M492 253c0 -166 -67 -265 -223 -265c-143 0 -219 91 -219 264s86 265 228 265c148 0 214 -80 214 -264zM414 254c0 150 -40 218 -138 218c-93 0 -148 -69 -148 -221c0 -144 48 -219 145 -219c105 0 141 88 141 222zM410 605h-281v62h281v-62z" />
    <glyph glyph-name="omacron.sc" horiz-adv-x="573" 
d="M522 271c0 -188 -77 -283 -240 -283c-156 0 -231 92 -231 275c0 188 94 275 242 275c160 0 229 -90 229 -267zM443 265c0 156 -46 230 -154 230c-102 0 -158 -72 -158 -231c0 -170 59 -232 153 -232c104 0 159 69 159 233zM430 618h-281v62h281v-62z" />
    <glyph glyph-name="one" unicode="1" horiz-adv-x="572" 
d="M351 0h-78v609c-33 -21 -89 -54 -140 -82v59c50 26 105 57 155 90h63v-676z" />
    <glyph glyph-name="one.denominator" horiz-adv-x="391" 
d="M86 304v47c31 16 71 41 103 64h51v-415h-62v357c-23 -15 -59 -37 -92 -53z" />
    <glyph glyph-name="one.fitted" horiz-adv-x="417" 
d="M267 0h-78v609c-33 -21 -90 -54 -140 -82v59c49 26 105 57 155 90h63v-676z" />
    <glyph glyph-name="one.inferior" unicode="&#x2081;" horiz-adv-x="391" 
d="M86 145v47c31 16 71 41 103 64h51v-415h-62v357c-23 -15 -59 -37 -92 -53z" />
    <glyph glyph-name="one.numerator" horiz-adv-x="391" 
d="M86 565v47c31 16 71 41 103 64h51v-415h-62v357c-23 -15 -59 -37 -92 -53z" />
    <glyph glyph-name="one.oldstyle" horiz-adv-x="441" 
d="M282 0h-73v460c-38 -26 -94 -57 -155 -84v50c58 27 127 68 166 98h62v-524z" />
    <glyph glyph-name="one.taboldstyle" horiz-adv-x="538" 
d="M335 0h-74v460c-38 -26 -93 -57 -154 -84v50c58 27 127 68 165 98h63v-524z" />
    <glyph glyph-name="oneeighth" unicode="&#x215b;" horiz-adv-x="830" 
d="M497 676h60l-330 -676h-60zM50 565v47c31 16 71 41 103 64h51v-415h-62v357c-23 -15 -59 -37 -92 -53zM751 314c0 -46 -21 -75 -67 -94c51 -15 78 -51 78 -105c0 -74 -54 -126 -153 -126s-152 45 -152 124c0 54 26 89 81 106c-49 17 -66 49 -66 95c0 62 46 113 138 113
c95 0 141 -44 141 -113zM696 113c0 62 -41 85 -86 85c-48 0 -87 -24 -87 -83c0 -62 40 -85 87 -85c53 0 86 29 86 83zM685 312c0 38 -18 74 -75 74c-56 0 -76 -37 -76 -76c0 -51 36 -71 76 -71c34 0 75 13 75 73z" />
    <glyph glyph-name="onefifth" horiz-adv-x="830" 
d="M495 676h60l-330 -676h-60zM50 565v47c31 16 71 41 103 64h51v-415h-62v357c-23 -15 -59 -37 -92 -53zM675 129c0 69 -36 89 -85 89c-35 0 -65 -4 -121 -27l17 224h232v-57h-190l-7 -100c25 7 60 10 83 10c91 0 138 -47 138 -138c0 -101 -67 -141 -161 -141
c-32 0 -81 3 -122 20v49c45 -22 94 -25 122 -25c68 0 94 33 94 96z" />
    <glyph glyph-name="onehalf" unicode="&#xbd;" horiz-adv-x="830" 
d="M511 676h60l-330 -676h-60zM65 565v47c31 16 71 41 103 64h51v-415h-62v357c-23 -15 -59 -37 -92 -53zM607 427c99 0 143 -45 143 -118c0 -42 -18 -81 -52 -118c-52 -54 -100 -94 -158 -136c63 1 148 1 215 1v-56h-292v40c82 69 129 111 182 169c34 35 39 69 39 96
c0 46 -23 78 -81 78c-34 0 -63 -7 -109 -28v48c33 16 76 24 113 24z" />
    <glyph glyph-name="onequarter" unicode="&#xbc;" horiz-adv-x="830" 
d="M511 676h60l-330 -676h-60zM65 565v47c31 16 71 41 103 64h51v-415h-62v357c-23 -15 -59 -37 -92 -53zM479 149h142c0 110 0 160 1 205c-25 -38 -50 -76 -143 -205zM683 0h-62v100h-200v41l196 274h66v-266h67v-49h-67v-100z" />
    <glyph glyph-name="onesuperior" unicode="&#xb9;" horiz-adv-x="391" 
d="M86 754v47c31 16 71 41 103 64h51v-415h-62v357c-23 -15 -59 -37 -92 -53z" />
    <glyph glyph-name="onethird" unicode="&#x2153;" horiz-adv-x="830" 
d="M511 676h60l-330 -676h-60zM64 565v47c31 16 71 41 103 64h51v-415h-62v357c-23 -15 -59 -37 -92 -53zM592 -11c-30 0 -74 3 -113 20v49c43 -20 85 -25 113 -25c70 0 92 39 92 82c0 46 -25 77 -97 77h-34v44h33c75 0 91 41 91 76c0 52 -30 71 -78 71
c-29 0 -63 -7 -108 -28v47c42 18 80 25 112 25c94 0 139 -36 139 -113c0 -46 -25 -80 -72 -97c49 -12 81 -46 81 -99c0 -95 -70 -129 -159 -129z" />
    <glyph glyph-name="ordfeminine" unicode="&#xaa;" horiz-adv-x="340" 
d="M245 280c-1 4 -4 28 -4 36c-26 -28 -60 -43 -101 -43c-69 0 -113 40 -113 98c0 83 75 108 192 108h18v26c0 22 -2 41 -9 51c-11 17 -27 22 -55 22c-24 0 -71 -5 -114 -30v41c34 17 84 29 120 29c41 0 68 -6 86 -19c21 -16 33 -38 33 -94v-149c0 -23 0 -46 5 -76h-58z
M237 443h-22c-89 0 -127 -23 -127 -70c0 -40 28 -62 68 -62c26 0 50 9 67 28c13 12 14 29 14 43v61z" />
    <glyph glyph-name="ordmasculine" unicode="&#xba;" horiz-adv-x="358" 
d="M328 444c0 -108 -49 -173 -150 -173c-96 0 -148 59 -148 173c0 118 58 174 152 174c98 0 146 -54 146 -174zM267 445c0 98 -28 133 -89 133c-55 0 -86 -40 -86 -135c0 -100 30 -134 88 -134c61 0 87 47 87 136z" />
    <glyph glyph-name="oslash" unicode="&#xf8;" horiz-adv-x="542" 
d="M126 -61l-43 21l42 75c-50 44 -75 116 -75 217c0 173 86 265 228 265c40 0 75 -6 104 -19l39 71l42 -22l-42 -75c46 -42 71 -114 71 -219c0 -166 -67 -265 -223 -265c-39 0 -76 8 -104 21zM128 251c0 -67 10 -118 30 -155l196 353c-20 15 -46 23 -78 23
c-93 0 -148 -69 -148 -221zM414 254c0 66 -11 118 -29 153l-194 -351c21 -15 50 -24 82 -24c105 0 141 88 141 222z" />
    <glyph glyph-name="oslash.sc" horiz-adv-x="573" 
d="M115 -52l-45 25l46 75c-44 45 -65 117 -65 215c0 188 94 275 242 275c44 0 82 -7 113 -21l46 74l44 -25l-47 -76c50 -44 73 -117 73 -219c0 -188 -77 -283 -240 -283c-50 0 -92 9 -125 28zM443 265c0 72 -10 126 -31 164l-224 -363c25 -24 57 -34 96 -34
c104 0 159 69 159 233zM131 264c0 -66 8 -116 25 -152l221 358c-23 17 -52 25 -88 25c-102 0 -158 -72 -158 -231z" />
    <glyph glyph-name="oslashacute" unicode="&#x1ff;" horiz-adv-x="542" 
d="M126 -61l-43 21l42 75c-50 44 -75 116 -75 217c0 173 86 265 228 265c40 0 75 -6 104 -19l39 71l42 -22l-42 -75c46 -42 71 -114 71 -219c0 -166 -67 -265 -223 -265c-39 0 -76 8 -104 21zM128 251c0 -67 10 -118 30 -155l196 353c-20 15 -46 23 -78 23
c-93 0 -148 -69 -148 -221zM414 254c0 66 -11 118 -29 153l-194 -351c21 -15 50 -24 82 -24c105 0 141 88 141 222zM263 586h-60l106 137h107z" />
    <glyph glyph-name="oslashacute.sc" horiz-adv-x="573" 
d="M115 -52l-45 25l46 75c-44 45 -65 117 -65 215c0 188 94 275 242 275c44 0 82 -7 113 -21l46 74l44 -25l-47 -76c50 -44 73 -117 73 -219c0 -188 -77 -283 -240 -283c-50 0 -92 9 -125 28zM443 265c0 72 -10 126 -31 164l-224 -363c25 -24 57 -34 96 -34
c104 0 159 69 159 233zM131 264c0 -66 8 -116 25 -152l221 358c-23 17 -52 25 -88 25c-102 0 -158 -72 -158 -231zM284 596h-60l106 137h107z" />
    <glyph glyph-name="otilde" unicode="&#xf5;" horiz-adv-x="542" 
d="M492 253c0 -166 -67 -265 -223 -265c-143 0 -219 91 -219 264s86 265 228 265c148 0 214 -80 214 -264zM414 254c0 150 -40 218 -138 218c-93 0 -148 -69 -148 -221c0 -144 48 -219 145 -219c105 0 141 88 141 222zM154 598l-36 14c26 61 59 94 92 94c18 0 32 -5 62 -22
l21 -11c15 -8 30 -14 41 -14c23 0 40 18 54 48l39 -12c-26 -70 -59 -99 -92 -99c-20 0 -36 4 -60 17l-23 12c-22 12 -36 19 -45 19c-20 0 -35 -13 -53 -46z" />
    <glyph glyph-name="otilde.sc" horiz-adv-x="573" 
d="M522 271c0 -188 -77 -283 -240 -283c-156 0 -231 92 -231 275c0 188 94 275 242 275c160 0 229 -90 229 -267zM443 265c0 156 -46 230 -154 230c-102 0 -158 -72 -158 -231c0 -170 59 -232 153 -232c104 0 159 69 159 233zM175 595l-31 14c26 60 54 94 87 94
c18 0 32 -5 62 -22l21 -11c15 -8 30 -14 41 -14c23 0 40 18 54 48l32 -12c-26 -70 -53 -99 -86 -99c-20 0 -35 4 -59 17l-23 12c-22 12 -36 19 -45 19c-21 0 -35 -13 -53 -46z" />
    <glyph glyph-name="p" unicode="p" horiz-adv-x="552" 
d="M159 445c40 46 88 70 153 70c120 0 190 -86 190 -256c0 -219 -115 -270 -204 -270c-59 0 -102 14 -137 45v-253h-75v606c0 38 -4 85 -9 117h73c3 -15 7 -43 9 -59zM160 247c0 -111 3 -151 26 -176c26 -29 62 -37 104 -37c80 0 134 65 134 224c0 146 -46 212 -127 212
c-41 0 -76 -19 -94 -33c-36 -29 -43 -55 -43 -190z" />
    <glyph glyph-name="p.sc" horiz-adv-x="517" 
d="M162 221v-221h-77v526h177c56 0 98 -5 128 -16c53 -20 80 -65 80 -125c0 -70 -30 -133 -103 -152c-30 -7 -70 -12 -106 -12h-99zM162 266h87c44 0 79 7 98 19c26 16 40 49 40 93c0 35 -10 71 -41 87c-21 11 -60 15 -92 15h-92v-214z" />
    <glyph glyph-name="paragraph" unicode="&#xb6;" horiz-adv-x="564" 
d="M329 706h143v-850h-52v812h-91v-812h-50v383c-154 0 -232 102 -232 226c0 142 75 241 282 241z" />
    <glyph glyph-name="parenleft" unicode="(" horiz-adv-x="323" 
d="M310 -192c-160 48 -242 202 -242 476c0 264 87 415 244 466v-46c-107 -53 -166 -168 -166 -416c0 -273 69 -384 164 -432v-48z" />
    <glyph glyph-name="parenleft.cap" horiz-adv-x="323" 
d="M310 -104c-160 47 -242 181 -242 447c0 255 87 381 244 432v-47c-107 -52 -166 -142 -166 -381c0 -263 69 -355 164 -403v-48z" />
    <glyph glyph-name="parenleft.denominator" horiz-adv-x="233" 
d="M217 -104c-112 28 -166 121 -166 294c0 164 57 257 168 289v-29c-75 -33 -109 -104 -109 -257c0 -169 41 -237 107 -267v-30z" />
    <glyph glyph-name="parenleft.inferior" unicode="&#x208d;" horiz-adv-x="218" 
d="M219 -261c-112 27 -168 121 -168 294c0 163 57 257 168 289v-29c-75 -33 -109 -104 -109 -258c0 -168 43 -237 109 -267v-29z" />
    <glyph glyph-name="parenleft.numerator" horiz-adv-x="219" 
d="M219 156c-112 28 -168 121 -168 294c0 164 57 257 168 289v-29c-75 -33 -109 -104 -109 -257c0 -169 43 -237 109 -267v-30z" />
    <glyph glyph-name="parenleft.superior" unicode="&#x207d;" horiz-adv-x="217" 
d="M217 347c-112 27 -166 121 -166 294c0 163 55 257 166 289v-29c-75 -33 -107 -104 -107 -257c0 -169 41 -238 107 -267v-30z" />
    <glyph glyph-name="parenright" unicode=")" horiz-adv-x="323" 
d="M12 750c161 -47 242 -201 242 -475c0 -265 -87 -415 -244 -466v46c107 52 167 167 167 416c0 272 -70 383 -165 432v47z" />
    <glyph glyph-name="parenright.cap" horiz-adv-x="323" 
d="M12 775c160 -47 242 -181 242 -447c0 -255 -87 -381 -244 -432v47c107 52 167 142 167 381c0 263 -70 355 -165 403v48z" />
    <glyph glyph-name="parenright.denominator" horiz-adv-x="233" 
d="M15 480c112 -28 167 -121 167 -294c0 -164 -58 -258 -168 -289v29c75 32 108 104 108 257c0 169 -40 237 -107 267v30z" />
    <glyph glyph-name="parenright.inferior" unicode="&#x208e;" horiz-adv-x="219" 
d="M0 322c112 -28 168 -121 168 -294c0 -164 -58 -258 -168 -289v28c75 33 108 104 108 258c0 169 -41 237 -108 267v30z" />
    <glyph glyph-name="parenright.numerator" horiz-adv-x="219" 
d="M0 739c112 -28 168 -121 168 -294c0 -164 -58 -257 -168 -289v29c75 33 108 104 108 257c0 169 -41 237 -108 267v30z" />
    <glyph glyph-name="parenright.superior" unicode="&#x207e;" horiz-adv-x="219" 
d="M0 930c112 -28 168 -121 168 -294c0 -164 -58 -258 -168 -289v29c75 32 108 104 108 257c0 169 -41 237 -108 267v30z" />
    <glyph glyph-name="partialdiff" unicode="&#x2202;" horiz-adv-x="578" 
d="M170 643l-10 51c37 11 93 18 119 18c141 0 221 -65 221 -310c0 -266 -62 -414 -233 -414c-121 0 -203 72 -203 206c0 154 100 238 210 238c53 0 108 -16 146 -56c1 12 1 29 1 41c0 171 -53 245 -148 245c-26 0 -69 -6 -103 -19zM415 313c-29 55 -89 73 -132 73
c-76 0 -141 -59 -141 -196c0 -107 57 -158 126 -158c81 0 132 88 144 230c2 22 3 39 3 51z" />
    <glyph glyph-name="percent" unicode="%" horiz-adv-x="830" 
d="M354 469c0 -149 -56 -219 -161 -219c-101 0 -157 62 -157 218c0 154 60 220 161 220c106 0 157 -63 157 -219zM290 471c0 135 -29 176 -95 176c-59 0 -94 -48 -94 -179c0 -128 32 -177 95 -177c67 0 94 61 94 180zM794 209c0 -149 -57 -219 -161 -219
c-102 0 -157 62 -157 218c0 154 59 220 161 220c105 0 157 -63 157 -219zM730 211c0 135 -30 176 -95 176c-60 0 -95 -48 -95 -179c0 -128 32 -177 96 -177c66 0 94 61 94 180zM531 676h53l-286 -676h-52z" />
    <glyph glyph-name="percent.oldstyle" horiz-adv-x="844" 
d="M349 420c0 -134 -57 -197 -158 -197c-100 0 -157 56 -157 196c0 134 61 197 162 197c102 0 153 -60 153 -196zM284 421c0 111 -30 154 -91 154c-57 0 -93 -48 -93 -157c0 -112 31 -155 94 -155c61 0 90 56 90 158zM555 627h59l-323 -647h-60zM809 186
c0 -134 -57 -197 -158 -197c-100 0 -156 56 -156 196c0 134 60 197 161 197c102 0 153 -60 153 -196zM745 187c0 112 -31 154 -92 154c-56 0 -93 -48 -93 -157c0 -112 31 -155 94 -155c61 0 91 56 91 158z" />
    <glyph glyph-name="period" unicode="." 
d="M164 46c0 -36 -21 -54 -54 -54c-30 0 -53 16 -53 54c0 39 24 56 55 56s52 -16 52 -56z" />
    <glyph glyph-name="period.denominator" horiz-adv-x="152" 
d="M118 37c0 -30 -18 -42 -44 -42c-23 0 -40 9 -40 42c0 35 17 45 42 45c24 0 42 -8 42 -45z" />
    <glyph glyph-name="period.inferior" horiz-adv-x="152" 
d="M118 -121c0 -31 -18 -42 -44 -42c-23 0 -40 8 -40 42s17 45 42 45c24 0 42 -8 42 -45z" />
    <glyph glyph-name="period.numerator" horiz-adv-x="152" 
d="M118 298c0 -30 -18 -42 -44 -42c-23 0 -40 9 -40 42c0 35 17 45 42 45c24 0 42 -8 42 -45z" />
    <glyph glyph-name="period.superior" horiz-adv-x="152" 
d="M118 487c0 -30 -18 -42 -44 -42c-23 0 -40 9 -40 42c0 35 17 45 42 45c24 0 42 -8 42 -45z" />
    <glyph glyph-name="periodcentered" unicode="&#xb7;" 
d="M164 278c0 -36 -21 -54 -54 -54c-30 0 -53 16 -53 54c0 39 24 56 55 56s52 -16 52 -56z" />
    <glyph glyph-name="periodcentered.cap" 
d="M164 338c0 -36 -21 -54 -54 -54c-30 0 -53 16 -53 54c0 39 24 56 55 56s52 -16 52 -56z" />
    <glyph glyph-name="perthousand" unicode="&#x2030;" horiz-adv-x="1197" 
d="M354 469c0 -149 -56 -219 -161 -219c-101 0 -157 62 -157 218c0 154 60 220 161 220c106 0 157 -63 157 -219zM290 471c0 135 -29 176 -95 176c-59 0 -94 -48 -94 -179c0 -128 32 -177 95 -177c67 0 94 61 94 180zM531 676h53l-286 -676h-52zM794 209
c0 -149 -57 -219 -161 -219c-102 0 -157 62 -157 218c0 154 59 220 161 220c105 0 157 -63 157 -219zM730 211c0 135 -30 176 -95 176c-60 0 -95 -48 -95 -179c0 -128 32 -177 96 -177c66 0 94 61 94 180zM1161 209c0 -149 -57 -219 -161 -219c-101 0 -157 62 -157 218
c0 154 60 220 161 220c105 0 157 -63 157 -219zM1097 211c0 135 -30 176 -95 176c-59 0 -94 -48 -94 -179c0 -128 32 -177 95 -177c66 0 94 61 94 180z" />
    <glyph glyph-name="perthousand.oldstyle" horiz-adv-x="1209" 
d="M349 417c0 -134 -57 -197 -158 -197c-100 0 -157 56 -157 196c0 133 61 197 162 197c102 0 153 -61 153 -196zM284 418c0 111 -30 154 -91 154c-57 0 -93 -49 -93 -157c0 -112 31 -155 94 -155c61 0 90 56 90 158zM554 624h61l-323 -644h-62zM809 186
c0 -134 -57 -197 -158 -197c-100 0 -156 56 -156 196c0 134 60 197 161 197c102 0 153 -60 153 -196zM745 187c0 112 -31 154 -92 154c-56 0 -93 -49 -93 -157c0 -112 31 -155 94 -155c61 0 91 56 91 158zM1174 186c0 -134 -58 -197 -159 -197c-99 0 -155 56 -155 196
c0 135 60 197 161 197s153 -60 153 -196zM1110 187c0 112 -31 154 -93 154c-56 0 -92 -49 -92 -157c0 -112 32 -155 94 -155c60 0 91 56 91 158z" />
    <glyph glyph-name="pi" unicode="&#x3c0;" horiz-adv-x="585" 
d="M543 457h-62v-272c0 -66 7 -133 23 -185h-77c-15 44 -21 109 -21 187v270h-227v-457h-74v457h-63v47h501v-47z" />
    <glyph glyph-name="plus" unicode="+" horiz-adv-x="741" 
d="M404 36h-66v239h-239v64h238v239h67v-239h238v-64h-238v-239z" />
    <glyph glyph-name="plusminus" unicode="&#xb1;" horiz-adv-x="741" 
d="M404 124h-66v233h-239v64h238v233h67v-233h238v-64h-238v-233zM642 0h-543v63h543v-63z" />
    <glyph glyph-name="product" unicode="&#x220f;" horiz-adv-x="677" 
d="M587 -122h-78v778h-341v-778h-78v828h497v-828z" />
    <glyph glyph-name="q" unicode="q" horiz-adv-x="563" 
d="M418 504h66c-3 -37 -4 -92 -4 -134v-589h-74v284c-38 -47 -95 -76 -161 -76c-125 0 -195 83 -195 250c0 190 83 275 210 275c57 0 112 -17 153 -63c0 9 3 34 5 53zM406 256c0 71 -6 122 -20 148c-24 43 -63 64 -114 64c-89 0 -144 -68 -144 -228c0 -141 54 -204 139 -204
c44 0 90 19 118 66c18 29 21 85 21 154z" />
    <glyph glyph-name="q.sc" horiz-adv-x="573" 
d="M522 271c0 -111 -27 -189 -82 -235l111 -74l-44 -47l-125 89c-29 -10 -62 -16 -100 -16c-156 0 -231 92 -231 275c0 188 94 275 242 275c160 0 229 -90 229 -267zM443 265c0 156 -46 230 -154 230c-102 0 -158 -72 -158 -231c0 -170 59 -232 153 -232
c104 0 159 69 159 233z" />
    <glyph glyph-name="question" unicode="?" horiz-adv-x="438" 
d="M190 658c-44 0 -94 -8 -156 -39v54c60 29 124 38 163 38c129 0 197 -54 197 -166c0 -67 -23 -109 -115 -188c-58 -49 -68 -95 -69 -153h-63c0 64 1 102 64 161c68 63 96 120 96 175c0 85 -44 118 -117 118zM232 46c0 -36 -22 -54 -54 -54c-31 0 -53 16 -53 54
c0 39 23 56 55 56c30 0 52 -16 52 -56z" />
    <glyph glyph-name="question.sc" horiz-adv-x="406" 
d="M172 564c-39 0 -88 -5 -142 -31v54c53 24 114 31 147 31c116 0 181 -45 181 -136c0 -54 -22 -89 -104 -153c-52 -40 -61 -77 -62 -125h-57c0 52 1 89 56 136c61 53 86 99 86 136c0 67 -44 88 -105 88zM215 46c0 -36 -22 -54 -54 -54c-31 0 -53 16 -53 54
c0 39 23 56 55 56c30 0 52 -16 52 -56z" />
    <glyph glyph-name="questiondown" unicode="&#xbf;" horiz-adv-x="438" 
d="M238 -154c44 0 94 8 155 39v-54c-59 -29 -123 -38 -162 -38c-129 0 -197 54 -197 165c0 67 22 111 114 189c58 49 69 95 70 153h62c0 -64 -1 -102 -63 -161c-68 -63 -96 -120 -96 -175c0 -85 44 -118 117 -118zM196 458c0 36 22 54 54 54c31 0 53 -16 53 -54
c0 -39 -23 -56 -55 -56c-30 0 -52 16 -52 56z" />
    <glyph glyph-name="questiondown.sc" horiz-adv-x="406" 
d="M234 -110c38 0 88 6 142 32v-54c-53 -24 -114 -31 -148 -31c-115 0 -180 44 -180 135c0 54 22 89 104 154c52 40 61 77 62 124h57c0 -52 -1 -88 -56 -136c-61 -52 -86 -98 -86 -135c0 -67 44 -89 105 -89zM191 408c0 37 21 54 54 54c30 0 53 -15 53 -54
c0 -38 -24 -56 -55 -56s-52 17 -52 56z" />
    <glyph glyph-name="quotedbl" unicode="&#x22;" horiz-adv-x="375" 
d="M126 447h-46l-23 279h91zM296 447h-47l-22 279h90z" />
    <glyph glyph-name="quotedblbase" unicode="&#x201e;" horiz-adv-x="338" 
d="M297 116c0 -74 -26 -141 -75 -208h-50c33 69 42 132 42 208h83zM150 116c0 -74 -26 -141 -75 -208h-50c33 69 43 132 43 208h82z" />
    <glyph glyph-name="quotedblleft" unicode="&#x201c;" horiz-adv-x="338" 
d="M41 508c0 74 26 141 75 208h50c-33 -69 -43 -132 -43 -208h-82zM188 508c0 74 26 141 75 208h50c-33 -69 -43 -132 -43 -208h-82z" />
    <glyph glyph-name="quotedblright" unicode="&#x201d;" horiz-adv-x="338" 
d="M297 716c0 -74 -26 -141 -75 -208h-50c33 69 42 132 42 208h83zM150 716c0 -74 -26 -141 -75 -208h-50c33 69 43 132 43 208h82z" />
    <glyph glyph-name="quoteleft" unicode="&#x2018;" horiz-adv-x="188" 
d="M40 508c0 74 26 141 75 208h50c-34 -69 -43 -132 -43 -208h-82z" />
    <glyph glyph-name="quoteright" unicode="&#x2019;" horiz-adv-x="188" 
d="M148 716c0 -74 -26 -141 -74 -208h-50c33 69 42 132 42 208h82z" />
    <glyph glyph-name="quotesinglbase" unicode="&#x201a;" horiz-adv-x="188" 
d="M148 117c0 -73 -26 -140 -74 -207h-50c33 69 42 132 42 207h82z" />
    <glyph glyph-name="quotesingle" unicode="'" horiz-adv-x="206" 
d="M126 447h-46l-23 279h91z" />
    <glyph glyph-name="r" unicode="r" horiz-adv-x="361" 
d="M162 0h-75v351c0 49 -3 107 -10 153h74c5 -24 8 -59 8 -74c25 54 80 84 126 84c20 0 37 -2 54 -7v-69c-20 9 -45 12 -65 12c-33 0 -63 -10 -85 -40c-19 -26 -27 -63 -27 -107v-303z" />
    <glyph glyph-name="r.sc" horiz-adv-x="525" 
d="M491 0h-79l-32 134c-12 47 -30 76 -54 90c-25 15 -54 16 -84 16h-80v-240h-77v526h180c53 0 100 -3 130 -16c50 -23 71 -56 71 -119c0 -70 -43 -112 -114 -127c55 -13 83 -40 103 -122zM162 288h90c44 0 75 5 93 15c27 16 42 44 42 83s-13 69 -41 82c-21 9 -49 12 -83 12
h-101v-192z" />
    <glyph glyph-name="racute" unicode="&#x155;" horiz-adv-x="361" 
d="M156 0h-75v351c0 49 -3 107 -10 153h74c5 -24 8 -59 8 -74c25 54 80 84 126 84c20 0 37 -2 54 -7v-69c-20 9 -45 12 -65 12c-33 0 -63 -10 -85 -40c-19 -26 -27 -63 -27 -107v-303zM208 586h-60l106 137h107z" />
    <glyph glyph-name="racute.sc" horiz-adv-x="525" 
d="M491 0h-79l-32 134c-12 47 -30 76 -54 90c-25 15 -54 16 -84 16h-80v-240h-77v526h180c53 0 100 -3 130 -16c50 -23 71 -56 71 -119c0 -70 -43 -112 -114 -127c55 -13 83 -40 103 -122zM162 288h90c44 0 75 5 93 15c27 16 42 44 42 83s-13 69 -41 82c-21 9 -49 12 -83 12
h-101v-192zM249 596h-60l106 137h107z" />
    <glyph glyph-name="radical" unicode="&#x221a;" horiz-adv-x="710" 
d="M203 214l158 -328l225 910h76l-268 -983h-76l-166 325l-78 -39l-20 39z" />
    <glyph glyph-name="rcaron" unicode="&#x159;" horiz-adv-x="361" 
d="M156 0h-75v351c0 49 -3 107 -10 153h74c5 -24 8 -59 8 -74c25 54 80 84 126 84c20 0 37 -2 54 -7v-69c-20 9 -45 12 -65 12c-33 0 -63 -10 -85 -40c-19 -26 -27 -63 -27 -107v-303zM34 727h69l83 -101l85 101h58l-114 -152h-67z" />
    <glyph glyph-name="rcaron.sc" horiz-adv-x="525" 
d="M491 0h-79l-32 134c-12 47 -30 76 -54 90c-25 15 -54 16 -84 16h-80v-240h-77v526h180c53 0 100 -3 130 -16c50 -23 71 -56 71 -119c0 -70 -43 -112 -114 -127c55 -13 83 -40 103 -122zM162 288h90c44 0 75 5 93 15c27 16 42 44 42 83s-13 69 -41 82c-21 9 -49 12 -83 12
h-101v-192zM105 737h69l83 -101l85 101h58l-114 -152h-67z" />
    <glyph glyph-name="rcommaaccent" unicode="&#x157;" horiz-adv-x="361" 
d="M156 0h-75v351c0 49 -3 107 -10 153h74c5 -24 8 -59 8 -74c25 54 80 84 126 84c20 0 37 -2 54 -7v-69c-20 9 -45 12 -65 12c-33 0 -63 -10 -85 -40c-19 -26 -27 -63 -27 -107v-303zM163 -69c0 -88 -35 -137 -68 -172h-52c30 44 43 88 43 172h77z" />
    <glyph glyph-name="rcommaaccent.sc" horiz-adv-x="525" 
d="M491 0h-79l-32 134c-12 47 -30 76 -54 90c-25 15 -54 16 -84 16h-80v-240h-77v526h180c53 0 100 -3 130 -16c50 -23 71 -56 71 -119c0 -70 -43 -112 -114 -127c55 -13 83 -40 103 -122zM162 288h90c44 0 75 5 93 15c27 16 42 44 42 83s-13 69 -41 82c-21 9 -49 12 -83 12
h-101v-192zM319 -69c0 -88 -35 -137 -68 -172h-52c30 44 43 88 43 172h77z" />
    <glyph glyph-name="registered" unicode="&#xae;" horiz-adv-x="855" 
d="M60 352c0 208 159 368 369 368c213 0 373 -159 373 -368c0 -208 -159 -366 -372 -366c-212 0 -370 159 -370 366zM100 352c0 -187 138 -329 330 -329c193 0 331 141 331 329c0 189 -139 331 -332 331c-190 0 -329 -143 -329 -331zM550 133l-26 119c-7 29 -15 48 -28 61
c-16 16 -40 21 -76 21h-81v-201h-69v449h155c45 0 80 -3 109 -12c46 -14 66 -51 66 -108c0 -51 -26 -86 -84 -106c42 -13 60 -37 74 -95l31 -128h-71zM339 380h79c40 0 68 5 84 16c20 13 26 34 26 64c0 34 -11 54 -33 65c-16 8 -42 11 -73 11h-83v-156z" />
    <glyph glyph-name="ring" unicode="&#x2da;" 
d="M112 771c55 0 100 -28 100 -98c0 -73 -45 -106 -102 -106c-55 0 -101 31 -101 103c0 69 51 101 103 101zM110 738c-31 0 -56 -18 -56 -68c0 -51 25 -70 58 -70s56 19 56 72c0 49 -24 66 -58 66z" />
    <glyph glyph-name="ring.cap" 
d="M112 948c53 0 97 -31 97 -95c0 -65 -44 -102 -99 -102c-53 0 -98 34 -98 99c0 63 50 98 100 98zM110 914c-29 0 -52 -20 -52 -64c0 -47 22 -66 54 -66c31 0 52 21 52 68c0 43 -23 62 -54 62z" />
    <glyph glyph-name="ring.sc" 
d="M112 781c55 0 100 -28 100 -98c0 -73 -45 -106 -102 -106c-55 0 -101 31 -101 103c0 69 51 101 103 101zM110 748c-31 0 -56 -18 -56 -68c0 -51 25 -70 58 -70s56 19 56 72c0 49 -24 66 -58 66z" />
    <glyph glyph-name="s" unicode="s" horiz-adv-x="390" 
d="M33 79c44 -24 91 -41 136 -41c82 0 112 34 112 88c0 46 -31 69 -88 93l-43 18c-72 31 -104 77 -104 139c0 87 64 141 172 141c45 0 84 -6 118 -17v-62c-40 20 -74 30 -120 30c-52 0 -98 -29 -98 -86c0 -37 22 -61 67 -81l53 -23c87 -39 120 -74 120 -144
c0 -93 -68 -147 -189 -147c-43 0 -92 10 -136 27v65z" />
    <glyph glyph-name="s.sc" horiz-adv-x="407" 
d="M302 136c0 34 -22 64 -81 89l-52 22c-81 33 -121 74 -121 151c0 86 71 140 173 140c46 0 92 -8 128 -23v-55c-39 18 -77 32 -127 32c-72 0 -107 -29 -107 -87c0 -26 17 -60 78 -86l52 -22c99 -43 129 -80 129 -158c0 -89 -71 -151 -188 -151c-49 0 -110 10 -146 26v61
c41 -20 89 -39 145 -39c83 0 117 38 117 100z" />
    <glyph glyph-name="sacute" unicode="&#x15b;" horiz-adv-x="390" 
d="M113 79c44 -24 91 -41 136 -41c82 0 112 34 112 88c0 46 -31 69 -88 93l-43 18c-72 31 -104 77 -104 139c0 87 64 141 172 141c45 0 84 -6 118 -17v-62c-40 20 -74 30 -120 30c-52 0 -98 -29 -98 -86c0 -37 22 -61 67 -81l53 -23c87 -39 120 -74 120 -144
c0 -93 -68 -147 -189 -147c-43 0 -92 10 -136 27v65zM285 586h-60l106 137h107z" />
    <glyph glyph-name="sacute.sc" horiz-adv-x="407" 
d="M302 136c0 34 -22 64 -81 89l-52 22c-81 33 -121 74 -121 151c0 86 71 140 173 140c46 0 92 -8 128 -23v-55c-39 18 -77 32 -127 32c-72 0 -107 -29 -107 -87c0 -26 17 -60 78 -86l52 -22c99 -43 129 -80 129 -158c0 -89 -71 -151 -188 -151c-49 0 -110 10 -146 26v61
c41 -20 89 -39 145 -39c83 0 117 38 117 100zM213 596h-60l106 137h107z" />
    <glyph glyph-name="scaron" unicode="&#x161;" horiz-adv-x="390" 
d="M33 79c44 -24 91 -41 136 -41c82 0 112 34 112 88c0 46 -31 69 -88 93l-43 18c-72 31 -104 77 -104 139c0 87 64 141 172 141c45 0 84 -6 118 -17v-62c-40 20 -74 30 -120 30c-52 0 -98 -29 -98 -86c0 -37 22 -61 67 -81l53 -23c87 -39 120 -74 120 -144
c0 -93 -68 -147 -189 -147c-43 0 -92 10 -136 27v65zM54 727h69l83 -101l85 101h58l-114 -152h-67z" />
    <glyph glyph-name="scaron.sc" horiz-adv-x="407" 
d="M302 136c0 34 -22 64 -81 89l-52 22c-81 33 -121 74 -121 151c0 86 71 140 173 140c46 0 92 -8 128 -23v-55c-39 18 -77 32 -127 32c-72 0 -107 -29 -107 -87c0 -26 17 -60 78 -86l52 -22c99 -43 129 -80 129 -158c0 -89 -71 -151 -188 -151c-49 0 -110 10 -146 26v61
c41 -20 89 -39 145 -39c83 0 117 38 117 100zM66 737h69l83 -101l85 101h58l-114 -152h-67z" />
    <glyph glyph-name="scedilla" unicode="&#x15f;" horiz-adv-x="390" 
d="M115 -226v37c17 -4 33 -5 39 -5c43 0 56 20 56 51s-17 50 -52 50c-9 0 -22 -1 -32 -2l33 82c-40 2 -85 11 -126 27v65c44 -24 91 -41 136 -41c82 0 112 34 112 88c0 46 -31 69 -88 93l-43 18c-72 31 -104 77 -104 139c0 87 64 141 172 141c45 0 84 -6 118 -17v-62
c-40 20 -74 30 -120 30c-52 0 -98 -29 -98 -86c0 -37 22 -61 67 -81l53 -23c87 -39 120 -74 120 -144c0 -86 -58 -138 -161 -146l-20 -49c74 0 99 -27 99 -79c0 -62 -43 -90 -116 -90c-15 0 -35 2 -45 4z" />
    <glyph glyph-name="scedilla.sc" horiz-adv-x="407" 
d="M122 -226v37c17 -4 33 -5 39 -5c43 0 56 20 56 51c0 32 -17 50 -52 50c-9 0 -22 -1 -32 -2l34 84c-45 2 -96 11 -127 25v61c41 -20 89 -39 145 -39c83 0 117 38 117 100c0 34 -22 64 -81 89l-52 22c-81 33 -121 74 -121 151c0 86 71 140 173 140c46 0 92 -8 128 -23v-55
c-39 18 -77 32 -127 32c-72 0 -107 -29 -107 -87c0 -26 17 -60 78 -86l52 -22c99 -43 129 -80 129 -158c0 -85 -64 -144 -170 -150l-20 -50c74 0 99 -27 99 -78c0 -63 -43 -91 -116 -91c-14 0 -35 2 -45 4z" />
    <glyph glyph-name="scircumflex" unicode="&#x15d;" horiz-adv-x="390" 
d="M113 79c44 -24 91 -41 136 -41c82 0 112 34 112 88c0 46 -31 69 -88 93l-43 18c-72 31 -104 77 -104 139c0 87 64 141 172 141c45 0 84 -6 118 -17v-62c-40 20 -74 30 -120 30c-52 0 -98 -29 -98 -86c0 -37 22 -61 67 -81l53 -23c87 -39 120 -74 120 -144
c0 -93 -68 -147 -189 -147c-43 0 -92 10 -136 27v65zM427 586h-69l-84 101l-85 -101h-57l114 152h67z" />
    <glyph glyph-name="scircumflex.sc" horiz-adv-x="407" 
d="M302 136c0 34 -22 64 -81 89l-52 22c-81 33 -121 74 -121 151c0 86 71 140 173 140c46 0 92 -8 128 -23v-55c-39 18 -77 32 -127 32c-72 0 -107 -29 -107 -87c0 -26 17 -60 78 -86l52 -22c99 -43 129 -80 129 -158c0 -89 -71 -151 -188 -151c-49 0 -110 10 -146 26v61
c41 -20 89 -39 145 -39c83 0 117 38 117 100zM368 596h-69l-84 101l-85 -101h-57l114 152h67z" />
    <glyph glyph-name="section" unicode="&#xa7;" horiz-adv-x="481" 
d="M227 404c-13 8 -23 11 -33 11c-39 0 -77 -37 -77 -88c0 -33 16 -57 52 -82c26 -18 71 -43 102 -57c8 -4 24 -7 33 -7c27 0 68 33 68 93c0 33 -24 52 -49 71c-36 27 -64 41 -96 59zM413 689v-61c-41 18 -94 41 -150 41c-69 0 -111 -31 -111 -91c0 -49 29 -68 110 -114
l71 -41c81 -46 108 -89 108 -144s-37 -110 -93 -130c53 -43 65 -77 65 -124c0 -98 -85 -151 -204 -151c-61 0 -123 13 -170 34v64c61 -33 129 -49 170 -49c89 0 131 38 131 95c0 47 -33 65 -110 110l-73 44c-79 47 -109 81 -109 142c0 66 41 114 98 134
c-45 31 -63 71 -63 129c0 69 52 140 183 140c55 0 114 -14 147 -28z" />
    <glyph glyph-name="semicolon" unicode=";" horiz-adv-x="241" 
d="M184 450c0 -37 -22 -54 -54 -54c-31 0 -53 15 -53 54c0 38 23 56 55 56c30 0 52 -17 52 -56zM178 118c0 -102 -30 -217 -67 -278h-61c31 72 46 175 46 278h82z" />
    <glyph glyph-name="seven" unicode="7" horiz-adv-x="572" 
d="M242 0h-85c82 240 169 427 256 606h-358v70h431v-56c-83 -188 -168 -388 -244 -620z" />
    <glyph glyph-name="seven.denominator" horiz-adv-x="391" 
d="M177 0h-72c48 138 111 263 167 358h-231v57h291v-48c-52 -106 -103 -218 -155 -367z" />
    <glyph glyph-name="seven.fitted" horiz-adv-x="486" 
d="M206 0h-84c79 236 165 426 252 606h-354v70h426v-56c-89 -207 -160 -385 -240 -620z" />
    <glyph glyph-name="seven.inferior" unicode="&#x2087;" horiz-adv-x="391" 
d="M177 -159h-72c48 138 111 263 167 358h-231v57h291v-48c-52 -106 -103 -218 -155 -367z" />
    <glyph glyph-name="seven.numerator" horiz-adv-x="391" 
d="M177 261h-72c48 138 111 263 167 358h-231v57h291v-48c-52 -106 -103 -218 -155 -367z" />
    <glyph glyph-name="seven.oldstyle" horiz-adv-x="470" 
d="M213 -165h-79c71 235 155 441 233 622h-342v68h414v-56c-70 -165 -161 -424 -226 -634z" />
    <glyph glyph-name="seven.superior" unicode="&#x2077;" horiz-adv-x="391" 
d="M177 450h-72c48 138 111 263 167 358h-231v57h291v-48c-52 -106 -103 -218 -155 -367z" />
    <glyph glyph-name="seven.taboldstyle" horiz-adv-x="538" 
d="M230 -165h-79c82 237 168 441 252 622h-357v68h429v-56c-84 -188 -168 -402 -245 -634z" />
    <glyph glyph-name="seveneighths" unicode="&#x215e;" horiz-adv-x="830" 
d="M511 676h60l-330 -676h-60zM177 261h-72c48 138 111 263 167 358h-231v57h291v-48c-52 -106 -103 -218 -155 -367zM762 314c0 -46 -21 -75 -67 -94c51 -15 78 -51 78 -105c0 -74 -54 -126 -153 -126s-152 45 -152 124c0 54 26 89 81 106c-49 17 -66 49 -66 95
c0 62 46 113 138 113c95 0 141 -44 141 -113zM707 113c0 62 -41 85 -86 85c-48 0 -87 -24 -87 -83c0 -62 40 -85 87 -85c53 0 86 29 86 83zM696 312c0 38 -18 74 -75 74c-56 0 -76 -37 -76 -76c0 -51 36 -71 76 -71c34 0 75 13 75 73z" />
    <glyph glyph-name="six" unicode="6" horiz-adv-x="572" 
d="M472 669v-56c-44 20 -77 29 -133 29c-124 0 -198 -100 -207 -289c32 57 107 89 182 89c124 0 209 -61 209 -223c0 -145 -83 -233 -228 -233c-119 0 -234 53 -234 323c0 301 127 381 279 381c63 0 96 -8 132 -21zM442 222c0 112 -52 169 -146 169
c-103 0 -154 -77 -154 -160c0 -91 44 -197 154 -197c99 0 146 68 146 188z" />
    <glyph glyph-name="six.denominator" horiz-adv-x="391" 
d="M319 413v-46c-31 13 -56 16 -91 16c-69 0 -109 -43 -116 -151c20 29 65 45 100 45c91 0 140 -39 140 -142c0 -90 -52 -146 -150 -146c-82 0 -153 30 -153 201c0 188 72 237 174 237c44 0 73 -7 96 -14zM287 136c0 64 -28 98 -82 98c-66 0 -88 -47 -88 -94
c0 -53 21 -110 86 -110c56 0 84 38 84 106z" />
    <glyph glyph-name="six.fitted" horiz-adv-x="588" 
d="M485 669v-56c-43 20 -76 29 -133 29c-124 0 -199 -100 -209 -289c32 57 108 89 184 89c125 0 209 -61 209 -223c0 -145 -83 -233 -228 -233c-119 0 -236 53 -236 323c0 301 130 381 281 381c64 0 97 -8 132 -21zM456 222c0 112 -52 169 -146 169
c-105 0 -157 -77 -157 -160c0 -91 46 -197 157 -197c99 0 146 68 146 188z" />
    <glyph glyph-name="six.inferior" unicode="&#x2086;" horiz-adv-x="391" 
d="M319 254v-46c-31 13 -56 16 -91 16c-69 0 -109 -43 -116 -151c20 29 65 45 100 45c91 0 140 -39 140 -142c0 -90 -52 -146 -150 -146c-82 0 -153 30 -153 201c0 188 72 237 174 237c44 0 73 -7 96 -14zM287 -23c0 64 -28 98 -82 98c-66 0 -88 -47 -88 -94
c0 -53 21 -110 86 -110c56 0 84 38 84 106z" />
    <glyph glyph-name="six.numerator" horiz-adv-x="391" 
d="M319 674v-46c-31 13 -56 16 -91 16c-69 0 -109 -43 -116 -151c20 29 65 45 100 45c91 0 140 -39 140 -142c0 -90 -52 -146 -150 -146c-82 0 -153 30 -153 201c0 188 72 237 174 237c44 0 73 -7 96 -14zM287 397c0 64 -28 98 -82 98c-66 0 -88 -47 -88 -94
c0 -53 21 -110 86 -110c56 0 84 38 84 106z" />
    <glyph glyph-name="six.oldstyle" horiz-adv-x="572" 
d="M441 220c0 110 -48 172 -138 172c-97 0 -150 -83 -150 -162c0 -88 42 -198 145 -198c90 0 143 70 143 188zM458 690v-52c-17 2 -34 3 -50 3c-154 0 -250 -104 -263 -292c29 56 97 92 173 92c119 0 196 -64 196 -224c0 -140 -75 -231 -219 -231c-118 0 -222 63 -222 323
c0 293 174 383 334 383c17 0 34 -1 51 -2z" />
    <glyph glyph-name="six.superior" unicode="&#x2076;" horiz-adv-x="391" 
d="M319 863v-46c-31 13 -56 16 -91 16c-69 0 -109 -43 -116 -151c20 29 65 45 100 45c91 0 140 -39 140 -142c0 -90 -52 -146 -150 -146c-82 0 -153 30 -153 201c0 188 72 237 174 237c44 0 73 -7 96 -14zM287 586c0 64 -28 98 -82 98c-66 0 -88 -47 -88 -94
c0 -53 21 -110 86 -110c56 0 84 38 84 106z" />
    <glyph glyph-name="six.taboldstyle" horiz-adv-x="538" 
d="M418 220c0 110 -45 172 -135 172c-97 0 -150 -83 -150 -162c0 -88 43 -198 145 -198c90 0 140 70 140 188zM438 690v-52c-17 2 -33 3 -49 3c-155 0 -250 -104 -263 -292c29 56 97 92 173 92c119 0 193 -64 193 -224c0 -140 -73 -231 -217 -231c-118 0 -221 63 -221 323
c0 293 174 383 333 383c18 0 35 -1 51 -2z" />
    <glyph glyph-name="slash" unicode="/" horiz-adv-x="402" 
d="M63 -51h-66l334 776h68z" />
    <glyph glyph-name="space" unicode=" " horiz-adv-x="236" 
 />
    <glyph glyph-name="sterling" unicode="&#xa3;" horiz-adv-x="582" 
d="M247 333h186v-48h-172c10 -37 13 -60 13 -89c0 -49 -20 -81 -85 -126h342v-70h-451v46c104 49 124 93 124 146c0 22 -11 59 -20 93h-96v48h76c-13 43 -30 98 -30 158c0 123 75 199 210 199c62 0 112 -10 153 -28v-61c-45 23 -88 41 -149 41c-85 0 -135 -54 -135 -137
c0 -60 14 -112 34 -172z" />
    <glyph glyph-name="sterling.denominator" horiz-adv-x="375" 
d="M233 389c-52 0 -81 -25 -81 -76c0 -23 6 -63 17 -101h129v-40h-117c4 -20 6 -35 6 -45c0 -26 -12 -53 -51 -76h220v-51h-298v35c63 32 71 53 71 83c0 14 -4 34 -9 54h-60v40h47c-9 27 -18 58 -18 93c0 76 53 122 142 122c40 0 76 -7 104 -20v-44c-33 16 -64 26 -102 26z
" />
    <glyph glyph-name="sterling.inferior" horiz-adv-x="375" 
d="M233 230c-52 0 -81 -25 -81 -76c0 -23 6 -63 17 -101h129v-40h-117c4 -20 6 -35 6 -45c0 -26 -12 -53 -51 -76h220v-51h-298v35c63 32 71 53 71 83c0 14 -4 34 -9 54h-60v40h47c-9 27 -18 58 -18 93c0 76 53 122 142 122c40 0 76 -7 104 -20v-44c-33 16 -64 26 -102 26z
" />
    <glyph glyph-name="sterling.numerator" horiz-adv-x="375" 
d="M233 650c-52 0 -81 -25 -81 -76c0 -23 6 -63 17 -101h129v-40h-117c4 -20 6 -35 6 -45c0 -26 -12 -53 -51 -76h220v-51h-298v35c63 32 71 53 71 83c0 14 -4 34 -9 54h-60v40h47c-9 27 -18 58 -18 93c0 76 53 122 142 122c40 0 76 -7 104 -20v-44c-33 16 -64 26 -102 26z
" />
    <glyph glyph-name="sterling.oldstyle" horiz-adv-x="508" 
d="M225 298h177v-48h-162c7 -33 8 -59 8 -72c0 -45 -31 -81 -86 -114h322v-64h-413v55c90 45 112 77 112 125c0 13 -6 40 -14 70h-96v48h77c-14 42 -30 90 -30 144c0 106 72 171 193 171c57 0 105 -9 142 -27v-54c-42 20 -85 33 -139 33c-78 0 -122 -41 -122 -115
c0 -46 14 -95 31 -152z" />
    <glyph glyph-name="sterling.superior" horiz-adv-x="375" 
d="M233 839c-52 0 -81 -25 -81 -76c0 -23 6 -63 17 -101h129v-40h-117c4 -20 6 -35 6 -45c0 -26 -12 -53 -51 -76h220v-51h-298v35c63 32 71 53 71 83c0 14 -4 34 -9 54h-60v40h47c-9 27 -18 58 -18 93c0 76 53 122 142 122c40 0 76 -7 104 -20v-44c-33 16 -64 26 -102 26z
" />
    <glyph glyph-name="summation" unicode="&#x2211;" horiz-adv-x="574" 
d="M545 -122h-509v46l274 376l-259 357v49h485v-49h-392l251 -338l-272 -367h422v-74z" />
    <glyph glyph-name="t" unicode="t" horiz-adv-x="312" 
d="M305 4c-21 -6 -53 -11 -78 -11c-58 0 -93 17 -111 51c-15 27 -17 58 -17 107v308h-77v45h77s2 57 7 130h68v-130h113v-45h-113v-307c0 -43 4 -65 10 -79c8 -18 30 -28 57 -28c20 0 47 3 64 9v-50z" />
    <glyph glyph-name="t.sc" horiz-adv-x="446" 
d="M428 526v-49h-169v-477h-77v477h-164v49h410z" />
    <glyph glyph-name="tbar" unicode="&#x167;" horiz-adv-x="312" 
d="M282 316h-108v-164c0 -43 4 -65 10 -79c8 -18 30 -28 57 -28c20 0 47 3 64 9v-50c-21 -6 -53 -11 -78 -11c-58 0 -93 17 -111 51c-15 27 -17 58 -17 107v165h-72v46h72v97h-77v45h77s2 57 7 130h68v-130h113v-45h-113v-97h108v-46z" />
    <glyph glyph-name="tbar.sc" horiz-adv-x="446" 
d="M365 275h-106v-275h-77v275h-110v46h110v156h-164v49h410v-49h-169v-156h106v-46z" />
    <glyph glyph-name="tcaron" unicode="&#x165;" horiz-adv-x="312" 
d="M305 4c-21 -6 -53 -11 -78 -11c-58 0 -93 17 -111 51c-15 27 -17 58 -17 107v308h-77v45h77s2 57 7 130h68v-130h113v-45h-113v-307c0 -43 4 -65 10 -79c8 -18 30 -28 57 -28c20 0 47 3 64 9v-50zM340 722c0 -73 -34 -132 -68 -164h-49c29 43 38 97 38 164h79z" />
    <glyph glyph-name="tcaron.sc" horiz-adv-x="446" 
d="M428 526v-49h-169v-477h-77v477h-164v49h410zM74 737h69l83 -101l85 101h58l-114 -152h-67z" />
    <glyph glyph-name="thorn" unicode="&#xfe;" horiz-adv-x="552" 
d="M160 736v-287c39 42 81 66 146 66c120 0 193 -86 193 -256c0 -219 -119 -270 -207 -270c-59 0 -99 14 -134 45v-253h-75v955h77zM157 247c0 -111 3 -150 26 -176c26 -28 59 -37 101 -37c79 0 137 65 137 224c0 146 -49 212 -130 212c-41 0 -73 -19 -91 -33
c-36 -29 -43 -55 -43 -190z" />
    <glyph glyph-name="thorn.sc" horiz-adv-x="517" 
d="M162 0h-77v526h77v-100h98c56 0 98 -5 128 -16c53 -20 82 -65 82 -126c0 -69 -31 -131 -103 -151c-30 -8 -74 -13 -110 -13h-95v-120zM162 166h87c44 0 80 6 98 18c26 18 40 50 40 94c0 34 -12 71 -43 87c-21 11 -60 15 -93 15h-89v-214z" />
    <glyph glyph-name="three" unicode="3" horiz-adv-x="572" 
d="M73 18v61c60 -32 133 -40 176 -40c129 0 162 76 162 145c0 84 -48 141 -174 141h-47v47h48c125 0 154 77 154 137c0 88 -43 130 -136 130c-44 0 -102 -12 -164 -45v56c59 30 124 40 171 40c140 0 210 -62 210 -180c0 -83 -49 -138 -118 -157c76 -10 134 -68 134 -164
c0 -147 -101 -203 -239 -203c-47 0 -119 6 -177 32z" />
    <glyph glyph-name="three.denominator" horiz-adv-x="391" 
d="M174 -11c-30 0 -74 3 -113 20v49c43 -20 85 -25 113 -25c70 0 92 39 92 82c0 46 -25 77 -97 77h-34v44h33c75 0 91 41 91 76c0 52 -30 71 -78 71c-29 0 -63 -7 -108 -28v47c42 18 80 25 112 25c94 0 139 -36 139 -113c0 -46 -25 -80 -72 -97c49 -12 81 -46 81 -99
c0 -95 -70 -129 -159 -129z" />
    <glyph glyph-name="three.fitted" horiz-adv-x="527" 
d="M47 18v61c61 -32 133 -40 176 -40c121 0 162 76 162 145c0 84 -48 141 -173 141h-48v47h49c125 0 153 77 153 137c0 88 -49 130 -136 130c-44 0 -102 -12 -164 -45v56c59 30 125 40 171 40c140 0 210 -62 210 -180c0 -83 -49 -138 -118 -157c76 -10 134 -68 134 -164
c0 -147 -101 -203 -239 -203c-47 0 -119 6 -177 32z" />
    <glyph glyph-name="three.inferior" unicode="&#x2083;" horiz-adv-x="391" 
d="M174 -170c-30 0 -74 3 -113 20v49c43 -20 85 -25 113 -25c70 0 92 39 92 82c0 46 -25 77 -97 77h-34v44h33c75 0 91 41 91 76c0 52 -30 71 -78 71c-29 0 -63 -7 -108 -28v47c42 18 80 25 112 25c94 0 139 -36 139 -113c0 -46 -25 -80 -72 -97c49 -12 81 -46 81 -99
c0 -95 -70 -129 -159 -129z" />
    <glyph glyph-name="three.numerator" horiz-adv-x="391" 
d="M174 250c-30 0 -74 3 -113 20v49c43 -20 85 -25 113 -25c70 0 92 39 92 82c0 46 -25 77 -97 77h-34v44h33c75 0 91 41 91 76c0 52 -30 71 -78 71c-29 0 -63 -7 -108 -28v47c42 18 80 25 112 25c94 0 139 -36 139 -113c0 -46 -25 -80 -72 -97c49 -12 81 -46 81 -99
c0 -95 -70 -129 -159 -129z" />
    <glyph glyph-name="three.oldstyle" horiz-adv-x="495" 
d="M29 -165v52c21 -2 45 -3 70 -3c117 0 247 41 247 173c0 76 -47 135 -166 135h-30v45h31c119 0 152 65 152 125c0 81 -44 123 -126 123c-42 0 -94 -6 -159 -38v56c60 26 115 34 162 34c141 0 196 -59 196 -174c0 -72 -47 -129 -128 -145c87 -12 144 -61 144 -156
c0 -182 -183 -230 -326 -230c-23 0 -47 1 -67 3z" />
    <glyph glyph-name="three.taboldstyle" horiz-adv-x="538" 
d="M62 -165v52c21 -2 45 -3 70 -3c117 0 247 41 247 173c0 76 -47 135 -166 135h-30v45h31c119 0 152 65 152 125c0 81 -44 123 -126 123c-42 0 -94 -6 -159 -38v56c60 26 115 34 162 34c141 0 196 -59 196 -174c0 -72 -47 -129 -128 -145c87 -12 144 -61 144 -156
c0 -182 -183 -230 -326 -230c-23 0 -47 1 -67 3z" />
    <glyph glyph-name="threeeighths" unicode="&#x215c;" horiz-adv-x="830" 
d="M542 676h60l-330 -676h-60zM156 250c-30 0 -74 3 -113 20v49c43 -20 85 -25 113 -25c70 0 92 39 92 82c0 46 -25 77 -97 77h-34v44h33c75 0 91 41 91 76c0 52 -30 71 -78 71c-29 0 -63 -7 -108 -28v47c42 18 80 25 112 25c94 0 139 -36 139 -113c0 -46 -25 -80 -72 -97
c49 -12 81 -46 81 -99c0 -95 -70 -129 -159 -129zM786 314c0 -46 -21 -75 -67 -94c51 -15 78 -51 78 -105c0 -74 -54 -126 -153 -126s-152 45 -152 124c0 54 26 89 81 106c-49 17 -66 49 -66 95c0 62 46 113 138 113c95 0 141 -44 141 -113zM731 113c0 62 -41 85 -86 85
c-48 0 -87 -24 -87 -83c0 -62 40 -85 87 -85c53 0 86 29 86 83zM720 312c0 38 -18 74 -75 74c-56 0 -76 -37 -76 -76c0 -51 36 -71 76 -71c34 0 75 13 75 73z" />
    <glyph glyph-name="threefifths" horiz-adv-x="830" 
d="M549 676h60l-330 -676h-60zM157 250c-30 0 -74 3 -113 20v49c43 -20 85 -25 113 -25c70 0 92 39 92 82c0 46 -25 77 -97 77h-34v44h33c75 0 91 41 91 76c0 52 -30 71 -78 71c-29 0 -63 -7 -108 -28v47c42 18 80 25 112 25c94 0 139 -36 139 -113c0 -46 -25 -80 -72 -97
c49 -12 81 -46 81 -99c0 -95 -70 -129 -159 -129zM722 129c0 69 -36 89 -85 89c-35 0 -65 -4 -121 -27l17 224h232v-57h-190l-7 -100c25 7 60 10 83 10c91 0 138 -47 138 -138c0 -101 -67 -141 -161 -141c-32 0 -81 3 -122 20v49c45 -22 94 -25 122 -25c68 0 94 33 94 96z
" />
    <glyph glyph-name="threequarters" unicode="&#xbe;" horiz-adv-x="830" 
d="M552 676h60l-330 -676h-60zM161 250c-30 0 -74 3 -113 20v49c43 -20 85 -25 113 -25c70 0 92 39 92 82c0 46 -25 77 -97 77h-34v44h33c75 0 91 41 91 76c0 52 -30 71 -78 71c-29 0 -63 -7 -108 -28v47c42 18 80 25 112 25c94 0 139 -36 139 -113c0 -46 -25 -80 -72 -97
c49 -12 81 -46 81 -99c0 -95 -70 -129 -159 -129zM501 149h142c0 110 0 160 1 205c-25 -38 -50 -76 -143 -205zM705 0h-62v100h-200v41l196 274h66v-266h67v-49h-67v-100z" />
    <glyph glyph-name="threesuperior" unicode="&#xb3;" horiz-adv-x="391" 
d="M174 439c-30 0 -74 3 -113 20v49c43 -20 85 -25 113 -25c70 0 92 39 92 82c0 46 -25 77 -97 77h-34v44h33c75 0 91 41 91 76c0 52 -30 71 -78 71c-29 0 -63 -7 -108 -28v47c42 18 80 25 112 25c94 0 139 -36 139 -113c0 -46 -25 -80 -72 -97c49 -12 81 -46 81 -99
c0 -95 -70 -129 -159 -129z" />
    <glyph glyph-name="tilde" unicode="&#x2dc;" 
d="M-7 598l-36 14c26 61 59 94 92 94c18 0 32 -5 62 -22l21 -11c15 -8 30 -14 41 -14c23 0 40 18 54 48l39 -12c-26 -70 -59 -99 -92 -99c-20 0 -36 4 -60 17l-23 12c-22 12 -36 19 -45 19c-20 0 -35 -13 -53 -46z" />
    <glyph glyph-name="tilde.cap" 
d="M-17 768l-38 16c28 60 58 92 101 92c19 0 36 -7 64 -21l29 -15c17 -8 30 -10 40 -10c30 0 43 16 57 47l40 -13c-27 -68 -58 -96 -97 -96c-20 0 -37 5 -62 17l-31 15c-21 10 -34 15 -45 15c-22 0 -40 -12 -58 -47z" />
    <glyph glyph-name="tilde.sc" 
d="M-7 608l-31 14c26 60 54 94 87 94c18 0 32 -5 62 -22l21 -11c15 -8 30 -14 41 -14c23 0 40 18 54 48l32 -12c-26 -70 -53 -99 -86 -99c-20 0 -35 4 -59 17l-23 12c-22 12 -36 19 -45 19c-21 0 -35 -13 -53 -46z" />
    <glyph glyph-name="trademark" unicode="&#x2122;" horiz-adv-x="899" 
d="M357 706v-37h-129v-339h-60v339h-124v37h313zM819 330h-57c-5 196 -7 256 -8 320c-14 -46 -30 -93 -113 -320h-43c-88 236 -100 267 -118 318c-1 -63 -2 -111 -8 -318h-51l10 376h82c77 -203 95 -251 113 -303c15 48 35 109 103 303h78z" />
    <glyph glyph-name="two" unicode="2" horiz-adv-x="572" 
d="M278 690c149 0 215 -70 215 -184c0 -70 -32 -141 -83 -200c-76 -86 -156 -159 -256 -237c107 1 227 1 347 1v-70h-444v46c106 93 200 179 280 274c52 62 69 138 69 177c0 84 -42 141 -138 141c-60 0 -112 -19 -168 -52v56c54 29 124 48 178 48z" />
    <glyph glyph-name="two.denominator" horiz-adv-x="391" 
d="M184 427c99 0 143 -45 143 -118c0 -42 -18 -81 -52 -118c-52 -54 -100 -94 -158 -136c63 1 148 1 215 1v-56h-292v40c82 69 129 111 182 169c34 35 39 69 39 96c0 46 -23 78 -81 78c-34 0 -63 -7 -109 -28v48c33 16 76 24 113 24z" />
    <glyph glyph-name="two.fitted" horiz-adv-x="550" 
d="M256 690c150 0 214 -70 214 -184c0 -70 -32 -141 -83 -200c-76 -86 -156 -159 -256 -237c107 1 227 1 348 1v-70h-445v46c106 93 200 179 280 274c53 62 69 138 69 177c0 84 -42 140 -137 140c-61 0 -112 -18 -169 -51v56c54 29 124 48 179 48z" />
    <glyph glyph-name="two.inferior" unicode="&#x2082;" horiz-adv-x="391" 
d="M184 268c99 0 143 -45 143 -118c0 -42 -18 -81 -52 -118c-52 -54 -100 -94 -158 -136c63 1 148 1 215 1v-56h-292v40c82 69 129 111 182 169c34 35 39 69 39 96c0 46 -23 78 -81 78c-34 0 -63 -7 -109 -28v48c33 16 76 24 113 24z" />
    <glyph glyph-name="two.numerator" horiz-adv-x="391" 
d="M184 688c99 0 143 -45 143 -118c0 -42 -18 -81 -52 -118c-52 -54 -100 -94 -158 -136c63 1 148 1 215 1v-56h-292v40c82 69 128 112 182 169c33 36 39 69 39 96c0 46 -23 78 -81 78c-34 0 -63 -7 -109 -28v48c33 16 76 24 113 24z" />
    <glyph glyph-name="two.oldstyle" horiz-adv-x="522" 
d="M169 68c96 1 196 1 312 1v-69h-434v44c74 42 149 87 208 131c74 56 105 117 105 192c0 62 -31 119 -128 119c-59 0 -96 -10 -156 -37v51c50 25 111 38 163 38c140 0 201 -76 201 -169c0 -71 -20 -139 -117 -210c-45 -32 -97 -65 -154 -91z" />
    <glyph glyph-name="two.taboldstyle" horiz-adv-x="538" 
d="M169 68c96 1 196 1 312 1v-69h-434v44c74 42 149 87 208 131c74 56 104 117 104 192c0 62 -31 119 -127 119c-59 0 -96 -10 -156 -37v51c50 25 111 38 163 38c140 0 201 -76 201 -169c0 -71 -20 -140 -117 -210c-45 -32 -97 -65 -154 -91z" />
    <glyph glyph-name="twofifths" horiz-adv-x="830" 
d="M561 676h60l-330 -676h-60zM175 688c99 0 143 -45 143 -118c0 -42 -18 -81 -52 -118c-52 -54 -100 -94 -158 -136c63 1 148 1 215 1v-56h-292v40c82 69 128 112 182 169c33 36 39 69 39 96c0 46 -23 78 -81 78c-34 0 -63 -7 -109 -28v48c33 16 76 24 113 24zM729 129
c0 69 -36 89 -85 89c-35 0 -65 -4 -121 -27l17 224h232v-57h-190l-7 -100c25 7 60 10 83 10c91 0 138 -47 138 -138c0 -101 -67 -141 -161 -141c-32 0 -81 3 -122 20v49c45 -22 94 -25 122 -25c68 0 94 33 94 96z" />
    <glyph glyph-name="twosuperior" unicode="&#xb2;" horiz-adv-x="391" 
d="M184 877c99 0 143 -45 143 -118c0 -42 -18 -81 -52 -118c-52 -54 -100 -94 -158 -136c63 1 148 1 215 1v-56h-292v40c82 69 129 111 182 169c34 35 39 69 39 96c0 46 -23 78 -81 78c-34 0 -63 -7 -109 -28v48c33 16 76 24 113 24z" />
    <glyph glyph-name="twothirds" unicode="&#x2154;" horiz-adv-x="830" 
d="M578 676h60l-330 -676h-60zM185 688c99 0 143 -45 143 -118c0 -42 -18 -81 -52 -118c-52 -54 -100 -94 -158 -136c63 1 148 1 215 1v-56h-292v40c82 69 128 112 182 169c33 36 39 69 39 96c0 46 -23 78 -81 78c-34 0 -63 -7 -109 -28v48c33 16 76 24 113 24zM659 -11
c-30 0 -74 3 -113 20v49c43 -20 85 -25 113 -25c70 0 92 39 92 82c0 46 -25 77 -97 77h-34v44h33c75 0 91 41 91 76c0 52 -30 71 -78 71c-29 0 -63 -7 -108 -28v47c42 18 80 25 112 25c94 0 139 -36 139 -113c0 -46 -25 -80 -72 -97c49 -12 81 -46 81 -99
c0 -95 -70 -129 -159 -129z" />
    <glyph glyph-name="u" unicode="u" horiz-adv-x="563" 
d="M157 504v-277c0 -61 2 -102 9 -127c11 -40 43 -61 93 -61c41 0 89 15 119 50c22 24 23 40 23 105v310h74v-334c0 -59 3 -118 10 -170h-75c-3 15 -7 39 -8 58c-53 -63 -124 -71 -169 -71c-70 0 -124 24 -142 102c-6 25 -9 71 -9 117v298h75z" />
    <glyph glyph-name="u.sc" horiz-adv-x="591" 
d="M510 526v-312c0 -79 -8 -113 -27 -145c-29 -49 -102 -81 -189 -81c-81 0 -162 24 -193 87c-17 35 -20 81 -20 137v314h76v-313c0 -55 4 -93 16 -118c17 -38 64 -60 125 -60c50 0 97 13 126 53c16 22 23 59 23 121v317h63z" />
    <glyph glyph-name="uacute" unicode="&#xfa;" horiz-adv-x="563" 
d="M157 504v-277c0 -61 2 -102 9 -127c11 -40 43 -61 93 -61c41 0 89 15 119 50c22 24 23 40 23 105v310h74v-334c0 -59 3 -118 10 -170h-75c-3 15 -7 39 -8 58c-53 -63 -124 -71 -169 -71c-70 0 -124 24 -142 102c-6 25 -9 71 -9 117v298h75zM278 586h-60l106 137h107z" />
    <glyph glyph-name="uacute.sc" horiz-adv-x="591" 
d="M510 526v-312c0 -79 -8 -113 -27 -145c-29 -49 -102 -81 -189 -81c-81 0 -162 24 -193 87c-17 35 -20 81 -20 137v314h76v-313c0 -55 4 -93 16 -118c17 -38 64 -60 125 -60c50 0 97 13 126 53c16 22 23 59 23 121v317h63zM288 596h-60l106 137h107z" />
    <glyph glyph-name="ubreve" unicode="&#x16d;" horiz-adv-x="563" 
d="M157 504v-277c0 -61 2 -102 9 -127c11 -40 43 -61 93 -61c41 0 89 15 119 50c22 24 23 40 23 105v310h74v-334c0 -59 3 -118 10 -170h-75c-3 15 -7 39 -8 58c-53 -63 -124 -71 -169 -71c-70 0 -124 24 -142 102c-6 25 -9 71 -9 117v298h75zM159 722h51
c0 -51 25 -82 74 -82c47 0 80 26 80 82h48c0 -79 -39 -141 -132 -141c-88 0 -121 57 -121 141z" />
    <glyph glyph-name="ubreve.sc" horiz-adv-x="591" 
d="M510 526v-312c0 -79 -8 -113 -27 -145c-29 -49 -102 -81 -189 -81c-81 0 -162 24 -193 87c-17 35 -20 81 -20 137v314h76v-313c0 -55 4 -93 16 -118c17 -38 64 -60 125 -60c50 0 97 13 126 53c16 22 23 59 23 121v317h63zM173 733h51c0 -53 25 -83 74 -83
c47 0 80 26 80 83h48c0 -80 -39 -142 -132 -142c-88 0 -121 56 -121 142z" />
    <glyph glyph-name="ucircumflex" unicode="&#xfb;" horiz-adv-x="563" 
d="M157 504v-277c0 -61 2 -102 9 -127c11 -40 43 -61 93 -61c41 0 89 15 119 50c22 24 23 40 23 105v310h74v-334c0 -59 3 -118 10 -170h-75c-3 15 -7 39 -8 58c-53 -63 -124 -71 -169 -71c-70 0 -124 24 -142 102c-6 25 -9 71 -9 117v298h75zM428 586h-69l-84 101l-85 -101
h-57l114 152h67z" />
    <glyph glyph-name="ucircumflex.sc" horiz-adv-x="591" 
d="M510 526v-312c0 -79 -8 -113 -27 -145c-29 -49 -102 -81 -189 -81c-81 0 -162 24 -193 87c-17 35 -20 81 -20 137v314h76v-313c0 -55 4 -93 16 -118c17 -38 64 -60 125 -60c50 0 97 13 126 53c16 22 23 59 23 121v317h63zM449 596h-69l-84 101l-85 -101h-57l114 152h67z
" />
    <glyph glyph-name="udieresis" unicode="&#xfc;" horiz-adv-x="563" 
d="M157 504v-277c0 -61 2 -102 9 -127c11 -40 43 -61 93 -61c41 0 89 15 119 50c22 24 23 40 23 105v310h74v-334c0 -59 3 -118 10 -170h-75c-3 15 -7 39 -8 58c-53 -63 -124 -71 -169 -71c-70 0 -124 24 -142 102c-6 25 -9 71 -9 117v298h75zM241 659
c0 -34 -19 -46 -46 -46c-25 0 -44 9 -44 46c0 36 19 48 46 48c25 0 44 -8 44 -48zM417 659c0 -34 -18 -46 -45 -46c-26 0 -44 9 -44 46c0 36 18 48 45 48c26 0 44 -8 44 -48z" />
    <glyph glyph-name="udieresis.sc" horiz-adv-x="591" 
d="M510 526v-312c0 -79 -8 -113 -27 -145c-29 -49 -102 -81 -189 -81c-81 0 -162 24 -193 87c-17 35 -20 81 -20 137v314h76v-313c0 -55 4 -93 16 -118c17 -38 64 -60 125 -60c50 0 97 13 126 53c16 22 23 59 23 121v317h63zM252 671c0 -34 -19 -46 -46 -46
c-25 0 -44 9 -44 46c0 36 19 48 46 48c25 0 44 -8 44 -48zM428 671c0 -34 -18 -46 -45 -46c-26 0 -44 9 -44 46c0 36 18 48 45 48c26 0 44 -8 44 -48z" />
    <glyph glyph-name="ugrave" unicode="&#xf9;" horiz-adv-x="563" 
d="M157 504v-277c0 -61 2 -102 9 -127c11 -40 43 -61 93 -61c41 0 89 15 119 50c22 24 23 40 23 105v310h74v-334c0 -59 3 -118 10 -170h-75c-3 15 -7 39 -8 58c-53 -63 -124 -71 -169 -71c-70 0 -124 24 -142 102c-6 25 -9 71 -9 117v298h75zM354 586h-67l-144 137h107z
" />
    <glyph glyph-name="ugrave.sc" horiz-adv-x="591" 
d="M510 526v-312c0 -79 -8 -113 -27 -145c-29 -49 -102 -81 -189 -81c-81 0 -162 24 -193 87c-17 35 -20 81 -20 137v314h76v-313c0 -55 4 -93 16 -118c17 -38 64 -60 125 -60c50 0 97 13 126 53c16 22 23 59 23 121v317h63zM367 596h-67l-144 137h107z" />
    <glyph glyph-name="uhungarumlaut" unicode="&#x171;" horiz-adv-x="563" 
d="M157 504v-277c0 -61 2 -102 9 -127c11 -40 43 -61 93 -61c41 0 89 15 119 50c22 24 23 40 23 105v310h74v-334c0 -59 3 -118 10 -170h-75c-3 15 -7 39 -8 58c-53 -63 -124 -71 -169 -71c-70 0 -124 24 -142 102c-6 25 -9 71 -9 117v298h75zM209 587h-50l92 137h98z
M357 587h-51l93 137h98z" />
    <glyph glyph-name="uhungarumlaut.sc" horiz-adv-x="591" 
d="M510 526v-312c0 -79 -8 -113 -27 -145c-29 -49 -102 -81 -189 -81c-81 0 -162 24 -193 87c-17 35 -20 81 -20 137v314h76v-313c0 -55 4 -93 16 -118c17 -38 64 -60 125 -60c50 0 97 13 126 53c16 22 23 59 23 121v317h63zM213 597h-50l92 137h98zM361 597h-51l93 137h98z
" />
    <glyph glyph-name="umacron" unicode="&#x16b;" horiz-adv-x="563" 
d="M157 504v-277c0 -61 2 -102 9 -127c11 -40 43 -61 93 -61c41 0 89 15 119 50c22 24 23 40 23 105v310h74v-334c0 -59 3 -118 10 -170h-75c-3 15 -7 39 -8 58c-53 -63 -124 -71 -169 -71c-70 0 -124 24 -142 102c-6 25 -9 71 -9 117v298h75zM426 605h-281v62h281v-62z" />
    <glyph glyph-name="umacron.sc" horiz-adv-x="591" 
d="M510 526v-312c0 -79 -8 -113 -27 -145c-29 -49 -102 -81 -189 -81c-81 0 -162 24 -193 87c-17 35 -20 81 -20 137v314h76v-313c0 -55 4 -93 16 -118c17 -38 64 -60 125 -60c50 0 97 13 126 53c16 22 23 59 23 121v317h63zM441 618h-281v62h281v-62z" />
    <glyph glyph-name="underscore" unicode="_" horiz-adv-x="524" 
d="M0 -79h524v-52h-524v52z" />
    <glyph glyph-name="uni00AD" unicode="&#xad;" horiz-adv-x="340" 
d="M296 243h-252v71h252v-71z" />
    <glyph glyph-name="uni0162" unicode="&#x162;" horiz-adv-x="571" 
d="M211 -238v40c18 -4 34 -5 40 -5c45 0 59 21 59 53c0 33 -19 52 -55 52c-9 0 -22 -1 -33 -2l39 100h-19v657h-220v49h527v-49h-227v-657h-23l-24 -64c72 0 103 -28 103 -83c0 -65 -45 -95 -121 -95c-15 0 -36 2 -46 4z" />
    <glyph glyph-name="uni0162_h.001" horiz-adv-x="1131" 
d="M211 -238v40c18 -4 34 -5 40 -5c45 0 59 21 59 53c0 33 -19 52 -55 52c-9 0 -22 -1 -33 -2l39 100h-19v657h-220v49h527v-49h-227v-657h-23l-24 -64c72 0 103 -28 103 -83c0 -65 -45 -95 -121 -95c-15 0 -36 2 -46 4zM975 0v281c0 61 -3 98 -10 123c-12 40 -39 61 -90 61
c-41 0 -93 -14 -122 -49c-20 -25 -22 -46 -22 -102v-314h-75v746h76v-301c51 57 124 72 172 72c73 0 123 -29 139 -105c6 -27 6 -55 6 -115v-297h-74z" />
    <glyph glyph-name="uni0163" unicode="&#x163;" horiz-adv-x="312" 
d="M110 -226v37c17 -4 33 -5 39 -5c43 0 56 20 56 51s-17 50 -52 50c-9 0 -22 -1 -32 -2l40 98c-21 9 -35 22 -45 41c-15 27 -17 58 -17 107v308h-77v45h77s2 57 7 130h68v-130h113v-45h-113v-307c0 -43 4 -65 10 -79c8 -18 30 -28 57 -28c20 0 47 3 64 9v-50
c-21 -6 -53 -11 -78 -11c-12 0 -22 1 -32 2l-23 -56c74 0 99 -27 99 -79c0 -62 -43 -90 -116 -90c-15 0 -35 2 -45 4z" />
    <glyph glyph-name="uni0163.sc" horiz-adv-x="446" 
d="M148 -226v37c17 -4 33 -5 39 -5c43 0 56 20 56 51c0 32 -17 50 -52 50c-9 0 -22 -1 -32 -2l38 95h-15v477h-164v49h410v-49h-169v-477h-24l-25 -61c74 0 99 -27 99 -78c0 -63 -43 -91 -116 -91c-14 0 -35 2 -45 4z" />
    <glyph glyph-name="uni0218" unicode="&#x218;" horiz-adv-x="522" 
d="M388 185c0 55 -35 95 -113 129l-68 29c-103 45 -149 98 -149 191c0 115 85 187 216 187c60 0 115 -11 160 -31v-67c-49 24 -93 44 -158 44c-93 0 -145 -40 -145 -126c0 -43 25 -85 108 -121l66 -29c122 -55 161 -111 161 -207c0 -115 -88 -198 -237 -198
c-62 0 -135 15 -182 37v69c53 -27 110 -52 183 -52c111 0 158 58 158 145zM281 -69c0 -88 -35 -137 -68 -172h-52c30 44 43 88 43 172h77z" />
    <glyph glyph-name="uni0219" unicode="&#x219;" horiz-adv-x="390" 
d="M33 79c44 -24 91 -41 136 -41c82 0 112 34 112 88c0 46 -31 69 -88 93l-43 18c-72 31 -104 77 -104 139c0 87 64 141 172 141c45 0 84 -6 118 -17v-62c-40 20 -74 30 -120 30c-52 0 -98 -29 -98 -86c0 -37 22 -61 67 -81l53 -23c87 -39 120 -74 120 -144
c0 -93 -68 -147 -189 -147c-43 0 -92 10 -136 27v65zM228 -69c0 -88 -35 -137 -68 -172h-52c30 44 43 88 43 172h77z" />
    <glyph glyph-name="uni0219.sc" horiz-adv-x="407" 
d="M302 136c0 34 -22 64 -81 89l-52 22c-81 33 -121 74 -121 151c0 86 71 140 173 140c46 0 92 -8 128 -23v-55c-39 18 -77 32 -127 32c-72 0 -107 -29 -107 -87c0 -26 17 -60 78 -86l52 -22c99 -43 129 -80 129 -158c0 -89 -71 -151 -188 -151c-49 0 -110 10 -146 26v61
c41 -20 89 -39 145 -39c83 0 117 38 117 100zM243 -69c0 -88 -35 -137 -68 -172h-52c30 44 43 88 43 172h77z" />
    <glyph glyph-name="uni021A" unicode="&#x21a;" horiz-adv-x="571" 
d="M549 706v-49h-227v-657h-80v657h-220v49h527zM323 -69c0 -88 -35 -137 -68 -172h-52c30 44 43 88 43 172h77z" />
    <glyph glyph-name="uni021A_h.001" horiz-adv-x="1131" 
d="M549 706v-49h-227v-657h-80v657h-220v49h527zM323 -69c0 -88 -35 -137 -68 -172h-52c30 44 43 88 43 172h77zM975 0v281c0 61 -3 98 -10 123c-12 40 -39 61 -90 61c-41 0 -93 -14 -122 -49c-20 -25 -22 -46 -22 -102v-314h-75v746h76v-301c51 57 124 72 172 72
c73 0 123 -29 139 -105c6 -27 6 -55 6 -115v-297h-74z" />
    <glyph glyph-name="uni021B" unicode="&#x21b;" horiz-adv-x="312" 
d="M305 4c-21 -6 -53 -11 -78 -11c-58 0 -93 17 -111 51c-15 27 -17 58 -17 107v308h-77v45h77s2 57 7 130h68v-130h113v-45h-113v-307c0 -43 4 -65 10 -79c8 -18 30 -28 57 -28c20 0 47 3 64 9v-50zM216 -69c0 -88 -35 -137 -68 -172h-52c30 44 43 88 43 172h77z" />
    <glyph glyph-name="uni021B.sc" horiz-adv-x="446" 
d="M428 526v-49h-169v-477h-77v477h-164v49h410zM264 -69c0 -88 -35 -137 -68 -172h-52c30 44 43 88 43 172h77z" />
    <glyph glyph-name="uni0394" unicode="&#x394;" horiz-adv-x="674" 
d="M653 0h-638l279 706h82zM326 633c-22 -61 -38 -106 -214 -571h424c-175 472 -188 507 -210 571z" />
    <glyph glyph-name="uni03A9" unicode="&#x3a9;" horiz-adv-x="698" 
d="M306 0h-252v63h162c-113 59 -160 156 -160 307c0 270 142 351 302 351c181 0 284 -92 284 -350c0 -156 -56 -254 -166 -308h170v-63h-252v68c102 28 157 135 157 304c0 224 -73 297 -198 297c-112 0 -206 -70 -206 -298c0 -179 61 -277 159 -304v-67z" />
    <glyph glyph-name="uni03BC" unicode="&#x3bc;" horiz-adv-x="562" 
d="M154 -211h-73v715h75v-308c0 -42 3 -76 9 -96c12 -41 42 -62 89 -62c42 0 93 13 123 45c23 24 23 38 23 103v318h74v-313c0 -59 1 -118 7 -191h-74c-2 16 -3 43 -5 58c-48 -63 -112 -71 -154 -71c-35 0 -75 12 -94 39v-237z" />
    <glyph glyph-name="uni2215" unicode="&#x2215;" horiz-adv-x="101" 
d="M185 676h60l-330 -676h-60z" />
    <glyph glyph-name="uni2219" unicode="&#x2219;" 
d="M164 278c0 -36 -21 -54 -54 -54c-30 0 -53 16 -53 54c0 39 24 56 55 56s52 -16 52 -56z" />
    <glyph glyph-name="uogonek" unicode="&#x173;" horiz-adv-x="563" 
d="M157 504v-277c0 -61 2 -102 9 -127c11 -40 43 -61 93 -61c41 0 89 15 119 50c22 24 23 40 23 105v310h74v-334c0 -59 3 -118 10 -170h-33c-49 -35 -77 -70 -77 -129c0 -39 22 -58 49 -58c17 0 35 4 50 9l14 -30c-24 -14 -52 -21 -79 -21c-65 0 -100 37 -100 96
c0 52 38 95 101 133c-3 15 -7 39 -8 58c-53 -63 -124 -71 -169 -71c-70 0 -124 24 -142 102c-6 25 -9 71 -9 117v298h75z" />
    <glyph glyph-name="uogonek.sc" horiz-adv-x="591" 
d="M510 526v-312c0 -79 -8 -113 -27 -145c-24 -41 -80 -70 -148 -78c-44 -35 -68 -71 -68 -129c0 -40 20 -63 50 -63c14 0 35 4 52 12l15 -33c-25 -15 -52 -22 -82 -22c-68 0 -104 40 -104 103c0 50 32 92 86 129c-77 2 -153 26 -183 87c-17 35 -20 81 -20 137v314h76v-313
c0 -55 4 -93 16 -118c17 -38 64 -60 125 -60c50 0 97 13 126 53c16 22 23 59 23 121v317h63z" />
    <glyph glyph-name="uring" unicode="&#x16f;" horiz-adv-x="563" 
d="M157 504v-277c0 -61 2 -102 9 -127c11 -40 43 -61 93 -61c41 0 89 15 119 50c22 24 23 40 23 105v310h74v-334c0 -59 3 -118 10 -170h-75c-3 15 -7 39 -8 58c-53 -63 -124 -71 -169 -71c-70 0 -124 24 -142 102c-6 25 -9 71 -9 117v298h75zM287 771c55 0 100 -28 100 -98
c0 -73 -45 -106 -102 -106c-55 0 -101 31 -101 103c0 69 51 101 103 101zM285 738c-31 0 -56 -18 -56 -68c0 -51 25 -70 58 -70s56 19 56 72c0 49 -24 66 -58 66z" />
    <glyph glyph-name="uring.sc" horiz-adv-x="591" 
d="M510 526v-312c0 -79 -8 -113 -27 -145c-29 -49 -102 -81 -189 -81c-81 0 -162 24 -193 87c-17 35 -20 81 -20 137v314h76v-313c0 -55 4 -93 16 -118c17 -38 64 -60 125 -60c50 0 97 13 126 53c16 22 23 59 23 121v317h63zM298 781c55 0 100 -28 100 -98
c0 -73 -45 -106 -102 -106c-55 0 -101 31 -101 103c0 69 51 101 103 101zM296 748c-31 0 -56 -18 -56 -68c0 -51 25 -70 58 -70s56 19 56 72c0 49 -24 66 -58 66z" />
    <glyph glyph-name="utilde" unicode="&#x169;" horiz-adv-x="563" 
d="M157 504v-277c0 -61 2 -102 9 -127c11 -40 43 -61 93 -61c41 0 89 15 119 50c22 24 23 40 23 105v310h74v-334c0 -59 3 -118 10 -170h-75c-3 15 -7 39 -8 58c-53 -63 -124 -71 -169 -71c-70 0 -124 24 -142 102c-6 25 -9 71 -9 117v298h75zM169 598l-36 14
c26 61 59 94 92 94c18 0 32 -5 62 -22l21 -11c15 -8 30 -14 41 -14c23 0 40 18 54 48l39 -12c-26 -70 -59 -99 -92 -99c-20 0 -36 4 -60 17l-23 12c-22 12 -36 19 -45 19c-20 0 -35 -13 -53 -46z" />
    <glyph glyph-name="utilde.sc" horiz-adv-x="591" 
d="M510 526v-312c0 -79 -8 -113 -27 -145c-29 -49 -102 -81 -189 -81c-81 0 -162 24 -193 87c-17 35 -20 81 -20 137v314h76v-313c0 -55 4 -93 16 -118c17 -38 64 -60 125 -60c50 0 97 13 126 53c16 22 23 59 23 121v317h63zM185 608l-31 14c26 60 54 94 87 94
c18 0 32 -5 62 -22l21 -11c15 -8 30 -14 41 -14c23 0 40 18 54 48l32 -12c-26 -70 -53 -99 -86 -99c-20 0 -35 4 -59 17l-23 12c-22 12 -36 19 -45 19c-21 0 -35 -13 -53 -46z" />
    <glyph glyph-name="v" unicode="v" horiz-adv-x="485" 
d="M472 504l-195 -504h-71l-190 504h83c97 -267 118 -329 152 -431c30 99 54 165 147 431h74z" />
    <glyph glyph-name="v.sc" horiz-adv-x="499" 
d="M284 0h-78l-189 526h87c120 -348 130 -377 154 -450c25 73 38 109 159 450h68z" />
    <glyph glyph-name="w" unicode="w" horiz-adv-x="731" 
d="M711 504l-146 -504h-74c-93 303 -108 353 -124 416c-17 -63 -32 -113 -129 -416h-73l-138 504h82c65 -259 89 -357 104 -426c18 69 42 160 125 426h72c87 -279 111 -364 127 -425c13 65 34 163 100 425h74z" />
    <glyph glyph-name="w.sc" horiz-adv-x="752" 
d="M584 0h-81c-89 328 -105 392 -118 449c-14 -57 -32 -122 -134 -449h-82l-141 526h84c69 -283 93 -377 109 -451c19 81 42 162 128 451h80c83 -292 108 -385 123 -450c16 70 38 163 111 450h67z" />
    <glyph glyph-name="wacute" unicode="&#x1e83;" horiz-adv-x="731" 
d="M711 504l-146 -504h-74c-93 303 -108 353 -124 416c-17 -63 -32 -113 -129 -416h-73l-138 504h82c65 -259 89 -357 104 -426c18 69 42 160 125 426h72c87 -279 111 -364 127 -425c13 65 34 163 100 425h74zM373 586h-60l106 137h107z" />
    <glyph glyph-name="wacute.sc" horiz-adv-x="752" 
d="M584 0h-81c-89 328 -105 392 -118 449c-14 -57 -32 -122 -134 -449h-82l-141 526h84c69 -283 93 -377 109 -451c19 81 42 162 128 451h80c83 -292 108 -385 123 -450c16 70 38 163 111 450h67zM375 596h-60l106 137h107z" />
    <glyph glyph-name="wcircumflex" unicode="&#x175;" horiz-adv-x="731" 
d="M711 504l-146 -504h-74c-93 303 -108 353 -124 416c-17 -63 -32 -113 -129 -416h-73l-138 504h82c65 -259 89 -357 104 -426c18 69 42 160 125 426h72c87 -279 111 -364 127 -425c13 65 34 163 100 425h74zM522 586h-69l-84 101l-85 -101h-57l114 152h67z" />
    <glyph glyph-name="wcircumflex.sc" horiz-adv-x="752" 
d="M584 0h-81c-89 328 -105 392 -118 449c-14 -57 -32 -122 -134 -449h-82l-141 526h84c69 -283 93 -377 109 -451c19 81 42 162 128 451h80c83 -292 108 -385 123 -450c16 70 38 163 111 450h67zM534 596h-69l-84 101l-85 -101h-57l114 152h67z" />
    <glyph glyph-name="wdieresis" unicode="&#x1e85;" horiz-adv-x="731" 
d="M711 504l-146 -504h-74c-93 303 -108 353 -124 416c-17 -63 -32 -113 -129 -416h-73l-138 504h82c65 -259 89 -357 104 -426c18 69 42 160 125 426h72c87 -279 111 -364 127 -425c13 65 34 163 100 425h74zM334 659c0 -34 -19 -46 -46 -46c-25 0 -44 9 -44 46
c0 36 19 48 46 48c25 0 44 -8 44 -48zM510 659c0 -34 -18 -46 -45 -46c-26 0 -44 9 -44 46c0 36 18 48 45 48c26 0 44 -8 44 -48z" />
    <glyph glyph-name="wdieresis.sc" horiz-adv-x="752" 
d="M584 0h-81c-89 328 -105 392 -118 449c-14 -57 -32 -122 -134 -449h-82l-141 526h84c69 -283 93 -377 109 -451c19 81 42 162 128 451h80c83 -292 108 -385 123 -450c16 70 38 163 111 450h67zM337 671c0 -34 -19 -46 -46 -46c-25 0 -44 9 -44 46c0 36 19 48 46 48
c25 0 44 -8 44 -48zM513 671c0 -34 -18 -46 -45 -46c-26 0 -44 9 -44 46c0 36 18 48 45 48c26 0 44 -8 44 -48z" />
    <glyph glyph-name="wgrave" unicode="&#x1e81;" horiz-adv-x="731" 
d="M711 504l-146 -504h-74c-93 303 -108 353 -124 416c-17 -63 -32 -113 -129 -416h-73l-138 504h82c65 -259 89 -357 104 -426c18 69 42 160 125 426h72c87 -279 111 -364 127 -425c13 65 34 163 100 425h74zM434 586h-67l-144 137h107z" />
    <glyph glyph-name="wgrave.sc" horiz-adv-x="752" 
d="M584 0h-81c-89 328 -105 392 -118 449c-14 -57 -32 -122 -134 -449h-82l-141 526h84c69 -283 93 -377 109 -451c19 81 42 162 128 451h80c83 -292 108 -385 123 -450c16 70 38 163 111 450h67zM459 596h-67l-144 137h107z" />
    <glyph glyph-name="x" unicode="x" horiz-adv-x="461" 
d="M446 0h-93c-96 148 -109 170 -131 203c-22 -35 -48 -73 -132 -203h-76l175 252l-167 252h91c87 -136 102 -161 122 -195c21 35 43 68 123 195h77l-168 -239z" />
    <glyph glyph-name="x.sc" horiz-adv-x="501" 
d="M484 0h-92c-105 162 -124 189 -145 223c-24 -36 -46 -70 -149 -223h-80l192 268l-174 258h90c95 -144 113 -172 132 -202c18 29 38 60 133 202h77l-176 -244z" />
    <glyph glyph-name="y" unicode="y" horiz-adv-x="481" 
d="M472 504l-188 -553c-22 -64 -33 -92 -49 -118c-29 -44 -72 -59 -124 -59c-15 0 -32 2 -49 6v54c12 -4 33 -7 47 -7c22 0 46 4 67 26c19 19 35 60 47 100l15 47h-28l-195 504h84c100 -270 136 -371 163 -452c22 74 53 186 138 452h72z" />
    <glyph glyph-name="y.sc" horiz-adv-x="501" 
d="M287 0h-77v216l-197 310h94c111 -181 129 -211 154 -254c25 43 40 68 153 254h77l-204 -310v-216z" />
    <glyph glyph-name="yacute" unicode="&#xfd;" horiz-adv-x="481" 
d="M472 504l-188 -553c-22 -64 -33 -92 -49 -118c-29 -44 -72 -59 -124 -59c-15 0 -32 2 -49 6v54c12 -4 33 -7 47 -7c22 0 46 4 67 26c19 19 35 60 47 100l15 47h-28l-195 504h84c100 -270 136 -371 163 -452c22 74 53 186 138 452h72zM243 586h-60l106 137h107z" />
    <glyph glyph-name="yacute.sc" horiz-adv-x="501" 
d="M287 0h-77v216l-197 310h94c111 -181 129 -211 154 -254c25 43 40 68 153 254h77l-204 -310v-216zM261 596h-60l106 137h107z" />
    <glyph glyph-name="ycircumflex" unicode="&#x177;" horiz-adv-x="481" 
d="M472 504l-188 -553c-22 -64 -33 -92 -49 -118c-29 -44 -72 -59 -124 -59c-15 0 -32 2 -49 6v54c12 -4 33 -7 47 -7c22 0 46 4 67 26c19 19 35 60 47 100l15 47h-28l-195 504h84c100 -270 136 -371 163 -452c22 74 53 186 138 452h72zM407 586h-69l-84 101l-85 -101h-57
l114 152h67z" />
    <glyph glyph-name="ycircumflex.sc" horiz-adv-x="501" 
d="M287 0h-77v216l-197 310h94c111 -181 129 -211 154 -254c25 43 40 68 153 254h77l-204 -310v-216zM404 596h-69l-84 101l-85 -101h-57l114 152h67z" />
    <glyph glyph-name="ydieresis" unicode="&#xff;" horiz-adv-x="481" 
d="M472 504l-188 -553c-22 -64 -33 -92 -49 -118c-29 -44 -72 -59 -124 -59c-15 0 -32 2 -49 6v54c12 -4 33 -7 47 -7c22 0 46 4 67 26c19 19 35 60 47 100l15 47h-28l-195 504h84c100 -270 136 -371 163 -452c22 74 53 186 138 452h72zM215 659c0 -34 -19 -46 -46 -46
c-25 0 -44 9 -44 46c0 36 19 48 46 48c25 0 44 -8 44 -48zM391 659c0 -34 -18 -46 -45 -46c-26 0 -44 9 -44 46c0 36 18 48 45 48c26 0 44 -8 44 -48z" />
    </font>
</defs>
</svg>
