<?xml version="1.0" standalone="no"?>
<!DOCTYPE svg PUBLIC "-//W3C//DTD SVG 1.1//EN" "http://www.w3.org/Graphics/SVG/1.1/DTD/svg11.dtd" >
<svg xmlns="http://www.w3.org/2000/svg" xmlns:xlink="http://www.w3.org/1999/xlink" version="1.1">
<metadata>
Created by FontForge 20170910 at Mon Jul  9 16:45:17 2012
 By Jimmy Wärting
Copyright (c) 2012 by Dieter Hofrichter. All rights reserved.
</metadata>
<defs>
<font id="EpocaClassic-Medium" horiz-adv-x="406" >
  <font-face 
    font-family="EpocaClassic-Medium"
    font-weight="500"
    font-stretch="normal"
    units-per-em="1000"
    panose-1="0 0 0 0 0 0 0 0 0 0"
    ascent="760"
    descent="-240"
    x-height="506"
    cap-height="706"
    bbox="-136 -264 1235 996"
    underline-thickness="50"
    underline-position="-100"
    stemh="71"
    stemv="130"
    unicode-range="U+0020-FB04"
  />
<missing-glyph horiz-adv-x="329" 
 />
    <glyph glyph-name="T_h" unicode="Th" horiz-adv-x="1134" 
d="M937 0v284c0 53 0 87 -5 109c-8 37 -32 52 -70 52c-33 0 -70 -14 -90 -43c-16 -25 -17 -45 -17 -99v-303h-130v643l-101 -9h-167v-634h-139v634h-200v72h607v40h130v-297c47 53 113 70 165 70c68 0 122 -22 140 -95c7 -29 8 -65 8 -117v-307h-131z" />
    <glyph glyph-name="Tcaron_h" unicode="&#x164;h" horiz-adv-x="1134" 
d="M937 0v284c0 53 0 87 -5 109c-8 37 -32 52 -70 52c-33 0 -70 -14 -90 -43c-16 -25 -17 -45 -17 -99v-303h-130v643l-101 -9h-167v-634h-139v634h-200v72h607v40h130v-297c47 53 113 70 165 70c68 0 122 -22 140 -95c7 -29 8 -65 8 -117v-307h-131zM102 904h100l91 -76
l88 76h91l-136 -138h-99z" />
    <glyph glyph-name="f_b" unicode="fb" horiz-adv-x="904" 
d="M393 151v531c-17 1 -45 2 -70 2c-35 0 -62 -8 -78 -26c-15 -17 -24 -48 -24 -98v-54h99v-61h-99v-445h-129v446h-74v60h74v48c0 65 14 111 41 142c36 40 96 59 164 59c59 0 134 -3 226 -15v-294c40 51 100 72 155 72c122 0 187 -80 187 -253c0 -196 -77 -275 -207 -275
c-52 0 -109 16 -146 61c0 -5 -2 -31 -5 -51h-119c4 44 5 103 5 151zM522 251c0 -71 4 -123 18 -149c18 -32 50 -46 85 -46c61 0 107 45 107 206c0 141 -42 186 -103 186c-30 0 -69 -14 -88 -52c-14 -28 -19 -76 -19 -145z" />
    <glyph glyph-name="f_f" unicode="ff" horiz-adv-x="619" 
d="M393 0v446h-172v-446h-129v446h-74v60h74v35c0 64 11 107 35 137c30 36 85 57 142 57c30 0 62 -3 88 -7v-71c-16 4 -37 8 -60 8c-27 0 -47 -12 -58 -29s-18 -41 -18 -85v-45h172v50c0 63 11 110 34 139c31 38 83 60 145 60c33 0 62 -3 89 -8v-72c-16 6 -38 9 -60 9
c-28 0 -50 -11 -61 -28s-17 -41 -17 -90v-60h101v-60h-101v-446h-130z" />
    <glyph glyph-name="f_f_b" unicode="ffb" horiz-adv-x="1206" 
d="M825 740v-294c40 51 100 72 155 72c122 0 187 -80 187 -253c0 -196 -77 -275 -207 -275c-52 0 -109 16 -146 61c0 -5 -2 -31 -5 -51h-119c4 44 5 103 5 151v530c-18 1 -44 3 -69 3c-34 0 -63 -7 -79 -26c-15 -17 -24 -48 -24 -98v-54h99v-61h-99v-445h-130v446h-172v-446
h-129v446h-74v60h74v40c0 62 10 105 34 134c30 36 81 55 143 55c29 0 60 -3 88 -7v-71c-16 5 -39 8 -58 8c-29 0 -50 -10 -60 -25c-13 -17 -18 -37 -18 -82v-52h172v48c0 64 15 111 42 142c35 40 96 59 167 59c59 0 136 -3 223 -15zM824 251c0 -71 4 -123 18 -149
c18 -32 50 -46 85 -46c61 0 107 45 107 206c0 141 -42 186 -103 186c-30 0 -69 -14 -88 -52c-14 -28 -19 -76 -19 -145z" />
    <glyph glyph-name="f_f_h" unicode="ffh" horiz-adv-x="1204" 
d="M825 740v-291c47 53 113 70 165 70c68 0 122 -22 140 -95c7 -29 8 -65 8 -117v-307h-131v284c0 53 0 87 -5 109c-8 37 -32 52 -70 52c-33 0 -70 -14 -90 -43c-16 -25 -17 -45 -17 -99v-303h-130v681c-18 1 -44 3 -69 3c-34 0 -63 -7 -79 -26c-15 -17 -24 -48 -24 -98v-54
h99v-61h-99v-445h-130v446h-172v-446h-129v446h-74v60h74v40c0 62 10 105 34 134c30 36 81 55 143 55c29 0 60 -3 88 -7v-71c-16 5 -39 8 -58 8c-29 0 -50 -10 -60 -25c-13 -17 -18 -37 -18 -82v-52h172v48c0 64 15 111 42 142c35 40 96 59 167 59c59 0 136 -3 223 -15z" />
    <glyph glyph-name="f_f_i" unicode="ffi" horiz-adv-x="894" 
d="M393 0v446h-172v-446h-129v446h-74v60h74v44c0 64 11 102 35 131c30 37 81 54 142 54c30 0 62 -3 88 -7v-71c-16 5 -43 8 -61 8c-28 0 -49 -11 -59 -27c-12 -17 -16 -33 -16 -80v-52h172v62c0 61 11 103 34 131c30 37 82 56 144 56c31 0 55 -2 78 -6v-71
c-15 4 -32 6 -50 6c-27 0 -49 -9 -60 -24c-11 -16 -16 -35 -16 -83v-71h302v-506h-130v446h-172v-446h-130zM829 662c0 -53 -24 -71 -70 -71c-44 0 -68 16 -68 71s25 73 71 73c45 0 67 -17 67 -73z" />
    <glyph glyph-name="f_f_j" unicode="ffj" horiz-adv-x="894" 
d="M695 -33v478h-172v-445h-130v446h-172v-446h-129v446h-74v60h74v44c0 64 11 102 35 131c30 37 81 54 142 54c30 0 62 -3 88 -7v-71c-16 5 -43 8 -61 8c-28 0 -49 -11 -59 -27c-12 -17 -16 -35 -16 -82v-50h172v61c0 61 10 102 32 130c30 37 81 58 144 58
c30 0 57 -2 80 -6v-70c-16 4 -36 5 -56 5c-26 0 -46 -10 -56 -25c-10 -16 -14 -39 -14 -82v-71h302v-535c0 -63 -8 -106 -30 -134c-28 -35 -79 -53 -151 -53c-26 0 -54 3 -75 7v66c13 -3 38 -5 52 -5c23 0 43 6 55 18c14 14 19 43 19 97zM829 662c0 -53 -24 -71 -70 -71
c-44 0 -68 16 -68 71s25 73 71 73c45 0 67 -17 67 -73z" />
    <glyph glyph-name="f_f_k" unicode="ffk" horiz-adv-x="1166" 
d="M695 0v682c-18 2 -44 2 -69 2c-34 0 -63 -7 -79 -26c-15 -17 -24 -48 -24 -98v-54h99v-61h-99v-445h-130v446h-172v-446h-129v446h-74v60h74v40c0 62 10 105 34 134c30 36 81 55 143 55c29 0 60 -3 88 -7v-71c-16 5 -39 8 -58 8c-29 0 -50 -10 -60 -25
c-13 -17 -18 -37 -18 -82v-52h172v48c0 64 15 111 42 142c35 40 96 59 167 59c59 0 136 -3 223 -15v-462l198 228h118c-138 -145 -172 -179 -202 -208c36 -43 67 -81 226 -298h-157l-183 252v-252h-130z" />
    <glyph glyph-name="f_f_l" unicode="ffl" horiz-adv-x="896" 
d="M825 0h-130v681c-18 1 -44 3 -69 3c-34 0 -63 -7 -79 -26c-15 -17 -24 -48 -24 -98v-54h99v-61h-99v-445h-130v446h-172v-446h-129v446h-74v60h74v40c0 62 10 105 34 134c30 36 81 55 143 55c29 0 60 -3 88 -7v-71c-16 5 -39 8 -58 8c-29 0 -50 -10 -60 -25
c-13 -17 -18 -37 -18 -82v-52h172v48c0 64 15 111 42 142c35 40 96 59 167 59c59 0 136 -3 223 -15v-740z" />
    <glyph glyph-name="f_h" unicode="fh" horiz-adv-x="902" 
d="M523 740v-291c47 53 113 70 165 70c68 0 122 -22 140 -95c7 -29 8 -65 8 -117v-307h-131v284c0 53 0 87 -5 109c-8 37 -32 52 -70 52c-33 0 -70 -14 -90 -43c-16 -25 -17 -45 -17 -99v-303h-130v682c-17 1 -45 2 -70 2c-35 0 -62 -8 -78 -26c-15 -17 -24 -48 -24 -98v-54
h99v-61h-99v-445h-129v446h-74v60h74v48c0 65 14 111 41 142c36 40 96 59 164 59c59 0 134 -3 226 -15z" />
    <glyph glyph-name="f_j" unicode="fj" horiz-adv-x="592" 
d="M393 -33v478h-172v-445h-129v446h-74v60h74v62c0 64 11 102 34 131c29 37 81 56 147 56c31 0 51 -2 74 -6v-71c-14 4 -33 6 -51 6c-29 0 -49 -10 -58 -24c-11 -16 -17 -35 -17 -82v-72h303v-535c0 -63 -9 -106 -30 -134c-28 -35 -80 -53 -152 -53c-26 0 -54 3 -75 7v66
c13 -3 38 -5 52 -5c23 0 43 6 55 18c14 14 19 43 19 97zM527 662c0 -53 -24 -71 -70 -71c-45 0 -68 16 -68 71s24 73 71 73c45 0 67 -17 67 -73z" />
    <glyph glyph-name="f_k" unicode="fk" horiz-adv-x="863" 
d="M393 0v682c-17 1 -45 2 -70 2c-35 0 -62 -8 -78 -26c-15 -17 -24 -48 -24 -98v-54h99v-61h-99v-445h-129v446h-74v60h74v48c0 65 14 111 41 142c36 40 96 59 164 59c59 0 134 -3 226 -15v-462l198 228h118c-138 -145 -172 -179 -202 -208c36 -43 67 -81 226 -298h-157
l-183 252v-252h-130z" />
    <glyph glyph-name="fi" unicode="fi" horiz-adv-x="592" 
d="M524 0h-131v446h-172v-446h-129v446h-74v60h74v54c0 64 11 107 34 136c29 37 81 59 147 59c31 0 51 -2 74 -6v-71c-14 4 -33 6 -51 6c-29 0 -49 -12 -58 -27c-10 -17 -17 -42 -17 -89v-62h303v-506zM527 662c0 -53 -23 -71 -70 -71c-44 0 -67 16 -67 71s24 73 70 73
c45 0 67 -17 67 -73z" />
    <glyph glyph-name="fl" unicode="fl" horiz-adv-x="594" 
d="M523 0h-130v682c-17 1 -45 2 -70 2c-35 0 -62 -8 -78 -26c-15 -17 -24 -48 -24 -98v-54h99v-61h-99v-445h-129v446h-74v60h74v48c0 65 14 111 41 142c36 40 96 59 164 59c59 0 134 -3 226 -15v-740z" />
    <glyph glyph-name="uni0162_h" unicode="&#x162;h" horiz-adv-x="1134" 
d="M937 0v284c0 53 0 87 -5 109c-8 37 -32 52 -70 52c-33 0 -70 -14 -90 -43c-16 -25 -17 -45 -17 -99v-303h-130v643l-101 -9h-167v-634h-139v634h-200v72h607v40h130v-297c47 53 113 70 165 70c68 0 122 -22 140 -95c7 -29 8 -65 8 -117v-307h-131zM212 -243v49
c19 -4 34 -5 44 -5c38 0 51 18 51 47c0 30 -18 46 -49 46c-11 0 -21 0 -35 -2l44 118h48l-28 -74c67 0 105 -30 105 -85c0 -70 -48 -98 -126 -98c-17 0 -41 2 -54 4z" />
    <glyph glyph-name="uni021A_h" unicode="&#x21a;h" horiz-adv-x="1134" 
d="M937 0v284c0 53 0 87 -5 109c-8 37 -32 52 -70 52c-33 0 -70 -14 -90 -43c-16 -25 -17 -45 -17 -99v-303h-130v643l-101 -9h-167v-634h-139v634h-200v72h607v40h130v-297c47 53 113 70 165 70c68 0 122 -22 140 -95c7 -29 8 -65 8 -117v-307h-131zM338 -63
c-2 -82 -32 -140 -74 -184h-71c32 50 46 99 46 184h99z" />
    <glyph glyph-name=".notdef" horiz-adv-x="329" 
 />
    <glyph glyph-name="A" unicode="A" horiz-adv-x="653" 
d="M490 0l-68 216h-239l-71 -216h-104l254 706h140l239 -706h-151zM204 287h196c-64 197 -78 246 -97 307c-17 -60 -32 -109 -99 -307z" />
    <glyph glyph-name="AE" unicode="&#xc6;" horiz-adv-x="946" 
d="M900 634h-294v-231h278v-72h-278v-259h312v-72h-450v217h-236l-124 -217h-116l422 706h486v-72zM468 633c-33 -61 -69 -126 -193 -342h193v342z" />
    <glyph glyph-name="AEacute" unicode="&#x1fc;" horiz-adv-x="946" 
d="M900 634h-294v-231h278v-72h-278v-259h312v-72h-450v217h-236l-124 -217h-116l422 706h486v-72zM468 633c-33 -61 -69 -126 -193 -342h193v342zM641 766h-98l135 138h154z" />
    <glyph glyph-name="Aacute" unicode="&#xc1;" horiz-adv-x="653" 
d="M490 0l-68 216h-239l-71 -216h-104l254 706h140l239 -706h-151zM204 287h196c-64 197 -78 246 -97 307c-17 -60 -32 -109 -99 -307zM321 766h-98l135 138h154z" />
    <glyph glyph-name="Abreve" unicode="&#x102;" horiz-adv-x="653" 
d="M490 0l-68 216h-239l-71 -216h-104l254 706h140l239 -706h-151zM204 287h196c-64 197 -78 246 -97 307c-17 -60 -32 -109 -99 -307zM170 900h74c4 -47 37 -68 80 -68c48 0 82 18 86 68h74c-3 -80 -50 -140 -160 -140c-106 0 -152 60 -154 140z" />
    <glyph glyph-name="Acircumflex" unicode="&#xc2;" horiz-adv-x="653" 
d="M490 0l-68 216h-239l-71 -216h-104l254 706h140l239 -706h-151zM204 287h196c-64 197 -78 246 -97 307c-17 -60 -32 -109 -99 -307zM510 766h-101l-91 76l-88 -76h-90l135 138h100z" />
    <glyph glyph-name="Adieresis" unicode="&#xc4;" horiz-adv-x="653" 
d="M490 0l-68 216h-239l-71 -216h-104l254 706h140l239 -706h-151zM204 287h196c-64 197 -78 246 -97 307c-17 -60 -32 -109 -99 -307zM276 829c0 -44 -23 -60 -62 -60c-36 0 -57 13 -57 60c0 48 22 64 61 64c36 0 58 -14 58 -64zM487 829c0 -44 -22 -60 -61 -60
c-36 0 -58 13 -58 60c0 48 22 64 62 64c36 0 57 -14 57 -64z" />
    <glyph glyph-name="Agrave" unicode="&#xc0;" horiz-adv-x="653" 
d="M490 0l-68 216h-239l-71 -216h-104l254 706h140l239 -706h-151zM204 287h196c-64 197 -78 246 -97 307c-17 -60 -32 -109 -99 -307zM432 766h-98l-186 138h151z" />
    <glyph glyph-name="Amacron" unicode="&#x100;" horiz-adv-x="653" 
d="M490 0l-68 216h-239l-71 -216h-104l254 706h140l239 -706h-151zM204 287h196c-64 197 -78 246 -97 307c-17 -60 -32 -109 -99 -307zM489 789h-314v73h314v-73z" />
    <glyph glyph-name="Aogonek" unicode="&#x104;" horiz-adv-x="653" 
d="M490 0l-68 216h-239l-71 -216h-104l254 706h140l239 -706h-81c-57 -43 -81 -79 -81 -132c0 -35 19 -59 47 -59c13 0 32 2 49 9l17 -43c-25 -14 -56 -22 -86 -22c-75 0 -111 43 -111 106c0 55 37 101 105 141h-10zM204 287h196c-64 197 -78 246 -97 307
c-17 -60 -32 -109 -99 -307z" />
    <glyph glyph-name="Aring" unicode="&#xc5;" horiz-adv-x="653" 
d="M490 0l-68 216h-239l-71 -216h-104l254 706h140l239 -706h-151zM204 287h196c-64 197 -78 246 -97 307c-17 -60 -32 -109 -99 -307zM327 953c58 0 101 -36 101 -100c0 -62 -41 -102 -103 -102c-60 0 -104 35 -104 101c0 63 48 101 106 101zM325 911
c-26 0 -46 -19 -46 -60c0 -43 20 -60 48 -60c25 0 44 18 44 61c0 42 -20 59 -46 59z" />
    <glyph glyph-name="Aringacute" unicode="&#x1fa;" horiz-adv-x="653" 
d="M333 868c58 0 102 -36 102 -100c0 -31 -11 -57 -29 -75l235 -693h-151l-68 216h-239l-71 -216h-104l248 691c-18 17 -28 43 -28 75c0 64 47 102 105 102zM204 287h196c-64 197 -78 246 -97 307c-17 -60 -32 -109 -99 -307zM354 886h-85l106 110h140zM331 826
c-26 0 -46 -20 -46 -60c0 -43 19 -60 48 -60c26 0 44 18 44 61c0 42 -20 59 -46 59z" />
    <glyph glyph-name="Atilde" unicode="&#xc3;" horiz-adv-x="653" 
d="M490 0l-68 216h-239l-71 -216h-104l254 706h140l239 -706h-151zM204 287h196c-64 197 -78 246 -97 307c-17 -60 -32 -109 -99 -307zM192 767l-56 18c24 62 55 105 114 105c16 0 41 -7 69 -19l21 -10c18 -9 37 -15 49 -15c25 0 41 13 57 47l55 -20
c-29 -69 -58 -105 -110 -105c-22 0 -45 8 -70 20l-22 10c-25 12 -35 17 -49 17c-23 0 -40 -15 -58 -48z" />
    <glyph glyph-name="B" unicode="B" horiz-adv-x="633" 
d="M76 706h218c44 0 93 -2 132 -7c90 -11 143 -67 143 -169c0 -84 -41 -134 -125 -158c91 -15 147 -72 147 -171c0 -81 -39 -152 -120 -181c-39 -14 -100 -20 -175 -20h-220v706zM213 70h82c49 0 76 4 98 15c33 16 56 56 56 118c0 50 -19 96 -55 115c-21 10 -44 15 -94 15
h-87v-263zM215 399h83c42 0 65 6 84 17c28 16 46 54 46 103c0 52 -18 92 -51 106c-18 8 -46 11 -84 11h-78v-237z" />
    <glyph glyph-name="C" unicode="C" horiz-adv-x="584" 
d="M552 610c-51 24 -98 37 -162 37c-127 0 -200 -88 -200 -296c0 -209 73 -290 197 -290c61 0 116 16 169 43v-82c-46 -19 -114 -36 -189 -36c-201 0 -321 99 -321 358c0 258 125 377 329 377c75 0 127 -12 177 -28v-83z" />
    <glyph glyph-name="Cacute" unicode="&#x106;" horiz-adv-x="584" 
d="M552 610c-51 24 -98 37 -162 37c-127 0 -200 -88 -200 -296c0 -209 73 -290 197 -290c61 0 116 16 169 43v-82c-46 -19 -114 -36 -189 -36c-201 0 -321 99 -321 358c0 258 125 377 329 377c75 0 127 -12 177 -28v-83zM366 766h-98l135 138h154z" />
    <glyph glyph-name="Ccaron" unicode="&#x10c;" horiz-adv-x="584" 
d="M552 610c-51 24 -98 37 -162 37c-127 0 -200 -88 -200 -296c0 -209 73 -290 197 -290c61 0 116 16 169 43v-82c-46 -19 -114 -36 -189 -36c-201 0 -321 99 -321 358c0 258 125 377 329 377c75 0 127 -12 177 -28v-83zM165 904h100l91 -76l88 76h91l-136 -138h-99z" />
    <glyph glyph-name="Ccedilla" unicode="&#xc7;" horiz-adv-x="584" 
d="M261 -243v49c19 -4 34 -5 44 -5c38 0 51 18 51 47c0 30 -18 46 -49 46c-11 0 -21 0 -35 -2l36 97c-166 18 -262 122 -262 355c0 258 125 377 329 377c75 0 127 -12 177 -28v-83c-51 24 -98 37 -162 37c-127 0 -200 -88 -200 -296c0 -209 73 -290 197 -290
c61 0 116 16 169 43v-82c-46 -19 -114 -36 -189 -36h-12l-19 -50c67 0 105 -30 105 -85c0 -70 -48 -98 -126 -98c-17 0 -41 2 -54 4z" />
    <glyph glyph-name="Ccircumflex" unicode="&#x108;" horiz-adv-x="584" 
d="M552 610c-51 24 -98 37 -162 37c-127 0 -200 -88 -200 -296c0 -209 73 -290 197 -290c61 0 116 16 169 43v-82c-46 -19 -114 -36 -189 -36c-201 0 -321 99 -321 358c0 258 125 377 329 377c75 0 127 -12 177 -28v-83zM549 766h-101l-91 76l-88 -76h-90l135 138h100z" />
    <glyph glyph-name="Cdotaccent" unicode="&#x10a;" horiz-adv-x="584" 
d="M552 610c-51 24 -98 37 -162 37c-127 0 -200 -88 -200 -296c0 -209 73 -290 197 -290c61 0 116 16 169 43v-82c-46 -19 -114 -36 -189 -36c-201 0 -321 99 -321 358c0 258 125 377 329 377c75 0 127 -12 177 -28v-83zM425 829c0 -44 -23 -60 -62 -60c-36 0 -57 13 -57 60
c0 48 22 64 61 64c36 0 58 -14 58 -64z" />
    <glyph glyph-name="D" unicode="D" horiz-adv-x="699" 
d="M76 0v706h212c69 0 129 -5 180 -19c134 -35 185 -151 185 -324c0 -138 -35 -290 -174 -338c-54 -18 -99 -25 -208 -25h-195zM215 634v-562h71c71 0 112 12 145 37c50 39 78 126 78 254c0 105 -14 207 -87 247c-32 18 -79 24 -132 24h-75z" />
    <glyph glyph-name="Dcaron" unicode="&#x10e;" horiz-adv-x="699" 
d="M76 0v706h212c69 0 129 -5 180 -19c134 -35 185 -151 185 -324c0 -138 -35 -290 -174 -338c-54 -18 -99 -25 -208 -25h-195zM215 634v-562h71c71 0 112 12 145 37c50 39 78 126 78 254c0 105 -14 207 -87 247c-32 18 -79 24 -132 24h-75zM129 904h100l91 -76l88 76h91
l-136 -138h-99z" />
    <glyph glyph-name="Dcroat" unicode="&#x110;" horiz-adv-x="699" 
d="M76 0v333h-68v67h68v306h212c69 0 129 -5 180 -19c134 -35 185 -151 185 -324c0 -138 -35 -290 -174 -338c-54 -18 -99 -25 -208 -25h-195zM386 333h-171v-261h71c71 0 112 12 145 37c50 39 78 126 78 254c0 105 -14 207 -87 247c-32 18 -79 24 -132 24h-75v-234h171v-67
z" />
    <glyph glyph-name="Delta" unicode="&#x2206;" horiz-adv-x="702" 
d="M686 0h-675l276 706h140zM329 599c-21 -63 -39 -115 -181 -500h352c-134 385 -151 436 -171 500z" />
    <glyph glyph-name="Dotlessi" horiz-adv-x="292" 
d="M216 706v-706h-140v706h140z" />
    <glyph glyph-name="E" unicode="E" horiz-adv-x="555" 
d="M508 634h-293v-231h277v-72h-277v-259h311v-72h-450v706h432v-72z" />
    <glyph glyph-name="Eacute" unicode="&#xc9;" horiz-adv-x="555" 
d="M508 634h-293v-231h277v-72h-277v-259h311v-72h-450v706h432v-72zM304 766h-98l135 138h154z" />
    <glyph glyph-name="Ebreve" unicode="&#x114;" horiz-adv-x="555" 
d="M508 634h-293v-231h277v-72h-277v-259h311v-72h-450v706h432v-72zM149 900h74c4 -47 37 -68 80 -68c48 0 82 18 86 68h74c-3 -80 -50 -140 -160 -140c-106 0 -152 60 -154 140z" />
    <glyph glyph-name="Ecaron" unicode="&#x11a;" horiz-adv-x="555" 
d="M508 634h-293v-231h277v-72h-277v-259h311v-72h-450v706h432v-72zM118 904h100l91 -76l88 76h91l-136 -138h-99z" />
    <glyph glyph-name="Ecircumflex" unicode="&#xca;" horiz-adv-x="555" 
d="M508 634h-293v-231h277v-72h-277v-259h311v-72h-450v706h432v-72zM478 766h-101l-91 76l-88 -76h-90l135 138h100z" />
    <glyph glyph-name="Edieresis" unicode="&#xcb;" horiz-adv-x="555" 
d="M508 634h-293v-231h277v-72h-277v-259h311v-72h-450v706h432v-72zM254 829c0 -44 -23 -60 -62 -60c-36 0 -57 13 -57 60c0 48 22 64 61 64c36 0 58 -14 58 -64zM465 829c0 -44 -22 -60 -61 -60c-36 0 -58 13 -58 60c0 48 22 64 62 64c36 0 57 -14 57 -64z" />
    <glyph glyph-name="Edotaccent" unicode="&#x116;" horiz-adv-x="555" 
d="M508 634h-293v-231h277v-72h-277v-259h311v-72h-450v706h432v-72zM369 829c0 -44 -23 -60 -62 -60c-36 0 -57 13 -57 60c0 48 22 64 61 64c36 0 58 -14 58 -64z" />
    <glyph glyph-name="Egrave" unicode="&#xc8;" horiz-adv-x="555" 
d="M508 634h-293v-231h277v-72h-277v-259h311v-72h-450v706h432v-72zM385 766h-98l-186 138h151z" />
    <glyph glyph-name="Emacron" unicode="&#x112;" horiz-adv-x="555" 
d="M508 634h-293v-231h277v-72h-277v-259h311v-72h-450v706h432v-72zM456 789h-314v73h314v-73z" />
    <glyph glyph-name="Eng" unicode="&#x14a;" horiz-adv-x="714" 
d="M178 0h-102v706h174c202 -324 259 -414 295 -481c-4 106 -5 196 -6 481h98v-748c0 -68 -13 -110 -34 -135c-28 -34 -77 -53 -137 -53c-35 0 -67 2 -86 6v72c16 -4 48 -6 61 -6c33 0 57 9 69 24c15 17 22 46 22 81v27c-238 385 -300 487 -357 588c3 -148 3 -252 3 -562z
" />
    <glyph glyph-name="Eogonek" unicode="&#x118;" horiz-adv-x="555" 
d="M508 634h-293v-231h277v-72h-277v-259h311v-72h-33c-57 -43 -81 -79 -81 -132c0 -35 19 -59 47 -59c13 0 32 2 49 9l17 -43c-25 -14 -56 -22 -86 -22c-75 0 -111 43 -111 106c0 55 37 101 105 141h-357v706h432v-72z" />
    <glyph glyph-name="Eth" unicode="&#xd0;" horiz-adv-x="699" 
d="M76 0v333h-68v67h68v306h212c69 0 129 -5 180 -19c134 -35 185 -151 185 -324c0 -138 -35 -290 -174 -338c-54 -18 -99 -25 -208 -25h-195zM386 333h-171v-261h71c71 0 112 12 145 37c50 39 78 126 78 254c0 105 -14 207 -87 247c-32 18 -79 24 -132 24h-75v-234h171v-67
z" />
    <glyph glyph-name="Euro" unicode="&#x20ac;" horiz-adv-x="635" 
d="M526 244h-256c18 -131 80 -184 176 -184c56 0 102 16 151 41v-77c-45 -19 -101 -35 -170 -35c-162 0 -265 72 -288 255h-74v54h70c-1 10 -1 21 -1 32c0 17 1 34 2 51h-71v53h77c28 173 133 254 292 254c70 0 113 -12 159 -27v-79c-46 23 -86 35 -145 35
c-97 0 -158 -55 -178 -183h256v-53h-261c-1 -15 -1 -29 -1 -45c0 -14 0 -26 1 -38h261v-54z" />
    <glyph glyph-name="Euro.denominator" horiz-adv-x="410" 
d="M289 47c36 0 64 8 98 24v-57c-30 -12 -65 -25 -111 -25c-103 0 -173 43 -191 157h-47v42h44c0 9 -1 17 -1 25c0 7 1 17 1 23h-44v41h49c21 105 90 150 192 150c41 0 72 -5 105 -16v-62c-34 17 -66 23 -96 23c-53 0 -88 -27 -98 -95h135v-41h-139c0 -6 -1 -14 -1 -25
c0 -10 1 -17 1 -23h139v-42h-136c9 -71 46 -99 100 -99z" />
    <glyph glyph-name="Euro.inferior" horiz-adv-x="410" 
d="M289 -112c36 0 64 8 98 24v-57c-30 -12 -65 -25 -111 -25c-103 0 -173 43 -191 157h-47v42h44c0 9 -1 17 -1 25c0 7 1 17 1 23h-44v41h49c21 105 90 150 192 150c41 0 72 -5 105 -16v-62c-34 17 -66 23 -96 23c-53 0 -88 -27 -98 -95h135v-41h-139c0 -6 -1 -14 -1 -25
c0 -10 1 -17 1 -23h139v-42h-136c9 -71 46 -99 100 -99z" />
    <glyph glyph-name="Euro.numerator" horiz-adv-x="410" 
d="M289 308c36 0 64 8 98 24v-57c-30 -12 -65 -25 -111 -25c-103 0 -174 43 -191 157h-47v42h45v48h-45v41h49c20 105 90 150 192 150c41 0 72 -5 105 -16v-62c-34 17 -66 23 -96 23c-53 0 -91 -27 -99 -95h136v-41h-138v-48h138v-42h-136c6 -71 46 -99 100 -99z" />
    <glyph glyph-name="Euro.oldstyle" horiz-adv-x="588" 
d="M421 57c52 0 93 15 140 36v-74c-42 -16 -90 -32 -159 -32c-148 0 -243 62 -269 225h-67v54h63c0 22 0 50 1 72h-64v54h68c30 152 127 221 274 221c61 0 102 -9 148 -25v-76c-47 22 -90 32 -137 32c-81 0 -136 -45 -150 -152h202v-54h-208c-1 -12 -1 -26 -1 -38
c0 -13 0 -24 1 -34h208v-54h-205c12 -110 68 -155 155 -155z" />
    <glyph glyph-name="Euro.superior" horiz-adv-x="410" 
d="M289 497c36 0 64 8 98 24v-57c-30 -12 -65 -25 -111 -25c-103 0 -173 43 -191 157h-47v42h44c0 9 -1 17 -1 25c0 7 1 17 1 23h-44v41h49c21 105 90 150 192 150c41 0 72 -5 105 -16v-62c-34 17 -66 23 -96 23c-53 0 -88 -27 -98 -95h135v-41h-139c0 -6 -1 -14 -1 -25
c0 -10 1 -17 1 -23h139v-42h-136c9 -71 46 -99 100 -99z" />
    <glyph glyph-name="F" unicode="F" horiz-adv-x="514" 
d="M495 634h-279v-242h256v-73h-256v-319h-140v706h419v-72z" />
    <glyph glyph-name="G" unicode="G" horiz-adv-x="687" 
d="M376 58c48 0 84 7 114 18v216h-141v70h274v-323c-74 -34 -157 -53 -257 -53c-200 0 -320 104 -320 358c0 256 127 377 340 377c78 0 151 -11 201 -30v-82c-52 24 -122 38 -189 38c-132 0 -208 -88 -208 -296c0 -209 63 -293 186 -293z" />
    <glyph glyph-name="Gbreve" unicode="&#x11e;" horiz-adv-x="687" 
d="M376 58c48 0 84 7 114 18v216h-141v70h274v-323c-74 -34 -157 -53 -257 -53c-200 0 -320 104 -320 358c0 256 127 377 340 377c78 0 151 -11 201 -30v-82c-52 24 -122 38 -189 38c-132 0 -208 -88 -208 -296c0 -209 63 -293 186 -293zM216 900h74c4 -47 37 -68 80 -68
c48 0 82 18 86 68h74c-3 -80 -50 -140 -160 -140c-106 0 -152 60 -154 140z" />
    <glyph glyph-name="Gcircumflex" unicode="&#x11c;" horiz-adv-x="687" 
d="M376 58c48 0 84 7 114 18v216h-141v70h274v-323c-74 -34 -157 -53 -257 -53c-200 0 -320 104 -320 358c0 256 127 377 340 377c78 0 151 -11 201 -30v-82c-52 24 -122 38 -189 38c-132 0 -208 -88 -208 -296c0 -209 63 -293 186 -293zM570 766h-101l-91 76l-88 -76h-90
l135 138h100z" />
    <glyph glyph-name="Gcommaaccent" unicode="&#x122;" horiz-adv-x="687" 
d="M376 58c48 0 84 7 114 18v216h-141v70h274v-323c-74 -34 -157 -53 -257 -53c-200 0 -320 104 -320 358c0 256 127 377 340 377c78 0 151 -11 201 -30v-82c-52 24 -122 38 -189 38c-132 0 -208 -88 -208 -296c0 -209 63 -293 186 -293zM427 -63c-2 -82 -32 -140 -74 -184
h-71c32 50 46 99 46 184h99z" />
    <glyph glyph-name="Gdotaccent" unicode="&#x120;" horiz-adv-x="687" 
d="M376 58c48 0 84 7 114 18v216h-141v70h274v-323c-74 -34 -157 -53 -257 -53c-200 0 -320 104 -320 358c0 256 127 377 340 377c78 0 151 -11 201 -30v-82c-52 24 -122 38 -189 38c-132 0 -208 -88 -208 -296c0 -209 63 -293 186 -293zM442 829c0 -44 -23 -60 -62 -60
c-36 0 -57 13 -57 60c0 48 22 64 61 64c36 0 58 -14 58 -64z" />
    <glyph glyph-name="H" unicode="H" horiz-adv-x="704" 
d="M489 331h-274v-331h-139v706h139v-304h274v304h139v-706h-139v331z" />
    <glyph glyph-name="Hbar" unicode="&#x126;" horiz-adv-x="704" 
d="M215 0h-139v495h-68v67h68v144h139v-144h274v144h139v-144h68v-67h-68v-495h-139v331h-274v-331zM215 402h274v93h-274v-93z" />
    <glyph glyph-name="Hcircumflex" unicode="&#x124;" horiz-adv-x="704" 
d="M489 331h-274v-331h-139v706h139v-304h274v304h139v-706h-139v331zM542 766h-101l-91 76l-88 -76h-90l135 138h100z" />
    <glyph glyph-name="I" unicode="I" horiz-adv-x="292" 
d="M216 706v-706h-140v706h140z" />
    <glyph glyph-name="IJ" unicode="&#x132;" horiz-adv-x="692" 
d="M216 706v-706h-140v706h140zM292 2v77c32 -13 62 -19 91 -19c33 0 67 9 83 41c13 26 17 59 17 132v473h139v-473c0 -79 -9 -131 -32 -166c-33 -51 -90 -81 -182 -81c-45 0 -84 7 -116 16z" />
    <glyph glyph-name="Iacute" unicode="&#xcd;" horiz-adv-x="292" 
d="M216 706v-706h-140v706h140zM142 766h-98l135 138h154z" />
    <glyph glyph-name="Ibreve" unicode="&#x12c;" horiz-adv-x="292" 
d="M216 706v-706h-140v706h140zM-11 900h74c4 -47 37 -68 80 -68c48 0 82 18 86 68h74c-3 -80 -50 -140 -160 -140c-106 0 -152 60 -154 140z" />
    <glyph glyph-name="Icircumflex" unicode="&#xce;" horiz-adv-x="292" 
d="M216 706v-706h-140v706h140zM331 766h-101l-91 76l-88 -76h-90l135 138h100z" />
    <glyph glyph-name="Idieresis" unicode="&#xcf;" horiz-adv-x="292" 
d="M216 706v-706h-140v706h140zM100 829c0 -44 -23 -60 -62 -60c-36 0 -57 13 -57 60c0 48 22 64 61 64c36 0 58 -14 58 -64zM311 829c0 -44 -22 -60 -61 -60c-36 0 -58 13 -58 60c0 48 22 64 62 64c36 0 57 -14 57 -64z" />
    <glyph glyph-name="Idotaccent" unicode="&#x130;" horiz-adv-x="292" 
d="M216 706v-706h-140v706h140zM210 829c0 -44 -23 -60 -62 -60c-36 0 -57 13 -57 60c0 48 22 64 61 64c36 0 58 -14 58 -64z" />
    <glyph glyph-name="Igrave" unicode="&#xcc;" horiz-adv-x="292" 
d="M216 706v-706h-140v706h140zM246 766h-98l-186 138h151z" />
    <glyph glyph-name="Imacron" unicode="&#x12a;" horiz-adv-x="292" 
d="M216 706v-706h-140v706h140zM302 789h-314v73h314v-73z" />
    <glyph glyph-name="Iogonek" unicode="&#x12e;" horiz-adv-x="292" 
d="M216 706v-706h-24c-57 -43 -81 -79 -81 -132c0 -35 19 -59 47 -59c13 0 32 2 49 9l17 -43c-25 -14 -56 -22 -86 -22c-75 0 -111 43 -111 106c0 55 37 101 105 141h-56v706h140z" />
    <glyph glyph-name="Itilde" unicode="&#x128;" horiz-adv-x="292" 
d="M216 706v-706h-140v706h140zM21 767l-56 18c24 62 55 105 114 105c16 0 41 -7 69 -19l21 -10c18 -9 37 -15 49 -15c25 0 41 13 57 47l55 -20c-29 -69 -58 -105 -110 -105c-22 0 -45 8 -70 20l-22 10c-25 12 -35 17 -49 17c-23 0 -40 -15 -58 -48z" />
    <glyph glyph-name="J" unicode="J" horiz-adv-x="404" 
d="M2 2v77c32 -13 62 -19 91 -19c33 0 67 9 83 41c13 26 17 59 17 132v473h139v-473c0 -79 -9 -131 -32 -166c-33 -51 -90 -81 -182 -81c-45 0 -84 7 -116 16z" />
    <glyph glyph-name="Jcircumflex" unicode="&#x134;" horiz-adv-x="404" 
d="M2 2v77c32 -13 62 -19 91 -19c33 0 67 9 83 41c13 26 17 59 17 132v473h139v-473c0 -79 -9 -131 -32 -166c-33 -51 -90 -81 -182 -81c-45 0 -84 7 -116 16zM448 766h-101l-91 76l-88 -76h-90l135 138h100z" />
    <glyph glyph-name="K" unicode="K" horiz-adv-x="628" 
d="M215 0h-139v706h139v-332l269 332h121c-197 -225 -229 -259 -267 -300c47 -62 86 -115 295 -406h-168l-250 350v-350z" />
    <glyph glyph-name="Kcommaaccent" unicode="&#x136;" horiz-adv-x="628" 
d="M215 0h-139v706h139v-332l269 332h121c-197 -225 -229 -259 -267 -300c47 -62 86 -115 295 -406h-168l-250 350v-350zM381 -63c-2 -82 -32 -140 -74 -184h-71c32 50 46 99 46 184h99z" />
    <glyph glyph-name="Kgreenlandic" horiz-adv-x="628" 
d="M215 0h-139v706h139v-332l269 332h121c-197 -225 -229 -259 -267 -300c47 -62 86 -115 295 -406h-168l-250 350v-350z" />
    <glyph glyph-name="L" unicode="L" horiz-adv-x="502" 
d="M216 706v-634h273v-72h-413v706h140z" />
    <glyph glyph-name="Lacute" unicode="&#x139;" horiz-adv-x="502" 
d="M216 706v-634h273v-72h-413v706h140zM174 766h-98l135 138h154z" />
    <glyph glyph-name="Lcaron" unicode="&#x13d;" horiz-adv-x="502" 
d="M216 706v-634h273v-72h-413v706h140zM425 706c-2 -76 -32 -141 -74 -184h-70c32 49 43 106 44 184h100z" />
    <glyph glyph-name="Lcommaaccent" unicode="&#x13b;" horiz-adv-x="502" 
d="M216 706v-634h273v-72h-413v706h140zM324 -63c-2 -82 -32 -140 -74 -184h-71c32 50 46 99 46 184h99z" />
    <glyph glyph-name="Ldot" unicode="&#x13f;" horiz-adv-x="502" 
d="M216 706v-634h273v-72h-413v706h140zM467 330c0 -57 -28 -78 -79 -78c-48 0 -77 18 -77 78c0 62 30 83 80 83c49 0 76 -20 76 -83z" />
    <glyph glyph-name="Lslash" unicode="&#x141;" horiz-adv-x="502" 
d="M216 706v-283l147 99v-80l-147 -99v-271h273v-72h-413v252l-69 -46v80l69 46v374h140z" />
    <glyph glyph-name="M" unicode="M" horiz-adv-x="863" 
d="M795 0h-138c-4 210 -5 331 -5 422c0 69 1 122 1 186c-31 -124 -47 -183 -169 -608h-124c-111 392 -135 472 -171 608c-2 -153 -4 -222 -12 -608h-109c18 700 18 706 18 706h185c106 -379 130 -455 163 -589c28 128 51 211 155 589h188s0 -3 18 -706z" />
    <glyph glyph-name="N" unicode="N" horiz-adv-x="714" 
d="M637 0h-145c-230 401 -264 462 -317 562c3 -148 3 -252 3 -562h-102v706h174c211 -356 260 -442 294 -511c-4 125 -5 192 -5 511h98v-706z" />
    <glyph glyph-name="Nacute" unicode="&#x143;" horiz-adv-x="714" 
d="M637 0h-145c-230 401 -264 462 -317 562c3 -148 3 -252 3 -562h-102v706h174c211 -356 260 -442 294 -511c-4 125 -5 192 -5 511h98v-706zM379 766h-98l135 138h154z" />
    <glyph glyph-name="Ncaron" unicode="&#x147;" horiz-adv-x="714" 
d="M637 0h-145c-230 401 -264 462 -317 562c3 -148 3 -252 3 -562h-102v706h174c211 -356 260 -442 294 -511c-4 125 -5 192 -5 511h98v-706zM169 904h100l91 -76l88 76h91l-136 -138h-99z" />
    <glyph glyph-name="Ncommaaccent" unicode="&#x145;" horiz-adv-x="714" 
d="M637 0h-145c-230 401 -264 462 -317 562c3 -148 3 -252 3 -562h-102v706h174c211 -356 260 -442 294 -511c-4 125 -5 192 -5 511h98v-706zM423 -63c-2 -82 -32 -140 -74 -184h-71c32 50 46 99 46 184h99z" />
    <glyph glyph-name="Ntilde" unicode="&#xd1;" horiz-adv-x="714" 
d="M637 0h-145c-230 401 -264 462 -317 562c3 -148 3 -252 3 -562h-102v706h174c211 -356 260 -442 294 -511c-4 125 -5 192 -5 511h98v-706zM234 767l-56 18c24 62 55 105 114 105c16 0 41 -7 69 -19l21 -10c18 -9 37 -15 49 -15c25 0 41 13 57 47l55 -20
c-29 -69 -58 -105 -110 -105c-22 0 -45 8 -70 20l-22 10c-25 12 -35 17 -49 17c-23 0 -40 -15 -58 -48z" />
    <glyph glyph-name="O" unicode="O" horiz-adv-x="709" 
d="M663 364c0 -267 -112 -378 -312 -378c-203 0 -305 111 -305 366c0 264 130 369 316 369c203 0 301 -110 301 -357zM519 355c0 211 -43 297 -160 297c-112 0 -169 -82 -169 -298c0 -228 55 -301 164 -301c113 0 165 80 165 302z" />
    <glyph glyph-name="OE" unicode="&#x152;" horiz-adv-x="978" 
d="M928 634h-294v-231h278v-72h-278v-259h312v-72h-450c-32 -6 -83 -12 -132 -12c-212 0 -318 97 -318 364c0 272 129 366 324 366c42 0 90 -4 125 -12h433v-72zM374 57c49 0 95 5 121 13v564c-40 12 -70 16 -115 16c-116 0 -190 -68 -190 -296c0 -219 60 -297 184 -297z
" />
    <glyph glyph-name="Oacute" unicode="&#xd3;" horiz-adv-x="709" 
d="M663 364c0 -267 -112 -378 -312 -378c-203 0 -305 111 -305 366c0 264 130 369 316 369c203 0 301 -110 301 -357zM519 355c0 211 -43 297 -160 297c-112 0 -169 -82 -169 -298c0 -228 55 -301 164 -301c113 0 165 80 165 302zM347 766h-98l135 138h154z" />
    <glyph glyph-name="Obreve" unicode="&#x14e;" horiz-adv-x="709" 
d="M663 364c0 -267 -112 -378 -312 -378c-203 0 -305 111 -305 366c0 264 130 369 316 369c203 0 301 -110 301 -357zM519 355c0 211 -43 297 -160 297c-112 0 -169 -82 -169 -298c0 -228 55 -301 164 -301c113 0 165 80 165 302zM197 900h74c4 -47 37 -68 80 -68
c48 0 82 18 86 68h74c-3 -80 -50 -140 -160 -140c-106 0 -152 60 -154 140z" />
    <glyph glyph-name="Ocircumflex" unicode="&#xd4;" horiz-adv-x="709" 
d="M663 364c0 -267 -112 -378 -312 -378c-203 0 -305 111 -305 366c0 264 130 369 316 369c203 0 301 -110 301 -357zM519 355c0 211 -43 297 -160 297c-112 0 -169 -82 -169 -298c0 -228 55 -301 164 -301c113 0 165 80 165 302zM534 766h-101l-91 76l-88 -76h-90l135 138
h100z" />
    <glyph glyph-name="Odieresis" unicode="&#xd6;" horiz-adv-x="709" 
d="M663 364c0 -267 -112 -378 -312 -378c-203 0 -305 111 -305 366c0 264 130 369 316 369c203 0 301 -110 301 -357zM519 355c0 211 -43 297 -160 297c-112 0 -169 -82 -169 -298c0 -228 55 -301 164 -301c113 0 165 80 165 302zM309 829c0 -44 -23 -60 -62 -60
c-36 0 -57 13 -57 60c0 48 22 64 61 64c36 0 58 -14 58 -64zM520 829c0 -44 -22 -60 -61 -60c-36 0 -58 13 -58 60c0 48 22 64 62 64c36 0 57 -14 57 -64z" />
    <glyph glyph-name="Ograve" unicode="&#xd2;" horiz-adv-x="709" 
d="M663 364c0 -267 -112 -378 -312 -378c-203 0 -305 111 -305 366c0 264 130 369 316 369c203 0 301 -110 301 -357zM519 355c0 211 -43 297 -160 297c-112 0 -169 -82 -169 -298c0 -228 55 -301 164 -301c113 0 165 80 165 302zM456 766h-98l-186 138h151z" />
    <glyph glyph-name="Ohungarumlaut" unicode="&#x150;" horiz-adv-x="709" 
d="M663 364c0 -267 -112 -378 -312 -378c-203 0 -305 111 -305 366c0 264 130 369 316 369c203 0 301 -110 301 -357zM519 355c0 211 -43 297 -160 297c-112 0 -169 -82 -169 -298c0 -228 55 -301 164 -301c113 0 165 80 165 302zM276 766h-80l122 140h135zM466 766h-79
l122 140h135z" />
    <glyph glyph-name="Omacron" unicode="&#x14c;" horiz-adv-x="709" 
d="M663 364c0 -267 -112 -378 -312 -378c-203 0 -305 111 -305 366c0 264 130 369 316 369c203 0 301 -110 301 -357zM519 355c0 211 -43 297 -160 297c-112 0 -169 -82 -169 -298c0 -228 55 -301 164 -301c113 0 165 80 165 302zM512 789h-314v73h314v-73z" />
    <glyph glyph-name="Omega" unicode="&#x2126;" horiz-adv-x="711" 
d="M318 0h-272v99h171c-99 54 -165 152 -165 287c0 245 132 335 309 335c193 0 299 -93 299 -334c0 -139 -71 -237 -171 -288h177v-99h-272v104c80 21 123 108 123 280c0 209 -60 268 -157 268c-93 0 -165 -61 -165 -269c0 -177 48 -259 123 -280v-103z" />
    <glyph glyph-name="Oslash" unicode="&#xd8;" horiz-adv-x="709" 
d="M154 -71l-58 29l50 91c-67 58 -100 157 -100 303c0 264 130 369 316 369c54 0 101 -8 140 -24l48 86l58 -28l-50 -91c70 -56 105 -154 105 -300c0 -267 -112 -378 -312 -378c-59 0 -109 10 -150 28zM519 355c0 85 -7 149 -23 196l-250 -454c27 -31 63 -44 108 -44
c113 0 165 80 165 302zM190 354c0 -81 7 -142 20 -188l248 450c-25 24 -57 36 -99 36c-112 0 -169 -82 -169 -298z" />
    <glyph glyph-name="Oslashacute" unicode="&#x1fe;" horiz-adv-x="709" 
d="M154 -71l-58 29l50 91c-67 58 -100 157 -100 303c0 264 130 369 316 369c54 0 101 -8 140 -24l48 86l58 -28l-50 -91c70 -56 105 -154 105 -300c0 -267 -112 -378 -312 -378c-59 0 -109 10 -150 28zM519 355c0 85 -7 149 -23 196l-250 -454c27 -31 63 -44 108 -44
c113 0 165 80 165 302zM190 354c0 -81 7 -142 20 -188l248 450c-25 24 -57 36 -99 36c-112 0 -169 -82 -169 -298zM374 766h-98l135 138h154z" />
    <glyph glyph-name="Otilde" unicode="&#xd5;" horiz-adv-x="709" 
d="M663 364c0 -267 -112 -378 -312 -378c-203 0 -305 111 -305 366c0 264 130 369 316 369c203 0 301 -110 301 -357zM519 355c0 211 -43 297 -160 297c-112 0 -169 -82 -169 -298c0 -228 55 -301 164 -301c113 0 165 80 165 302zM228 767l-56 18c24 62 55 105 114 105
c16 0 41 -7 69 -19l21 -10c18 -9 37 -15 49 -15c25 0 41 13 57 47l55 -20c-29 -69 -58 -105 -110 -105c-22 0 -45 8 -70 20l-22 10c-25 12 -35 17 -49 17c-23 0 -40 -15 -58 -48z" />
    <glyph glyph-name="P" unicode="P" horiz-adv-x="631" 
d="M466 310c-44 -13 -100 -19 -159 -19h-92v-291h-139v706h235c64 0 119 -6 159 -20c82 -27 119 -89 119 -176c0 -92 -36 -175 -123 -200zM215 360h88c44 0 75 7 96 21c31 20 46 64 46 121c0 46 -14 94 -49 116c-24 14 -59 18 -96 18h-85v-276z" />
    <glyph glyph-name="Q" unicode="Q" horiz-adv-x="709" 
d="M663 364c0 -140 -31 -238 -89 -298l150 -101l-74 -79l-172 119c-37 -12 -80 -19 -127 -19c-203 0 -305 111 -305 366c0 264 130 369 316 369c203 0 301 -110 301 -357zM519 355c0 211 -43 297 -160 297c-112 0 -169 -82 -169 -298c0 -228 55 -301 164 -301
c113 0 165 80 165 302z" />
    <glyph glyph-name="R" unicode="R" horiz-adv-x="647" 
d="M615 0h-140l-39 180c-12 56 -34 99 -58 116c-22 17 -50 20 -86 20h-77v-316h-139v706h236c63 0 116 -5 155 -18c77 -25 115 -77 115 -164c0 -95 -48 -150 -136 -172c74 -19 101 -59 125 -161zM215 386h84c41 0 74 6 94 19c31 21 45 58 45 109c0 50 -10 89 -47 107
c-22 11 -53 14 -89 14h-87v-249z" />
    <glyph glyph-name="Racute" unicode="&#x154;" horiz-adv-x="647" 
d="M615 0h-140l-39 180c-12 56 -34 99 -58 116c-22 17 -50 20 -86 20h-77v-316h-139v706h236c63 0 116 -5 155 -18c77 -25 115 -77 115 -164c0 -95 -48 -150 -136 -172c74 -19 101 -59 125 -161zM215 386h84c41 0 74 6 94 19c31 21 45 58 45 109c0 50 -10 89 -47 107
c-22 11 -53 14 -89 14h-87v-249zM319 766h-98l135 138h154z" />
    <glyph glyph-name="Rcaron" unicode="&#x158;" horiz-adv-x="647" 
d="M615 0h-140l-39 180c-12 56 -34 99 -58 116c-22 17 -50 20 -86 20h-77v-316h-139v706h236c63 0 116 -5 155 -18c77 -25 115 -77 115 -164c0 -95 -48 -150 -136 -172c74 -19 101 -59 125 -161zM215 386h84c41 0 74 6 94 19c31 21 45 58 45 109c0 50 -10 89 -47 107
c-22 11 -53 14 -89 14h-87v-249zM118 904h100l91 -76l88 76h91l-136 -138h-99z" />
    <glyph glyph-name="Rcommaaccent" unicode="&#x156;" horiz-adv-x="647" 
d="M615 0h-140l-39 180c-12 56 -34 99 -58 116c-22 17 -50 20 -86 20h-77v-316h-139v706h236c63 0 116 -5 155 -18c77 -25 115 -77 115 -164c0 -95 -48 -150 -136 -172c74 -19 101 -59 125 -161zM215 386h84c41 0 74 6 94 19c31 21 45 58 45 109c0 50 -10 89 -47 107
c-22 11 -53 14 -89 14h-87v-249zM391 -63c-2 -82 -32 -140 -74 -184h-71c32 50 46 99 46 184h99z" />
    <glyph glyph-name="S" unicode="S" horiz-adv-x="530" 
d="M365 177c0 48 -33 80 -99 108l-63 27c-117 50 -159 110 -159 212c0 117 89 196 240 196c63 0 119 -10 169 -30v-88c-54 27 -106 44 -166 44c-76 0 -121 -32 -121 -102c0 -40 26 -71 94 -101l62 -28c116 -52 167 -106 167 -215c0 -124 -88 -214 -258 -214
c-66 0 -137 15 -194 37v90c61 -29 130 -51 196 -51c86 0 132 38 132 115z" />
    <glyph glyph-name="S_S" horiz-adv-x="1060" 
d="M365 177c0 48 -33 80 -99 108l-63 27c-117 50 -159 110 -159 212c0 117 89 196 240 196c63 0 119 -10 169 -30v-88c-54 27 -106 44 -166 44c-76 0 -121 -32 -121 -102c0 -40 26 -71 94 -101l62 -28c116 -52 167 -106 167 -215c0 -124 -88 -214 -258 -214
c-66 0 -137 15 -194 37v90c61 -29 130 -51 196 -51c86 0 132 38 132 115zM895 177c0 48 -33 80 -99 108l-63 27c-117 50 -159 110 -159 212c0 117 89 196 240 196c63 0 119 -10 169 -30v-88c-54 27 -106 44 -166 44c-76 0 -121 -32 -121 -102c0 -40 26 -71 94 -101l62 -28
c116 -52 167 -106 167 -215c0 -124 -88 -214 -258 -214c-66 0 -137 15 -194 37v90c61 -29 130 -51 196 -51c86 0 132 38 132 115z" />
    <glyph glyph-name="Sacute" unicode="&#x15a;" horiz-adv-x="530" 
d="M365 177c0 48 -33 80 -99 108l-63 27c-117 50 -159 110 -159 212c0 117 89 196 240 196c63 0 119 -10 169 -30v-88c-54 27 -106 44 -166 44c-76 0 -121 -32 -121 -102c0 -40 26 -71 94 -101l62 -28c116 -52 167 -106 167 -215c0 -124 -88 -214 -258 -214
c-66 0 -137 15 -194 37v90c61 -29 130 -51 196 -51c86 0 132 38 132 115zM291 766h-98l135 138h154z" />
    <glyph glyph-name="Scaron" unicode="&#x160;" horiz-adv-x="530" 
d="M365 177c0 48 -33 80 -99 108l-63 27c-117 50 -159 110 -159 212c0 117 89 196 240 196c63 0 119 -10 169 -30v-88c-54 27 -106 44 -166 44c-76 0 -121 -32 -121 -102c0 -40 26 -71 94 -101l62 -28c116 -52 167 -106 167 -215c0 -124 -88 -214 -258 -214
c-66 0 -137 15 -194 37v90c61 -29 130 -51 196 -51c86 0 132 38 132 115zM92 904h100l91 -76l88 76h91l-136 -138h-99z" />
    <glyph glyph-name="Scedilla" unicode="&#x15e;" horiz-adv-x="530" 
d="M165 -243v49c19 -4 34 -5 44 -5c38 0 51 18 51 47c0 30 -18 46 -49 46c-11 0 -21 0 -35 -2l35 94c-60 3 -123 17 -174 37v90c61 -29 130 -51 196 -51c86 0 132 38 132 115c0 48 -33 80 -99 108l-63 27c-117 50 -159 110 -159 212c0 117 89 196 240 196
c63 0 119 -10 169 -30v-88c-54 27 -106 44 -166 44c-76 0 -121 -32 -121 -102c0 -40 26 -71 94 -101l62 -28c116 -52 167 -106 167 -215c0 -117 -79 -203 -230 -213l-19 -51c67 0 105 -30 105 -85c0 -70 -48 -98 -126 -98c-17 0 -41 2 -54 4z" />
    <glyph glyph-name="Scircumflex" unicode="&#x15c;" horiz-adv-x="530" 
d="M365 177c0 48 -33 80 -99 108l-63 27c-117 50 -159 110 -159 212c0 117 89 196 240 196c63 0 119 -10 169 -30v-88c-54 27 -106 44 -166 44c-76 0 -121 -32 -121 -102c0 -40 26 -71 94 -101l62 -28c116 -52 167 -106 167 -215c0 -124 -88 -214 -258 -214
c-66 0 -137 15 -194 37v90c61 -29 130 -51 196 -51c86 0 132 38 132 115zM457 766h-101l-91 76l-88 -76h-90l135 138h100z" />
    <glyph glyph-name="T" unicode="T" horiz-adv-x="578" 
d="M561 706v-72h-204v-634h-139v634h-200v72h543z" />
    <glyph glyph-name="Tbar" unicode="&#x166;" horiz-adv-x="578" 
d="M512 367h-155v-367h-139v367h-152v68h152v199h-200v72h543v-72h-204v-199h155v-68z" />
    <glyph glyph-name="Tcaron" unicode="&#x164;" horiz-adv-x="578" 
d="M561 706v-72h-204v-634h-139v634h-200v72h543zM104 904h100l91 -76l88 76h91l-136 -138h-99z" />
    <glyph glyph-name="Thorn" unicode="&#xde;" horiz-adv-x="631" 
d="M465 178c-45 -15 -100 -22 -160 -22h-90v-156h-139v706h139v-134h95c62 0 117 -6 157 -20c83 -29 122 -93 122 -180c0 -92 -36 -165 -124 -194zM215 225h88c44 0 75 6 97 20c30 20 45 64 45 122c0 45 -14 93 -49 115c-23 15 -57 19 -94 19h-87v-276z" />
    <glyph glyph-name="U" unicode="U" horiz-adv-x="708" 
d="M635 706v-420c0 -102 -10 -151 -35 -195c-39 -68 -130 -106 -250 -106c-110 0 -203 30 -245 113c-24 47 -31 109 -31 184v424h139v-426c0 -69 3 -111 13 -144c16 -52 75 -80 146 -80c58 0 105 16 127 44c24 27 34 71 34 176v430h102z" />
    <glyph glyph-name="Uacute" unicode="&#xda;" horiz-adv-x="708" 
d="M635 706v-420c0 -102 -10 -151 -35 -195c-39 -68 -130 -106 -250 -106c-110 0 -203 30 -245 113c-24 47 -31 109 -31 184v424h139v-426c0 -69 3 -111 13 -144c16 -52 75 -80 146 -80c58 0 105 16 127 44c24 27 34 71 34 176v430h102zM361 766h-98l135 138h154z" />
    <glyph glyph-name="Ubreve" unicode="&#x16c;" horiz-adv-x="708" 
d="M635 706v-420c0 -102 -10 -151 -35 -195c-39 -68 -130 -106 -250 -106c-110 0 -203 30 -245 113c-24 47 -31 109 -31 184v424h139v-426c0 -69 3 -111 13 -144c16 -52 75 -80 146 -80c58 0 105 16 127 44c24 27 34 71 34 176v430h102zM204 900h74c4 -47 37 -68 80 -68
c48 0 82 18 86 68h74c-3 -80 -50 -140 -160 -140c-106 0 -152 60 -154 140z" />
    <glyph glyph-name="Ucircumflex" unicode="&#xdb;" horiz-adv-x="708" 
d="M635 706v-420c0 -102 -10 -151 -35 -195c-39 -68 -130 -106 -250 -106c-110 0 -203 30 -245 113c-24 47 -31 109 -31 184v424h139v-426c0 -69 3 -111 13 -144c16 -52 75 -80 146 -80c58 0 105 16 127 44c24 27 34 71 34 176v430h102zM542 766h-101l-91 76l-88 -76h-90
l135 138h100z" />
    <glyph glyph-name="Udieresis" unicode="&#xdc;" horiz-adv-x="708" 
d="M635 706v-420c0 -102 -10 -151 -35 -195c-39 -68 -130 -106 -250 -106c-110 0 -203 30 -245 113c-24 47 -31 109 -31 184v424h139v-426c0 -69 3 -111 13 -144c16 -52 75 -80 146 -80c58 0 105 16 127 44c24 27 34 71 34 176v430h102zM312 829c0 -44 -23 -60 -62 -60
c-36 0 -57 13 -57 60c0 48 22 64 61 64c36 0 58 -14 58 -64zM523 829c0 -44 -22 -60 -61 -60c-36 0 -58 13 -58 60c0 48 22 64 62 64c36 0 57 -14 57 -64z" />
    <glyph glyph-name="Ugrave" unicode="&#xd9;" horiz-adv-x="708" 
d="M635 706v-420c0 -102 -10 -151 -35 -195c-39 -68 -130 -106 -250 -106c-110 0 -203 30 -245 113c-24 47 -31 109 -31 184v424h139v-426c0 -69 3 -111 13 -144c16 -52 75 -80 146 -80c58 0 105 16 127 44c24 27 34 71 34 176v430h102zM458 766h-98l-186 138h151z" />
    <glyph glyph-name="Uhungarumlaut" unicode="&#x170;" horiz-adv-x="708" 
d="M635 706v-420c0 -102 -10 -151 -35 -195c-39 -68 -130 -106 -250 -106c-110 0 -203 30 -245 113c-24 47 -31 109 -31 184v424h139v-426c0 -69 3 -111 13 -144c16 -52 75 -80 146 -80c58 0 105 16 127 44c24 27 34 71 34 176v430h102zM270 766h-80l122 140h135zM460 766
h-79l122 140h135z" />
    <glyph glyph-name="Umacron" unicode="&#x16a;" horiz-adv-x="708" 
d="M635 706v-420c0 -102 -10 -151 -35 -195c-39 -68 -130 -106 -250 -106c-110 0 -203 30 -245 113c-24 47 -31 109 -31 184v424h139v-426c0 -69 3 -111 13 -144c16 -52 75 -80 146 -80c58 0 105 16 127 44c24 27 34 71 34 176v430h102zM515 789h-314v73h314v-73z" />
    <glyph glyph-name="Uogonek" unicode="&#x172;" horiz-adv-x="708" 
d="M635 706v-420c0 -102 -10 -151 -35 -195c-32 -56 -93 -91 -179 -102c-47 -39 -67 -72 -67 -121c0 -35 19 -59 47 -59c13 0 32 2 49 9l17 -43c-25 -14 -56 -22 -86 -22c-75 0 -111 43 -111 106c0 48 28 89 82 126c-108 1 -206 31 -247 113c-24 47 -31 109 -31 184v424h139
v-426c0 -69 3 -111 13 -144c16 -52 75 -80 146 -80c58 0 105 16 127 44c24 27 34 71 34 176v430h102z" />
    <glyph glyph-name="Uring" unicode="&#x16e;" horiz-adv-x="708" 
d="M635 706v-420c0 -102 -10 -151 -35 -195c-39 -68 -130 -106 -250 -106c-110 0 -203 30 -245 113c-24 47 -31 109 -31 184v424h139v-426c0 -69 3 -111 13 -144c16 -52 75 -80 146 -80c58 0 105 16 127 44c24 27 34 71 34 176v430h102zM370 953c58 0 101 -36 101 -100
c0 -62 -41 -102 -103 -102c-60 0 -104 35 -104 101c0 63 48 101 106 101zM368 911c-26 0 -46 -19 -46 -60c0 -43 20 -60 48 -60c25 0 44 18 44 61c0 42 -20 59 -46 59z" />
    <glyph glyph-name="Utilde" unicode="&#x168;" horiz-adv-x="708" 
d="M635 706v-420c0 -102 -10 -151 -35 -195c-39 -68 -130 -106 -250 -106c-110 0 -203 30 -245 113c-24 47 -31 109 -31 184v424h139v-426c0 -69 3 -111 13 -144c16 -52 75 -80 146 -80c58 0 105 16 127 44c24 27 34 71 34 176v430h102zM239 767l-56 18
c24 62 55 105 114 105c16 0 41 -7 69 -19l21 -10c18 -9 37 -15 49 -15c25 0 41 13 57 47l55 -20c-29 -69 -58 -105 -110 -105c-22 0 -45 8 -70 20l-22 10c-25 12 -35 17 -49 17c-23 0 -40 -15 -58 -48z" />
    <glyph glyph-name="V" unicode="V" horiz-adv-x="651" 
d="M391 0h-142l-233 706h155c127 -392 154 -489 180 -589c28 98 60 205 183 589h107z" />
    <glyph glyph-name="W" unicode="W" horiz-adv-x="951" 
d="M758 0h-143c-99 378 -116 441 -137 533c-22 -90 -39 -155 -141 -533h-142l-168 706h159c71 -338 94 -466 109 -567c25 107 54 222 143 567h130c94 -349 123 -473 143 -569c18 104 44 224 115 569h107z" />
    <glyph glyph-name="Wacute" unicode="&#x1e82;" horiz-adv-x="951" 
d="M758 0h-143c-99 378 -116 441 -137 533c-22 -90 -39 -155 -141 -533h-142l-168 706h159c71 -338 94 -466 109 -567c25 107 54 222 143 567h130c94 -349 123 -473 143 -569c18 104 44 224 115 569h107zM510 766h-98l135 138h154z" />
    <glyph glyph-name="Wcircumflex" unicode="&#x174;" horiz-adv-x="951" 
d="M758 0h-143c-99 378 -116 441 -137 533c-22 -90 -39 -155 -141 -533h-142l-168 706h159c71 -338 94 -466 109 -567c25 107 54 222 143 567h130c94 -349 123 -473 143 -569c18 104 44 224 115 569h107zM682 766h-101l-91 76l-88 -76h-90l135 138h100z" />
    <glyph glyph-name="Wdieresis" unicode="&#x1e84;" horiz-adv-x="951" 
d="M758 0h-143c-99 378 -116 441 -137 533c-22 -90 -39 -155 -141 -533h-142l-168 706h159c71 -338 94 -466 109 -567c25 107 54 222 143 567h130c94 -349 123 -473 143 -569c18 104 44 224 115 569h107zM449 829c0 -44 -23 -60 -62 -60c-36 0 -57 13 -57 60
c0 48 22 64 61 64c36 0 58 -14 58 -64zM660 829c0 -44 -22 -60 -61 -60c-36 0 -58 13 -58 60c0 48 22 64 62 64c36 0 57 -14 57 -64z" />
    <glyph glyph-name="Wgrave" unicode="&#x1e80;" horiz-adv-x="951" 
d="M758 0h-143c-99 378 -116 441 -137 533c-22 -90 -39 -155 -141 -533h-142l-168 706h159c71 -338 94 -466 109 -567c25 107 54 222 143 567h130c94 -349 123 -473 143 -569c18 104 44 224 115 569h107zM585 766h-98l-186 138h151z" />
    <glyph glyph-name="X" unicode="X" horiz-adv-x="675" 
d="M656 0h-173c-111 181 -141 229 -168 274c-29 -45 -67 -104 -175 -274h-122l244 348l-224 358h171c103 -166 127 -208 151 -247c25 38 55 87 157 247h120l-227 -321z" />
    <glyph glyph-name="Y" unicode="Y" horiz-adv-x="645" 
d="M392 0h-139v285l-241 421h166c118 -226 144 -279 172 -337c27 56 57 116 174 337h113l-245 -421v-285z" />
    <glyph glyph-name="Yacute" unicode="&#xdd;" horiz-adv-x="645" 
d="M392 0h-139v285l-241 421h166c118 -226 144 -279 172 -337c27 56 57 116 174 337h113l-245 -421v-285zM338 766h-98l135 138h154z" />
    <glyph glyph-name="Ycircumflex" unicode="&#x176;" horiz-adv-x="645" 
d="M392 0h-139v285l-241 421h166c118 -226 144 -279 172 -337c27 56 57 116 174 337h113l-245 -421v-285zM516 766h-101l-91 76l-88 -76h-90l135 138h100z" />
    <glyph glyph-name="Ydieresis" unicode="&#x178;" horiz-adv-x="645" 
d="M392 0h-139v285l-241 421h166c118 -226 144 -279 172 -337c27 56 57 116 174 337h113l-245 -421v-285zM292 829c0 -44 -23 -60 -62 -60c-36 0 -57 13 -57 60c0 48 22 64 61 64c36 0 58 -14 58 -64zM503 829c0 -44 -22 -60 -61 -60c-36 0 -58 13 -58 60c0 48 22 64 62 64
c36 0 57 -14 57 -64z" />
    <glyph glyph-name="Ygrave" unicode="&#x1ef2;" horiz-adv-x="645" 
d="M392 0h-139v285l-241 421h166c118 -226 144 -279 172 -337c27 56 57 116 174 337h113l-245 -421v-285zM442 766h-98l-186 138h151z" />
    <glyph glyph-name="Z" unicode="Z" horiz-adv-x="587" 
d="M558 0h-534v59c284 443 326 508 367 574h-342v73h503v-63c-279 -434 -321 -497 -370 -569h376v-74z" />
    <glyph glyph-name="Zacute" unicode="&#x179;" horiz-adv-x="587" 
d="M558 0h-534v59c284 443 326 508 367 574h-342v73h503v-63c-279 -434 -321 -497 -370 -569h376v-74zM324 766h-98l135 138h154z" />
    <glyph glyph-name="Zcaron" unicode="&#x17d;" horiz-adv-x="587" 
d="M558 0h-534v59c284 443 326 508 367 574h-342v73h503v-63c-279 -434 -321 -497 -370 -569h376v-74zM122 904h100l91 -76l88 76h91l-136 -138h-99z" />
    <glyph glyph-name="Zdotaccent" unicode="&#x17b;" horiz-adv-x="587" 
d="M558 0h-534v59c284 443 326 508 367 574h-342v73h503v-63c-279 -434 -321 -497 -370 -569h376v-74zM370 829c0 -44 -23 -60 -62 -60c-36 0 -57 13 -57 60c0 48 22 64 61 64c36 0 58 -14 58 -64z" />
    <glyph glyph-name="a" unicode="a" horiz-adv-x="533" 
d="M351 0c-6 17 -12 44 -13 63c-29 -44 -76 -75 -144 -75c-102 0 -160 65 -160 159c0 114 88 158 254 158c14 0 32 -1 45 -2v34c0 35 -5 66 -22 85c-17 20 -46 25 -77 25c-40 0 -90 -9 -150 -42v80c53 23 119 35 178 35c60 0 113 -8 148 -33c35 -26 52 -64 52 -146v-215
c0 -46 5 -93 16 -126h-127zM333 247c-13 1 -28 1 -41 1c-98 0 -130 -44 -130 -99c0 -54 29 -87 76 -87c34 0 62 15 80 42c13 19 15 44 15 72v71z" />
    <glyph glyph-name="a.sc" horiz-adv-x="538" 
d="M388 0l-52 155h-179l-55 -155h-93l205 528h128l186 -528h-140zM178 216h137c-46 141 -53 164 -66 209c-13 -42 -19 -62 -71 -209z" />
    <glyph glyph-name="aacute" unicode="&#xe1;" horiz-adv-x="533" 
d="M351 0c-6 17 -12 44 -13 63c-29 -44 -76 -75 -144 -75c-102 0 -160 65 -160 159c0 114 88 158 254 158c14 0 32 -1 45 -2v34c0 35 -5 66 -22 85c-17 20 -46 25 -77 25c-40 0 -90 -9 -150 -42v80c53 23 119 35 178 35c60 0 113 -8 148 -33c35 -26 52 -64 52 -146v-215
c0 -46 5 -93 16 -126h-127zM333 247c-13 1 -28 1 -41 1c-98 0 -130 -44 -130 -99c0 -54 29 -87 76 -87c34 0 62 15 80 42c13 19 15 44 15 72v71zM272 589h-87l113 147h144z" />
    <glyph glyph-name="aacute.sc" horiz-adv-x="538" 
d="M388 0l-52 155h-179l-55 -155h-93l205 528h128l186 -528h-140zM178 216h137c-46 141 -53 164 -66 209c-13 -42 -19 -62 -71 -209zM278 599h-88l114 147h144z" />
    <glyph glyph-name="abreve" unicode="&#x103;" horiz-adv-x="533" 
d="M351 0c-6 17 -12 44 -13 63c-29 -44 -76 -75 -144 -75c-102 0 -160 65 -160 159c0 114 88 158 254 158c14 0 32 -1 45 -2v34c0 35 -5 66 -22 85c-17 20 -46 25 -77 25c-40 0 -90 -9 -150 -42v80c53 23 119 35 178 35c60 0 113 -8 148 -33c35 -26 52 -64 52 -146v-215
c0 -46 5 -93 16 -126h-127zM333 247c-13 1 -28 1 -41 1c-98 0 -130 -44 -130 -99c0 -54 29 -87 76 -87c34 0 62 15 80 42c13 19 15 44 15 72v71zM128 735h70c1 -61 29 -78 71 -78s76 17 78 78h69c0 -89 -42 -154 -148 -154c-102 0 -140 62 -140 154z" />
    <glyph glyph-name="abreve.sc" horiz-adv-x="538" 
d="M388 0l-52 155h-179l-55 -155h-93l205 528h128l186 -528h-140zM178 216h137c-46 141 -53 164 -66 209c-13 -42 -19 -62 -71 -209zM123 735h70c3 -47 30 -68 73 -68c41 0 73 17 76 68h69c-1 -79 -41 -144 -147 -144c-101 0 -141 63 -141 144z" />
    <glyph glyph-name="acircumflex" unicode="&#xe2;" horiz-adv-x="533" 
d="M351 0c-6 17 -12 44 -13 63c-29 -44 -76 -75 -144 -75c-102 0 -160 65 -160 159c0 114 88 158 254 158c14 0 32 -1 45 -2v34c0 35 -5 66 -22 85c-17 20 -46 25 -77 25c-40 0 -90 -9 -150 -42v80c53 23 119 35 178 35c60 0 113 -8 148 -33c35 -26 52 -64 52 -146v-215
c0 -46 5 -93 16 -126h-127zM333 247c-13 1 -28 1 -41 1c-98 0 -130 -44 -130 -99c0 -54 29 -87 76 -87c34 0 62 15 80 42c13 19 15 44 15 72v71zM426 589h-88l-79 91l-75 -91h-83l111 152h102z" />
    <glyph glyph-name="acircumflex.sc" horiz-adv-x="538" 
d="M388 0l-52 155h-179l-55 -155h-93l205 528h128l186 -528h-140zM178 216h137c-46 141 -53 164 -66 209c-13 -42 -19 -62 -71 -209zM435 599h-88l-79 91l-75 -91h-83l111 152h102z" />
    <glyph glyph-name="acute" unicode="&#xb4;" horiz-adv-x="212" 
d="M65 589h-87l113 147h144z" />
    <glyph glyph-name="acute.cap" horiz-adv-x="212" 
d="M60 766h-98l135 138h154z" />
    <glyph glyph-name="acute.sc" horiz-adv-x="212" 
d="M65 599h-88l114 147h144z" />
    <glyph glyph-name="adieresis" unicode="&#xe4;" horiz-adv-x="533" 
d="M351 0c-6 17 -12 44 -13 63c-29 -44 -76 -75 -144 -75c-102 0 -160 65 -160 159c0 114 88 158 254 158c14 0 32 -1 45 -2v34c0 35 -5 66 -22 85c-17 20 -46 25 -77 25c-40 0 -90 -9 -150 -42v80c53 23 119 35 178 35c60 0 113 -8 148 -33c35 -26 52 -64 52 -146v-215
c0 -46 5 -93 16 -126h-127zM333 247c-13 1 -28 1 -41 1c-98 0 -130 -44 -130 -99c0 -54 29 -87 76 -87c34 0 62 15 80 42c13 19 15 44 15 72v71zM231 664c0 -44 -22 -61 -61 -61c-36 0 -58 14 -58 61s22 64 61 64c36 0 58 -15 58 -64zM428 664c0 -44 -22 -61 -62 -61
c-36 0 -57 14 -57 61s22 64 61 64c36 0 58 -15 58 -64z" />
    <glyph glyph-name="adieresis.sc" horiz-adv-x="538" 
d="M388 0l-52 155h-179l-55 -155h-93l205 528h128l186 -528h-140zM178 216h137c-46 141 -53 164 -66 209c-13 -42 -19 -62 -71 -209zM232 677c0 -45 -22 -61 -61 -61c-36 0 -58 13 -58 61c0 47 22 63 61 63c36 0 58 -14 58 -63zM429 677c0 -45 -22 -61 -62 -61
c-36 0 -57 13 -57 61c0 47 22 63 61 63c36 0 58 -14 58 -63z" />
    <glyph glyph-name="ae" unicode="&#xe6;" horiz-adv-x="807" 
d="M463 243c5 -138 60 -185 142 -185c62 0 115 18 155 38v-73c-34 -17 -96 -36 -181 -36c-101 0 -164 30 -202 89c-44 -57 -99 -88 -178 -88c-105 0 -167 60 -167 153c0 102 67 161 270 161h33v41c0 31 -6 57 -14 70c-16 30 -48 37 -77 37c-44 0 -100 -7 -162 -41v71
c49 28 117 40 175 40c69 0 128 -21 156 -80c29 47 91 80 155 80c96 0 149 -34 181 -96c21 -41 29 -101 29 -163v-18h-315zM333 244l-26 -1c-116 -2 -147 -40 -147 -102c0 -50 32 -79 77 -79c40 0 89 24 106 75c-5 32 -9 75 -10 107zM648 303c-1 112 -23 154 -88 154
c-47 0 -93 -33 -95 -154h183z" />
    <glyph glyph-name="ae.sc" horiz-adv-x="763" 
d="M724 464h-224v-157h211v-64h-211v-179h238v-64h-370v157h-169l-94 -157h-106l331 528h394v-64zM368 451c-24 -44 -38 -71 -133 -233h133v233z" />
    <glyph glyph-name="aeacute" unicode="&#x1fd;" horiz-adv-x="807" 
d="M463 243c5 -138 60 -185 142 -185c62 0 115 18 155 38v-73c-34 -17 -96 -36 -181 -36c-101 0 -164 30 -202 89c-44 -57 -99 -88 -178 -88c-105 0 -167 60 -167 153c0 102 67 161 270 161h33v41c0 31 -6 57 -14 70c-16 30 -48 37 -77 37c-44 0 -100 -7 -162 -41v71
c49 28 117 40 175 40c69 0 128 -21 156 -80c29 47 91 80 155 80c96 0 149 -34 181 -96c21 -41 29 -101 29 -163v-18h-315zM333 244l-26 -1c-116 -2 -147 -40 -147 -102c0 -50 32 -79 77 -79c40 0 89 24 106 75c-5 32 -9 75 -10 107zM648 303c-1 112 -23 154 -88 154
c-47 0 -93 -33 -95 -154h183zM439 589h-87l113 147h144z" />
    <glyph glyph-name="aeacute.sc" horiz-adv-x="763" 
d="M724 464h-224v-157h211v-64h-211v-179h238v-64h-370v157h-169l-94 -157h-106l331 528h394v-64zM368 451c-24 -44 -38 -71 -133 -233h133v233zM499 599h-88l114 147h144z" />
    <glyph glyph-name="afii61289" unicode="&#x2113;" horiz-adv-x="489" 
d="M458 95v-77c-38 -20 -87 -32 -138 -32c-116 0 -191 43 -211 167c-15 -11 -32 -22 -49 -32l-36 63c24 15 53 32 74 47c-5 45 -6 101 -6 127c0 83 7 147 27 200c29 79 91 133 178 133c103 0 155 -54 155 -144c0 -140 -112 -244 -221 -330c6 -103 42 -158 112 -158
c36 0 75 12 115 36zM220 307c82 83 128 164 128 246c0 53 -24 68 -50 68c-20 0 -46 -10 -60 -50c-15 -42 -20 -100 -20 -184c0 -18 0 -45 2 -80z" />
    <glyph glyph-name="agrave" unicode="&#xe0;" horiz-adv-x="533" 
d="M351 0c-6 17 -12 44 -13 63c-29 -44 -76 -75 -144 -75c-102 0 -160 65 -160 159c0 114 88 158 254 158c14 0 32 -1 45 -2v34c0 35 -5 66 -22 85c-17 20 -46 25 -77 25c-40 0 -90 -9 -150 -42v80c53 23 119 35 178 35c60 0 113 -8 148 -33c35 -26 52 -64 52 -146v-215
c0 -46 5 -93 16 -126h-127zM333 247c-13 1 -28 1 -41 1c-98 0 -130 -44 -130 -99c0 -54 29 -87 76 -87c34 0 62 15 80 42c13 19 15 44 15 72v71zM349 589h-89l-163 147h143z" />
    <glyph glyph-name="agrave.sc" horiz-adv-x="538" 
d="M388 0l-52 155h-179l-55 -155h-93l205 528h128l186 -528h-140zM178 216h137c-46 141 -53 164 -66 209c-13 -42 -19 -62 -71 -209zM353 599h-92l-163 147h143z" />
    <glyph glyph-name="amacron" unicode="&#x101;" horiz-adv-x="533" 
d="M351 0c-6 17 -12 44 -13 63c-29 -44 -76 -75 -144 -75c-102 0 -160 65 -160 159c0 114 88 158 254 158c14 0 32 -1 45 -2v34c0 35 -5 66 -22 85c-17 20 -46 25 -77 25c-40 0 -90 -9 -150 -42v80c53 23 119 35 178 35c60 0 113 -8 148 -33c35 -26 52 -64 52 -146v-215
c0 -46 5 -93 16 -126h-127zM333 247c-13 1 -28 1 -41 1c-98 0 -130 -44 -130 -99c0 -54 29 -87 76 -87c34 0 62 15 80 42c13 19 15 44 15 72v71zM422 605h-300v75h300v-75z" />
    <glyph glyph-name="amacron.sc" horiz-adv-x="538" 
d="M388 0l-52 155h-179l-55 -155h-93l205 528h128l186 -528h-140zM178 216h137c-46 141 -53 164 -66 209c-13 -42 -19 -62 -71 -209zM421 617h-300v74h300v-74z" />
    <glyph glyph-name="ampersand" unicode="&#x26;" horiz-adv-x="800" 
d="M729 526l79 -76c-28 -38 -88 -81 -190 -132c16 -21 29 -62 29 -88c0 -186 -161 -244 -313 -244c-162 0 -290 58 -290 207c0 118 73 165 159 185c-86 25 -119 80 -119 148c0 129 103 186 246 186c63 0 131 -12 164 -27v-82c-32 19 -89 37 -144 37
c-87 0 -130 -41 -130 -120c0 -78 44 -114 101 -114h19v-69h-24c-77 0 -129 -45 -129 -139c0 -104 87 -141 163 -141c102 0 191 33 191 174c0 15 -4 40 -10 57c-34 -13 -90 -30 -136 -39l-23 81c226 69 304 137 357 196z" />
    <glyph glyph-name="ampersand.alt" horiz-adv-x="722" 
d="M551 383h113c0 -134 -39 -206 -68 -247l128 -136h-176l-44 48c-55 -42 -121 -61 -197 -61c-175 0 -267 83 -267 201c0 92 43 155 153 206c-43 47 -71 97 -71 153c0 86 67 157 206 157c102 0 181 -46 181 -136c0 -87 -62 -127 -147 -175l164 -187c12 32 24 75 25 177z
M449 104l-200 224c-48 -33 -70 -72 -70 -132c0 -77 54 -134 144 -134c49 0 96 11 126 42zM410 568c0 46 -34 69 -80 69c-51 0 -79 -31 -79 -76c0 -37 26 -73 63 -114c66 41 96 68 96 121z" />
    <glyph glyph-name="ampersand.sc" horiz-adv-x="666" 
d="M585 426l85 -70c-22 -38 -66 -75 -158 -119c17 -18 28 -44 28 -68c0 -141 -133 -181 -261 -181s-237 43 -237 155c0 84 56 127 146 141c-87 12 -118 60 -118 113c0 99 86 143 208 143c50 0 90 -6 119 -17v-70c-25 14 -62 26 -104 26c-56 0 -95 -29 -95 -89
c0 -59 37 -80 71 -80h12v-65h-15c-53 0 -91 -33 -91 -97c0 -71 57 -100 119 -100c97 0 156 29 156 118c0 14 -5 31 -12 42c-28 -13 -66 -24 -107 -35l-23 92c185 49 245 117 277 161z" />
    <glyph glyph-name="ampersand.scalt" horiz-adv-x="635" 
d="M485 299h93c-2 -103 -30 -155 -54 -186l111 -113h-172l-30 30c-46 -28 -103 -43 -164 -43c-149 0 -225 64 -225 155c0 70 38 119 129 155c-36 36 -52 74 -52 114c0 64 44 129 176 129c96 0 155 -38 155 -107c0 -66 -42 -98 -116 -132l128 -134c12 23 19 55 21 132z
M385 76l-163 169c-37 -26 -45 -57 -45 -94c0 -58 40 -104 111 -104c41 0 69 8 97 29zM365 433c0 29 -21 51 -60 51s-59 -23 -59 -57c0 -27 16 -54 50 -85c57 31 69 56 69 91z" />
    <glyph glyph-name="aogonek" unicode="&#x105;" horiz-adv-x="533" 
d="M351 0c-6 17 -12 44 -13 63c-29 -44 -76 -75 -144 -75c-102 0 -160 65 -160 159c0 114 88 158 254 158c14 0 32 -1 45 -2v34c0 35 -5 66 -22 85c-17 20 -46 25 -77 25c-40 0 -90 -9 -150 -42v80c53 23 119 35 178 35c60 0 113 -8 148 -33c35 -26 52 -64 52 -146v-215
c0 -46 5 -93 16 -126h-58c-56 -42 -79 -76 -79 -126c0 -34 20 -57 47 -57c14 0 31 2 48 8l16 -41c-25 -13 -56 -21 -85 -21c-72 0 -107 42 -107 102c0 52 35 96 102 135h-11zM333 247c-13 1 -28 1 -41 1c-98 0 -130 -44 -130 -99c0 -54 29 -87 76 -87c34 0 62 15 80 42
c13 19 15 44 15 72v71z" />
    <glyph glyph-name="aogonek.sc" horiz-adv-x="538" 
d="M388 0l-52 155h-179l-55 -155h-93l205 528h128l186 -528h-72c-56 -43 -80 -78 -80 -130c0 -34 19 -58 47 -58c13 0 31 2 49 9l17 -43c-25 -13 -56 -22 -86 -22c-74 0 -109 43 -109 105c0 53 36 99 103 139h-9zM178 216h137c-46 141 -53 164 -66 209
c-13 -42 -19 -62 -71 -209z" />
    <glyph glyph-name="approxequal" unicode="&#x2248;" horiz-adv-x="735" 
d="M144 310l-63 52c58 81 116 114 177 114c31 0 59 -7 128 -44c41 -22 67 -30 90 -30c41 0 73 18 113 77l64 -53c-50 -73 -101 -118 -177 -118c-33 0 -67 8 -119 37c-57 32 -83 39 -102 39c-35 0 -70 -17 -111 -74zM144 108l-63 51c58 81 116 115 177 115
c31 0 59 -7 128 -44c41 -23 67 -31 90 -31c41 0 73 18 113 77l64 -53c-50 -72 -101 -117 -177 -117c-33 0 -67 8 -119 37c-57 31 -83 39 -102 39c-35 0 -70 -17 -111 -74z" />
    <glyph glyph-name="aring" unicode="&#xe5;" horiz-adv-x="533" 
d="M351 0c-6 17 -12 44 -13 63c-29 -44 -76 -75 -144 -75c-102 0 -160 65 -160 159c0 114 88 158 254 158c14 0 32 -1 45 -2v34c0 35 -5 66 -22 85c-17 20 -46 25 -77 25c-40 0 -90 -9 -150 -42v80c53 23 119 35 178 35c60 0 113 -8 148 -33c35 -26 52 -64 52 -146v-215
c0 -46 5 -93 16 -126h-127zM333 247c-13 1 -28 1 -41 1c-98 0 -130 -44 -130 -99c0 -54 29 -87 76 -87c34 0 62 15 80 42c13 19 15 44 15 72v71zM267 779c60 0 104 -35 104 -103c0 -66 -43 -106 -106 -106c-62 0 -107 36 -107 105c0 67 49 104 109 104zM265 741
c-30 0 -51 -21 -51 -66c0 -46 20 -66 53 -66c29 0 49 20 49 68c0 45 -21 64 -51 64z" />
    <glyph glyph-name="aring.sc" horiz-adv-x="538" 
d="M388 0l-52 155h-179l-55 -155h-93l205 528h128l186 -528h-140zM178 216h137c-46 141 -53 164 -66 209c-13 -42 -19 -62 -71 -209zM279 789c60 0 104 -35 104 -103c0 -66 -43 -106 -106 -106c-62 0 -107 36 -107 105c0 67 49 104 109 104zM277 751c-30 0 -51 -21 -51 -66
c0 -46 20 -66 53 -66c29 0 49 20 49 68c0 45 -21 64 -51 64z" />
    <glyph glyph-name="aringacute" unicode="&#x1fb;" horiz-adv-x="533" 
d="M351 0c-6 17 -12 44 -13 63c-29 -44 -76 -75 -144 -75c-102 0 -160 65 -160 159c0 114 88 158 254 158c14 0 32 -1 45 -2v34c0 35 -5 66 -22 85c-17 20 -46 25 -77 25c-40 0 -90 -9 -150 -42v80c53 23 119 35 178 35c60 0 113 -8 148 -33c35 -26 52 -64 52 -146v-215
c0 -46 5 -93 16 -126h-127zM333 247c-13 1 -28 1 -41 1c-98 0 -130 -44 -130 -99c0 -54 29 -87 76 -87c34 0 62 15 80 42c13 19 15 44 15 72v71zM267 779c60 0 104 -35 104 -103c0 -66 -43 -106 -106 -106c-62 0 -107 36 -107 105c0 67 49 104 109 104zM265 741
c-30 0 -51 -21 -51 -66c0 -46 20 -66 53 -66c29 0 49 20 49 68c0 45 -21 64 -51 64zM282 810h-87l113 147h144z" />
    <glyph glyph-name="aringacute.sc" horiz-adv-x="538" 
d="M388 0l-52 155h-179l-55 -155h-93l205 528h128l186 -528h-140zM178 216h137c-46 141 -53 164 -66 209c-13 -42 -19 -62 -71 -209zM276 781c60 0 104 -35 104 -103c0 -66 -43 -106 -106 -106c-62 0 -107 36 -107 105c0 67 49 104 109 104zM274 743c-30 0 -51 -21 -51 -66
c0 -46 20 -66 53 -66c29 0 49 20 49 68c0 45 -21 64 -51 64zM283 809h-87l113 147h144z" />
    <glyph glyph-name="asciicircum" unicode="^" horiz-adv-x="735" 
d="M621 295h-101l-153 314l-153 -314h-99l204 411h99z" />
    <glyph glyph-name="asciitilde" unicode="~" horiz-adv-x="735" 
d="M144 225l-63 51c58 81 116 115 177 115c31 0 59 -7 128 -44c41 -23 67 -31 90 -31c41 0 73 18 113 77l64 -52c-50 -73 -101 -118 -177 -118c-33 0 -67 8 -119 37c-57 31 -83 39 -102 39c-35 0 -70 -17 -111 -74z" />
    <glyph glyph-name="asterisk" unicode="*" horiz-adv-x="442" 
d="M396 620l25 -83c-49 -14 -108 -26 -154 -34c28 -29 71 -72 106 -119l-71 -50c-34 49 -64 108 -81 138c-28 -47 -52 -92 -82 -137l-73 50c29 42 80 88 112 120c-46 8 -119 22 -157 35l28 83c46 -15 102 -44 145 -65c-7 46 -15 104 -17 159h91c-2 -52 -12 -112 -20 -160
c41 19 99 46 148 63z" />
    <glyph glyph-name="at" unicode="@" horiz-adv-x="856" 
d="M507 127c-44 -56 -87 -81 -149 -81c-73 0 -125 51 -125 139c0 61 14 124 47 183c50 89 122 113 173 113c45 0 81 -15 102 -38c0 2 7 22 9 26h86c-10 -38 -19 -74 -28 -117l-28 -143c-4 -20 -7 -46 -7 -57c0 -37 15 -51 37 -51c59 0 116 106 116 240
c0 164 -91 270 -264 270c-187 0 -342 -159 -342 -389c0 -190 124 -317 308 -317c115 0 208 31 289 90v-69c-78 -50 -178 -80 -292 -80c-231 0 -394 154 -394 375c0 255 174 440 432 440c208 0 341 -123 341 -317c0 -157 -94 -298 -217 -298c-53 0 -83 27 -94 81zM516 273
c10 49 12 82 12 99c0 38 -21 56 -63 56c-36 0 -71 -26 -99 -80c-21 -42 -38 -103 -38 -155c0 -60 23 -88 63 -88c22 0 46 11 66 31c23 25 42 59 59 137z" />
    <glyph glyph-name="atilde" unicode="&#xe3;" horiz-adv-x="533" 
d="M351 0c-6 17 -12 44 -13 63c-29 -44 -76 -75 -144 -75c-102 0 -160 65 -160 159c0 114 88 158 254 158c14 0 32 -1 45 -2v34c0 35 -5 66 -22 85c-17 20 -46 25 -77 25c-40 0 -90 -9 -150 -42v80c53 23 119 35 178 35c60 0 113 -8 148 -33c35 -26 52 -64 52 -146v-215
c0 -46 5 -93 16 -126h-127zM333 247c-13 1 -28 1 -41 1c-98 0 -130 -44 -130 -99c0 -54 29 -87 76 -87c34 0 62 15 80 42c13 19 15 44 15 72v71zM148 592l-56 20c24 63 58 107 110 107c18 0 40 -9 71 -25l16 -8c16 -8 32 -13 43 -13c20 0 37 15 51 49l56 -22
c-29 -72 -58 -106 -108 -106c-21 0 -40 6 -62 18l-21 10c-25 13 -39 19 -50 19c-22 0 -35 -14 -50 -49z" />
    <glyph glyph-name="atilde.sc" horiz-adv-x="538" 
d="M388 0l-52 155h-179l-55 -155h-93l205 528h128l186 -528h-140zM178 216h137c-46 141 -53 164 -66 209c-13 -42 -19 -62 -71 -209zM154 599l-50 17c24 64 55 104 106 104c18 0 39 -9 70 -25l17 -8c15 -8 30 -14 41 -14c20 0 38 14 52 45l49 -21
c-29 -71 -54 -102 -102 -102c-21 0 -38 6 -61 18l-20 10c-26 13 -41 20 -52 20c-19 0 -35 -11 -50 -44z" />
    <glyph glyph-name="b" unicode="b" horiz-adv-x="584" 
d="M186 0h-119c4 44 5 103 5 151v595h130v-300c40 51 100 72 155 72c122 0 187 -80 187 -253c0 -196 -77 -275 -207 -275c-52 0 -109 16 -146 61c0 -5 -2 -31 -5 -51zM201 251c0 -71 4 -123 18 -149c18 -32 50 -46 85 -46c61 0 107 45 107 206c0 141 -42 186 -103 186
c-30 0 -69 -14 -88 -52c-14 -28 -19 -76 -19 -145z" />
    <glyph glyph-name="b.sc" horiz-adv-x="554" 
d="M73 528h189c35 0 83 -2 113 -7c73 -11 116 -46 116 -124c0 -59 -38 -101 -107 -118c81 -12 124 -56 124 -129c0 -61 -30 -113 -96 -135c-30 -10 -87 -15 -146 -15h-193v528zM204 63h49c34 0 60 2 77 10c27 13 42 38 42 81c0 36 -14 66 -42 80c-17 8 -39 10 -73 10h-53
v-181zM204 305h50c32 0 52 3 66 10c22 13 35 38 35 72c0 37 -13 60 -39 70c-14 6 -38 9 -67 9h-45v-161z" />
    <glyph glyph-name="backslash" unicode="\" horiz-adv-x="417" 
d="M433 -51h-111l-331 776h111z" />
    <glyph glyph-name="bar" unicode="|" horiz-adv-x="267" 
d="M185 -194h-104v949h104v-949z" />
    <glyph glyph-name="braceleft" unicode="{" horiz-adv-x="352" 
d="M122 -21v122c0 121 -25 145 -94 153v53c76 14 94 42 94 153v123c0 137 96 170 200 170h16v-56h-12c-49 0 -90 -14 -90 -110v-124c0 -142 -50 -159 -114 -181c63 -15 114 -53 114 -185v-122c0 -94 41 -109 90 -109h12v-56h-16c-107 0 -200 29 -200 169z" />
    <glyph glyph-name="braceleft.cap" horiz-adv-x="352" 
d="M122 59v92c0 121 -25 145 -94 153v53c76 14 94 42 94 153v93c0 137 96 170 200 170h16v-56h-12c-49 0 -90 -14 -90 -110v-94c0 -142 -50 -159 -114 -181c63 -15 114 -53 114 -185v-92c0 -94 41 -109 90 -109h12v-56h-16c-107 0 -200 29 -200 169z" />
    <glyph glyph-name="braceright" unicode="}" horiz-adv-x="352" 
d="M230 583v-122c0 -121 25 -145 94 -153v-52c-75 -14 -94 -42 -94 -154v-122c0 -138 -95 -170 -200 -170h-16v56h12c50 0 91 14 91 109v124c0 142 50 160 113 181c-63 15 -113 53 -113 185v122c0 95 -41 110 -91 110h-12v56h16c107 0 200 -30 200 -170z" />
    <glyph glyph-name="braceright.cap" horiz-adv-x="352" 
d="M230 603v-92c0 -121 25 -145 94 -153v-52c-75 -14 -94 -42 -94 -154v-92c0 -138 -95 -170 -200 -170h-16v56h12c50 0 91 14 91 109v94c0 142 50 160 113 181c-63 15 -113 53 -113 185v92c0 95 -41 110 -91 110h-12v56h16c107 0 200 -30 200 -170z" />
    <glyph glyph-name="bracketleft" unicode="[" horiz-adv-x="321" 
d="M306 -181h-225v923h225v-57h-113v-809h113v-57z" />
    <glyph glyph-name="bracketleft.cap" horiz-adv-x="321" 
d="M306 -101h-225v863h225v-57h-113v-749h113v-57z" />
    <glyph glyph-name="bracketright" unicode="]" horiz-adv-x="321" 
d="M15 742h225v-923h-225v57h113v809h-113v57z" />
    <glyph glyph-name="bracketright.cap" horiz-adv-x="321" 
d="M15 762h225v-863h-225v57h113v749h-113v57z" />
    <glyph glyph-name="breve" unicode="&#x2d8;" horiz-adv-x="212" 
d="M-38 735h70c1 -61 29 -78 71 -78s76 17 78 78h69c0 -89 -42 -154 -148 -154c-102 0 -140 62 -140 154z" />
    <glyph glyph-name="breve.cap" horiz-adv-x="212" 
d="M-51 900h74c4 -47 37 -68 80 -68c48 0 82 18 86 68h74c-3 -80 -50 -140 -160 -140c-106 0 -152 60 -154 140z" />
    <glyph glyph-name="breve.sc" horiz-adv-x="212" 
d="M-38 735h70c3 -47 30 -68 73 -68c41 0 73 17 76 68h69c-1 -79 -41 -144 -147 -144c-101 0 -141 63 -141 144z" />
    <glyph glyph-name="brokenbar" unicode="&#xa6;" horiz-adv-x="262" 
d="M188 355h-114v351h114v-351zM188 -135h-114v351h114v-351z" />
    <glyph glyph-name="bullet" unicode="&#x2022;" horiz-adv-x="359" 
d="M322 282c0 -107 -49 -142 -144 -142c-91 0 -141 29 -141 142c0 115 51 149 147 149c91 0 138 -33 138 -149z" />
    <glyph glyph-name="bullet.cap" horiz-adv-x="359" 
d="M322 342c0 -107 -49 -142 -144 -142c-91 0 -141 29 -141 142c0 115 51 149 147 149c91 0 138 -33 138 -149z" />
    <glyph glyph-name="c" unicode="c" horiz-adv-x="447" 
d="M420 17c-31 -15 -79 -30 -139 -30c-159 0 -241 80 -241 259c0 184 91 274 244 274c49 0 94 -5 132 -17v-78c-31 18 -67 27 -111 27c-82 0 -131 -59 -131 -200c0 -140 56 -193 134 -193c40 0 78 11 112 28v-70z" />
    <glyph glyph-name="c.sc" horiz-adv-x="480" 
d="M454 449c-38 18 -79 29 -123 29c-98 0 -152 -58 -152 -216s59 -210 150 -210c45 0 89 12 128 32v-69c-38 -14 -102 -27 -160 -27c-156 0 -255 75 -255 269s101 283 260 283c59 0 113 -8 152 -21v-70z" />
    <glyph glyph-name="cacute" unicode="&#x107;" horiz-adv-x="447" 
d="M420 17c-31 -15 -79 -30 -139 -30c-159 0 -241 80 -241 259c0 184 91 274 244 274c49 0 94 -5 132 -17v-78c-31 18 -67 27 -111 27c-82 0 -131 -59 -131 -200c0 -140 56 -193 134 -193c40 0 78 11 112 28v-70zM281 589h-87l113 147h144z" />
    <glyph glyph-name="cacute.sc" horiz-adv-x="480" 
d="M454 449c-38 18 -79 29 -123 29c-98 0 -152 -58 -152 -216s59 -210 150 -210c45 0 89 12 128 32v-69c-38 -14 -102 -27 -160 -27c-156 0 -255 75 -255 269s101 283 260 283c59 0 113 -8 152 -21v-70zM293 599h-88l114 147h144z" />
    <glyph glyph-name="caron" unicode="&#x2c7;" horiz-adv-x="212" 
d="M-56 737h88l79 -90l74 90h84l-112 -152h-102z" />
    <glyph glyph-name="caron.alt" horiz-adv-x="202" 
d="M173 706c-2 -76 -32 -141 -74 -184h-70c32 49 43 106 44 184h100z" />
    <glyph glyph-name="caron.cap" horiz-adv-x="212" 
d="M-79 904h100l91 -76l88 76h91l-136 -138h-99z" />
    <glyph glyph-name="caron.sc" horiz-adv-x="212" 
d="M-56 747h88l79 -90l74 90h84l-112 -152h-102z" />
    <glyph glyph-name="ccaron" unicode="&#x10d;" horiz-adv-x="447" 
d="M420 17c-31 -15 -79 -30 -139 -30c-159 0 -241 80 -241 259c0 184 91 274 244 274c49 0 94 -5 132 -17v-78c-31 18 -67 27 -111 27c-82 0 -131 -59 -131 -200c0 -140 56 -193 134 -193c40 0 78 11 112 28v-70zM103 737h88l79 -90l74 90h84l-112 -152h-102z" />
    <glyph glyph-name="ccaron.sc" horiz-adv-x="480" 
d="M454 449c-38 18 -79 29 -123 29c-98 0 -152 -58 -152 -216s59 -210 150 -210c45 0 89 12 128 32v-69c-38 -14 -102 -27 -160 -27c-156 0 -255 75 -255 269s101 283 260 283c59 0 113 -8 152 -21v-70zM129 747h88l79 -90l74 90h84l-112 -152h-102z" />
    <glyph glyph-name="ccedilla" unicode="&#xe7;" horiz-adv-x="447" 
d="M183 -233v46c18 -4 33 -5 42 -5c37 0 50 18 50 46s-17 45 -48 45c-10 0 -20 -1 -33 -3l35 95c-125 16 -189 96 -189 255c0 184 91 274 244 274c49 0 94 -5 132 -17v-78c-31 18 -67 27 -111 27c-82 0 -131 -59 -131 -200c0 -140 56 -193 134 -193c40 0 78 11 112 28v-70
c-31 -15 -79 -30 -139 -30h-7l-18 -48c66 0 101 -29 101 -82c0 -68 -47 -95 -122 -95c-17 0 -39 3 -52 5z" />
    <glyph glyph-name="ccedilla.sc" horiz-adv-x="480" 
d="M199 -238v48c18 -4 33 -5 43 -5c37 0 50 18 50 46c0 29 -17 45 -48 45c-11 0 -22 0 -34 -2l36 97c-129 13 -204 91 -204 266c0 194 101 283 260 283c59 0 113 -8 152 -21v-70c-38 18 -79 29 -123 29c-98 0 -152 -58 -152 -216s59 -210 150 -210c45 0 89 12 128 32v-69
c-38 -14 -107 -27 -165 -27l-19 -50c67 -1 103 -30 103 -84c0 -69 -47 -97 -124 -97c-17 0 -41 3 -53 5z" />
    <glyph glyph-name="ccircumflex" unicode="&#x109;" horiz-adv-x="447" 
d="M420 17c-31 -15 -79 -30 -139 -30c-159 0 -241 80 -241 259c0 184 91 274 244 274c49 0 94 -5 132 -17v-78c-31 18 -67 27 -111 27c-82 0 -131 -59 -131 -200c0 -140 56 -193 134 -193c40 0 78 11 112 28v-70zM434 589h-88l-79 91l-75 -91h-83l111 152h102z" />
    <glyph glyph-name="ccircumflex.sc" horiz-adv-x="480" 
d="M454 449c-38 18 -79 29 -123 29c-98 0 -152 -58 -152 -216s59 -210 150 -210c45 0 89 12 128 32v-69c-38 -14 -102 -27 -160 -27c-156 0 -255 75 -255 269s101 283 260 283c59 0 113 -8 152 -21v-70zM453 599h-88l-79 91l-75 -91h-83l111 152h102z" />
    <glyph glyph-name="cdotaccent" unicode="&#x10b;" horiz-adv-x="447" 
d="M420 17c-31 -15 -79 -30 -139 -30c-159 0 -241 80 -241 259c0 184 91 274 244 274c49 0 94 -5 132 -17v-78c-31 18 -67 27 -111 27c-82 0 -131 -59 -131 -200c0 -140 56 -193 134 -193c40 0 78 11 112 28v-70zM326 664c0 -44 -23 -61 -62 -61c-36 0 -57 14 -57 61
s22 64 61 64c36 0 58 -15 58 -64z" />
    <glyph glyph-name="cdotaccent.sc" horiz-adv-x="480" 
d="M454 449c-38 18 -79 29 -123 29c-98 0 -152 -58 -152 -216s59 -210 150 -210c45 0 89 12 128 32v-69c-38 -14 -102 -27 -160 -27c-156 0 -255 75 -255 269s101 283 260 283c59 0 113 -8 152 -21v-70zM351 677c0 -45 -23 -61 -62 -61c-36 0 -57 13 -57 61
c0 47 22 63 61 63c36 0 58 -14 58 -63z" />
    <glyph glyph-name="cedilla" unicode="&#xb8;" horiz-adv-x="212" 
d="M19 -233v46c18 -4 33 -5 42 -5c37 0 50 18 50 46s-17 45 -48 45c-10 0 -20 -1 -33 -3l43 114h46l-27 -71c66 0 101 -29 101 -82c0 -68 -47 -95 -122 -95c-17 0 -39 3 -52 5z" />
    <glyph glyph-name="cedilla.cap" horiz-adv-x="212" 
d="M16 -243v49c19 -4 34 -5 44 -5c38 0 51 18 51 47c0 30 -18 46 -49 46c-11 0 -21 0 -35 -2l44 118h48l-28 -74c67 0 105 -30 105 -85c0 -70 -48 -98 -126 -98c-17 0 -41 2 -54 4z" />
    <glyph glyph-name="cedilla.sc" horiz-adv-x="212" 
d="M18 -238v48c18 -4 33 -5 43 -5c37 0 50 18 50 46c0 29 -17 45 -48 45c-11 0 -22 0 -34 -2l43 115h47l-27 -71c67 -1 103 -30 103 -84c0 -69 -47 -97 -124 -97c-17 0 -41 3 -53 5z" />
    <glyph glyph-name="cent" unicode="&#xa2;" horiz-adv-x="475" 
d="M334 604v-96c36 -3 68 -8 97 -18v-70c-26 14 -58 25 -97 27v-389c36 2 71 12 101 28v-65c-24 -10 -59 -22 -101 -27v-94h-64v93c-145 7 -217 81 -217 251c0 167 79 254 217 264v96h64zM186 249c0 -108 30 -164 84 -183v372c-54 -20 -84 -79 -84 -189z" />
    <glyph glyph-name="cent.denominator" horiz-adv-x="328" 
d="M225 -4v-55h-42v55c-96 9 -145 59 -145 163c0 102 54 158 145 168v56h42v-54c25 -1 50 -5 72 -14v-55c-23 13 -45 20 -72 21v-236c29 2 53 11 74 23v-52c-17 -9 -41 -17 -74 -20zM132 162c0 -79 17 -107 51 -116v234c-32 -9 -51 -45 -51 -118z" />
    <glyph glyph-name="cent.inferior" horiz-adv-x="328" 
d="M225 -163v-55h-42v55c-96 9 -145 59 -145 163c0 102 54 158 145 168v56h42v-54c25 -1 50 -5 72 -14v-55c-23 13 -45 20 -72 21v-236c29 2 53 11 74 23v-52c-17 -9 -41 -17 -74 -20zM132 3c0 -79 17 -107 51 -116v234c-32 -9 -51 -45 -51 -118z" />
    <glyph glyph-name="cent.numerator" horiz-adv-x="328" 
d="M225 202h-42v55c-96 9 -145 59 -145 163c0 102 54 158 145 168v56h42v-54c25 -1 50 -5 72 -14v-55c-23 13 -45 20 -72 21v-236c29 2 53 11 74 23v-52c-17 -9 -41 -17 -74 -20v-55zM132 423c0 -79 17 -107 51 -116v234c-32 -9 -51 -45 -51 -118z" />
    <glyph glyph-name="cent.oldstyle" horiz-adv-x="466" 
d="M333 519v-88c31 -2 59 -7 85 -15v-72c-24 13 -51 20 -85 22v-299c31 2 62 11 88 23v-68c-21 -8 -52 -17 -88 -21v-92h-60v91c-129 5 -200 72 -200 210c0 139 76 213 200 221v88h60zM192 215c0 -88 31 -129 81 -143v288c-50 -14 -81 -55 -81 -145z" />
    <glyph glyph-name="cent.superior" horiz-adv-x="328" 
d="M225 446v-55h-42v55c-96 9 -145 59 -145 163c0 102 54 158 145 168v56h42v-54c25 -1 50 -5 72 -14v-55c-23 13 -45 20 -72 21v-236c29 2 53 11 74 23v-52c-17 -9 -41 -17 -74 -20zM132 612c0 -79 17 -107 51 -116v234c-32 -9 -51 -45 -51 -118z" />
    <glyph glyph-name="circumflex" unicode="&#x2c6;" horiz-adv-x="212" 
d="M269 589h-88l-79 91l-75 -91h-83l111 152h102z" />
    <glyph glyph-name="circumflex.cap" horiz-adv-x="212" 
d="M291 766h-101l-91 76l-88 -76h-90l135 138h100z" />
    <glyph glyph-name="circumflex.sc" horiz-adv-x="212" 
d="M269 599h-88l-79 91l-75 -91h-83l111 152h102z" />
    <glyph glyph-name="colon" unicode=":" horiz-adv-x="291" 
d="M235 69c0 -58 -27 -79 -78 -79c-48 0 -77 18 -77 79c0 60 30 81 80 81c49 0 75 -20 75 -81zM235 427c0 -57 -27 -79 -78 -79c-48 0 -77 19 -77 79c0 61 30 82 80 82c49 0 75 -20 75 -82z" />
    <glyph glyph-name="comma" unicode="," horiz-adv-x="265" 
d="M204 135c0 -111 -41 -232 -86 -296h-97c39 77 53 185 53 296h130z" />
    <glyph glyph-name="comma.denominator" horiz-adv-x="164" 
d="M131 107c0 -81 -27 -155 -61 -199h-70c29 56 39 122 39 199h92z" />
    <glyph glyph-name="comma.inferior" horiz-adv-x="164" 
d="M131 -52c0 -81 -27 -155 -61 -199h-70c29 56 39 122 39 199h92z" />
    <glyph glyph-name="comma.numerator" horiz-adv-x="164" 
d="M131 368c0 -81 -27 -155 -61 -199h-70c29 56 39 122 39 199h92z" />
    <glyph glyph-name="comma.superior" horiz-adv-x="164" 
d="M131 557c0 -81 -27 -155 -61 -199h-70c29 56 39 122 39 199h92z" />
    <glyph glyph-name="commaaccent" horiz-adv-x="202" 
d="M174 -63c-2 -82 -32 -140 -74 -184h-71c32 50 46 99 46 184h99z" />
    <glyph glyph-name="commaaccent.sc" horiz-adv-x="202" 
d="M174 -63c-2 -82 -32 -140 -74 -184h-71c32 50 46 99 46 184h99z" />
    <glyph glyph-name="copyright" unicode="&#xa9;" horiz-adv-x="834" 
d="M563 502c-29 16 -63 25 -106 25c-76 0 -132 -50 -132 -175c0 -123 53 -173 131 -173c38 0 77 13 109 30v-66c-28 -13 -76 -28 -136 -28c-136 0 -213 75 -213 231c0 165 87 245 217 245c56 0 95 -8 130 -21v-68zM787 359c0 -211 -161 -374 -366 -374
c-215 0 -375 161 -375 370c0 205 164 366 373 366c204 0 368 -160 368 -362zM736 351c0 186 -133 329 -316 329c-185 0 -322 -144 -322 -326c0 -180 141 -326 324 -326c177 0 314 143 314 323z" />
    <glyph glyph-name="currency" unicode="&#xa4;" horiz-adv-x="557" 
d="M102 593l53 -73c35 26 82 38 127 38c48 0 93 -14 119 -35l51 69l69 -59l-71 -59c25 -38 34 -75 34 -128c0 -44 -10 -91 -35 -127l73 -61l-67 -60l-55 73c-30 -23 -79 -35 -121 -35c-49 0 -95 10 -125 33l-54 -70l-63 61l71 56c-26 36 -37 78 -37 130c0 51 10 90 36 127
l-72 60zM163 348c0 -100 46 -145 117 -145c65 0 112 50 112 143c0 100 -46 145 -112 145c-70 0 -117 -45 -117 -143z" />
    <glyph glyph-name="d" unicode="d" horiz-adv-x="582" 
d="M388 64c-33 -44 -76 -75 -146 -75c-113 0 -202 70 -202 258c0 220 124 271 217 271c52 0 96 -11 126 -41v269h130v-603c0 -46 4 -109 9 -143h-125c-4 15 -8 51 -9 64zM384 256c0 114 -6 152 -23 172c-18 20 -46 29 -77 29c-62 0 -110 -42 -110 -209
c0 -146 45 -189 104 -189c34 0 62 14 77 32c22 27 29 53 29 165z" />
    <glyph glyph-name="d.sc" horiz-adv-x="586" 
d="M73 0v528h181c55 0 105 -4 144 -14c106 -27 146 -113 146 -243c0 -104 -29 -214 -137 -251c-43 -14 -81 -20 -167 -20h-167zM204 465v-402h45c53 0 81 8 105 26c37 29 53 88 53 183c0 81 -10 148 -60 176c-23 14 -55 17 -93 17h-50z" />
    <glyph glyph-name="dagger" unicode="&#x2020;" horiz-adv-x="496" 
d="M304 718v-210h165v-90h-165v-507h-112v507h-165v91h165v209h112z" />
    <glyph glyph-name="daggerdbl" unicode="&#x2021;" horiz-adv-x="496" 
d="M469 137h-165v-226h-112v226h-165v90h165v198h-165v92h165v201h112v-201h165v-92h-165v-198h165v-90z" />
    <glyph glyph-name="dcaron" unicode="&#x10f;" horiz-adv-x="582" 
d="M388 64c-33 -44 -76 -75 -146 -75c-113 0 -202 70 -202 258c0 220 124 271 217 271c52 0 96 -11 126 -41v269h130v-603c0 -46 4 -109 9 -143h-125c-4 15 -8 51 -9 64zM384 256c0 114 -6 152 -23 172c-18 20 -46 29 -77 29c-62 0 -110 -42 -110 -209
c0 -146 45 -189 104 -189c34 0 62 14 77 32c22 27 29 53 29 165zM693 746c-2 -76 -32 -141 -74 -184h-70c32 49 43 106 44 184h100z" />
    <glyph glyph-name="dcaron.sc" horiz-adv-x="586" 
d="M73 0v528h181c55 0 105 -4 144 -14c106 -27 146 -113 146 -243c0 -104 -29 -214 -137 -251c-43 -14 -81 -20 -167 -20h-167zM204 465v-402h45c53 0 81 8 105 26c37 29 53 88 53 183c0 81 -10 148 -60 176c-23 14 -55 17 -93 17h-50zM116 747h88l79 -90l74 90h84
l-112 -152h-102z" />
    <glyph glyph-name="dcroat" unicode="&#x111;" horiz-adv-x="582" 
d="M575 571h-62v-428c0 -46 4 -109 9 -143h-125c-4 15 -8 51 -9 64c-33 -44 -76 -75 -146 -75c-113 0 -202 70 -202 258c0 220 124 271 217 271c52 0 96 -11 126 -41v94h-146v63h146v112h130v-112h62v-63zM384 256c0 114 -6 152 -23 172c-18 20 -46 29 -77 29
c-62 0 -110 -42 -110 -209c0 -146 45 -189 104 -189c34 0 63 14 77 32c23 26 29 53 29 165z" />
    <glyph glyph-name="dcroat.sc" horiz-adv-x="586" 
d="M73 0v246h-60v63h60v219h181c55 0 105 -4 144 -14c106 -27 146 -113 146 -243c0 -104 -29 -214 -137 -251c-43 -14 -81 -20 -167 -20h-167zM326 246h-122v-183h45c53 0 81 8 105 26c37 29 53 88 53 183c0 81 -10 148 -60 176c-23 14 -55 17 -93 17h-50v-156h122v-63z" />
    <glyph glyph-name="degree" unicode="&#xb0;" horiz-adv-x="333" 
d="M310 585c0 -90 -56 -145 -145 -145c-80 0 -141 52 -141 144c0 91 60 145 147 145s139 -52 139 -144zM245 584c0 63 -31 94 -78 94c-40 0 -76 -30 -76 -94c0 -61 34 -93 77 -93c45 0 77 30 77 93z" />
    <glyph glyph-name="dieresis" unicode="&#xa8;" horiz-adv-x="212" 
d="M67 664c0 -44 -22 -61 -61 -61c-36 0 -58 14 -58 61s22 64 61 64c36 0 58 -15 58 -64zM264 664c0 -44 -22 -61 -62 -61c-36 0 -57 14 -57 61s22 64 61 64c36 0 58 -15 58 -64z" />
    <glyph glyph-name="dieresis.cap" horiz-adv-x="212" 
d="M60 829c0 -44 -23 -60 -62 -60c-36 0 -57 13 -57 60c0 48 22 64 61 64c36 0 58 -14 58 -64zM271 829c0 -44 -22 -60 -61 -60c-36 0 -58 13 -58 60c0 48 22 64 62 64c36 0 57 -14 57 -64z" />
    <glyph glyph-name="dieresis.sc" horiz-adv-x="212" 
d="M67 677c0 -45 -22 -61 -61 -61c-36 0 -58 13 -58 61c0 47 22 63 61 63c36 0 58 -14 58 -63zM264 677c0 -45 -22 -61 -62 -61c-36 0 -57 13 -57 61c0 47 22 63 61 63c36 0 58 -14 58 -63z" />
    <glyph glyph-name="divide" unicode="&#xf7;" horiz-adv-x="735" 
d="M426 490c0 -45 -22 -60 -61 -60c-35 0 -56 13 -56 60s22 63 60 63c35 0 57 -14 57 -63zM639 263h-543v89h543v-89zM426 120c0 -45 -22 -61 -61 -61c-35 0 -56 14 -56 61s22 63 60 63c35 0 57 -14 57 -63z" />
    <glyph glyph-name="dollar" unicode="$" horiz-adv-x="534" 
d="M306 779v-94c54 -2 108 -13 152 -29v-85c-48 24 -100 40 -152 42v-209l20 -8c112 -49 167 -100 167 -204c0 -102 -64 -179 -187 -197v-95h-64v90c-62 1 -142 13 -195 34v86c57 -27 130 -48 195 -48v222l-30 13c-113 47 -159 106 -159 202c0 98 72 168 189 183v97h64z
M167 518c0 -35 25 -60 75 -85v175c-48 -11 -75 -39 -75 -90zM375 168c0 38 -24 64 -69 88v-187c45 14 69 45 69 99z" />
    <glyph glyph-name="dollar.denominator" horiz-adv-x="368" 
d="M208 475v-55c41 -1 76 -9 105 -19v-60c-30 12 -71 22 -105 24v-112l16 -6c80 -30 114 -61 114 -126c0 -68 -53 -113 -130 -124v-56h-43v54c-42 0 -96 8 -129 22v62c34 -16 81 -29 129 -30v115l-27 9c-72 25 -103 58 -103 127c0 70 58 110 130 118v57h43zM252 100
c0 20 -13 35 -44 48v-96c27 6 44 19 44 48zM122 316c0 -19 10 -32 43 -47v93c-28 -5 -43 -19 -43 -46z" />
    <glyph glyph-name="dollar.inferior" horiz-adv-x="368" 
d="M208 317v-55c41 -1 76 -9 105 -19v-60c-30 12 -71 22 -105 24v-112l16 -6c80 -30 114 -61 114 -126c0 -68 -53 -113 -130 -124v-56h-43v54c-42 0 -96 8 -129 22v62c34 -16 81 -29 129 -30v115l-27 9c-72 25 -103 58 -103 127c0 70 58 110 130 118v57h43zM252 -58
c0 20 -13 35 -44 48v-96c27 6 44 19 44 48zM122 158c0 -19 10 -32 43 -47v93c-28 -5 -43 -19 -43 -46z" />
    <glyph glyph-name="dollar.numerator" horiz-adv-x="368" 
d="M208 736v-55c41 -1 76 -9 105 -19v-60c-30 12 -71 22 -105 24v-112l16 -6c80 -30 114 -61 114 -126c0 -68 -53 -113 -130 -124v-56h-43v54c-42 0 -96 8 -129 22v62c34 -16 81 -29 129 -30v115l-27 9c-72 25 -103 58 -103 127c0 70 58 110 130 118v57h43zM252 361
c0 20 -13 35 -44 48v-96c27 6 44 19 44 48zM122 577c0 -19 10 -32 43 -47v93c-28 -5 -43 -19 -43 -46z" />
    <glyph glyph-name="dollar.oldstyle" horiz-adv-x="524" 
d="M293 696v-87c50 -1 100 -10 141 -25v-81c-43 21 -93 35 -141 37v-178l18 -8c106 -46 157 -92 157 -184c0 -90 -63 -158 -175 -175v-89h-59v84c-56 0 -132 12 -180 31v82c50 -25 123 -43 180 -43v187l-27 12c-105 45 -151 99 -151 185s68 149 178 162v90h59zM359 147
c0 35 -23 54 -66 74v-156c44 10 66 33 66 82zM165 462c0 -30 21 -52 69 -74v148c-47 -8 -69 -31 -69 -74z" />
    <glyph glyph-name="dollar.superior" horiz-adv-x="368" 
d="M208 924v-55c41 -1 76 -9 105 -19v-60c-30 12 -71 22 -105 24v-112l16 -6c80 -30 114 -61 114 -126c0 -68 -53 -113 -130 -124v-56h-43v54c-42 0 -96 8 -129 22v62c34 -16 81 -29 129 -30v115l-27 9c-72 25 -103 58 -103 127c0 70 58 110 130 118v57h43zM252 549
c0 20 -13 35 -44 48v-96c27 6 44 19 44 48zM122 765c0 -19 10 -32 43 -47v93c-28 -5 -43 -19 -43 -46z" />
    <glyph glyph-name="dotaccent" unicode="&#x2d9;" horiz-adv-x="212" 
d="M166 664c0 -44 -23 -61 -62 -61c-36 0 -57 14 -57 61s22 64 61 64c36 0 58 -15 58 -64z" />
    <glyph glyph-name="dotaccent.cap" horiz-adv-x="212" 
d="M166 829c0 -44 -23 -60 -62 -60c-36 0 -57 13 -57 60c0 48 22 64 61 64c36 0 58 -14 58 -64z" />
    <glyph glyph-name="dotaccent.sc" horiz-adv-x="212" 
d="M166 677c0 -45 -23 -61 -62 -61c-36 0 -57 13 -57 61c0 47 22 63 61 63c36 0 58 -14 58 -63z" />
    <glyph glyph-name="dotlessi" unicode="&#x131;" horiz-adv-x="270" 
d="M203 0h-132v506h132v-506z" />
    <glyph glyph-name="dotlessi.sc" horiz-adv-x="277" 
d="M204 528v-528h-131v528h131z" />
    <glyph glyph-name="e" unicode="e" horiz-adv-x="516" 
d="M487 243h-315c4 -136 60 -184 147 -184c63 0 108 17 149 37v-73c-36 -20 -92 -36 -178 -36c-169 0 -250 82 -250 267c0 173 90 266 235 266c98 0 146 -32 180 -92c23 -41 32 -101 32 -163v-22zM358 307c0 121 -20 156 -87 156c-47 0 -95 -35 -97 -156h184z" />
    <glyph glyph-name="e.sc" horiz-adv-x="468" 
d="M427 464h-223v-157h211v-64h-211v-179h238v-64h-369v528h354v-64z" />
    <glyph glyph-name="eacute" unicode="&#xe9;" horiz-adv-x="516" 
d="M487 243h-315c4 -136 60 -184 147 -184c63 0 108 17 149 37v-73c-36 -20 -92 -36 -178 -36c-169 0 -250 82 -250 267c0 173 90 266 235 266c98 0 146 -32 180 -92c23 -41 32 -101 32 -163v-22zM358 307c0 121 -20 156 -87 156c-47 0 -95 -35 -97 -156h184zM274 589h-87
l113 147h144z" />
    <glyph glyph-name="eacute.sc" horiz-adv-x="468" 
d="M427 464h-223v-157h211v-64h-211v-179h238v-64h-369v528h354v-64zM263 599h-88l114 147h144z" />
    <glyph glyph-name="ebreve" unicode="&#x115;" horiz-adv-x="516" 
d="M487 243h-315c4 -136 60 -184 147 -184c63 0 108 17 149 37v-73c-36 -20 -92 -36 -178 -36c-169 0 -250 82 -250 267c0 173 90 266 235 266c98 0 146 -32 180 -92c23 -41 32 -101 32 -163v-22zM358 307c0 121 -20 156 -87 156c-47 0 -95 -35 -97 -156h184zM135 735h70
c1 -61 29 -78 71 -78s76 17 78 78h69c0 -89 -42 -154 -148 -154c-102 0 -140 62 -140 154z" />
    <glyph glyph-name="ebreve.sc" horiz-adv-x="468" 
d="M427 464h-223v-157h211v-64h-211v-179h238v-64h-369v528h354v-64zM104 735h70c3 -47 30 -68 73 -68c41 0 73 17 76 68h69c-1 -79 -41 -144 -147 -144c-101 0 -141 63 -141 144z" />
    <glyph glyph-name="ecaron" unicode="&#x11b;" horiz-adv-x="516" 
d="M487 243h-315c4 -136 60 -184 147 -184c63 0 108 17 149 37v-73c-36 -20 -92 -36 -178 -36c-169 0 -250 82 -250 267c0 173 90 266 235 266c98 0 146 -32 180 -92c23 -41 32 -101 32 -163v-22zM358 307c0 121 -20 156 -87 156c-47 0 -95 -35 -97 -156h184zM114 737h88
l79 -90l74 90h84l-112 -152h-102z" />
    <glyph glyph-name="ecaron.sc" horiz-adv-x="468" 
d="M427 464h-223v-157h211v-64h-211v-179h238v-64h-369v528h354v-64zM87 747h88l79 -90l74 90h84l-112 -152h-102z" />
    <glyph glyph-name="ecircumflex" unicode="&#xea;" horiz-adv-x="516" 
d="M487 243h-315c4 -136 60 -184 147 -184c63 0 108 17 149 37v-73c-36 -20 -92 -36 -178 -36c-169 0 -250 82 -250 267c0 173 90 266 235 266c98 0 146 -32 180 -92c23 -41 32 -101 32 -163v-22zM358 307c0 121 -20 156 -87 156c-47 0 -95 -35 -97 -156h184zM437 589h-88
l-79 91l-75 -91h-83l111 152h102z" />
    <glyph glyph-name="ecircumflex.sc" horiz-adv-x="468" 
d="M427 464h-223v-157h211v-64h-211v-179h238v-64h-369v528h354v-64zM417 599h-88l-79 91l-75 -91h-83l111 152h102z" />
    <glyph glyph-name="edieresis" unicode="&#xeb;" horiz-adv-x="516" 
d="M487 243h-315c4 -136 60 -184 147 -184c63 0 108 17 149 37v-73c-36 -20 -92 -36 -178 -36c-169 0 -250 82 -250 267c0 173 90 266 235 266c98 0 146 -32 180 -92c23 -41 32 -101 32 -163v-22zM358 307c0 121 -20 156 -87 156c-47 0 -95 -35 -97 -156h184zM232 664
c0 -44 -22 -61 -61 -61c-36 0 -58 14 -58 61s22 64 61 64c36 0 58 -15 58 -64zM429 664c0 -44 -22 -61 -62 -61c-36 0 -57 14 -57 61s22 64 61 64c36 0 58 -15 58 -64z" />
    <glyph glyph-name="edieresis.sc" horiz-adv-x="468" 
d="M427 464h-223v-157h211v-64h-211v-179h238v-64h-369v528h354v-64zM213 677c0 -45 -22 -61 -61 -61c-36 0 -58 13 -58 61c0 47 22 63 61 63c36 0 58 -14 58 -63zM410 677c0 -45 -22 -61 -62 -61c-36 0 -57 13 -57 61c0 47 22 63 61 63c36 0 58 -14 58 -63z" />
    <glyph glyph-name="edotaccent" unicode="&#x117;" horiz-adv-x="516" 
d="M487 243h-315c4 -136 60 -184 147 -184c63 0 108 17 149 37v-73c-36 -20 -92 -36 -178 -36c-169 0 -250 82 -250 267c0 173 90 266 235 266c98 0 146 -32 180 -92c23 -41 32 -101 32 -163v-22zM358 307c0 121 -20 156 -87 156c-47 0 -95 -35 -97 -156h184zM335 664
c0 -44 -23 -61 -62 -61c-36 0 -57 14 -57 61s22 64 61 64c36 0 58 -15 58 -64z" />
    <glyph glyph-name="edotaccent.sc" horiz-adv-x="468" 
d="M427 464h-223v-157h211v-64h-211v-179h238v-64h-369v528h354v-64zM317 677c0 -45 -23 -61 -62 -61c-36 0 -57 13 -57 61c0 47 22 63 61 63c36 0 58 -14 58 -63z" />
    <glyph glyph-name="egrave" unicode="&#xe8;" horiz-adv-x="516" 
d="M487 243h-315c4 -136 60 -184 147 -184c63 0 108 17 149 37v-73c-36 -20 -92 -36 -178 -36c-169 0 -250 82 -250 267c0 173 90 266 235 266c98 0 146 -32 180 -92c23 -41 32 -101 32 -163v-22zM358 307c0 121 -20 156 -87 156c-47 0 -95 -35 -97 -156h184zM355 589h-89
l-163 147h143z" />
    <glyph glyph-name="egrave.sc" horiz-adv-x="468" 
d="M427 464h-223v-157h211v-64h-211v-179h238v-64h-369v528h354v-64zM331 599h-92l-163 147h143z" />
    <glyph glyph-name="eight" unicode="8" horiz-adv-x="586" 
d="M389 505c0 75 -27 119 -96 119s-98 -46 -98 -120c0 -85 40 -119 96 -119c51 0 98 26 98 120zM402 186c0 100 -46 134 -110 134c-65 0 -109 -38 -109 -133c0 -101 46 -134 111 -134c69 0 108 41 108 133zM403 358c91 -18 136 -81 136 -173c0 -120 -80 -199 -251 -199
c-166 0 -241 71 -241 196c0 87 42 149 139 175c-75 21 -120 67 -120 156c0 106 78 178 233 178c152 0 225 -67 225 -178c0 -78 -41 -131 -121 -155z" />
    <glyph glyph-name="eight.denominator" 
d="M355 314c0 -43 -21 -75 -76 -93c61 -15 84 -53 84 -105c0 -76 -54 -127 -165 -127s-161 45 -161 125c0 51 23 90 88 105c-59 17 -75 51 -75 95c0 67 55 113 155 113c99 0 149 -41 150 -113zM262 117c0 56 -25 76 -61 76c-37 0 -63 -22 -63 -75s25 -73 63 -73
c39 0 61 24 61 72zM254 312c0 40 -16 61 -54 61c-37 0 -54 -24 -54 -63c0 -46 22 -65 54 -65c29 0 54 15 54 67z" />
    <glyph glyph-name="eight.fitted" horiz-adv-x="595" 
d="M393 505c0 75 -26 119 -96 119c-69 0 -98 -46 -98 -120c0 -85 40 -119 97 -119c50 0 97 26 97 120zM406 186c0 100 -45 134 -109 134c-66 0 -110 -38 -110 -133c0 -101 46 -134 112 -134c68 0 107 41 107 133zM408 358c90 -18 136 -81 136 -173
c0 -120 -80 -199 -251 -199c-166 0 -241 71 -241 196c0 87 41 149 139 175c-75 21 -121 67 -121 156c0 106 79 178 234 178c151 0 224 -67 224 -178c0 -78 -41 -131 -120 -155z" />
    <glyph glyph-name="eight.inferior" unicode="&#x2088;" 
d="M355 155c0 -43 -21 -75 -76 -93c61 -15 84 -53 84 -105c0 -76 -54 -127 -165 -127s-161 45 -161 125c0 51 23 90 88 105c-59 17 -75 51 -75 95c0 67 55 113 155 113c99 0 149 -41 150 -113zM262 -42c0 56 -25 76 -61 76c-37 0 -63 -22 -63 -75s25 -73 63 -73
c39 0 61 24 61 72zM254 153c0 40 -16 61 -54 61c-37 0 -54 -24 -54 -63c0 -46 22 -65 54 -65c29 0 54 15 54 67z" />
    <glyph glyph-name="eight.numerator" 
d="M355 575c0 -43 -21 -75 -76 -93c61 -15 84 -53 84 -105c0 -76 -54 -127 -165 -127s-161 45 -161 125c0 51 23 90 88 105c-59 17 -75 51 -75 95c0 67 55 113 155 113c99 0 149 -41 150 -113zM262 378c0 56 -25 76 -61 76c-37 0 -63 -22 -63 -75s25 -73 63 -73
c39 0 61 24 61 72zM254 573c0 40 -16 61 -54 61c-37 0 -54 -24 -54 -63c0 -46 22 -65 54 -65c29 0 54 15 54 67z" />
    <glyph glyph-name="eight.oldstyle" horiz-adv-x="567" 
d="M378 505c0 72 -26 119 -95 119c-67 0 -96 -50 -96 -121c0 -86 43 -118 94 -118c49 0 97 25 97 120zM394 187c0 102 -46 135 -110 135c-67 0 -113 -37 -113 -135c0 -100 49 -134 113 -134c68 0 110 43 110 134zM391 357c84 -16 129 -81 129 -172
c0 -120 -76 -199 -241 -199c-160 0 -233 72 -233 195c0 86 43 152 134 176c-80 27 -112 75 -112 154c0 104 80 180 220 180c143 0 213 -67 213 -178c0 -78 -36 -131 -110 -156z" />
    <glyph glyph-name="eight.superior" unicode="&#x2078;" 
d="M355 764c0 -43 -21 -75 -76 -93c61 -15 84 -53 84 -105c0 -76 -54 -127 -165 -127s-161 45 -161 125c0 51 23 90 88 105c-59 17 -75 51 -75 95c0 67 55 113 155 113c99 0 149 -41 150 -113zM262 567c0 56 -25 76 -61 76c-37 0 -63 -22 -63 -75s25 -73 63 -73
c39 0 61 24 61 72zM254 762c0 40 -16 61 -54 61c-37 0 -54 -24 -54 -63c0 -46 22 -65 54 -65c29 0 54 15 54 67z" />
    <glyph glyph-name="eight.taboldstyle" horiz-adv-x="553" 
d="M372 505c0 72 -27 119 -95 119c-67 0 -97 -50 -97 -121c0 -86 44 -118 95 -118c49 0 97 25 97 120zM388 187c0 102 -46 135 -110 135c-67 0 -113 -37 -113 -135c0 -100 49 -134 113 -134c68 0 110 43 110 134zM385 357c83 -16 129 -81 129 -172
c0 -120 -76 -199 -242 -199c-161 0 -233 71 -233 195c0 86 43 152 135 176c-81 27 -113 75 -113 154c0 104 80 180 221 180c142 0 212 -67 212 -178c0 -78 -35 -131 -109 -156z" />
    <glyph glyph-name="ellipsis" unicode="&#x2026;" horiz-adv-x="972" 
d="M241 69c0 -58 -28 -79 -79 -79c-48 0 -76 18 -76 79c0 60 29 81 80 81c48 0 75 -20 75 -81zM562 69c0 -58 -29 -79 -79 -79c-48 0 -76 18 -76 79c0 60 29 81 80 81c48 0 75 -20 75 -81zM877 69c0 -58 -28 -79 -78 -79c-49 0 -77 18 -77 79c0 60 29 81 80 81
c48 0 75 -20 75 -81z" />
    <glyph glyph-name="emacron" unicode="&#x113;" horiz-adv-x="516" 
d="M487 243h-315c4 -136 60 -184 147 -184c63 0 108 17 149 37v-73c-36 -20 -92 -36 -178 -36c-169 0 -250 82 -250 267c0 173 90 266 235 266c98 0 146 -32 180 -92c23 -41 32 -101 32 -163v-22zM358 307c0 121 -20 156 -87 156c-47 0 -95 -35 -97 -156h184zM425 605h-300
v75h300v-75z" />
    <glyph glyph-name="emacron.sc" horiz-adv-x="468" 
d="M427 464h-223v-157h211v-64h-211v-179h238v-64h-369v528h354v-64zM396 617h-300v74h300v-74z" />
    <glyph glyph-name="emdash" unicode="&#x2014;" horiz-adv-x="1061" 
d="M1021 230h-981v91h981v-91z" />
    <glyph glyph-name="emdash.cap" horiz-adv-x="1061" 
d="M1021 290h-981v91h981v-91z" />
    <glyph glyph-name="endash" unicode="&#x2013;" horiz-adv-x="540" 
d="M500 230h-460v91h460v-91z" />
    <glyph glyph-name="endash.cap" horiz-adv-x="540" 
d="M500 290h-460v91h460v-91z" />
    <glyph glyph-name="eng" unicode="&#x14b;" horiz-adv-x="582" 
d="M202 0h-129v310c0 62 -4 139 -10 196h128c4 -15 8 -55 8 -65c44 58 115 78 168 78c67 0 125 -21 141 -95c6 -29 8 -65 8 -117v-337c0 -65 -12 -107 -34 -134c-28 -35 -76 -52 -147 -52c-26 0 -58 3 -80 8v65c15 -3 41 -5 57 -5c27 0 48 8 58 23c12 16 15 43 15 92v318
c0 53 -1 86 -5 109c-7 35 -33 51 -71 51c-35 0 -70 -16 -89 -47c-16 -25 -18 -45 -18 -100v-298z" />
    <glyph glyph-name="eng.sc" horiz-adv-x="607" 
d="M173 0h-100v528h169c145 -242 173 -292 201 -344c-3 92 -4 140 -4 344h96v-558c0 -65 -11 -108 -33 -135c-28 -34 -75 -51 -145 -51c-27 0 -58 3 -80 8v65c14 -3 42 -5 57 -5c27 0 51 8 61 23c9 13 14 36 14 79v33c-170 290 -202 346 -239 417c3 -111 3 -156 3 -404z" />
    <glyph glyph-name="eogonek" unicode="&#x119;" horiz-adv-x="516" 
d="M487 243h-315c4 -133 55 -184 142 -184c62 0 113 18 154 37v-73c-30 -15 -74 -29 -136 -34c-46 -38 -65 -69 -65 -115c0 -34 20 -57 47 -57c14 0 31 2 48 8l16 -41c-25 -13 -56 -21 -85 -21c-72 0 -107 42 -107 102c0 46 29 87 82 123c-154 6 -228 88 -228 266
c0 173 90 266 235 266c98 0 146 -32 180 -92c23 -41 32 -101 32 -163v-22zM358 307c0 121 -21 156 -88 156c-47 0 -94 -35 -96 -156h184z" />
    <glyph glyph-name="eogonek.sc" horiz-adv-x="468" 
d="M427 464h-223v-157h211v-64h-211v-179h238v-64h-27c-56 -43 -80 -78 -80 -130c0 -34 19 -58 47 -58c13 0 31 2 49 9l17 -43c-25 -13 -56 -22 -86 -22c-74 0 -109 43 -109 105c0 53 36 99 103 139h-283v528h354v-64z" />
    <glyph glyph-name="equal" unicode="=" horiz-adv-x="735" 
d="M639 365h-542v89h542v-89zM639 159h-542v89h542v-89z" />
    <glyph glyph-name="estimated" unicode="&#x212e;" horiz-adv-x="810" 
d="M776 329h-600c-3 0 -5 -1 -5 -4v-191c0 -7 4 -16 10 -22c56 -63 137 -103 226 -103c95 0 181 44 239 116h55c-70 -83 -176 -138 -295 -138c-203 0 -371 158 -371 350c0 196 168 354 371 354c204 0 370 -158 370 -354v-8zM641 355v193c0 10 -4 16 -11 21
c-56 62 -136 100 -223 100c-89 0 -168 -39 -225 -102c-7 -6 -11 -15 -11 -24v-188c0 -4 2 -6 5 -6h460c3 0 5 2 5 6z" />
    <glyph glyph-name="estimated.alt" horiz-adv-x="756" 
d="M584 388c-1 150 -60 233 -194 233c-104 0 -204 -56 -211 -233h405zM426 -14c-251 0 -376 120 -376 351c0 226 129 354 346 354c240 0 318 -127 318 -344v-26h-535c3 -182 99 -258 276 -258c95 0 180 28 241 58v-85c-52 -22 -140 -50 -270 -50z" />
    <glyph glyph-name="eth" unicode="&#xf0;" horiz-adv-x="567" 
d="M487 710l-89 -54c89 -78 128 -204 128 -383c0 -181 -80 -285 -243 -285c-154 0 -243 88 -243 254c0 173 97 267 238 267c43 0 89 -14 108 -45c-10 58 -35 105 -72 141l-116 -70l-31 47l99 60c-31 18 -66 31 -105 39l16 62c67 -9 123 -26 170 -52l108 66zM393 260
c0 127 -32 186 -102 186c-75 0 -117 -59 -117 -205c0 -144 43 -194 114 -194c77 0 105 72 105 213z" />
    <glyph glyph-name="eth.sc" horiz-adv-x="586" 
d="M73 0v246h-60v63h60v219h181c55 0 105 -4 144 -14c106 -27 146 -113 146 -243c0 -104 -29 -214 -137 -251c-43 -14 -81 -20 -167 -20h-167zM326 246h-122v-183h45c53 0 81 8 105 26c37 29 53 88 53 183c0 81 -10 148 -60 176c-23 14 -55 17 -93 17h-50v-156h122v-63z" />
    <glyph glyph-name="exclam" unicode="!" horiz-adv-x="300" 
d="M214 244h-109c-20 431 -21 460 -21 462h152c0 -3 -1 -30 -22 -462zM236 69c0 -58 -28 -79 -79 -79c-48 0 -76 18 -76 79c0 60 29 81 80 81c48 0 75 -20 75 -81z" />
    <glyph glyph-name="exclam.sc" horiz-adv-x="271" 
d="M201 238h-107c-19 349 -19 372 -19 374h146c0 -3 0 -24 -20 -374zM224 69c0 -58 -28 -79 -78 -79c-49 0 -77 18 -77 79c0 60 29 81 80 81c48 0 75 -20 75 -81z" />
    <glyph glyph-name="exclamdown" unicode="&#xa1;" horiz-adv-x="301" 
d="M87 262h110c20 -430 20 -460 20 -462h-152c0 3 0 33 22 462zM65 438c0 57 29 79 79 79c48 0 77 -19 77 -79c0 -61 -30 -82 -80 -82c-49 0 -76 20 -76 82z" />
    <glyph glyph-name="exclamdown.sc" horiz-adv-x="271" 
d="M70 221h107c19 -349 19 -372 19 -374h-146c0 3 0 24 20 374zM47 391c0 57 28 78 78 78c49 0 77 -18 77 -78c0 -61 -29 -82 -80 -82c-48 0 -75 20 -75 82z" />
    <glyph glyph-name="f" unicode="f" horiz-adv-x="322" 
d="M92 0v444h-74v62h74v46c0 64 13 115 36 144c31 38 82 59 148 59c31 0 59 -2 88 -7v-74c-16 5 -38 10 -56 10c-33 0 -55 -11 -67 -27c-13 -18 -20 -48 -20 -95v-56h100v-62h-100v-444h-129z" />
    <glyph glyph-name="f.sc" horiz-adv-x="436" 
d="M416 464h-212v-166h194v-63h-194v-235h-131v528h343v-64z" />
    <glyph glyph-name="f_f_t" horiz-adv-x="940" 
d="M523 446v-446h-130v446h-172v-446h-129v446h-74v60h74v44c0 64 11 102 35 131c30 37 81 54 142 54c30 0 62 -3 88 -7v-71c-16 5 -43 8 -61 8c-28 0 -49 -11 -59 -27c-12 -17 -16 -33 -16 -80v-52h172v62c0 61 11 103 34 131c30 37 82 56 144 56c31 0 55 -2 78 -6v-71
c-15 4 -32 6 -50 6c-27 0 -49 -9 -60 -24c-11 -16 -16 -35 -16 -83v-71h170s0 23 7 138h122v-138h100v-61h-100v-285c0 -38 4 -60 11 -73c8 -14 26 -23 46 -23c16 0 31 2 48 7v-68c-28 -7 -64 -11 -97 -11c-48 0 -84 16 -105 42c-23 28 -33 71 -33 125v287h-169z" />
    <glyph glyph-name="f_i.sc" horiz-adv-x="714" 
d="M416 464h-212v-166h194v-63h-194v-235h-131v528h343v-64zM641 528v-528h-131v528h131z" />
    <glyph glyph-name="f_l.sc" horiz-adv-x="866" 
d="M416 464h-212v-166h194v-63h-194v-235h-131v528h343v-64zM641 528v-465h211v-63h-342v528h131z" />
    <glyph glyph-name="f_t" horiz-adv-x="638" 
d="M625 3c-28 -7 -64 -11 -97 -11c-48 0 -84 16 -105 42c-23 28 -33 71 -33 125v287h-169v-446h-129v446h-74v60h74v61c0 60 11 104 33 131c29 37 81 57 145 57c30 0 58 -3 84 -7v-71c-16 5 -37 7 -55 7c-28 0 -50 -10 -61 -25c-12 -16 -17 -37 -17 -84v-69h170s0 23 7 138
h122v-138h100v-61h-100v-285c0 -38 4 -60 11 -73c8 -14 26 -23 46 -23c16 0 31 2 48 7v-68z" />
    <glyph glyph-name="five" unicode="5" horiz-adv-x="586" 
d="M385 211c0 119 -61 147 -132 147c-51 0 -99 -10 -156 -37l23 355h368v-100h-303l-10 -160c38 12 80 19 129 19c138 0 221 -69 221 -221c0 -163 -110 -228 -263 -228c-61 0 -134 7 -191 33v78c65 -32 121 -40 175 -40c96 0 139 55 139 154z" />
    <glyph glyph-name="five.denominator" 
d="M248 130c0 60 -34 77 -73 77c-35 0 -65 -6 -109 -26l16 234h244v-75h-194l-5 -82c22 7 54 12 86 12c88 0 139 -44 139 -137c0 -104 -69 -144 -172 -144c-39 0 -92 6 -129 21v62c46 -21 85 -26 118 -26c54 0 79 28 79 84z" />
    <glyph glyph-name="five.fitted" horiz-adv-x="558" 
d="M369 211c0 119 -61 147 -132 147c-51 0 -101 -10 -158 -37l24 355h369v-100h-305l-11 -160c39 12 84 19 132 19c138 0 221 -69 221 -221c0 -163 -110 -228 -262 -228c-61 0 -137 7 -194 33v78c65 -32 124 -40 177 -40c97 0 139 55 139 154z" />
    <glyph glyph-name="five.inferior" unicode="&#x2085;" 
d="M248 -29c0 60 -34 77 -73 77c-35 0 -65 -6 -109 -26l16 234h244v-75h-194l-5 -82c22 7 54 12 86 12c88 0 139 -44 139 -137c0 -104 -69 -144 -172 -144c-39 0 -92 6 -129 21v62c46 -21 85 -26 118 -26c54 0 79 28 79 84z" />
    <glyph glyph-name="five.numerator" 
d="M248 391c0 60 -34 77 -73 77c-35 0 -65 -6 -109 -26l16 234h244v-75h-194l-5 -82c22 7 54 12 86 12c88 0 139 -44 139 -137c0 -104 -69 -144 -172 -144c-39 0 -92 6 -129 21v62c46 -21 85 -26 118 -26c54 0 79 28 79 84z" />
    <glyph glyph-name="five.oldstyle" horiz-adv-x="543" 
d="M63 -165v73c28 -2 57 -3 78 -3c119 0 216 42 216 174c0 102 -52 133 -123 133c-48 0 -89 -3 -157 -30l23 345h365v-100h-300l-10 -150c40 12 88 18 120 18c153 0 218 -70 218 -207c0 -178 -180 -256 -351 -256c-29 0 -57 1 -79 3z" />
    <glyph glyph-name="five.superior" unicode="&#x2075;" 
d="M248 580c0 60 -34 77 -73 77c-35 0 -65 -6 -109 -26l16 234h244v-75h-194l-5 -82c22 7 54 12 86 12c88 0 139 -44 139 -137c0 -104 -69 -144 -172 -144c-39 0 -92 6 -129 21v62c46 -21 85 -26 118 -26c54 0 79 28 79 84z" />
    <glyph glyph-name="five.taboldstyle" horiz-adv-x="553" 
d="M81 -165v74c28 -2 56 -3 78 -3c118 0 215 41 215 173c0 102 -51 133 -122 133c-49 0 -89 -3 -157 -30l23 345h364v-100h-299l-10 -150c39 12 87 18 120 18c152 0 218 -70 218 -207c0 -178 -181 -256 -352 -256c-29 0 -56 1 -78 3z" />
    <glyph glyph-name="fiveeighths" unicode="&#x215d;" horiz-adv-x="879" 
d="M556 676h74l-304 -676h-74zM246 391c0 60 -34 77 -73 77c-35 0 -65 -6 -109 -26l16 234h244v-75h-194l-5 -82c22 7 54 12 86 12c88 0 139 -44 139 -137c0 -104 -69 -144 -172 -144c-39 0 -92 6 -129 21v62c46 -21 85 -26 118 -26c54 0 79 28 79 84zM844 314
c0 -43 -21 -75 -76 -93c61 -15 84 -53 84 -105c0 -76 -54 -127 -165 -127s-161 45 -161 125c0 51 23 90 88 105c-59 17 -75 51 -75 95c0 67 55 113 155 113c99 0 149 -41 150 -113zM751 117c0 56 -25 76 -61 76c-37 0 -63 -22 -63 -75s25 -73 63 -73c39 0 61 24 61 72z
M743 312c0 40 -16 61 -54 61c-37 0 -54 -24 -54 -63c0 -46 22 -65 54 -65c29 0 54 15 54 67z" />
    <glyph glyph-name="florin" unicode="&#x192;" horiz-adv-x="496" 
d="M311 374l-30 -352c-8 -97 -61 -158 -183 -158c-29 0 -63 5 -81 9v72c17 -6 40 -11 57 -11c52 0 70 21 76 97l27 343h-90v63h96l8 97c8 86 56 156 183 156c29 0 75 -5 89 -10v-73c-19 7 -40 14 -60 14c-49 0 -71 -27 -77 -99l-7 -85h105v-63h-113z" />
    <glyph glyph-name="florin.denominator" horiz-adv-x="319" 
d="M202 222l-19 -210c-6 -62 -36 -98 -120 -98c-20 0 -45 3 -60 6v57c14 -6 33 -9 42 -9c29 0 41 12 44 53l16 201h-57v49h61l5 56c5 56 40 101 120 101c20 0 55 -4 67 -7v-59c-17 7 -36 10 -45 10c-25 0 -41 -12 -44 -53l-4 -48h65v-49h-71z" />
    <glyph glyph-name="florin.inferior" horiz-adv-x="319" 
d="M202 63l-19 -210c-6 -62 -36 -98 -120 -98c-20 0 -45 3 -60 6v57c14 -6 33 -9 42 -9c29 0 41 12 44 53l16 201h-57v49h61l5 56c5 56 40 101 120 101c20 0 55 -4 67 -7v-59c-17 7 -36 10 -45 10c-25 0 -41 -12 -44 -53l-4 -48h65v-49h-71z" />
    <glyph glyph-name="florin.numerator" horiz-adv-x="319" 
d="M202 483l-19 -210c-6 -62 -36 -98 -120 -98c-20 0 -45 3 -60 6v57c14 -6 33 -9 42 -9c29 0 41 12 44 53l16 201h-57v49h61l5 56c5 56 40 101 120 101c20 0 55 -4 67 -7v-59c-17 7 -36 10 -45 10c-25 0 -41 -12 -44 -53l-4 -48h65v-49h-71z" />
    <glyph glyph-name="florin.oldstyle" horiz-adv-x="454" 
d="M280 303l-27 -324c-8 -93 -41 -151 -166 -151c-31 0 -72 7 -93 10v76c25 -9 51 -13 66 -13c45 0 63 23 68 86l24 316h-87v65h91l8 84c8 90 47 162 171 162c33 0 81 -7 99 -12v-76c-25 10 -56 15 -71 15c-42 0 -65 -28 -70 -90l-6 -83h103v-65h-110z" />
    <glyph glyph-name="florin.superior" horiz-adv-x="319" 
d="M202 672l-19 -210c-6 -62 -36 -98 -120 -98c-20 0 -45 3 -60 6v57c14 -6 33 -9 42 -9c29 0 41 12 44 53l16 201h-57v49h61l5 56c5 56 40 101 120 101c20 0 55 -4 67 -7v-59c-17 7 -36 10 -45 10c-25 0 -41 -12 -44 -53l-4 -48h65v-49h-71z" />
    <glyph glyph-name="four" unicode="4" horiz-adv-x="586" 
d="M126 257h206c0 162 0 213 2 305c-45 -69 -76 -115 -208 -305zM463 0h-131v168h-301v76l304 432h128v-419h99v-89h-99v-168z" />
    <glyph glyph-name="four.denominator" 
d="M106 160h117c0 92 0 126 1 169c-20 -30 -45 -66 -118 -169zM320 0h-97v96h-191v56l191 263h97v-255h61v-64h-61v-96z" />
    <glyph glyph-name="four.fitted" horiz-adv-x="615" 
d="M132 257h220c0 162 0 216 2 309c-44 -68 -82 -120 -222 -309zM484 0h-132v168h-315v76l319 432h128v-419h99v-89h-99v-168z" />
    <glyph glyph-name="four.inferior" unicode="&#x2084;" 
d="M106 1h117c0 92 0 126 1 169c-20 -30 -45 -66 -118 -169zM320 -159h-97v96h-191v56l191 263h97v-255h61v-64h-61v-96z" />
    <glyph glyph-name="four.numerator" 
d="M106 421h117c0 92 0 126 1 169c-20 -30 -45 -66 -118 -169zM320 261h-97v96h-191v56l191 263h97v-255h61v-64h-61v-96z" />
    <glyph glyph-name="four.oldstyle" horiz-adv-x="589" 
d="M128 89h210c0 163 0 234 2 328c-43 -70 -85 -138 -212 -328zM462 -163h-124v163h-307v67l306 459h125v-437h96v-89h-96v-163z" />
    <glyph glyph-name="four.superior" unicode="&#x2074;" 
d="M106 610h117c0 92 0 126 1 169c-20 -30 -45 -66 -118 -169zM320 450h-97v96h-191v56l191 263h97v-255h61v-64h-61v-96z" />
    <glyph glyph-name="four.taboldstyle" horiz-adv-x="553" 
d="M118 89h197c0 163 0 228 2 322c-40 -70 -77 -133 -199 -322zM440 -163h-125v163h-291v67l291 459h125v-437h95v-89h-95v-163z" />
    <glyph glyph-name="fourfifths" horiz-adv-x="879" 
d="M574 676h74l-304 -676h-74zM104 421h117c0 92 0 126 1 169c-20 -30 -45 -66 -118 -169zM318 261h-97v96h-191v56l191 263h97v-255h61v-64h-61v-96zM741 130c0 60 -34 77 -73 77c-35 0 -65 -6 -109 -26l16 234h244v-75h-194l-5 -82c22 7 54 12 86 12
c88 0 139 -44 139 -137c0 -104 -69 -144 -172 -144c-39 0 -92 6 -129 21v62c46 -21 85 -26 118 -26c54 0 79 28 79 84z" />
    <glyph glyph-name="fraction" unicode="&#x2044;" horiz-adv-x="105" 
d="M168 676h74l-304 -676h-74z" />
    <glyph glyph-name="g" unicode="g" horiz-adv-x="581" 
d="M513 359v-339c0 -93 -24 -151 -67 -186c-48 -40 -123 -59 -194 -59s-113 8 -167 28v81c60 -31 117 -38 163 -38c42 0 81 11 101 31c23 23 32 56 32 122v59c-32 -41 -79 -60 -145 -60c-128 0 -196 81 -196 251c0 197 102 269 218 269c64 0 106 -20 130 -56c1 6 2 29 5 44
h126c-4 -45 -6 -98 -6 -147zM384 266c0 104 -6 132 -21 155c-18 27 -47 35 -77 35c-64 0 -112 -49 -112 -207c0 -151 55 -182 111 -182c26 0 53 11 67 24c27 25 32 56 32 175z" />
    <glyph glyph-name="g.sc" horiz-adv-x="578" 
d="M317 51c26 0 54 4 74 12v149h-100v64h230v-247c-59 -25 -150 -41 -228 -41c-156 0 -251 78 -251 268c0 196 108 284 275 284c62 0 127 -8 168 -22v-70c-41 18 -94 29 -147 29c-103 0 -159 -57 -159 -215s57 -211 138 -211z" />
    <glyph glyph-name="gbreve" unicode="&#x11f;" horiz-adv-x="581" 
d="M513 359v-339c0 -93 -24 -151 -67 -186c-48 -40 -123 -59 -194 -59s-113 8 -167 28v81c60 -31 117 -38 163 -38c42 0 81 11 101 31c23 23 32 56 32 122v59c-32 -41 -79 -60 -145 -60c-128 0 -196 81 -196 251c0 197 102 269 218 269c64 0 106 -20 130 -56c1 6 2 29 5 44
h126c-4 -45 -6 -98 -6 -147zM384 266c0 104 -6 132 -21 155c-18 27 -47 35 -77 35c-64 0 -112 -49 -112 -207c0 -151 55 -182 111 -182c26 0 53 11 67 24c27 25 32 56 32 175zM162 735h70c1 -61 29 -78 71 -78s76 17 78 78h69c0 -89 -42 -154 -148 -154
c-102 0 -140 62 -140 154z" />
    <glyph glyph-name="gbreve.sc" horiz-adv-x="578" 
d="M317 51c26 0 54 4 74 12v149h-100v64h230v-247c-59 -25 -150 -41 -228 -41c-156 0 -251 78 -251 268c0 196 108 284 275 284c62 0 127 -8 168 -22v-70c-41 18 -94 29 -147 29c-103 0 -159 -57 -159 -215s57 -211 138 -211zM155 735h70c3 -47 30 -68 73 -68
c41 0 73 17 76 68h69c-1 -79 -41 -144 -147 -144c-101 0 -141 63 -141 144z" />
    <glyph glyph-name="gcircumflex" unicode="&#x11d;" horiz-adv-x="581" 
d="M513 359v-339c0 -93 -24 -151 -67 -186c-48 -40 -123 -59 -194 -59s-113 8 -167 28v81c60 -31 117 -38 163 -38c42 0 81 11 101 31c23 23 32 56 32 122v59c-32 -41 -79 -60 -145 -60c-128 0 -196 81 -196 251c0 197 102 269 218 269c64 0 106 -20 130 -56c1 6 2 29 5 44
h126c-4 -45 -6 -98 -6 -147zM384 266c0 104 -6 132 -21 155c-18 27 -47 35 -77 35c-64 0 -112 -49 -112 -207c0 -151 55 -182 111 -182c26 0 53 11 67 24c27 25 32 56 32 175zM462 589h-88l-79 91l-75 -91h-83l111 152h102z" />
    <glyph glyph-name="gcircumflex.sc" horiz-adv-x="578" 
d="M317 51c26 0 54 4 74 12v149h-100v64h230v-247c-59 -25 -150 -41 -228 -41c-156 0 -251 78 -251 268c0 196 108 284 275 284c62 0 127 -8 168 -22v-70c-41 18 -94 29 -147 29c-103 0 -159 -57 -159 -215s57 -211 138 -211zM469 599h-88l-79 91l-75 -91h-83l111 152h102z
" />
    <glyph glyph-name="gcommaaccent" unicode="&#x123;" horiz-adv-x="581" 
d="M513 359v-339c0 -93 -24 -151 -67 -186c-48 -40 -123 -59 -194 -59s-113 8 -167 28v81c60 -31 117 -38 163 -38c42 0 81 11 101 31c23 23 32 56 32 122v59c-32 -41 -79 -60 -145 -60c-128 0 -196 81 -196 251c0 197 102 269 218 269c64 0 106 -20 130 -56c1 6 2 29 5 44
h126c-4 -45 -6 -98 -6 -147zM384 266c0 104 -6 132 -21 155c-18 27 -47 35 -77 35c-64 0 -112 -49 -112 -207c0 -151 55 -182 111 -182c26 0 53 11 67 24c27 25 32 56 32 175zM239 586c1 82 32 143 73 187h72c-32 -50 -46 -102 -46 -187h-99z" />
    <glyph glyph-name="gcommaaccent.sc" horiz-adv-x="578" 
d="M317 51c26 0 54 4 74 12v149h-100v64h230v-247c-59 -25 -150 -41 -228 -41c-156 0 -251 78 -251 268c0 196 108 284 275 284c62 0 127 -8 168 -22v-70c-41 18 -94 29 -147 29c-103 0 -159 -57 -159 -215s57 -211 138 -211zM362 -63c-2 -82 -32 -140 -74 -184h-71
c32 50 46 99 46 184h99z" />
    <glyph glyph-name="gdotaccent" unicode="&#x121;" horiz-adv-x="581" 
d="M513 359v-339c0 -93 -24 -151 -67 -186c-48 -40 -123 -59 -194 -59s-113 8 -167 28v81c60 -31 117 -38 163 -38c42 0 81 11 101 31c23 23 32 56 32 122v59c-32 -41 -79 -60 -145 -60c-128 0 -196 81 -196 251c0 197 102 269 218 269c64 0 106 -20 130 -56c1 6 2 29 5 44
h126c-4 -45 -6 -98 -6 -147zM384 266c0 104 -6 132 -21 155c-18 27 -47 35 -77 35c-64 0 -112 -49 -112 -207c0 -151 55 -182 111 -182c26 0 53 11 67 24c27 25 32 56 32 175zM360 664c0 -44 -23 -61 -62 -61c-36 0 -57 14 -57 61s22 64 61 64c36 0 58 -15 58 -64z" />
    <glyph glyph-name="gdotaccent.sc" horiz-adv-x="578" 
d="M317 51c26 0 54 4 74 12v149h-100v64h230v-247c-59 -25 -150 -41 -228 -41c-156 0 -251 78 -251 268c0 196 108 284 275 284c62 0 127 -8 168 -22v-70c-41 18 -94 29 -147 29c-103 0 -159 -57 -159 -215s57 -211 138 -211zM368 677c0 -45 -23 -61 -62 -61
c-36 0 -57 13 -57 61c0 47 22 63 61 63c36 0 58 -14 58 -63z" />
    <glyph glyph-name="germandbls" unicode="&#xdf;" horiz-adv-x="571" 
d="M71 0v500c0 63 12 112 35 148c36 55 103 84 195 84c140 0 197 -71 197 -168s-37 -146 -107 -168c94 -12 141 -83 141 -197c0 -135 -51 -208 -185 -208c-26 0 -59 2 -90 9v70c23 -9 42 -10 60 -10c53 0 81 46 81 137c0 105 -28 157 -119 157h-19v66h19c53 0 89 31 89 138
c0 77 -31 109 -79 109c-33 0 -61 -13 -74 -45c-11 -28 -14 -80 -14 -130v-492h-130z" />
    <glyph glyph-name="germandbls.sc" horiz-adv-x="861" 
d="M285 128c0 27 -17 48 -67 70l-51 23c-96 43 -131 85 -131 166c0 87 69 153 195 153c49 0 104 -5 143 -20v-78c-42 20 -92 34 -139 34c-58 0 -85 -20 -85 -63c0 -21 11 -46 64 -69l48 -21c108 -48 141 -83 141 -168c0 -98 -75 -167 -212 -167c-51 0 -115 10 -159 26v82
c51 -22 109 -39 160 -39c55 0 93 19 93 71zM715 128c0 27 -17 48 -67 70l-51 23c-96 43 -131 85 -131 166c0 87 69 153 195 153c49 0 104 -5 143 -20v-78c-42 20 -92 34 -139 34c-58 0 -85 -20 -85 -63c0 -21 11 -46 64 -69l48 -21c108 -48 141 -83 141 -168
c0 -98 -75 -167 -212 -167c-51 0 -115 10 -159 26v82c51 -22 109 -39 160 -39c55 0 93 19 93 71z" />
    <glyph glyph-name="grave" unicode="`" horiz-adv-x="212" 
d="M231 589h-89l-163 147h143z" />
    <glyph glyph-name="grave.cap" horiz-adv-x="212" 
d="M251 766h-98l-186 138h151z" />
    <glyph glyph-name="grave.sc" horiz-adv-x="212" 
d="M234 599h-92l-163 147h143z" />
    <glyph glyph-name="greater" unicode="&#x3e;" horiz-adv-x="735" 
d="M142 589l479 -230v-98l-479 -233v102l387 179l-387 175v105z" />
    <glyph glyph-name="greaterequal" unicode="&#x2265;" horiz-adv-x="735" 
d="M127 671l479 -209v-99l-479 -214v104l380 158l-380 154v106zM606 0h-479v89h479v-89z" />
    <glyph glyph-name="guillemotleft" unicode="&#xab;" horiz-adv-x="509" 
d="M243 501v-119l-106 -101l106 -104v-134l-194 191v77zM452 501v-119l-105 -101l106 -104v-134l-195 191v77z" />
    <glyph glyph-name="guillemotleft.cap" horiz-adv-x="509" 
d="M243 565v-119l-106 -101l106 -104v-134l-194 191v77zM452 565v-119l-105 -101l106 -104v-134l-195 191v77z" />
    <glyph glyph-name="guillemotright" unicode="&#xbb;" horiz-adv-x="509" 
d="M266 43v119l106 101l-106 104v134l194 -191v-77zM57 43v119l105 101l-106 104v134l194 -191l1 -77z" />
    <glyph glyph-name="guillemotright.cap" horiz-adv-x="509" 
d="M266 107v119l106 101l-106 104v134l194 -191v-77zM57 107v119l105 101l-106 104v134l194 -191l1 -77z" />
    <glyph glyph-name="guilsinglleft" unicode="&#x2039;" horiz-adv-x="299" 
d="M243 501v-119l-106 -101l106 -104v-134l-194 191v77z" />
    <glyph glyph-name="guilsinglleft.cap" horiz-adv-x="299" 
d="M243 565v-119l-106 -101l106 -104v-134l-194 191v77z" />
    <glyph glyph-name="guilsinglright" unicode="&#x203a;" horiz-adv-x="299" 
d="M57 43v119l105 101l-106 104v134l194 -191l1 -77z" />
    <glyph glyph-name="guilsinglright.cap" horiz-adv-x="299" 
d="M57 107v119l105 101l-106 104v134l194 -191l1 -77z" />
    <glyph glyph-name="h" unicode="h" horiz-adv-x="579" 
d="M382 0v284c0 53 0 87 -5 109c-8 37 -32 52 -70 52c-33 0 -70 -14 -90 -43c-16 -25 -17 -45 -17 -99v-303h-130v746h130v-297c47 53 113 70 165 70c68 0 122 -22 140 -95c7 -29 8 -65 8 -117v-307h-131z" />
    <glyph glyph-name="h.sc" horiz-adv-x="610" 
d="M405 243h-201v-243h-131v528h131v-222h201v222h132v-528h-132v243z" />
    <glyph glyph-name="hbar" unicode="&#x127;" horiz-adv-x="579" 
d="M351 571h-151v-122c47 53 113 70 165 70c68 0 122 -22 140 -95c7 -29 8 -65 8 -117v-307h-131v284c0 53 0 87 -5 109c-8 37 -32 52 -70 52c-33 0 -70 -14 -90 -43c-16 -25 -17 -45 -17 -99v-303h-130v571h-57v63h57v112h130v-112h151v-63z" />
    <glyph glyph-name="hbar.sc" horiz-adv-x="610" 
d="M204 0h-131v365h-59v63h59v100h131v-100h201v100h132v-100h57v-63h-57v-365h-132v243h-201v-243zM204 306h201v59h-201v-59z" />
    <glyph glyph-name="hcircumflex" unicode="&#x125;" horiz-adv-x="579" 
d="M382 0v284c0 53 0 87 -5 109c-8 37 -32 52 -70 52c-33 0 -70 -14 -90 -43c-16 -25 -17 -45 -17 -99v-303h-130v746h130v-297c47 53 113 70 165 70c68 0 122 -22 140 -95c7 -29 8 -65 8 -117v-307h-131zM356 769h-101l-91 76l-88 -76h-90l135 138h100z" />
    <glyph glyph-name="hcircumflex.sc" horiz-adv-x="610" 
d="M405 243h-201v-243h-131v528h131v-222h201v222h132v-528h-132v243zM467 599h-88l-79 91l-75 -91h-83l111 152h102z" />
    <glyph glyph-name="hungarumlaut" unicode="&#x2dd;" horiz-adv-x="212" 
d="M-12 579h-71l87 142h121zM157 579h-71l87 142h121z" />
    <glyph glyph-name="hungarumlaut.cap" horiz-adv-x="212" 
d="M-37 766h-80l122 140h135zM153 766h-79l122 140h135z" />
    <glyph glyph-name="hungarumlaut.sc" horiz-adv-x="212" 
d="M-12 589h-71l87 142h121zM157 589h-71l87 142h121z" />
    <glyph glyph-name="hyphen" unicode="-" horiz-adv-x="348" 
d="M309 228h-270v94h270v-94z" />
    <glyph glyph-name="hyphen.cap" horiz-adv-x="348" 
d="M309 288h-270v94h270v-94z" />
    <glyph glyph-name="hyphen.denominator" horiz-adv-x="261" 
d="M226 146h-191v74h191v-74z" />
    <glyph glyph-name="hyphen.inferior" horiz-adv-x="261" 
d="M226 -13h-191v74h191v-74z" />
    <glyph glyph-name="hyphen.numerator" horiz-adv-x="261" 
d="M226 407h-191v74h191v-74z" />
    <glyph glyph-name="hyphen.superior" horiz-adv-x="261" 
d="M226 596h-191v74h191v-74z" />
    <glyph glyph-name="i" unicode="i" horiz-adv-x="270" 
d="M200 0h-130v506h130v-506zM204 662c0 -53 -24 -71 -70 -71c-45 0 -68 16 -68 71s24 73 71 73c44 0 67 -17 67 -73z" />
    <glyph glyph-name="i.sc" horiz-adv-x="277" 
d="M204 528v-528h-131v528h131z" />
    <glyph glyph-name="iacute" unicode="&#xed;" horiz-adv-x="270" 
d="M146 589h-87l113 147h144zM203 0h-132v506h132v-506z" />
    <glyph glyph-name="iacute.sc" horiz-adv-x="277" 
d="M204 528v-528h-131v528h131zM138 599h-88l114 147h144z" />
    <glyph glyph-name="ibreve" unicode="&#x12d;" horiz-adv-x="270" 
d="M-10 735h70c1 -61 29 -78 71 -78s76 17 78 78h69c0 -89 -42 -154 -148 -154c-102 0 -140 62 -140 154zM203 0h-132v506h132v-506z" />
    <glyph glyph-name="ibreve.sc" horiz-adv-x="277" 
d="M204 528v-528h-131v528h131zM-7 735h70c3 -47 30 -68 73 -68c41 0 73 17 76 68h69c-1 -79 -41 -144 -147 -144c-101 0 -141 63 -141 144z" />
    <glyph glyph-name="icircumflex" unicode="&#xee;" horiz-adv-x="270" 
d="M203 0h-132v506h132v-506zM298 589h-88l-79 91l-75 -91h-83l111 152h102z" />
    <glyph glyph-name="icircumflex.sc" horiz-adv-x="277" 
d="M204 528v-528h-131v528h131zM300 599h-88l-79 91l-75 -91h-83l111 152h102z" />
    <glyph glyph-name="idieresis" unicode="&#xef;" horiz-adv-x="270" 
d="M94 664c0 -44 -22 -61 -61 -61c-36 0 -58 14 -58 61s22 64 61 64c36 0 58 -15 58 -64zM291 664c0 -44 -22 -61 -62 -61c-36 0 -57 14 -57 61s22 64 61 64c36 0 58 -15 58 -64zM203 0h-132v506h132v-506z" />
    <glyph glyph-name="idieresis.sc" horiz-adv-x="277" 
d="M204 528v-528h-131v528h131zM99 677c0 -45 -22 -61 -61 -61c-36 0 -58 13 -58 61c0 47 22 63 61 63c36 0 58 -14 58 -63zM296 677c0 -45 -22 -61 -62 -61c-36 0 -57 13 -57 61c0 47 22 63 61 63c36 0 58 -14 58 -63z" />
    <glyph glyph-name="idotaccent" horiz-adv-x="270" 
d="M200 0h-130v506h130v-506zM204 662c0 -53 -24 -71 -70 -71c-45 0 -68 16 -68 71s24 73 71 73c44 0 67 -17 67 -73z" />
    <glyph glyph-name="idotaccent.sc" horiz-adv-x="277" 
d="M204 528v-528h-131v528h131zM198 677c0 -45 -23 -61 -62 -61c-36 0 -57 13 -57 61c0 47 22 63 61 63c36 0 58 -14 58 -63z" />
    <glyph glyph-name="igrave" unicode="&#xec;" horiz-adv-x="270" 
d="M220 589h-89l-163 147h143zM203 0h-132v506h132v-506z" />
    <glyph glyph-name="igrave.sc" horiz-adv-x="277" 
d="M204 528v-528h-131v528h131zM222 599h-92l-163 147h143z" />
    <glyph glyph-name="ij" unicode="&#x133;" horiz-adv-x="554" 
d="M200 0h-130v506h130v-506zM204 662c0 -53 -24 -71 -70 -71c-45 0 -68 16 -68 71s24 73 71 73c44 0 67 -17 67 -73zM349 -33v539h130v-535c0 -63 -8 -106 -30 -134c-28 -35 -80 -53 -151 -53c-26 0 -54 3 -76 7v66c14 -3 39 -5 53 -5c22 0 42 6 54 18c15 14 20 43 20 97z
M482 662c0 -53 -23 -71 -70 -71c-44 0 -67 16 -67 71s24 73 70 73c45 0 67 -17 67 -73z" />
    <glyph glyph-name="ij.sc" horiz-adv-x="632" 
d="M204 528v-528h-131v528h131zM291 0v75c25 -11 51 -15 72 -15s45 6 56 23c11 16 13 45 13 93v352h132v-354c0 -60 -8 -98 -28 -125c-28 -40 -81 -61 -153 -61c-35 0 -67 5 -92 12z" />
    <glyph glyph-name="imacron" unicode="&#x12b;" horiz-adv-x="270" 
d="M284 605h-300v75h300v-75zM203 0h-132v506h132v-506z" />
    <glyph glyph-name="imacron.sc" horiz-adv-x="277" 
d="M204 528v-528h-131v528h131zM288 617h-300v74h300v-74z" />
    <glyph glyph-name="infinity" unicode="&#x221e;" horiz-adv-x="766" 
d="M383 370c55 69 108 99 173 99c90 0 154 -66 154 -163c0 -99 -64 -167 -159 -167c-56 0 -110 27 -168 101c-55 -69 -106 -101 -174 -101c-87 0 -153 57 -153 160c0 104 67 171 161 171c62 0 115 -29 166 -100zM332 304c-43 58 -78 86 -116 86c-47 0 -79 -36 -79 -87
c0 -50 32 -84 77 -84c40 0 77 24 118 85zM434 305c52 -69 88 -87 118 -87c46 0 77 34 77 83c0 54 -31 88 -77 88c-38 0 -74 -25 -118 -84z" />
    <glyph glyph-name="integral" unicode="&#x222b;" horiz-adv-x="371" 
d="M139 -35c0 24 -1 63 -2 89l-18 502c-1 26 -2 56 -2 78c0 84 34 136 153 136c33 0 58 -2 75 -6v-71c-17 6 -31 9 -52 9c-33 0 -60 -13 -60 -73c0 -22 1 -48 2 -73l18 -503c1 -30 2 -59 2 -91c0 -93 -56 -136 -161 -136c-24 0 -46 2 -64 6v71c19 -6 38 -9 53 -9
c33 0 56 12 56 71z" />
    <glyph glyph-name="iogonek" unicode="&#x12f;" horiz-adv-x="270" 
d="M200 0h-24c-56 -42 -79 -76 -79 -126c0 -34 20 -57 47 -57c14 0 31 2 48 8l16 -41c-25 -13 -56 -21 -85 -21c-72 0 -107 42 -107 102c0 52 35 96 102 135h-48v506h130v-506zM204 662c0 -53 -24 -71 -70 -71c-45 0 -68 16 -68 71s24 73 71 73c44 0 67 -17 67 -73z" />
    <glyph glyph-name="iogonek.sc" horiz-adv-x="277" 
d="M204 528v-528h-23c-56 -43 -80 -78 -80 -130c0 -34 19 -58 47 -58c13 0 31 2 49 9l17 -43c-25 -13 -56 -22 -86 -22c-74 0 -109 43 -109 105c0 53 36 99 103 139h-49v528h131z" />
    <glyph glyph-name="itilde" unicode="&#x129;" horiz-adv-x="270" 
d="M20 592l-56 20c24 63 58 107 110 107c18 0 40 -9 71 -25l16 -8c16 -8 32 -13 43 -13c20 0 37 15 51 49l56 -22c-29 -72 -58 -106 -108 -106c-21 0 -40 6 -62 18l-21 10c-25 13 -39 19 -50 19c-22 0 -35 -14 -50 -49zM203 0h-132v506h132v-506z" />
    <glyph glyph-name="itilde.sc" horiz-adv-x="277" 
d="M204 528v-528h-131v528h131zM19 608l-50 17c24 64 55 104 106 104c18 0 39 -9 70 -25l17 -8c15 -8 30 -14 41 -14c20 0 38 14 52 45l49 -21c-29 -71 -54 -102 -102 -102c-21 0 -38 6 -61 18l-20 10c-26 13 -41 20 -52 20c-19 0 -35 -11 -50 -44z" />
    <glyph glyph-name="j" unicode="j" horiz-adv-x="279" 
d="M79 -33v539h130v-535c0 -63 -8 -106 -30 -134c-28 -35 -80 -53 -151 -53c-26 0 -54 3 -76 7v66c14 -3 39 -5 53 -5c22 0 42 6 54 18c15 14 20 43 20 97zM212 662c0 -53 -23 -71 -70 -71c-44 0 -67 16 -67 71s24 73 70 73c45 0 67 -17 67 -73z" />
    <glyph glyph-name="j.sc" horiz-adv-x="342" 
d="M2 0v75c25 -11 51 -15 72 -15s45 6 56 23c11 16 13 45 13 93v352h132v-354c0 -60 -8 -98 -28 -125c-28 -40 -81 -61 -153 -61c-35 0 -67 5 -92 12z" />
    <glyph glyph-name="jcircumflex" unicode="&#x135;" horiz-adv-x="279" 
d="M79 -33v539h130v-535c0 -63 -8 -106 -30 -134c-28 -35 -80 -53 -151 -53c-26 0 -54 3 -76 7v66c14 -3 39 -5 53 -5c22 0 42 6 54 18c15 14 20 43 20 97zM304 589h-88l-79 91l-74 -91h-84l111 152h103z" />
    <glyph glyph-name="jcircumflex.sc" horiz-adv-x="342" 
d="M2 0v75c25 -11 51 -15 72 -15s45 6 56 23c11 16 13 45 13 93v352h132v-354c0 -60 -8 -98 -28 -125c-28 -40 -81 -61 -153 -61c-35 0 -67 5 -92 12zM363 599h-88l-79 91l-75 -91h-83l111 152h102z" />
    <glyph glyph-name="k" unicode="k" horiz-adv-x="539" 
d="M200 0h-130v746h130v-468l198 228h118c-138 -145 -172 -179 -202 -208c36 -43 67 -81 226 -298h-157l-183 252v-252z" />
    <glyph glyph-name="k.sc" horiz-adv-x="534" 
d="M204 0h-131v528h131v-249l198 249h116c-149 -163 -174 -194 -201 -222c35 -47 61 -83 218 -306h-156l-175 259v-259z" />
    <glyph glyph-name="kcommaaccent" unicode="&#x137;" horiz-adv-x="539" 
d="M200 0h-130v746h130v-468l198 228h118c-138 -145 -172 -179 -202 -208c36 -43 67 -81 226 -298h-157l-183 252v-252zM335 -63c-2 -82 -32 -140 -74 -184h-71c32 50 46 99 46 184h99z" />
    <glyph glyph-name="kcommaaccent.sc" horiz-adv-x="534" 
d="M204 0h-131v528h131v-249l198 249h116c-149 -163 -174 -194 -201 -222c35 -47 61 -83 218 -306h-156l-175 259v-259zM334 -63c-2 -82 -32 -140 -74 -184h-71c32 50 46 99 46 184h99z" />
    <glyph glyph-name="kgreenlandic" unicode="&#x138;" horiz-adv-x="539" 
d="M200 0h-130v506h130v-228l198 228h118c-138 -145 -172 -178 -202 -208c36 -44 67 -81 226 -298h-157l-183 252v-252z" />
    <glyph glyph-name="kgreenlandic.sc" horiz-adv-x="534" 
d="M204 0h-131v528h131v-249l198 249h116c-149 -163 -174 -194 -201 -222c35 -47 61 -83 218 -306h-156l-175 259v-259z" />
    <glyph glyph-name="l" unicode="l" horiz-adv-x="271" 
d="M200 0h-130v746h130v-746z" />
    <glyph glyph-name="l.sc" horiz-adv-x="428" 
d="M204 528v-465h211v-63h-342v528h131z" />
    <glyph glyph-name="lacute" unicode="&#x13a;" horiz-adv-x="271" 
d="M200 0h-130v746h130v-746zM144 779h-98l135 138h154z" />
    <glyph glyph-name="lacute.sc" horiz-adv-x="428" 
d="M204 528v-465h211v-63h-342v528h131zM157 599h-88l114 147h144z" />
    <glyph glyph-name="lcaron" unicode="&#x13e;" horiz-adv-x="271" 
d="M200 0h-130v746h130v-746zM388 739c-2 -76 -32 -141 -74 -184h-70c32 49 43 106 44 184h100z" />
    <glyph glyph-name="lcaron.sc" horiz-adv-x="428" 
d="M204 528v-465h211v-63h-342v528h131zM397 546c-2 -76 -32 -141 -74 -184h-70c32 49 43 106 44 184h100z" />
    <glyph glyph-name="lcommaaccent" unicode="&#x13c;" horiz-adv-x="271" 
d="M200 0h-130v746h130v-746zM190 -63c-2 -82 -32 -140 -74 -184h-71c32 50 46 99 46 184h99z" />
    <glyph glyph-name="lcommaaccent.sc" horiz-adv-x="428" 
d="M204 528v-465h211v-63h-342v528h131zM281 -63c-2 -82 -32 -140 -74 -184h-71c32 50 46 99 46 184h99z" />
    <glyph glyph-name="ldot" unicode="&#x140;" horiz-adv-x="402" 
d="M200 0h-130v746h130v-746zM410 336c0 -56 -28 -78 -75 -78c-46 0 -74 19 -74 78c0 60 29 80 77 80c45 0 72 -19 72 -80z" />
    <glyph glyph-name="ldot.sc" horiz-adv-x="428" 
d="M204 528v-465h211v-63h-342v528h131zM421 274c0 -56 -27 -77 -75 -77c-45 0 -73 18 -73 77c0 60 29 80 76 80c46 0 72 -19 72 -80z" />
    <glyph glyph-name="less" unicode="&#x3c;" horiz-adv-x="735" 
d="M593 28l-479 230v98l479 233v-102l-387 -179l387 -175v-105z" />
    <glyph glyph-name="lessequal" unicode="&#x2264;" horiz-adv-x="735" 
d="M596 149l-479 210v99l479 213v-104l-379 -158l379 -154v-106zM596 0h-479v89h479v-89z" />
    <glyph glyph-name="logicalnot" unicode="&#xac;" horiz-adv-x="735" 
d="M623 36h-91v227h-452v89h543v-316z" />
    <glyph glyph-name="longs" unicode="&#x17f;" horiz-adv-x="278" 
d="M197 0h-131v552c0 64 13 116 36 144c31 39 83 59 149 59c32 0 59 -2 89 -7v-74c-17 5 -39 10 -56 10c-34 0 -55 -11 -68 -27c-13 -18 -19 -48 -19 -95v-562z" />
    <glyph glyph-name="lozenge" unicode="&#x25ca;" horiz-adv-x="735" 
d="M320 706h99l179 -351l-179 -355h-99l-182 354zM240 354l132 -257l125 258l-127 258z" />
    <glyph glyph-name="lslash" unicode="&#x142;" horiz-adv-x="271" 
d="M200 0h-130v306l-63 -42v72l63 43v367h130v-282l63 43v-73l-63 -43v-391z" />
    <glyph glyph-name="lslash.sc" horiz-adv-x="428" 
d="M320 338l-116 -79v-196h211v-63h-342v173l-60 -40v71l60 41v283h131v-197l116 79v-72z" />
    <glyph glyph-name="m" unicode="m" horiz-adv-x="882" 
d="M509 303v-303h-130v284c0 54 -1 87 -6 110c-9 36 -29 51 -68 51c-31 0 -67 -14 -85 -43c-15 -23 -18 -47 -18 -99v-303h-129v310c0 62 -4 139 -10 196h128c4 -15 8 -51 8 -62c44 56 111 75 165 75c63 0 116 -20 134 -81c44 57 115 81 172 81c67 0 122 -21 138 -95
c6 -29 8 -65 8 -117v-307h-131v284c0 54 -1 88 -5 110c-8 36 -31 51 -68 51c-31 0 -67 -14 -86 -43c-15 -23 -17 -47 -17 -99z" />
    <glyph glyph-name="m.sc" horiz-adv-x="713" 
d="M645 0h-118c-3 156 -4 242 -4 308c0 51 1 90 2 138c-21 -93 -31 -131 -120 -446h-111c-81 302 -93 349 -118 447c-2 -112 -3 -158 -10 -447h-99c14 508 15 528 15 528h168c78 -282 87 -322 109 -422c20 95 32 140 108 422h166s0 -8 12 -528z" />
    <glyph glyph-name="macron" unicode="&#xaf;" horiz-adv-x="212" 
d="M256 605h-300v75h300v-75z" />
    <glyph glyph-name="macron.cap" horiz-adv-x="212" 
d="M263 789h-314v73h314v-73z" />
    <glyph glyph-name="macron.sc" horiz-adv-x="212" 
d="M256 617h-300v74h300v-74z" />
    <glyph glyph-name="minus" unicode="&#x2212;" horiz-adv-x="735" 
d="M639 262h-543v90h543v-90z" />
    <glyph glyph-name="mu" unicode="&#xb5;" horiz-adv-x="582" 
d="M197 -211h-129v717h130v-291c0 -46 1 -78 6 -99c8 -36 35 -52 71 -52c34 0 68 15 89 43c17 24 17 48 17 100v299h129v-310c0 -62 3 -128 9 -196h-128c-3 18 -6 46 -7 61c-38 -52 -83 -66 -121 -66c-23 0 -52 7 -66 24v-230z" />
    <glyph glyph-name="multiply" unicode="&#xd7;" horiz-adv-x="735" 
d="M600 140l-62 -66l-171 169l-171 -171l-61 65l170 170l-173 173l63 66l173 -174l174 173l61 -65l-174 -172z" />
    <glyph glyph-name="n" unicode="n" horiz-adv-x="582" 
d="M385 0v285c0 53 0 86 -5 109c-7 36 -33 51 -71 51c-35 0 -70 -16 -89 -47c-16 -25 -18 -45 -18 -100v-298h-129v310c0 62 -4 139 -10 196h128c4 -15 8 -55 8 -65c44 58 115 78 168 78c67 0 125 -21 141 -95c6 -29 8 -65 8 -117v-307h-131z" />
    <glyph glyph-name="n.sc" horiz-adv-x="607" 
d="M535 0h-146c-163 291 -183 330 -219 401c3 -110 3 -153 3 -401h-100v528h169c150 -262 176 -310 201 -363c-3 92 -4 135 -4 363h96v-528z" />
    <glyph glyph-name="nacute" unicode="&#x144;" horiz-adv-x="582" 
d="M385 0v285c0 53 0 86 -5 109c-7 36 -33 51 -71 51c-35 0 -70 -16 -89 -47c-16 -25 -18 -45 -18 -100v-298h-129v310c0 62 -4 139 -10 196h128c4 -15 8 -55 8 -65c44 58 115 78 168 78c67 0 125 -21 141 -95c6 -29 8 -65 8 -117v-307h-131zM308 589h-87l113 147h144z" />
    <glyph glyph-name="nacute.sc" horiz-adv-x="607" 
d="M535 0h-146c-163 291 -183 330 -219 401c3 -110 3 -153 3 -401h-100v528h169c150 -262 176 -310 201 -363c-3 92 -4 135 -4 363h96v-528zM323 599h-88l114 147h144z" />
    <glyph glyph-name="napostrophe" unicode="&#x149;" horiz-adv-x="582" 
d="M385 0v285c0 53 0 86 -5 109c-7 36 -33 51 -71 51c-35 0 -70 -16 -89 -47c-16 -25 -18 -45 -18 -100v-298h-129v310c0 62 -4 139 -10 196h128c4 -15 8 -55 8 -65c44 58 115 78 168 78c67 0 125 -21 141 -95c6 -29 8 -65 8 -117v-307h-131zM186 751
c-2 -76 -32 -141 -74 -184h-70c32 49 43 106 44 184h100z" />
    <glyph glyph-name="ncaron" unicode="&#x148;" horiz-adv-x="582" 
d="M385 0v285c0 53 0 86 -5 109c-7 36 -33 51 -71 51c-35 0 -70 -16 -89 -47c-16 -25 -18 -45 -18 -100v-298h-129v310c0 62 -4 139 -10 196h128c4 -15 8 -55 8 -65c44 58 115 78 168 78c67 0 125 -21 141 -95c6 -29 8 -65 8 -117v-307h-131zM125 737h88l79 -90l74 90h84
l-112 -152h-102z" />
    <glyph glyph-name="ncaron.sc" horiz-adv-x="607" 
d="M535 0h-146c-163 291 -183 330 -219 401c3 -110 3 -153 3 -401h-100v528h169c150 -262 176 -310 201 -363c-3 92 -4 135 -4 363h96v-528zM146 747h88l79 -90l74 90h84l-112 -152h-102z" />
    <glyph glyph-name="ncommaaccent" unicode="&#x146;" horiz-adv-x="582" 
d="M385 0v285c0 53 0 86 -5 109c-7 36 -33 51 -71 51c-35 0 -70 -16 -89 -47c-16 -25 -18 -45 -18 -100v-298h-129v310c0 62 -4 139 -10 196h128c4 -15 8 -55 8 -65c44 58 115 78 168 78c67 0 125 -21 141 -95c6 -29 8 -65 8 -117v-307h-131zM348 -63
c-2 -82 -32 -140 -74 -184h-71c32 50 46 99 46 184h99z" />
    <glyph glyph-name="ncommaaccent.sc" horiz-adv-x="607" 
d="M535 0h-146c-163 291 -183 330 -219 401c3 -110 3 -153 3 -401h-100v528h169c150 -262 176 -310 201 -363c-3 92 -4 135 -4 363h96v-528zM359 -63c-2 -82 -32 -140 -74 -184h-71c32 50 46 99 46 184h99z" />
    <glyph glyph-name="nine" unicode="9" horiz-adv-x="586" 
d="M86 8v78c50 -21 96 -30 151 -30c107 0 165 82 169 252c-30 -43 -101 -71 -158 -71c-129 0 -206 65 -206 221c0 142 85 233 241 233c154 0 251 -67 251 -327c0 -290 -117 -379 -290 -379c-70 0 -116 9 -158 23zM174 456c0 -113 40 -151 109 -151c72 0 113 55 113 142
c0 108 -37 175 -113 175c-69 0 -109 -45 -109 -166z" />
    <glyph glyph-name="nine.denominator" 
d="M65 4v63c36 -15 63 -19 98 -19c64 0 95 35 99 134c-17 -25 -59 -40 -95 -40c-84 0 -133 38 -133 139c0 90 53 148 160 148c102 0 165 -45 165 -204c0 -181 -72 -235 -185 -235c-47 0 -79 6 -109 14zM135 282c0 -64 21 -87 58 -87c44 0 62 34 62 83c0 63 -18 96 -61 96
c-37 0 -59 -25 -59 -92z" />
    <glyph glyph-name="nine.fitted" horiz-adv-x="601" 
d="M89 9v78c51 -22 96 -30 151 -30c107 0 165 81 169 251c-29 -43 -100 -71 -158 -71c-129 0 -205 66 -205 221c0 142 84 233 240 233c154 0 251 -66 251 -326c0 -291 -116 -379 -290 -379c-70 0 -115 8 -158 23zM177 456c0 -112 41 -150 109 -150c72 0 113 54 113 142
c0 107 -36 174 -113 174c-69 0 -109 -45 -109 -166z" />
    <glyph glyph-name="nine.inferior" unicode="&#x2089;" 
d="M65 -155v63c36 -15 63 -19 98 -19c64 0 95 35 99 134c-17 -25 -59 -40 -95 -40c-84 0 -133 38 -133 139c0 90 53 148 160 148c102 0 165 -45 165 -204c0 -181 -72 -235 -185 -235c-47 0 -79 6 -109 14zM135 123c0 -64 21 -87 58 -87c44 0 62 34 62 83c0 63 -18 96 -61 96
c-37 0 -59 -25 -59 -92z" />
    <glyph glyph-name="nine.numerator" 
d="M65 265v63c36 -15 63 -19 98 -19c64 0 95 35 99 134c-17 -25 -59 -40 -95 -40c-84 0 -133 38 -133 139c0 90 53 148 160 148c102 0 165 -45 165 -204c0 -181 -72 -235 -185 -235c-47 0 -79 6 -109 14zM135 543c0 -64 21 -87 58 -87c44 0 62 34 62 83c0 63 -18 96 -61 96
c-37 0 -59 -25 -59 -92z" />
    <glyph glyph-name="nine.oldstyle" horiz-adv-x="580" 
d="M175 306c0 -114 35 -149 103 -149s113 64 113 142c0 108 -38 175 -110 175c-69 0 -106 -48 -106 -168zM105 -166v72c17 -2 39 -3 57 -3c134 0 228 85 239 264c-27 -49 -94 -82 -159 -82c-123 0 -195 64 -195 222c0 142 81 234 235 234c153 0 242 -77 242 -329
c0 -297 -174 -380 -354 -380c-21 0 -45 1 -65 2z" />
    <glyph glyph-name="nine.superior" unicode="&#x2079;" 
d="M65 454v63c36 -15 63 -19 98 -19c64 0 95 35 99 134c-17 -25 -59 -40 -95 -40c-84 0 -133 38 -133 139c0 90 53 148 160 148c102 0 165 -45 165 -204c0 -181 -72 -235 -185 -235c-47 0 -79 6 -109 14zM135 732c0 -64 21 -87 58 -87c44 0 62 34 62 83c0 63 -18 96 -61 96
c-37 0 -59 -25 -59 -92z" />
    <glyph glyph-name="nine.taboldstyle" horiz-adv-x="553" 
d="M163 307c0 -115 33 -151 101 -151s111 64 111 142c0 108 -36 177 -107 177c-67 0 -105 -48 -105 -168zM92 -166v74c17 -2 38 -3 57 -3c136 0 226 84 236 263c-29 -51 -95 -83 -156 -83c-122 0 -193 64 -193 222c0 141 81 234 233 234c153 0 240 -76 240 -328
c0 -298 -173 -381 -352 -381c-22 0 -45 1 -65 2z" />
    <glyph glyph-name="notequal" unicode="&#x2260;" horiz-adv-x="735" 
d="M546 593l-69 -139h162v-89h-205l-58 -117h263v-89h-306l-76 -153h-77l76 153h-159v89h202l58 117h-260v89h303l69 139h77z" />
    <glyph glyph-name="ntilde" unicode="&#xf1;" horiz-adv-x="582" 
d="M385 0v285c0 53 0 86 -5 109c-7 36 -33 51 -71 51c-35 0 -70 -16 -89 -47c-16 -25 -18 -45 -18 -100v-298h-129v310c0 62 -4 139 -10 196h128c4 -15 8 -55 8 -65c44 58 115 78 168 78c67 0 125 -21 141 -95c6 -29 8 -65 8 -117v-307h-131zM175 592l-56 20
c24 63 58 107 110 107c18 0 40 -9 71 -25l16 -8c16 -8 32 -13 43 -13c20 0 37 15 51 49l56 -22c-29 -72 -58 -106 -108 -106c-21 0 -40 6 -62 18l-21 10c-25 13 -39 19 -50 19c-22 0 -35 -14 -50 -49z" />
    <glyph glyph-name="ntilde.sc" horiz-adv-x="607" 
d="M535 0h-146c-163 291 -183 330 -219 401c3 -110 3 -153 3 -401h-100v528h169c150 -262 176 -310 201 -363c-3 92 -4 135 -4 363h96v-528zM199 599l-50 17c24 64 55 104 106 104c18 0 39 -9 70 -25l17 -8c15 -8 30 -14 41 -14c20 0 38 14 52 45l49 -21
c-29 -71 -54 -102 -102 -102c-21 0 -38 6 -61 18l-20 10c-26 13 -41 20 -52 20c-19 0 -35 -11 -50 -44z" />
    <glyph glyph-name="numbersign" unicode="#" horiz-adv-x="635" 
d="M209 -10h-61l30 210h-138v93h151l15 104h-142v93h155l28 195h61l-28 -195h119l28 195h61l-28 -195h135v-93h-148l-15 -104h139v-93h-152l-30 -210h-61l30 210h-119zM267 397l-15 -104h119l15 104h-119z" />
    <glyph glyph-name="numbersign.oldstyle" horiz-adv-x="607" 
d="M542 139h-142l-28 -196h-58l28 196h-116l-28 -196h-57l28 196h-128v89h141l14 95h-131v88h144l27 187h58l-28 -187h116l27 187h57l-27 -187h126v-88h-139l-13 -95h129v-89zM253 323l-14 -95h116l14 95h-116z" />
    <glyph glyph-name="o" unicode="o" horiz-adv-x="564" 
d="M524 255c0 -173 -82 -267 -242 -267c-159 0 -242 85 -242 264c0 173 87 268 250 268c158 0 234 -85 234 -265zM391 254c0 155 -32 207 -105 207c-75 0 -112 -56 -112 -210c0 -150 37 -204 109 -204c76 0 108 61 108 207z" />
    <glyph glyph-name="o.sc" horiz-adv-x="590" 
d="M548 271c0 -199 -91 -283 -255 -283c-167 0 -251 84 -251 275c0 198 107 277 259 277c167 0 247 -83 247 -269zM411 265c0 158 -30 217 -114 217c-78 0 -118 -57 -118 -218c0 -168 38 -217 115 -217c80 0 117 54 117 218z" />
    <glyph glyph-name="oacute" unicode="&#xf3;" horiz-adv-x="564" 
d="M524 255c0 -173 -82 -267 -242 -267c-159 0 -242 85 -242 264c0 173 87 268 250 268c158 0 234 -85 234 -265zM391 254c0 155 -32 207 -105 207c-75 0 -112 -56 -112 -210c0 -150 37 -204 109 -204c76 0 108 61 108 207zM282 589h-87l113 147h144z" />
    <glyph glyph-name="oacute.sc" horiz-adv-x="590" 
d="M548 271c0 -199 -91 -283 -255 -283c-167 0 -251 84 -251 275c0 198 107 277 259 277c167 0 247 -83 247 -269zM411 265c0 158 -30 217 -114 217c-78 0 -118 -57 -118 -218c0 -168 38 -217 115 -217c80 0 117 54 117 218zM298 599h-88l114 147h144z" />
    <glyph glyph-name="obreve" unicode="&#x14f;" horiz-adv-x="564" 
d="M524 255c0 -173 -82 -267 -242 -267c-159 0 -242 85 -242 264c0 173 87 268 250 268c158 0 234 -85 234 -265zM391 254c0 155 -32 207 -105 207c-75 0 -112 -56 -112 -210c0 -150 37 -204 109 -204c76 0 108 61 108 207zM140 735h70c1 -61 29 -78 71 -78s76 17 78 78h69
c0 -89 -42 -154 -148 -154c-102 0 -140 62 -140 154z" />
    <glyph glyph-name="obreve.sc" horiz-adv-x="590" 
d="M548 271c0 -199 -91 -283 -255 -283c-167 0 -251 84 -251 275c0 198 107 277 259 277c167 0 247 -83 247 -269zM411 265c0 158 -30 217 -114 217c-78 0 -118 -57 -118 -218c0 -168 38 -217 115 -217c80 0 117 54 117 218zM154 735h70c3 -47 30 -68 73 -68
c41 0 73 17 76 68h69c-1 -79 -41 -144 -147 -144c-101 0 -141 63 -141 144z" />
    <glyph glyph-name="ocircumflex" unicode="&#xf4;" horiz-adv-x="564" 
d="M524 255c0 -173 -82 -267 -242 -267c-159 0 -242 85 -242 264c0 173 87 268 250 268c158 0 234 -85 234 -265zM391 254c0 155 -32 207 -105 207c-75 0 -112 -56 -112 -210c0 -150 37 -204 109 -204c76 0 108 61 108 207zM440 589h-88l-79 91l-75 -91h-83l111 152h102z
" />
    <glyph glyph-name="ocircumflex.sc" horiz-adv-x="590" 
d="M548 271c0 -199 -91 -283 -255 -283c-167 0 -251 84 -251 275c0 198 107 277 259 277c167 0 247 -83 247 -269zM411 265c0 158 -30 217 -114 217c-78 0 -118 -57 -118 -218c0 -168 38 -217 115 -217c80 0 117 54 117 218zM462 599h-88l-79 91l-75 -91h-83l111 152h102z
" />
    <glyph glyph-name="odieresis" unicode="&#xf6;" horiz-adv-x="564" 
d="M524 255c0 -173 -82 -267 -242 -267c-159 0 -242 85 -242 264c0 173 87 268 250 268c158 0 234 -85 234 -265zM391 254c0 155 -32 207 -105 207c-75 0 -112 -56 -112 -210c0 -150 37 -204 109 -204c76 0 108 61 108 207zM243 664c0 -44 -22 -61 -61 -61
c-36 0 -58 14 -58 61s22 64 61 64c36 0 58 -15 58 -64zM440 664c0 -44 -22 -61 -62 -61c-36 0 -57 14 -57 61s22 64 61 64c36 0 58 -15 58 -64z" />
    <glyph glyph-name="odieresis.sc" horiz-adv-x="590" 
d="M548 271c0 -199 -91 -283 -255 -283c-167 0 -251 84 -251 275c0 198 107 277 259 277c167 0 247 -83 247 -269zM411 265c0 158 -30 217 -114 217c-78 0 -118 -57 -118 -218c0 -168 38 -217 115 -217c80 0 117 54 117 218zM259 677c0 -45 -22 -61 -61 -61
c-36 0 -58 13 -58 61c0 47 22 63 61 63c36 0 58 -14 58 -63zM456 677c0 -45 -22 -61 -62 -61c-36 0 -57 13 -57 61c0 47 22 63 61 63c36 0 58 -14 58 -63z" />
    <glyph glyph-name="oe" unicode="&#x153;" horiz-adv-x="859" 
d="M830 243h-315v-8c2 -65 29 -177 137 -177c71 0 118 19 159 37v-72c-36 -18 -95 -36 -181 -36c-84 0 -143 27 -182 78c-37 -47 -96 -77 -169 -77c-158 0 -239 85 -239 264c0 173 87 268 250 268c76 0 136 -28 167 -75c32 43 88 75 160 75c97 0 147 -32 181 -92
c23 -41 32 -101 32 -163v-22zM390 254c-1 157 -33 207 -105 207c-73 0 -111 -56 -111 -210c0 -150 37 -204 109 -204c75 0 107 61 107 207zM700 307c0 121 -23 156 -87 156c-44 0 -94 -35 -96 -156h183z" />
    <glyph glyph-name="oe.sc" horiz-adv-x="781" 
d="M741 464h-223v-157h211v-64h-211v-179h238v-64h-367c-26 -4 -58 -8 -95 -8c-166 0 -252 71 -252 271s105 274 257 274c32 0 61 -3 89 -9h353v-64zM308 50c37 0 61 4 80 10v407c-30 9 -49 12 -81 12c-83 0 -128 -47 -128 -215c0 -164 39 -214 129 -214z" />
    <glyph glyph-name="ogonek" unicode="&#x2db;" horiz-adv-x="212" 
d="M177 5c-61 -45 -86 -79 -86 -131c0 -34 20 -57 47 -57c14 0 31 2 48 8l16 -41c-25 -13 -56 -21 -85 -21c-72 0 -107 42 -107 102c0 54 39 100 111 140h56z" />
    <glyph glyph-name="ogonek.cap" horiz-adv-x="212" 
d="M179 5c-62 -46 -88 -82 -88 -137c0 -35 19 -59 47 -59c13 0 32 2 49 9l17 -43c-25 -14 -56 -22 -86 -22c-75 0 -111 43 -111 106c0 57 40 104 114 146h58z" />
    <glyph glyph-name="ogonek.sc" horiz-adv-x="212" 
d="M178 5c-61 -46 -87 -81 -87 -135c0 -34 19 -58 47 -58c13 0 31 2 49 9l17 -43c-25 -13 -56 -22 -86 -22c-74 0 -109 43 -109 105c0 55 39 103 112 144h57z" />
    <glyph glyph-name="ograve" unicode="&#xf2;" horiz-adv-x="564" 
d="M524 255c0 -173 -82 -267 -242 -267c-159 0 -242 85 -242 264c0 173 87 268 250 268c158 0 234 -85 234 -265zM391 254c0 155 -32 207 -105 207c-75 0 -112 -56 -112 -210c0 -150 37 -204 109 -204c76 0 108 61 108 207zM360 589h-89l-163 147h143z" />
    <glyph glyph-name="ograve.sc" horiz-adv-x="590" 
d="M548 271c0 -199 -91 -283 -255 -283c-167 0 -251 84 -251 275c0 198 107 277 259 277c167 0 247 -83 247 -269zM411 265c0 158 -30 217 -114 217c-78 0 -118 -57 -118 -218c0 -168 38 -217 115 -217c80 0 117 54 117 218zM389 599h-92l-163 147h143z" />
    <glyph glyph-name="ohungarumlaut" unicode="&#x151;" horiz-adv-x="564" 
d="M524 255c0 -173 -82 -267 -242 -267c-159 0 -242 85 -242 264c0 173 87 268 250 268c158 0 234 -85 234 -265zM391 254c0 155 -32 207 -105 207c-75 0 -112 -56 -112 -210c0 -150 37 -204 109 -204c76 0 108 61 108 207zM224 579h-71l87 142h121zM393 579h-71l87 142h121
z" />
    <glyph glyph-name="ohungarumlaut.sc" horiz-adv-x="590" 
d="M548 271c0 -199 -91 -283 -255 -283c-167 0 -251 84 -251 275c0 198 107 277 259 277c167 0 247 -83 247 -269zM411 265c0 158 -30 217 -114 217c-78 0 -118 -57 -118 -218c0 -168 38 -217 115 -217c80 0 117 54 117 218zM225 589h-71l87 142h121zM394 589h-71l87 142
h121z" />
    <glyph glyph-name="omacron" unicode="&#x14d;" horiz-adv-x="564" 
d="M524 255c0 -173 -82 -267 -242 -267c-159 0 -242 85 -242 264c0 173 87 268 250 268c158 0 234 -85 234 -265zM391 254c0 155 -32 207 -105 207c-75 0 -112 -56 -112 -210c0 -150 37 -204 109 -204c76 0 108 61 108 207zM430 605h-300v75h300v-75z" />
    <glyph glyph-name="omacron.sc" horiz-adv-x="590" 
d="M548 271c0 -199 -91 -283 -255 -283c-167 0 -251 84 -251 275c0 198 107 277 259 277c167 0 247 -83 247 -269zM411 265c0 158 -30 217 -114 217c-78 0 -118 -57 -118 -218c0 -168 38 -217 115 -217c80 0 117 54 117 218zM446 617h-300v74h300v-74z" />
    <glyph glyph-name="one" unicode="1" horiz-adv-x="586" 
d="M392 0h-136v585c-34 -20 -95 -53 -141 -74v77c56 27 113 57 164 88h113v-676z" />
    <glyph glyph-name="one.denominator" 
d="M80 295v61c38 17 79 39 109 59h83v-415h-101v340c-25 -14 -61 -32 -91 -45z" />
    <glyph glyph-name="one.fitted" horiz-adv-x="432" 
d="M308 0h-136v585c-34 -21 -90 -51 -136 -72v76c56 28 108 56 159 87h113v-676z" />
    <glyph glyph-name="one.inferior" unicode="&#x2081;" 
d="M80 136v61c38 17 79 39 109 59h83v-415h-101v340c-25 -14 -61 -32 -91 -45z" />
    <glyph glyph-name="one.numerator" 
d="M80 556v61c38 17 79 39 109 59h83v-415h-101v340c-25 -14 -61 -32 -91 -45z" />
    <glyph glyph-name="one.oldstyle" horiz-adv-x="453" 
d="M320 0h-132v433c-36 -23 -84 -47 -136 -72v75c59 28 114 61 158 90h110v-526z" />
    <glyph glyph-name="one.taboldstyle" horiz-adv-x="553" 
d="M364 0h-131v433c-37 -23 -85 -47 -137 -72v75c59 28 114 61 158 90h110v-526z" />
    <glyph glyph-name="oneeighth" unicode="&#x215b;" horiz-adv-x="879" 
d="M513 676h74l-304 -676h-74zM54 556v61c38 17 79 39 109 59h83v-415h-101v340c-25 -14 -61 -32 -91 -45zM805 314c0 -43 -21 -75 -76 -93c61 -15 84 -53 84 -105c0 -76 -54 -127 -165 -127s-161 45 -161 125c0 51 23 90 88 105c-59 17 -75 51 -75 95c0 67 55 113 155 113
c99 0 149 -41 150 -113zM712 117c0 56 -25 76 -61 76c-37 0 -63 -22 -63 -75s25 -73 63 -73c39 0 61 24 61 72zM704 312c0 40 -16 61 -54 61c-37 0 -54 -24 -54 -63c0 -46 22 -65 54 -65c29 0 54 15 54 67z" />
    <glyph glyph-name="onefifth" horiz-adv-x="879" 
d="M512 676h74l-304 -676h-74zM55 556v61c38 17 79 39 109 59h83v-415h-101v340c-25 -14 -61 -32 -91 -45zM689 130c0 60 -34 77 -73 77c-35 0 -65 -6 -109 -26l16 234h244v-75h-194l-5 -82c22 7 54 12 86 12c88 0 139 -44 139 -137c0 -104 -69 -144 -172 -144
c-39 0 -92 6 -129 21v62c46 -21 85 -26 118 -26c54 0 79 28 79 84z" />
    <glyph glyph-name="onehalf" unicode="&#xbd;" horiz-adv-x="879" 
d="M519 676h74l-304 -676h-74zM61 556v61c38 17 79 39 109 59h83v-415h-101v340c-25 -14 -61 -32 -91 -45zM637 428c110 0 157 -46 157 -122c0 -42 -23 -86 -68 -128c-40 -38 -93 -79 -134 -104c48 1 144 1 211 1v-75h-315v55c63 52 108 90 155 141c31 33 44 71 44 104
c0 40 -20 71 -70 71c-33 0 -60 -6 -104 -27v60c35 15 84 24 124 24z" />
    <glyph glyph-name="onequarter" unicode="&#xbc;" horiz-adv-x="879" 
d="M518 676h74l-304 -676h-74zM60 556v61c38 17 79 39 109 59h83v-415h-101v340c-25 -14 -61 -32 -91 -45zM516 160h117c0 92 0 126 1 169c-20 -30 -45 -66 -118 -169zM730 0h-97v96h-191v56l191 263h97v-255h61v-64h-61v-96z" />
    <glyph glyph-name="onesuperior" unicode="&#xb9;" 
d="M80 745v61c38 17 79 39 109 59h83v-415h-101v340c-25 -14 -61 -32 -91 -45z" />
    <glyph glyph-name="onethird" unicode="&#x2153;" horiz-adv-x="879" 
d="M523 676h74l-304 -676h-74zM69 556v61c38 17 79 39 109 59h83v-415h-101v340c-25 -14 -61 -32 -91 -45zM632 -11c-41 0 -88 5 -125 22v61c45 -20 83 -25 116 -25c53 0 78 27 78 70c0 46 -25 70 -81 70h-32v54h34c58 0 73 36 73 68c0 47 -26 62 -68 62
c-23 0 -62 -7 -108 -28v61c40 16 84 24 126 24c100 0 150 -38 150 -114c0 -43 -27 -82 -86 -96c61 -9 96 -47 96 -99c0 -92 -63 -130 -173 -130z" />
    <glyph glyph-name="ordfeminine" unicode="&#xaa;" horiz-adv-x="366" 
d="M241 280c-1 6 -4 28 -4 36c-25 -29 -56 -43 -98 -43c-68 0 -111 39 -111 98c0 70 49 110 181 110h21v22c0 20 -3 37 -9 45c-10 14 -28 19 -50 19c-29 0 -67 -5 -110 -29v54c32 15 84 26 127 26c42 0 77 -5 98 -20c24 -17 37 -39 37 -98v-146c0 -23 0 -46 5 -74h-87z
M230 438l-23 -1c-58 -1 -84 -24 -84 -61c0 -34 18 -54 49 -54c21 0 38 9 49 25c8 11 9 26 9 40v51z" />
    <glyph glyph-name="ordmasculine" unicode="&#xba;" horiz-adv-x="370" 
d="M344 445c0 -111 -49 -174 -161 -174c-103 0 -156 58 -156 173c0 119 58 174 161 174c107 0 156 -52 156 -173zM252 445c0 90 -21 123 -66 123c-42 0 -66 -37 -66 -125c0 -89 23 -123 66 -123c46 0 66 42 66 125z" />
    <glyph glyph-name="oslash" unicode="&#xf8;" horiz-adv-x="564" 
d="M133 -69l-52 26l42 76c-55 43 -83 115 -83 219c0 173 87 268 250 268c35 0 67 -5 94 -13l41 74l52 -26l-41 -74c59 -41 88 -116 88 -226c0 -173 -82 -267 -242 -267c-41 0 -77 6 -108 17zM391 254c0 53 -4 93 -12 124l-166 -302c17 -21 41 -29 70 -29
c76 0 108 61 108 207zM174 251c0 -44 3 -80 9 -108l164 297c-16 15 -36 21 -61 21c-75 0 -112 -56 -112 -210z" />
    <glyph glyph-name="oslash.sc" horiz-adv-x="590" 
d="M131 -65l-51 27l43 74c-54 44 -81 118 -81 227c0 198 107 277 259 277c40 0 76 -5 106 -15l47 80l51 -26l-46 -80c59 -41 89 -116 89 -228c0 -199 -91 -283 -255 -283c-46 0 -86 7 -120 20zM411 265c0 55 -4 98 -12 131l-184 -316c19 -24 45 -33 79 -33
c80 0 117 54 117 218zM179 264c0 -48 3 -86 9 -116l180 309c-18 17 -41 25 -71 25c-78 0 -118 -57 -118 -218z" />
    <glyph glyph-name="oslashacute" unicode="&#x1ff;" horiz-adv-x="564" 
d="M297 589h-87l113 147h144zM133 -69l-52 26l42 76c-55 43 -83 115 -83 219c0 173 87 268 250 268c35 0 67 -5 94 -13l41 74l52 -26l-41 -74c59 -41 88 -116 88 -226c0 -173 -82 -267 -242 -267c-41 0 -77 6 -108 17zM391 254c0 53 -4 93 -12 124l-166 -302
c17 -21 41 -29 70 -29c76 0 108 61 108 207zM174 251c0 -44 3 -80 9 -108l164 297c-16 15 -36 21 -61 21c-75 0 -112 -56 -112 -210z" />
    <glyph glyph-name="oslashacute.sc" horiz-adv-x="590" 
d="M313 599h-88l114 147h144zM131 -65l-51 27l43 74c-54 44 -81 118 -81 227c0 198 107 277 259 277c40 0 76 -5 106 -15l47 80l51 -26l-46 -80c59 -41 89 -116 89 -228c0 -199 -91 -283 -255 -283c-46 0 -86 7 -120 20zM411 265c0 55 -4 98 -12 131l-184 -316
c19 -24 45 -33 79 -33c80 0 117 54 117 218zM179 264c0 -48 3 -86 9 -116l180 309c-18 17 -41 25 -71 25c-78 0 -118 -57 -118 -218z" />
    <glyph glyph-name="otilde" unicode="&#xf5;" horiz-adv-x="564" 
d="M524 255c0 -173 -82 -267 -242 -267c-159 0 -242 85 -242 264c0 173 87 268 250 268c158 0 234 -85 234 -265zM391 254c0 155 -32 207 -105 207c-75 0 -112 -56 -112 -210c0 -150 37 -204 109 -204c76 0 108 61 108 207zM161 592l-56 20c24 63 58 107 110 107
c18 0 40 -9 71 -25l16 -8c16 -8 32 -13 43 -13c20 0 37 15 51 49l56 -22c-29 -72 -58 -106 -108 -106c-21 0 -40 6 -62 18l-21 10c-25 13 -39 19 -50 19c-22 0 -35 -14 -50 -49z" />
    <glyph glyph-name="otilde.sc" horiz-adv-x="590" 
d="M548 271c0 -199 -91 -283 -255 -283c-167 0 -251 84 -251 275c0 198 107 277 259 277c167 0 247 -83 247 -269zM411 265c0 158 -30 217 -114 217c-78 0 -118 -57 -118 -218c0 -168 38 -217 115 -217c80 0 117 54 117 218zM183 595l-50 17c24 64 55 104 106 104
c18 0 39 -9 70 -25l17 -8c15 -8 30 -14 41 -14c20 0 38 14 52 45l49 -21c-29 -71 -54 -102 -102 -102c-21 0 -38 6 -61 18l-20 10c-26 13 -41 20 -52 20c-19 0 -35 -11 -50 -44z" />
    <glyph glyph-name="p" unicode="p" horiz-adv-x="577" 
d="M199 447c33 43 86 71 149 71c122 0 190 -83 190 -257c0 -205 -97 -270 -207 -270c-52 0 -96 13 -129 48v-253h-130v559c0 51 -4 120 -9 161h127c4 -16 8 -48 9 -59zM200 250c0 -89 6 -137 21 -158c21 -28 50 -34 80 -34c59 0 103 45 103 202c0 144 -40 189 -98 189
c-30 0 -60 -14 -77 -36c-22 -27 -29 -68 -29 -163z" />
    <glyph glyph-name="p.sc" horiz-adv-x="538" 
d="M204 213v-213h-131v528h204c52 0 100 -5 130 -15c64 -20 93 -65 93 -135c0 -71 -26 -126 -96 -148c-33 -11 -82 -17 -129 -17h-71zM204 276h57c30 0 56 5 70 15c21 15 31 43 31 82c0 32 -7 65 -33 80c-16 9 -43 13 -69 13h-56v-190z" />
    <glyph glyph-name="paragraph" unicode="&#xb6;" horiz-adv-x="562" 
d="M325 706h160v-850h-68v801h-81v-801h-68v382c-152 0 -231 98 -231 227c0 145 82 241 288 241z" />
    <glyph glyph-name="parenleft" unicode="(" horiz-adv-x="333" 
d="M326 -205c-186 45 -271 206 -271 491c0 287 108 435 272 481v-58c-92 -48 -156 -145 -156 -420c0 -292 66 -390 155 -434v-60z" />
    <glyph glyph-name="parenleft.cap" horiz-adv-x="333" 
d="M326 -120c-185 44 -271 183 -271 461s108 401 272 448v-58c-92 -48 -156 -120 -156 -387c0 -285 66 -361 155 -404v-60z" />
    <glyph glyph-name="parenleft.denominator" horiz-adv-x="229" 
d="M229 -106c-130 27 -189 124 -189 302s74 268 189 297v-37c-64 -29 -105 -88 -105 -258c0 -181 43 -240 105 -267v-37z" />
    <glyph glyph-name="parenleft.inferior" unicode="&#x208d;" horiz-adv-x="229" 
d="M229 -264c-130 27 -189 123 -189 302c0 177 74 268 189 296v-36c-64 -29 -105 -88 -105 -258c0 -181 43 -240 105 -267v-37z" />
    <glyph glyph-name="parenleft.numerator" horiz-adv-x="229" 
d="M229 154c-130 27 -189 124 -189 302s74 268 189 297v-36c-64 -30 -105 -89 -105 -259c0 -181 43 -239 105 -267v-37z" />
    <glyph glyph-name="parenleft.superior" unicode="&#x207d;" horiz-adv-x="229" 
d="M229 344c-130 27 -189 124 -189 302s74 268 189 297v-36c-64 -30 -105 -89 -105 -259c0 -181 43 -239 105 -267v-37z" />
    <glyph glyph-name="parenright" unicode=")" horiz-adv-x="333" 
d="M7 767c186 -45 271 -206 271 -490c0 -287 -108 -435 -272 -481v58c92 48 156 145 156 420c0 292 -66 390 -155 433v60z" />
    <glyph glyph-name="parenright.cap" horiz-adv-x="333" 
d="M7 789c185 -45 271 -184 271 -462c0 -277 -108 -401 -272 -447v58c92 47 156 119 156 387c0 284 -66 360 -155 404v60z" />
    <glyph glyph-name="parenright.denominator" horiz-adv-x="229" 
d="M0 493c129 -27 189 -124 189 -302s-74 -268 -189 -297v36c64 30 105 89 105 259c0 181 -43 240 -105 267v37z" />
    <glyph glyph-name="parenright.inferior" unicode="&#x208e;" horiz-adv-x="229" 
d="M0 334c129 -26 189 -123 189 -302c0 -177 -74 -267 -189 -296v36c64 30 105 89 105 258c0 181 -43 240 -105 267v37z" />
    <glyph glyph-name="parenright.numerator" horiz-adv-x="229" 
d="M0 753c129 -27 189 -124 189 -302s-74 -268 -189 -297v36c64 30 105 89 105 259c0 181 -43 240 -105 267v37z" />
    <glyph glyph-name="parenright.superior" unicode="&#x207e;" horiz-adv-x="229" 
d="M0 943c129 -27 189 -124 189 -302s-74 -268 -189 -297v36c64 30 105 89 105 259c0 181 -43 240 -105 267v37z" />
    <glyph glyph-name="partialdiff" unicode="&#x2202;" horiz-adv-x="578" 
d="M161 626l-13 66c45 13 95 20 132 20c151 0 233 -63 233 -310c0 -274 -63 -415 -245 -415c-125 0 -217 73 -217 210c0 163 97 242 213 242c45 0 91 -12 121 -40c1 12 1 25 1 35c0 171 -55 211 -124 211c-28 0 -67 -6 -101 -19zM380 318c-26 44 -66 55 -101 55
c-51 0 -104 -46 -104 -178c0 -110 48 -141 93 -141c56 0 99 45 110 208c1 20 2 44 2 56z" />
    <glyph glyph-name="percent" unicode="%" horiz-adv-x="879" 
d="M375 469c0 -149 -62 -219 -174 -219c-109 0 -170 62 -170 218c0 154 65 220 174 220c113 0 170 -63 170 -219zM273 471c0 135 -22 162 -69 162c-43 0 -67 -34 -67 -165c0 -128 21 -163 68 -163c48 0 68 39 68 166zM848 209c0 -149 -62 -219 -175 -219
c-108 0 -169 62 -169 218c0 154 66 220 174 220c113 0 170 -63 170 -219zM745 211c0 135 -21 162 -68 162c-43 0 -68 -34 -68 -165c0 -128 22 -163 69 -163c48 0 67 39 67 166zM546 676h72l-286 -676h-71z" />
    <glyph glyph-name="percent.oldstyle" horiz-adv-x="863" 
d="M362 421c0 -140 -68 -198 -167 -198c-100 0 -165 54 -165 196c0 140 74 197 169 197c102 0 163 -55 163 -195zM267 421c0 111 -24 141 -68 141c-42 0 -72 -35 -72 -143c0 -111 26 -142 71 -142s69 41 69 144zM555 627h75l-321 -647h-75zM833 187
c0 -140 -69 -198 -168 -198c-100 0 -164 54 -164 196c0 140 73 197 169 197c102 0 163 -55 163 -195zM738 187c0 111 -24 141 -69 141c-42 0 -71 -35 -71 -143c0 -111 26 -142 71 -142s69 41 69 144z" />
    <glyph glyph-name="period" unicode="." horiz-adv-x="266" 
d="M211 69c0 -58 -29 -79 -79 -79c-48 0 -77 18 -77 79c0 60 30 81 80 81c48 0 76 -20 76 -81z" />
    <glyph glyph-name="period.denominator" horiz-adv-x="165" 
d="M137 50c0 -40 -21 -56 -57 -56c-33 0 -53 13 -53 56s21 58 56 58c34 0 54 -13 54 -58z" />
    <glyph glyph-name="period.inferior" horiz-adv-x="165" 
d="M137 -109c0 -41 -21 -56 -57 -56c-33 0 -53 12 -53 56c0 43 21 58 56 58c34 0 54 -13 54 -58z" />
    <glyph glyph-name="period.numerator" horiz-adv-x="165" 
d="M137 310c0 -40 -21 -56 -57 -56c-33 0 -53 13 -53 56c0 44 21 59 56 59c34 0 54 -13 54 -59z" />
    <glyph glyph-name="period.superior" horiz-adv-x="165" 
d="M137 499c0 -40 -21 -56 -57 -56c-33 0 -53 13 -53 56c0 44 21 59 56 59c34 0 54 -13 54 -59z" />
    <glyph glyph-name="periodcentered" unicode="&#xb7;" horiz-adv-x="266" 
d="M211 287c0 -57 -29 -79 -79 -79c-48 0 -77 19 -77 79c0 61 30 82 80 82c48 0 76 -20 76 -82z" />
    <glyph glyph-name="periodcentered.cap" horiz-adv-x="266" 
d="M211 347c0 -57 -29 -79 -79 -79c-48 0 -77 19 -77 79c0 61 30 82 80 82c48 0 76 -20 76 -82z" />
    <glyph glyph-name="perthousand" unicode="&#x2030;" horiz-adv-x="1266" 
d="M375 469c0 -149 -62 -219 -174 -219c-109 0 -170 62 -170 218c0 154 65 220 174 220c113 0 170 -63 170 -219zM273 471c0 135 -22 162 -69 162c-43 0 -67 -34 -67 -165c0 -128 21 -163 68 -163c48 0 68 39 68 166zM546 676h72l-286 -676h-71zM848 209
c0 -149 -62 -219 -175 -219c-108 0 -169 62 -169 218c0 154 66 220 174 220c113 0 170 -63 170 -219zM745 211c0 135 -21 162 -68 162c-43 0 -68 -34 -68 -165c0 -128 22 -163 69 -163c48 0 67 39 67 166zM1235 209c0 -149 -62 -219 -174 -219c-109 0 -170 62 -170 218
c0 154 66 220 174 220c114 0 170 -63 170 -219zM1133 211c0 135 -22 162 -69 162c-42 0 -67 -34 -67 -165c0 -128 22 -163 68 -163c48 0 68 39 68 166z" />
    <glyph glyph-name="perthousand.oldstyle" horiz-adv-x="1238" 
d="M362 420c0 -140 -68 -198 -167 -198c-100 0 -165 54 -165 196c0 139 74 197 169 197c102 0 163 -55 163 -195zM267 420c0 110 -24 141 -68 141c-42 0 -72 -36 -72 -143c0 -112 26 -142 71 -142s69 40 69 144zM554 626h76l-321 -646h-75zM833 187
c0 -140 -69 -198 -168 -198c-100 0 -164 54 -164 196c0 140 73 197 169 197c102 0 163 -55 163 -195zM738 187c0 111 -24 141 -69 141c-42 0 -71 -36 -71 -143c0 -111 26 -142 71 -142s69 41 69 144zM1209 187c0 -140 -70 -198 -169 -198s-164 54 -164 196
c0 140 73 197 170 197c101 0 163 -55 163 -195zM1113 187c0 111 -23 141 -69 141c-42 0 -71 -36 -71 -143c0 -111 26 -142 71 -142s69 41 69 144z" />
    <glyph glyph-name="pi" unicode="&#x3c0;" horiz-adv-x="598" 
d="M566 440h-57v-254c0 -68 5 -134 20 -186h-134c-10 46 -15 111 -15 187v253h-166v-440h-131v440h-57v66h540v-66z" />
    <glyph glyph-name="plus" unicode="+" horiz-adv-x="735" 
d="M414 36h-91v227h-227v89h226v226h92v-226h225v-89h-225v-227z" />
    <glyph glyph-name="plusminus" unicode="&#xb1;" horiz-adv-x="735" 
d="M414 146h-91v219h-227v89h226v218h92v-218h225v-89h-225v-219zM639 0h-543v89h543v-89z" />
    <glyph glyph-name="product" unicode="&#x220f;" horiz-adv-x="686" 
d="M607 -122h-135v753h-258v-753h-136v828h529v-828z" />
    <glyph glyph-name="q" unicode="q" horiz-adv-x="581" 
d="M399 506h119c-4 -44 -5 -115 -5 -163v-557h-130v271c-41 -50 -94 -68 -152 -68c-122 0 -191 80 -191 252c0 196 82 277 211 277c52 0 106 -18 143 -62c0 6 1 30 5 50zM384 255c0 72 -4 123 -18 149c-18 33 -50 48 -84 48c-61 0 -108 -46 -108 -208
c0 -140 44 -185 105 -185c32 0 66 12 85 48c15 27 20 79 20 148z" />
    <glyph glyph-name="q.sc" horiz-adv-x="590" 
d="M548 271c0 -108 -27 -182 -77 -227l98 -65l-62 -77l-134 95c-24 -6 -51 -9 -80 -9c-167 0 -251 84 -251 275c0 198 107 277 259 277c167 0 247 -83 247 -269zM411 265c0 158 -30 217 -114 217c-78 0 -118 -57 -118 -218c0 -168 38 -217 115 -217c80 0 117 54 117 218z
" />
    <glyph glyph-name="question" unicode="?" horiz-adv-x="460" 
d="M182 635c-49 0 -96 -11 -153 -40v77c55 28 130 39 172 39c147 0 223 -48 223 -158c0 -67 -26 -105 -111 -182c-49 -44 -62 -74 -63 -127h-107c0 64 2 101 55 151c58 56 83 96 83 148c0 67 -43 92 -99 92zM273 69c0 -58 -28 -79 -78 -79c-48 0 -77 18 -77 79
c0 60 30 81 80 81c48 0 75 -20 75 -81z" />
    <glyph glyph-name="question.sc" horiz-adv-x="446" 
d="M174 548c-45 0 -89 -11 -142 -36v75c51 24 125 34 164 34c136 0 204 -40 204 -131c0 -54 -25 -86 -103 -147c-46 -35 -56 -61 -57 -105h-101c0 53 2 84 50 125c54 45 76 76 76 115c0 51 -42 70 -91 70zM265 69c0 -58 -28 -79 -78 -79c-48 0 -77 18 -77 79
c0 60 30 81 80 81c49 0 75 -20 75 -81z" />
    <glyph glyph-name="questiondown" unicode="&#xbf;" horiz-adv-x="460" 
d="M274 -129c49 0 95 10 153 40v-77c-55 -29 -131 -39 -172 -39c-147 0 -223 48 -223 158c0 66 26 105 111 181c49 45 62 75 63 128h107c0 -64 -2 -102 -55 -152c-59 -55 -83 -95 -83 -147c0 -67 42 -92 99 -92zM183 437c0 57 28 79 78 79c48 0 77 -18 77 -79
s-30 -82 -80 -82c-48 0 -75 20 -75 82z" />
    <glyph glyph-name="questiondown.sc" horiz-adv-x="446" 
d="M272 -89c46 0 89 11 142 36v-76c-51 -23 -124 -34 -164 -34c-136 0 -204 41 -204 132c0 54 25 86 104 147c46 36 56 61 57 105h100c0 -53 -1 -84 -50 -124c-54 -46 -76 -76 -76 -116c0 -51 42 -70 91 -70zM181 391c0 57 28 78 78 78c49 0 77 -18 77 -78
c0 -61 -29 -82 -80 -82c-48 0 -75 20 -75 82z" />
    <glyph glyph-name="quotedbl" unicode="&#x22;" horiz-adv-x="377" 
d="M134 447h-68l-26 279h118zM312 447h-67l-26 279h117z" />
    <glyph glyph-name="quotedblbase" unicode="&#x201e;" horiz-adv-x="391" 
d="M360 125c0 -89 -27 -182 -76 -242h-88c33 62 47 149 47 242h117zM181 125c0 -89 -27 -182 -77 -242h-87c32 62 47 149 47 242h117z" />
    <glyph glyph-name="quotedblleft" unicode="&#x201c;" horiz-adv-x="391" 
d="M31 479c0 90 27 182 77 243h87c-32 -63 -47 -149 -47 -243h-117zM211 479c0 90 27 182 76 243h88c-33 -63 -47 -149 -47 -243h-117z" />
    <glyph glyph-name="quotedblright" unicode="&#x201d;" horiz-adv-x="391" 
d="M360 722c0 -90 -27 -182 -76 -243h-88c33 63 47 149 47 243h117zM181 722c0 -90 -27 -182 -77 -243h-87c32 63 47 149 47 243h117z" />
    <glyph glyph-name="quoteleft" unicode="&#x2018;" horiz-adv-x="212" 
d="M31 479c0 90 27 182 77 243h87c-32 -63 -47 -149 -47 -243h-117z" />
    <glyph glyph-name="quoteright" unicode="&#x2019;" horiz-adv-x="212" 
d="M181 722c0 -90 -27 -182 -77 -243h-87c32 63 47 149 47 243h117z" />
    <glyph glyph-name="quotesinglbase" unicode="&#x201a;" horiz-adv-x="212" 
d="M181 125c0 -89 -27 -182 -77 -242h-87c32 62 47 149 47 242h117z" />
    <glyph glyph-name="quotesingle" unicode="'" horiz-adv-x="198" 
d="M134 447h-68l-26 279h118z" />
    <glyph glyph-name="r" unicode="r" horiz-adv-x="386" 
d="M202 0h-129v328c0 68 -4 130 -10 178h128c4 -23 7 -51 7 -71c25 54 75 81 122 81c15 0 34 -3 49 -8v-93c-23 10 -47 15 -69 15c-30 0 -56 -7 -75 -34c-19 -25 -23 -58 -23 -109v-287z" />
    <glyph glyph-name="r.sc" horiz-adv-x="548" 
d="M523 0h-134l-30 131c-9 42 -24 73 -42 85c-19 13 -41 15 -67 15h-46v-231h-131v528h207c49 0 99 -3 129 -13c61 -20 90 -57 90 -122c0 -72 -38 -114 -109 -130c56 -14 79 -47 98 -123zM204 294h54c30 0 55 4 69 13c22 14 32 39 32 74c0 33 -8 61 -32 74
c-16 8 -41 11 -66 11h-57v-172z" />
    <glyph glyph-name="racute" unicode="&#x155;" horiz-adv-x="386" 
d="M200 0h-129v328c0 68 -4 130 -10 178h128c4 -23 7 -51 7 -71c25 54 75 81 122 81c15 0 34 -3 49 -8v-93c-23 10 -47 15 -69 15c-30 0 -56 -7 -75 -34c-19 -25 -23 -58 -23 -109v-287zM233 589h-87l113 147h144z" />
    <glyph glyph-name="racute.sc" horiz-adv-x="548" 
d="M523 0h-134l-30 131c-9 42 -24 73 -42 85c-19 13 -41 15 -67 15h-46v-231h-131v528h207c49 0 99 -3 129 -13c61 -20 90 -57 90 -122c0 -72 -38 -114 -109 -130c56 -14 79 -47 98 -123zM204 294h54c30 0 55 4 69 13c22 14 32 39 32 74c0 33 -8 61 -32 74
c-16 8 -41 11 -66 11h-57v-172zM271 599h-88l114 147h144z" />
    <glyph glyph-name="radical" unicode="&#x221a;" horiz-adv-x="705" 
d="M226 217l130 -296l204 875h114l-270 -983h-114l-146 301l-85 -36l-24 55z" />
    <glyph glyph-name="rcaron" unicode="&#x159;" horiz-adv-x="386" 
d="M200 0h-129v328c0 68 -4 130 -10 178h128c4 -23 7 -51 7 -71c25 54 75 81 122 81c15 0 34 -3 49 -8v-93c-23 10 -47 15 -69 15c-30 0 -56 -7 -75 -34c-19 -25 -23 -58 -23 -109v-287zM40 737h88l79 -90l74 90h84l-112 -152h-102z" />
    <glyph glyph-name="rcaron.sc" horiz-adv-x="548" 
d="M523 0h-134l-30 131c-9 42 -24 73 -42 85c-19 13 -41 15 -67 15h-46v-231h-131v528h207c49 0 99 -3 129 -13c61 -20 90 -57 90 -122c0 -72 -38 -114 -109 -130c56 -14 79 -47 98 -123zM204 294h54c30 0 55 4 69 13c22 14 32 39 32 74c0 33 -8 61 -32 74
c-16 8 -41 11 -66 11h-57v-172zM102 747h88l79 -90l74 90h84l-112 -152h-102z" />
    <glyph glyph-name="rcommaaccent" unicode="&#x157;" horiz-adv-x="386" 
d="M200 0h-129v328c0 68 -4 130 -10 178h128c4 -23 7 -51 7 -71c25 54 75 81 122 81c15 0 34 -3 49 -8v-93c-23 10 -47 15 -69 15c-30 0 -56 -7 -75 -34c-19 -25 -23 -58 -23 -109v-287zM191 -63c-2 -82 -32 -140 -74 -184h-71c32 50 46 99 46 184h99z" />
    <glyph glyph-name="rcommaaccent.sc" horiz-adv-x="548" 
d="M523 0h-134l-30 131c-9 42 -24 73 -42 85c-19 13 -41 15 -67 15h-46v-231h-131v528h207c49 0 99 -3 129 -13c61 -20 90 -57 90 -122c0 -72 -38 -114 -109 -130c56 -14 79 -47 98 -123zM204 294h54c30 0 55 4 69 13c22 14 32 39 32 74c0 33 -8 61 -32 74
c-16 8 -41 11 -66 11h-57v-172zM338 -63c-2 -82 -32 -140 -74 -184h-71c32 50 46 99 46 184h99z" />
    <glyph glyph-name="registered" unicode="&#xae;" horiz-adv-x="829" 
d="M49 352c0 208 158 368 366 368c210 0 367 -159 367 -368c0 -208 -156 -366 -366 -366s-367 159 -367 366zM98 352c0 -185 133 -327 318 -327c184 0 317 141 317 327c0 187 -134 329 -318 329c-183 0 -317 -143 -317 -329zM510 135l-23 114c-6 29 -13 47 -26 59
c-14 13 -32 17 -56 17h-54v-190h-103v445h164c52 0 93 -3 123 -16c34 -14 58 -47 58 -103c0 -53 -27 -90 -85 -106c49 -12 65 -35 77 -93l28 -127h-103zM351 382h51c27 0 48 4 61 13c18 12 25 32 25 59c0 30 -9 48 -29 59c-12 7 -33 10 -58 10h-50v-141z" />
    <glyph glyph-name="ring" unicode="&#x2da;" horiz-adv-x="212" 
d="M108 779c60 0 104 -35 104 -103c0 -66 -43 -106 -106 -106c-62 0 -107 36 -107 105c0 67 49 104 109 104zM106 741c-30 0 -51 -21 -51 -66c0 -46 20 -66 53 -66c29 0 49 20 49 68c0 45 -21 64 -51 64z" />
    <glyph glyph-name="ring.cap" horiz-adv-x="212" 
d="M108 953c58 0 101 -36 101 -100c0 -62 -41 -102 -103 -102c-60 0 -104 35 -104 101c0 63 48 101 106 101zM106 911c-26 0 -46 -19 -46 -60c0 -43 20 -60 48 -60c25 0 44 18 44 61c0 42 -20 59 -46 59z" />
    <glyph glyph-name="ring.sc" horiz-adv-x="212" 
d="M108 789c60 0 104 -35 104 -103c0 -66 -43 -106 -106 -106c-62 0 -107 36 -107 105c0 67 49 104 109 104zM106 751c-30 0 -51 -21 -51 -66c0 -46 20 -66 53 -66c29 0 49 20 49 68c0 45 -21 64 -51 64z" />
    <glyph glyph-name="s" unicode="s" horiz-adv-x="413" 
d="M29 92c51 -23 99 -36 140 -36c61 0 89 26 89 72c0 41 -23 58 -67 77l-44 19c-69 29 -109 74 -109 145c0 94 69 151 202 151c46 0 88 -7 125 -18v-75c-42 18 -78 27 -121 27c-42 0 -80 -20 -80 -69c0 -32 18 -51 57 -68l48 -22c85 -37 118 -79 118 -150
c0 -97 -62 -158 -214 -158c-42 0 -99 11 -144 27v78z" />
    <glyph glyph-name="s.sc" horiz-adv-x="430" 
d="M285 128c0 27 -17 48 -67 70l-51 23c-96 43 -131 85 -131 166c0 87 69 153 195 153c49 0 104 -5 143 -20v-78c-42 20 -92 34 -139 34c-58 0 -85 -20 -85 -63c0 -21 11 -46 64 -69l48 -21c108 -48 141 -83 141 -168c0 -98 -75 -167 -212 -167c-51 0 -115 10 -159 26v82
c51 -22 109 -39 160 -39c55 0 93 19 93 71z" />
    <glyph glyph-name="sacute" unicode="&#x15b;" horiz-adv-x="413" 
d="M62 92c51 -23 99 -36 140 -36c61 0 89 26 89 72c0 41 -23 58 -67 77l-44 19c-69 29 -109 74 -109 145c0 94 69 151 202 151c46 0 88 -7 125 -18v-75c-42 18 -78 27 -121 27c-42 0 -80 -20 -80 -69c0 -32 18 -51 57 -68l48 -22c85 -37 118 -79 118 -150
c0 -97 -62 -158 -214 -158c-42 0 -99 11 -144 27v78zM270 589h-87l113 147h144z" />
    <glyph glyph-name="sacute.sc" horiz-adv-x="430" 
d="M285 128c0 27 -17 48 -67 70l-51 23c-96 43 -131 85 -131 166c0 87 69 153 195 153c49 0 104 -5 143 -20v-78c-42 20 -92 34 -139 34c-58 0 -85 -20 -85 -63c0 -21 11 -46 64 -69l48 -21c108 -48 141 -83 141 -168c0 -98 -75 -167 -212 -167c-51 0 -115 10 -159 26v82
c51 -22 109 -39 160 -39c55 0 93 19 93 71zM228 599h-88l114 147h144z" />
    <glyph glyph-name="scaron" unicode="&#x161;" horiz-adv-x="413" 
d="M29 92c51 -23 99 -36 140 -36c61 0 89 26 89 72c0 41 -23 58 -67 77l-44 19c-69 29 -109 74 -109 145c0 94 69 151 202 151c46 0 88 -7 125 -18v-75c-42 18 -78 27 -121 27c-42 0 -80 -20 -80 -69c0 -32 18 -51 57 -68l48 -22c85 -37 118 -79 118 -150
c0 -97 -62 -158 -214 -158c-42 0 -99 11 -144 27v78zM60 737h88l79 -90l74 90h84l-112 -152h-102z" />
    <glyph glyph-name="scaron.sc" horiz-adv-x="430" 
d="M285 128c0 27 -17 48 -67 70l-51 23c-96 43 -131 85 -131 166c0 87 69 153 195 153c49 0 104 -5 143 -20v-78c-42 20 -92 34 -139 34c-58 0 -85 -20 -85 -63c0 -21 11 -46 64 -69l48 -21c108 -48 141 -83 141 -168c0 -98 -75 -167 -212 -167c-51 0 -115 10 -159 26v82
c51 -22 109 -39 160 -39c55 0 93 19 93 71zM51 747h88l79 -90l74 90h84l-112 -152h-102z" />
    <glyph glyph-name="scedilla" unicode="&#x15f;" horiz-adv-x="413" 
d="M119 -233v46c18 -4 33 -5 42 -5c37 0 50 18 50 46s-17 45 -48 45c-10 0 -20 -1 -33 -3l34 91c-41 2 -93 12 -135 27v78c51 -23 99 -36 140 -36c61 0 89 26 89 72c0 41 -23 58 -67 77l-44 19c-69 29 -109 74 -109 145c0 94 69 151 202 151c46 0 88 -7 125 -18v-75
c-42 18 -78 27 -121 27c-42 0 -80 -20 -80 -69c0 -32 18 -51 57 -68l48 -22c85 -37 118 -79 118 -150c0 -89 -52 -147 -176 -156l-19 -50c66 0 101 -29 101 -82c0 -68 -47 -95 -122 -95c-17 0 -39 3 -52 5z" />
    <glyph glyph-name="scedilla.sc" horiz-adv-x="430" 
d="M119 -238v48c18 -4 33 -5 43 -5c37 0 50 18 50 46c0 29 -17 45 -48 45c-11 0 -22 0 -34 -2l35 95c-45 2 -96 11 -133 25v82c51 -22 109 -39 160 -39c55 0 93 19 93 71c0 27 -17 48 -67 70l-51 23c-96 43 -131 85 -131 166c0 87 69 153 195 153c49 0 104 -5 143 -20v-78
c-42 20 -92 34 -139 34c-58 0 -85 -20 -85 -63c0 -21 11 -46 64 -69l48 -21c108 -48 141 -83 141 -168c0 -93 -68 -159 -191 -166l-19 -51c67 -1 103 -30 103 -84c0 -69 -47 -97 -124 -97c-17 0 -41 3 -53 5z" />
    <glyph glyph-name="scircumflex" unicode="&#x15d;" horiz-adv-x="413" 
d="M62 92c51 -23 99 -36 140 -36c61 0 89 26 89 72c0 41 -23 58 -67 77l-44 19c-69 29 -109 74 -109 145c0 94 69 151 202 151c46 0 88 -7 125 -18v-75c-42 18 -78 27 -121 27c-42 0 -80 -20 -80 -69c0 -32 18 -51 57 -68l48 -22c85 -37 118 -79 118 -150
c0 -97 -62 -158 -214 -158c-42 0 -99 11 -144 27v78zM417 589h-88l-79 91l-75 -91h-83l111 152h102z" />
    <glyph glyph-name="scircumflex.sc" horiz-adv-x="430" 
d="M285 128c0 27 -17 48 -67 70l-51 23c-96 43 -131 85 -131 166c0 87 69 153 195 153c49 0 104 -5 143 -20v-78c-42 20 -92 34 -139 34c-58 0 -85 -20 -85 -63c0 -21 11 -46 64 -69l48 -21c108 -48 141 -83 141 -168c0 -98 -75 -167 -212 -167c-51 0 -115 10 -159 26v82
c51 -22 109 -39 160 -39c55 0 93 19 93 71zM390 599h-88l-79 91l-75 -91h-83l111 152h102z" />
    <glyph glyph-name="section" unicode="&#xa7;" horiz-adv-x="506" 
d="M235 382c-10 6 -20 10 -30 10c-26 0 -52 -27 -52 -60c0 -29 12 -44 40 -64c25 -18 59 -40 90 -55c8 -4 20 -6 27 -6c21 0 49 23 49 62c0 27 -15 40 -38 57c-26 20 -52 36 -86 56zM436 688v-83c-50 23 -105 44 -160 44c-50 0 -86 -19 -86 -65c0 -39 24 -56 89 -93l73 -42
c95 -55 121 -101 121 -161c0 -56 -36 -111 -90 -135c48 -39 62 -77 62 -120c0 -103 -91 -159 -224 -159c-62 0 -127 13 -182 36v85c73 -39 144 -50 183 -50c64 0 99 24 99 73c0 31 -26 52 -80 82l-80 46c-88 51 -122 93 -122 163c0 60 37 109 94 134c-40 31 -58 70 -58 125
c0 75 54 150 201 150c60 0 120 -15 160 -30z" />
    <glyph glyph-name="semicolon" unicode=";" horiz-adv-x="291" 
d="M235 427c0 -57 -27 -79 -78 -79c-48 0 -77 19 -77 79c0 61 30 82 80 82c49 0 75 -20 75 -82zM226 135c0 -111 -40 -232 -85 -296h-97c39 77 53 185 53 296h129z" />
    <glyph glyph-name="seven" unicode="7" horiz-adv-x="586" 
d="M284 0h-128c78 227 160 400 247 574h-350v102h456v-82c-78 -175 -158 -373 -225 -594z" />
    <glyph glyph-name="seven.denominator" 
d="M205 0h-104c48 138 107 250 161 340h-223v75h309v-64c-54 -111 -94 -205 -143 -351z" />
    <glyph glyph-name="seven.fitted" horiz-adv-x="509" 
d="M250 0h-128c77 226 159 399 247 574h-349v102h454v-82c-81 -183 -155 -372 -224 -594z" />
    <glyph glyph-name="seven.inferior" unicode="&#x2087;" 
d="M205 -159h-104c48 138 107 250 161 340h-223v75h309v-64c-54 -111 -94 -205 -143 -351z" />
    <glyph glyph-name="seven.numerator" 
d="M205 261h-104c48 138 107 250 161 340h-223v75h309v-64c-54 -111 -94 -205 -143 -351z" />
    <glyph glyph-name="seven.oldstyle" horiz-adv-x="487" 
d="M239 -162h-122c71 226 154 421 236 589h-329v100h433v-81c-71 -167 -154 -396 -218 -608z" />
    <glyph glyph-name="seven.superior" unicode="&#x2077;" 
d="M205 450h-104c48 138 107 250 161 340h-223v75h309v-64c-54 -111 -94 -205 -143 -351z" />
    <glyph glyph-name="seven.taboldstyle" horiz-adv-x="553" 
d="M263 -161h-122c75 224 160 421 244 588h-349v100h451v-81c-76 -176 -155 -387 -224 -607z" />
    <glyph glyph-name="seveneighths" unicode="&#x215e;" horiz-adv-x="879" 
d="M509 676h74l-304 -676h-74zM202 261h-104c48 138 107 250 161 340h-223v75h309v-64c-54 -111 -94 -205 -143 -351zM802 314c0 -43 -21 -75 -76 -93c61 -15 84 -53 84 -105c0 -76 -54 -127 -165 -127s-161 45 -161 125c0 51 23 90 88 105c-59 17 -75 51 -75 95
c0 67 55 113 155 113c99 0 149 -41 150 -113zM709 117c0 56 -25 76 -61 76c-37 0 -63 -22 -63 -75s25 -73 63 -73c39 0 61 24 61 72zM701 312c0 40 -16 61 -54 61c-37 0 -54 -24 -54 -63c0 -46 22 -65 54 -65c29 0 54 15 54 67z" />
    <glyph glyph-name="six" unicode="6" horiz-adv-x="586" 
d="M497 669v-78c-50 22 -92 30 -147 30c-107 0 -164 -79 -169 -249c30 43 98 71 159 71c131 0 206 -66 206 -224c0 -145 -77 -233 -240 -233c-155 0 -253 68 -253 328c0 290 120 377 290 377c70 0 112 -9 154 -22zM413 221c0 113 -40 153 -108 153c-73 0 -115 -57 -115 -145
c0 -107 38 -174 114 -174c71 0 109 44 109 166z" />
    <glyph glyph-name="six.denominator" 
d="M339 414v-63c-36 15 -61 20 -96 20c-63 0 -95 -36 -99 -134c17 25 59 40 95 40c84 0 133 -39 133 -140c0 -90 -53 -148 -160 -148c-103 0 -165 46 -165 204c0 181 72 235 186 235c46 0 76 -6 106 -14zM272 136c0 64 -22 88 -59 88c-44 0 -62 -35 -62 -84
c0 -63 19 -96 61 -96c37 0 60 25 60 92z" />
    <glyph glyph-name="six.fitted" horiz-adv-x="601" 
d="M508 669v-78c-51 22 -93 30 -148 30c-107 0 -165 -79 -169 -249c29 43 98 71 159 71c131 0 206 -66 206 -224c0 -145 -77 -233 -240 -233c-154 0 -254 68 -254 328c0 290 121 377 291 377c70 0 112 -9 155 -22zM423 221c0 113 -40 153 -108 153c-73 0 -115 -57 -115 -145
c0 -107 38 -174 114 -174c72 0 109 44 109 166z" />
    <glyph glyph-name="six.inferior" unicode="&#x2086;" 
d="M339 255v-63c-36 15 -61 20 -96 20c-63 0 -95 -36 -99 -134c17 25 59 40 95 40c84 0 133 -39 133 -140c0 -90 -53 -148 -160 -148c-103 0 -165 46 -165 204c0 181 72 235 186 235c46 0 76 -6 106 -14zM272 -23c0 64 -22 88 -59 88c-44 0 -62 -35 -62 -84
c0 -63 19 -96 61 -96c37 0 60 25 60 92z" />
    <glyph glyph-name="six.numerator" 
d="M339 675v-63c-36 15 -61 20 -96 20c-63 0 -95 -36 -99 -134c17 25 59 40 95 40c84 0 133 -39 133 -140c0 -90 -53 -148 -160 -148c-103 0 -165 46 -165 204c0 181 72 235 186 235c46 0 76 -6 106 -14zM272 397c0 64 -22 88 -59 88c-44 0 -62 -35 -62 -84
c0 -63 19 -96 61 -96c37 0 60 25 60 92z" />
    <glyph glyph-name="six.oldstyle" horiz-adv-x="580" 
d="M406 220c0 115 -35 151 -103 151c-69 0 -114 -64 -114 -142c0 -108 38 -177 111 -177c67 0 106 48 106 168zM472 692v-73c-17 2 -36 3 -54 3c-135 0 -228 -82 -238 -261c26 49 94 82 159 82c123 0 194 -66 194 -224c0 -142 -81 -233 -235 -233c-153 0 -242 76 -242 328
c0 296 174 380 354 380c21 0 42 -1 62 -2z" />
    <glyph glyph-name="six.superior" unicode="&#x2076;" 
d="M339 864v-63c-36 15 -61 20 -96 20c-63 0 -95 -36 -99 -134c17 25 59 40 95 40c84 0 133 -39 133 -140c0 -90 -53 -148 -160 -148c-103 0 -165 46 -165 204c0 181 72 235 186 235c46 0 76 -6 106 -14zM272 586c0 64 -22 88 -59 88c-44 0 -62 -35 -62 -84
c0 -63 19 -96 61 -96c37 0 60 25 60 92z" />
    <glyph glyph-name="six.taboldstyle" horiz-adv-x="553" 
d="M389 220c0 115 -35 153 -101 153c-71 0 -111 -66 -111 -144c0 -108 37 -177 108 -177c67 0 104 48 104 168zM457 692v-72c-17 2 -37 3 -55 3c-135 0 -225 -83 -235 -262c28 52 95 82 156 82c123 0 193 -66 193 -224c0 -142 -79 -233 -232 -233c-151 0 -241 77 -241 328
c0 296 176 380 351 380c21 0 42 -1 63 -2z" />
    <glyph glyph-name="slash" unicode="/" horiz-adv-x="417" 
d="M93 -51h-107l331 776h107z" />
    <glyph glyph-name="space" unicode=" " horiz-adv-x="232" 
 />
    <glyph glyph-name="sterling" unicode="&#xa3;" horiz-adv-x="582" 
d="M289 345h163v-63h-149c6 -22 7 -40 7 -62c0 -38 -21 -87 -98 -123h333v-97h-470v73c99 38 118 84 118 136c0 19 -9 49 -17 73h-98v63h75c-15 45 -30 96 -30 150c0 119 76 195 227 195c61 0 121 -8 163 -25v-78c-46 20 -89 33 -140 33c-74 0 -111 -45 -111 -123
c0 -51 11 -96 27 -152z" />
    <glyph glyph-name="sterling.denominator" horiz-adv-x="372" 
d="M245 371c-45 0 -67 -23 -67 -66c0 -24 7 -55 16 -82h108v-49h-96c2 -11 5 -23 5 -33c0 -29 -16 -53 -52 -73h200v-68h-312v51c62 25 77 46 77 75c0 14 -5 34 -9 48h-67v49h49c-11 26 -19 52 -19 83c0 77 52 121 151 121c40 0 82 -5 110 -17v-63c-33 16 -64 24 -94 24z
" />
    <glyph glyph-name="sterling.inferior" horiz-adv-x="372" 
d="M245 212c-45 0 -67 -23 -67 -66c0 -24 7 -55 16 -82h108v-49h-96c2 -11 5 -23 5 -33c0 -29 -16 -53 -52 -73h200v-68h-312v51c62 25 77 46 77 75c0 14 -5 34 -9 48h-67v49h49c-11 26 -19 52 -19 83c0 77 52 121 151 121c40 0 82 -5 110 -17v-63c-33 16 -64 24 -94 24z
" />
    <glyph glyph-name="sterling.numerator" horiz-adv-x="372" 
d="M245 632c-45 0 -67 -23 -67 -66c0 -24 7 -55 16 -82h108v-49h-96c2 -11 5 -23 5 -33c0 -29 -16 -53 -52 -73h200v-68h-312v51c62 25 77 46 77 75c0 14 -5 34 -9 48h-67v49h49c-11 26 -19 52 -19 83c0 77 52 121 151 121c40 0 82 -5 110 -17v-63c-33 16 -64 24 -94 24z
" />
    <glyph glyph-name="sterling.oldstyle" horiz-adv-x="518" 
d="M263 314h149v-65h-134c5 -24 6 -42 6 -51c0 -37 -21 -75 -82 -108h291v-90h-433v79c87 38 109 62 109 106c0 16 -5 42 -11 64h-97v65h72c-12 36 -27 80 -27 128c0 105 73 171 208 171c56 0 114 -9 152 -27v-75c-44 20 -88 31 -132 31c-67 0 -96 -36 -96 -101
c0 -40 11 -81 25 -127z" />
    <glyph glyph-name="sterling.superior" horiz-adv-x="372" 
d="M245 821c-45 0 -67 -23 -67 -66c0 -24 7 -55 16 -82h108v-49h-96c2 -11 5 -23 5 -33c0 -29 -16 -53 -52 -73h200v-68h-312v51c62 25 77 46 77 75c0 14 -5 34 -9 48h-67v49h49c-11 26 -19 52 -19 83c0 77 52 121 151 121c40 0 82 -5 110 -17v-63c-33 16 -64 24 -94 24z
" />
    <glyph glyph-name="summation" unicode="&#x2211;" horiz-adv-x="586" 
d="M553 -122h-517v86l259 326l-247 344v72h498v-72h-331l226 -312l-273 -333h385v-111z" />
    <glyph glyph-name="t" unicode="t" horiz-adv-x="333" 
d="M330 4c-29 -8 -68 -12 -104 -12c-49 0 -87 15 -109 43c-21 27 -32 67 -32 124v285h-71v62h71s1 23 8 138h121v-138h101v-62h-101v-284c0 -38 6 -60 12 -73c8 -15 30 -23 52 -23c16 0 36 2 52 8v-68z" />
    <glyph glyph-name="t.sc" horiz-adv-x="468" 
d="M454 528v-64h-156v-464h-130v464h-154v64h440z" />
    <glyph glyph-name="tbar" unicode="&#x167;" horiz-adv-x="333" 
d="M308 287h-94v-127c0 -38 6 -60 12 -73c8 -15 30 -23 52 -23c16 0 36 2 52 8v-68c-29 -8 -68 -12 -104 -12c-49 0 -88 15 -109 43c-22 27 -32 67 -32 124v128h-68v64h68v93h-71v62h71s1 23 8 138h121v-138h101v-62h-101v-93h94v-64z" />
    <glyph glyph-name="tbar.sc" horiz-adv-x="468" 
d="M400 263h-102v-263h-130v263h-102v63h102v138h-154v64h440v-64h-156v-138h102v-63z" />
    <glyph glyph-name="tcaron" unicode="&#x165;" horiz-adv-x="333" 
d="M330 4c-29 -8 -68 -12 -104 -12c-49 0 -87 15 -109 43c-21 27 -32 67 -32 124v285h-71v62h71s1 23 8 138h121v-138h101v-62h-101v-284c0 -38 6 -60 12 -73c8 -15 30 -23 52 -23c16 0 36 2 52 8v-68zM395 730c-2 -76 -32 -141 -74 -184h-70c32 49 43 106 44 184h100z" />
    <glyph glyph-name="tcaron.sc" horiz-adv-x="468" 
d="M454 528v-64h-156v-464h-130v464h-154v64h440zM67 747h88l79 -90l74 90h84l-112 -152h-102z" />
    <glyph glyph-name="thorn" unicode="&#xfe;" horiz-adv-x="577" 
d="M199 742v-293c33 41 82 69 146 69c121 0 189 -83 189 -257c0 -205 -96 -270 -206 -270c-52 0 -95 13 -127 48v-253h-130v956h128zM199 250c0 -89 5 -137 20 -158c22 -28 49 -34 79 -34c59 0 102 45 102 202c0 144 -40 189 -98 189c-30 0 -58 -14 -74 -36
c-23 -27 -29 -68 -29 -163z" />
    <glyph glyph-name="thorn.sc" horiz-adv-x="538" 
d="M204 0h-131v528h131v-99h72c52 0 99 -5 129 -14c64 -20 95 -66 95 -136c0 -71 -26 -125 -96 -148c-33 -11 -84 -17 -130 -17h-70v-114zM204 177h55c31 0 58 5 72 15c21 15 31 44 31 83c0 31 -8 64 -33 79c-17 9 -45 13 -70 13h-55v-190z" />
    <glyph glyph-name="three" unicode="3" horiz-adv-x="586" 
d="M64 19v79c63 -31 122 -41 175 -41c100 0 137 50 137 130c0 78 -41 127 -145 127h-39v67h42c113 0 133 65 133 123c0 80 -43 116 -119 116c-51 0 -104 -11 -165 -43v75c57 27 129 39 191 39c154 0 226 -63 226 -181c0 -83 -49 -140 -143 -157c109 -10 160 -68 160 -162
c0 -142 -90 -205 -263 -205c-62 0 -135 8 -190 33z" />
    <glyph glyph-name="three.denominator" 
d="M174 -11c-41 0 -88 5 -125 22v61c45 -20 83 -25 116 -25c53 0 78 27 78 70c0 46 -25 70 -81 70h-32v54h34c58 0 73 36 73 68c0 47 -26 62 -68 62c-23 0 -62 -7 -108 -28v61c40 16 84 24 126 24c100 0 150 -38 150 -114c0 -43 -27 -82 -86 -96c61 -9 96 -47 96 -99
c0 -92 -63 -130 -173 -130z" />
    <glyph glyph-name="three.fitted" horiz-adv-x="544" 
d="M36 19v79c63 -31 122 -41 175 -41c96 0 137 50 137 130c0 78 -41 127 -145 127h-39v67h41c114 0 134 65 134 123c0 80 -47 116 -119 116c-52 0 -104 -11 -165 -43v75c57 27 128 39 190 39c155 0 227 -63 227 -181c0 -83 -49 -140 -143 -157c108 -10 160 -68 160 -162
c0 -142 -91 -205 -263 -205c-62 0 -135 8 -190 33z" />
    <glyph glyph-name="three.inferior" unicode="&#x2083;" 
d="M174 -170c-41 0 -88 5 -125 22v61c45 -20 83 -25 116 -25c53 0 78 27 78 70c0 46 -25 70 -81 70h-32v54h34c58 0 73 36 73 68c0 47 -26 62 -68 62c-23 0 -62 -7 -108 -28v61c40 16 84 24 126 24c100 0 150 -38 150 -114c0 -43 -27 -82 -86 -96c61 -9 96 -47 96 -99
c0 -92 -63 -130 -173 -130z" />
    <glyph glyph-name="three.numerator" 
d="M174 250c-41 0 -88 5 -125 22v61c45 -20 83 -25 116 -25c53 0 78 27 78 70c0 46 -25 70 -81 70h-32v54h34c58 0 73 36 73 68c0 47 -26 62 -68 62c-23 0 -62 -7 -108 -28v61c40 16 84 24 126 24c100 0 150 -38 150 -114c0 -43 -27 -82 -86 -96c61 -9 96 -47 96 -99
c0 -92 -63 -130 -173 -130z" />
    <glyph glyph-name="three.oldstyle" horiz-adv-x="513" 
d="M27 -165v73c23 -2 48 -3 76 -3c104 0 210 36 210 154c0 71 -39 123 -131 123h-41v65h43c94 0 123 52 123 112c0 78 -41 110 -110 110c-47 0 -93 -7 -157 -38v74c57 25 123 35 181 35c156 0 214 -62 214 -175c0 -69 -44 -129 -130 -146c101 -13 147 -65 147 -158
c0 -184 -195 -229 -345 -229c-29 0 -57 1 -80 3z" />
    <glyph glyph-name="three.taboldstyle" horiz-adv-x="553" 
d="M60 -165v73c23 -2 48 -3 76 -3c104 0 210 36 210 154c0 71 -39 123 -131 123h-41v65h43c94 0 123 52 123 112c0 78 -41 110 -110 110c-47 0 -93 -7 -157 -38v74c57 25 123 35 181 35c156 0 214 -62 214 -175c0 -69 -44 -129 -130 -146c101 -13 147 -65 147 -158
c0 -184 -195 -229 -345 -229c-29 0 -57 1 -80 3z" />
    <glyph glyph-name="threeeighths" unicode="&#x215c;" horiz-adv-x="879" 
d="M539 676h74l-304 -676h-74zM161 250c-41 0 -88 5 -125 22v61c45 -20 83 -25 116 -25c53 0 78 27 78 70c0 46 -25 70 -81 70h-32v54h34c58 0 73 36 73 68c0 47 -26 62 -68 62c-23 0 -62 -7 -108 -28v61c40 16 84 24 126 24c100 0 150 -38 150 -114c0 -43 -27 -82 -86 -96
c61 -9 96 -47 96 -99c0 -92 -63 -130 -173 -130zM825 314c0 -43 -21 -75 -76 -93c61 -15 84 -53 84 -105c0 -76 -54 -127 -165 -127s-161 45 -161 125c0 51 23 90 88 105c-59 17 -75 51 -75 95c0 67 55 113 155 113c99 0 149 -41 150 -113zM732 117c0 56 -25 76 -61 76
c-37 0 -63 -22 -63 -75s25 -73 63 -73c39 0 61 24 61 72zM724 312c0 40 -16 61 -54 61c-37 0 -54 -24 -54 -63c0 -46 22 -65 54 -65c29 0 54 15 54 67z" />
    <glyph glyph-name="threefifths" horiz-adv-x="879" 
d="M552 676h74l-304 -676h-74zM170 250c-41 0 -88 5 -125 22v61c45 -20 83 -25 116 -25c53 0 78 27 78 70c0 46 -25 70 -81 70h-32v54h34c58 0 73 36 73 68c0 47 -26 62 -68 62c-23 0 -62 -7 -108 -28v61c40 16 84 24 126 24c100 0 150 -38 150 -114c0 -43 -27 -82 -86 -96
c61 -9 96 -47 96 -99c0 -92 -63 -130 -173 -130zM720 130c0 60 -34 77 -73 77c-35 0 -65 -6 -109 -26l16 234h244v-75h-194l-5 -82c22 7 54 12 86 12c88 0 139 -44 139 -137c0 -104 -69 -144 -172 -144c-39 0 -92 6 -129 21v62c46 -21 85 -26 118 -26c54 0 79 28 79 84z" />
    <glyph glyph-name="threequarters" unicode="&#xbe;" horiz-adv-x="879" 
d="M558 676h74l-304 -676h-74zM174 250c-41 0 -88 5 -125 22v61c45 -20 83 -25 116 -25c53 0 78 27 78 70c0 46 -25 70 -81 70h-32v54h34c58 0 73 36 73 68c0 47 -26 62 -68 62c-23 0 -62 -7 -108 -28v61c40 16 84 24 126 24c100 0 150 -38 150 -114c0 -43 -27 -82 -86 -96
c61 -9 96 -47 96 -99c0 -92 -63 -130 -173 -130zM547 160h117c0 92 0 126 1 169c-20 -30 -45 -66 -118 -169zM761 0h-97v96h-191v56l191 263h97v-255h61v-64h-61v-96z" />
    <glyph glyph-name="threesuperior" unicode="&#xb3;" 
d="M174 439c-41 0 -88 5 -125 22v61c45 -20 83 -25 116 -25c53 0 78 27 78 70c0 46 -25 70 -81 70h-32v54h34c58 0 73 36 73 68c0 47 -26 62 -68 62c-23 0 -62 -7 -108 -28v61c40 16 84 24 126 24c100 0 150 -38 150 -114c0 -43 -27 -82 -86 -96c61 -9 96 -47 96 -99
c0 -92 -63 -130 -173 -130z" />
    <glyph glyph-name="tilde" unicode="&#x2dc;" horiz-adv-x="213" 
d="M-11 592l-56 20c24 63 58 107 110 107c18 0 40 -9 71 -25l16 -8c16 -8 32 -13 43 -13c20 0 37 15 51 49l56 -22c-29 -72 -58 -106 -108 -106c-21 0 -40 6 -62 18l-21 10c-25 13 -39 19 -50 19c-22 0 -35 -14 -50 -49z" />
    <glyph glyph-name="tilde.cap" horiz-adv-x="213" 
d="M-20 767l-56 18c24 62 55 105 114 105c16 0 41 -7 69 -19l21 -10c18 -9 37 -15 49 -15c25 0 41 13 57 47l55 -20c-29 -69 -58 -105 -110 -105c-22 0 -45 8 -70 20l-22 10c-25 12 -35 17 -49 17c-23 0 -40 -15 -58 -48z" />
    <glyph glyph-name="tilde.sc" horiz-adv-x="213" 
d="M-11 608l-50 17c24 64 55 104 106 104c18 0 39 -9 70 -25l17 -8c15 -8 30 -14 41 -14c20 0 38 14 52 45l49 -21c-29 -71 -54 -102 -102 -102c-21 0 -38 6 -61 18l-20 10c-26 13 -41 20 -52 20c-19 0 -35 -11 -50 -44z" />
    <glyph glyph-name="trademark" unicode="&#x2122;" horiz-adv-x="910" 
d="M360 706v-51h-119v-325h-86v325h-113v51h318zM832 330h-84c-5 191 -5 233 -5 308c-15 -59 -26 -102 -87 -308h-74c-62 209 -73 246 -89 307c0 -61 -1 -101 -7 -307h-76l10 376h123c58 -196 71 -240 84 -293c11 52 24 102 77 293h117z" />
    <glyph glyph-name="two" unicode="2" horiz-adv-x="586" 
d="M275 691c167 0 235 -75 235 -193c0 -71 -37 -146 -97 -207c-67 -67 -135 -121 -241 -192c81 1 224 1 350 1v-100h-475v70c91 73 166 139 241 218c73 77 82 150 82 204c0 79 -42 125 -120 125c-54 0 -109 -17 -164 -49v77c54 28 126 46 189 46z" />
    <glyph glyph-name="two.denominator" 
d="M187 428c110 0 157 -46 157 -122c0 -42 -23 -86 -68 -128c-40 -38 -93 -79 -134 -104c48 1 144 1 211 1v-75h-315v55c63 52 108 90 155 141c31 33 44 71 44 104c0 40 -20 71 -70 71c-33 0 -60 -6 -104 -27v60c35 15 84 24 124 24z" />
    <glyph glyph-name="two.fitted" horiz-adv-x="571" 
d="M260 691c167 0 235 -75 235 -193c0 -71 -36 -146 -96 -206c-66 -68 -136 -122 -242 -193c81 1 224 1 350 1v-100h-475v70c91 73 166 139 241 218c73 77 83 150 83 204c0 79 -43 127 -121 127c-53 0 -109 -17 -164 -49v75c54 28 126 46 189 46z" />
    <glyph glyph-name="two.inferior" unicode="&#x2082;" 
d="M187 269c110 0 157 -46 157 -122c0 -42 -23 -86 -68 -128c-40 -38 -93 -79 -134 -104c48 1 144 1 211 1v-75h-315v55c63 52 108 90 155 141c31 33 44 71 44 104c0 40 -20 71 -70 71c-33 0 -60 -6 -104 -27v60c35 15 84 24 124 24z" />
    <glyph glyph-name="two.numerator" 
d="M187 689c110 0 157 -46 157 -122c0 -42 -23 -86 -68 -128c-40 -38 -93 -79 -134 -104c48 1 144 1 211 1v-75h-315v55c63 52 108 90 155 141c31 33 44 71 44 104c0 40 -20 71 -70 71c-33 0 -60 -6 -104 -27v60c35 15 84 24 124 24z" />
    <glyph glyph-name="two.oldstyle" horiz-adv-x="537" 
d="M197 95c71 1 177 1 304 1v-96h-460v65c76 42 140 79 203 131c60 51 84 105 84 168c0 55 -31 103 -109 103c-52 0 -97 -13 -155 -41v77c52 24 121 38 177 38c159 0 222 -68 222 -170c0 -70 -25 -130 -112 -190c-40 -28 -100 -62 -154 -86z" />
    <glyph glyph-name="two.taboldstyle" horiz-adv-x="553" 
d="M201 95c71 1 171 1 298 1v-96h-455v65c76 42 140 80 203 132c60 51 84 104 84 167c0 55 -31 103 -109 103c-52 0 -97 -13 -155 -41v77c52 24 121 38 177 38c159 0 222 -68 222 -170c0 -70 -25 -130 -112 -190c-40 -28 -99 -62 -153 -86z" />
    <glyph glyph-name="twofifths" horiz-adv-x="879" 
d="M568 676h74l-304 -676h-74zM184 689c110 0 157 -46 157 -122c0 -42 -23 -86 -68 -128c-40 -38 -93 -79 -134 -104c48 1 144 1 211 1v-75h-315v55c63 52 108 90 155 141c31 33 44 71 44 104c0 40 -20 71 -70 71c-33 0 -60 -6 -104 -27v60c35 15 84 24 124 24zM735 130
c0 60 -34 77 -73 77c-35 0 -65 -6 -109 -26l16 234h244v-75h-194l-5 -82c22 7 54 12 86 12c88 0 139 -44 139 -137c0 -104 -69 -144 -172 -144c-39 0 -92 6 -129 21v62c46 -21 85 -26 118 -26c54 0 79 28 79 84z" />
    <glyph glyph-name="twosuperior" unicode="&#xb2;" 
d="M187 878c110 0 157 -46 157 -122c0 -42 -23 -86 -68 -128c-40 -38 -93 -79 -134 -104c48 1 144 1 211 1v-75h-315v55c63 52 108 90 155 141c31 33 44 71 44 104c0 40 -20 71 -70 71c-33 0 -60 -6 -104 -27v60c35 15 84 24 124 24z" />
    <glyph glyph-name="twothirds" unicode="&#x2154;" horiz-adv-x="879" 
d="M576 676h74l-304 -676h-74zM187 689c110 0 157 -46 157 -122c0 -42 -23 -86 -68 -128c-40 -38 -93 -79 -134 -104c48 1 144 1 211 1v-75h-315v55c63 52 108 90 155 141c31 33 44 71 44 104c0 40 -20 71 -70 71c-33 0 -60 -6 -104 -27v60c35 15 84 24 124 24zM681 -11
c-41 0 -88 5 -125 22v61c45 -20 83 -25 116 -25c53 0 78 27 78 70c0 46 -25 70 -81 70h-32v54h34c58 0 73 36 73 68c0 47 -26 62 -68 62c-23 0 -62 -7 -108 -28v61c40 16 84 24 126 24c100 0 150 -38 150 -114c0 -43 -27 -82 -86 -96c61 -9 96 -47 96 -99
c0 -92 -63 -130 -173 -130z" />
    <glyph glyph-name="u" unicode="u" horiz-adv-x="582" 
d="M199 506v-282c0 -53 1 -88 6 -111c8 -36 34 -51 72 -51c34 0 67 15 87 44c17 24 17 43 17 101v299h130v-318c0 -63 3 -128 10 -188h-129c-3 18 -7 46 -8 61c-47 -58 -111 -74 -164 -74c-67 0 -124 21 -142 94c-7 28 -10 74 -10 120v305h131z" />
    <glyph glyph-name="u.sc" horiz-adv-x="591" 
d="M525 528v-314c0 -76 -8 -113 -27 -145c-31 -50 -106 -81 -200 -81c-85 0 -174 23 -207 85c-19 35 -24 80 -24 139v316h136v-317c0 -51 2 -81 10 -104c13 -37 52 -58 103 -58c45 0 77 13 98 42c13 19 19 56 19 116v321h92z" />
    <glyph glyph-name="uacute" unicode="&#xfa;" horiz-adv-x="582" 
d="M199 506v-282c0 -53 1 -88 6 -111c8 -36 34 -51 72 -51c34 0 67 15 87 44c17 24 17 43 17 101v299h130v-318c0 -63 3 -128 10 -188h-129c-3 18 -7 46 -8 61c-47 -58 -111 -74 -164 -74c-67 0 -124 21 -142 94c-7 28 -10 74 -10 120v305h131zM304 589h-87l113 147h144z
" />
    <glyph glyph-name="uacute.sc" horiz-adv-x="591" 
d="M525 528v-314c0 -76 -8 -113 -27 -145c-31 -50 -106 -81 -200 -81c-85 0 -174 23 -207 85c-19 35 -24 80 -24 139v316h136v-317c0 -51 2 -81 10 -104c13 -37 52 -58 103 -58c45 0 77 13 98 42c13 19 19 56 19 116v321h92zM305 599h-88l114 147h144z" />
    <glyph glyph-name="ubreve" unicode="&#x16d;" horiz-adv-x="582" 
d="M199 506v-282c0 -53 1 -88 6 -111c8 -36 34 -51 72 -51c34 0 67 15 87 44c17 24 17 43 17 101v299h130v-318c0 -63 3 -128 10 -188h-129c-3 18 -7 46 -8 61c-47 -58 -111 -74 -164 -74c-67 0 -124 21 -142 94c-7 28 -10 74 -10 120v305h131zM153 735h70
c1 -61 29 -78 71 -78s76 17 78 78h69c0 -89 -42 -154 -148 -154c-102 0 -140 62 -140 154z" />
    <glyph glyph-name="ubreve.sc" horiz-adv-x="591" 
d="M525 528v-314c0 -76 -8 -113 -27 -145c-31 -50 -106 -81 -200 -81c-85 0 -174 23 -207 85c-19 35 -24 80 -24 139v316h136v-317c0 -51 2 -81 10 -104c13 -37 52 -58 103 -58c45 0 77 13 98 42c13 19 19 56 19 116v321h92zM155 735h70c3 -47 30 -68 73 -68
c41 0 73 17 76 68h69c-1 -79 -41 -144 -147 -144c-101 0 -141 63 -141 144z" />
    <glyph glyph-name="ucircumflex" unicode="&#xfb;" horiz-adv-x="582" 
d="M199 506v-282c0 -53 1 -88 6 -111c8 -36 34 -51 72 -51c34 0 67 15 87 44c17 24 17 43 17 101v299h130v-318c0 -63 3 -128 10 -188h-129c-3 18 -7 46 -8 61c-47 -58 -111 -74 -164 -74c-67 0 -124 21 -142 94c-7 28 -10 74 -10 120v305h131zM460 589h-88l-79 91l-75 -91
h-83l111 152h102z" />
    <glyph glyph-name="ucircumflex.sc" horiz-adv-x="591" 
d="M525 528v-314c0 -76 -8 -113 -27 -145c-31 -50 -106 -81 -200 -81c-85 0 -174 23 -207 85c-19 35 -24 80 -24 139v316h136v-317c0 -51 2 -81 10 -104c13 -37 52 -58 103 -58c45 0 77 13 98 42c13 19 19 56 19 116v321h92zM462 599h-88l-79 91l-75 -91h-83l111 152h102z
" />
    <glyph glyph-name="udieresis" unicode="&#xfc;" horiz-adv-x="582" 
d="M199 506v-282c0 -53 1 -88 6 -111c8 -36 34 -51 72 -51c34 0 67 15 87 44c17 24 17 43 17 101v299h130v-318c0 -63 3 -128 10 -188h-129c-3 18 -7 46 -8 61c-47 -58 -111 -74 -164 -74c-67 0 -124 21 -142 94c-7 28 -10 74 -10 120v305h131zM252 664
c0 -44 -22 -61 -61 -61c-36 0 -58 14 -58 61s22 64 61 64c36 0 58 -15 58 -64zM449 664c0 -44 -22 -61 -62 -61c-36 0 -57 14 -57 61s22 64 61 64c36 0 58 -15 58 -64z" />
    <glyph glyph-name="udieresis.sc" horiz-adv-x="591" 
d="M525 528v-314c0 -76 -8 -113 -27 -145c-31 -50 -106 -81 -200 -81c-85 0 -174 23 -207 85c-19 35 -24 80 -24 139v316h136v-317c0 -51 2 -81 10 -104c13 -37 52 -58 103 -58c45 0 77 13 98 42c13 19 19 56 19 116v321h92zM261 677c0 -45 -22 -61 -61 -61
c-36 0 -58 13 -58 61c0 47 22 63 61 63c36 0 58 -14 58 -63zM458 677c0 -45 -22 -61 -62 -61c-36 0 -57 13 -57 61c0 47 22 63 61 63c36 0 58 -14 58 -63z" />
    <glyph glyph-name="ugrave" unicode="&#xf9;" horiz-adv-x="582" 
d="M199 506v-282c0 -53 1 -88 6 -111c8 -36 34 -51 72 -51c34 0 67 15 87 44c17 24 17 43 17 101v299h130v-318c0 -63 3 -128 10 -188h-129c-3 18 -7 46 -8 61c-47 -58 -111 -74 -164 -74c-67 0 -124 21 -142 94c-7 28 -10 74 -10 120v305h131zM377 589h-89l-163 147h143z
" />
    <glyph glyph-name="ugrave.sc" horiz-adv-x="591" 
d="M525 528v-314c0 -76 -8 -113 -27 -145c-31 -50 -106 -81 -200 -81c-85 0 -174 23 -207 85c-19 35 -24 80 -24 139v316h136v-317c0 -51 2 -81 10 -104c13 -37 52 -58 103 -58c45 0 77 13 98 42c13 19 19 56 19 116v321h92zM384 599h-92l-163 147h143z" />
    <glyph glyph-name="uhungarumlaut" unicode="&#x171;" horiz-adv-x="582" 
d="M199 506v-282c0 -53 1 -88 6 -111c8 -36 34 -51 72 -51c34 0 67 15 87 44c17 24 17 43 17 101v299h130v-318c0 -63 3 -128 10 -188h-129c-3 18 -7 46 -8 61c-47 -58 -111 -74 -164 -74c-67 0 -124 21 -142 94c-7 28 -10 74 -10 120v305h131zM220 579h-71l87 142h121z
M389 579h-71l87 142h121z" />
    <glyph glyph-name="uhungarumlaut.sc" horiz-adv-x="591" 
d="M525 528v-314c0 -76 -8 -113 -27 -145c-31 -50 -106 -81 -200 -81c-85 0 -174 23 -207 85c-19 35 -24 80 -24 139v316h136v-317c0 -51 2 -81 10 -104c13 -37 52 -58 103 -58c45 0 77 13 98 42c13 19 19 56 19 116v321h92zM218 589h-71l87 142h121zM387 589h-71l87 142
h121z" />
    <glyph glyph-name="umacron" unicode="&#x16b;" horiz-adv-x="582" 
d="M199 506v-282c0 -53 1 -88 6 -111c8 -36 34 -51 72 -51c34 0 67 15 87 44c17 24 17 43 17 101v299h130v-318c0 -63 3 -128 10 -188h-129c-3 18 -7 46 -8 61c-47 -58 -111 -74 -164 -74c-67 0 -124 21 -142 94c-7 28 -10 74 -10 120v305h131zM442 605h-300v75h300v-75z
" />
    <glyph glyph-name="umacron.sc" horiz-adv-x="591" 
d="M525 528v-314c0 -76 -8 -113 -27 -145c-31 -50 -106 -81 -200 -81c-85 0 -174 23 -207 85c-19 35 -24 80 -24 139v316h136v-317c0 -51 2 -81 10 -104c13 -37 52 -58 103 -58c45 0 77 13 98 42c13 19 19 56 19 116v321h92zM449 617h-300v74h300v-74z" />
    <glyph glyph-name="underscore" unicode="_" horiz-adv-x="524" 
d="M0 -77h524v-57h-524v57z" />
    <glyph glyph-name="uni00AD" unicode="&#xad;" horiz-adv-x="348" 
d="M309 228h-270v94h270v-94z" />
    <glyph glyph-name="uni0162" unicode="&#x162;" horiz-adv-x="578" 
d="M212 -243v49c19 -4 34 -5 44 -5c38 0 51 18 51 47c0 30 -18 46 -49 46c-11 0 -21 0 -35 -2l40 108h-45v634h-200v72h543v-72h-204v-634h-46l-24 -64c67 0 105 -30 105 -85c0 -70 -48 -98 -126 -98c-17 0 -41 2 -54 4z" />
    <glyph glyph-name="uni0163" unicode="&#x163;" horiz-adv-x="333" 
d="M113 -233v46c18 -4 33 -5 42 -5c37 0 50 18 50 46s-17 45 -48 45c-10 0 -20 -1 -33 -3l40 106c-20 7 -36 18 -47 33c-21 27 -32 67 -32 124v285h-71v62h71s1 23 8 138h121v-138h101v-62h-101v-284c0 -38 6 -60 12 -73c8 -15 30 -23 52 -23c16 0 36 2 52 8v-68
c-29 -8 -68 -12 -104 -12c-7 0 -14 0 -20 1l-20 -54c66 0 101 -29 101 -82c0 -68 -47 -95 -122 -95c-17 0 -39 3 -52 5z" />
    <glyph glyph-name="uni0163.sc" horiz-adv-x="468" 
d="M157 -238v48c18 -4 33 -5 43 -5c37 0 50 18 50 46c0 29 -17 45 -48 45c-11 0 -22 0 -34 -2l39 106h-39v464h-154v64h440v-64h-156v-464h-44l-23 -62c67 -1 103 -30 103 -84c0 -69 -47 -97 -124 -97c-17 0 -41 3 -53 5z" />
    <glyph glyph-name="uni0218" unicode="&#x218;" horiz-adv-x="530" 
d="M365 177c0 48 -33 80 -99 108l-63 27c-117 50 -159 110 -159 212c0 117 89 196 240 196c63 0 119 -10 169 -30v-88c-54 27 -106 44 -166 44c-76 0 -121 -32 -121 -102c0 -40 26 -71 94 -101l62 -28c116 -52 167 -106 167 -215c0 -124 -88 -214 -258 -214
c-66 0 -137 15 -194 37v90c61 -29 130 -51 196 -51c86 0 132 38 132 115zM300 -63c-2 -82 -32 -140 -74 -184h-71c32 50 46 99 46 184h99z" />
    <glyph glyph-name="uni0219" unicode="&#x219;" horiz-adv-x="413" 
d="M29 92c51 -23 99 -36 140 -36c61 0 89 26 89 72c0 41 -23 58 -67 77l-44 19c-69 29 -109 74 -109 145c0 94 69 151 202 151c46 0 88 -7 125 -18v-75c-42 18 -78 27 -121 27c-42 0 -80 -20 -80 -69c0 -32 18 -51 57 -68l48 -22c85 -37 118 -79 118 -150
c0 -97 -62 -158 -214 -158c-42 0 -99 11 -144 27v78zM257 -63c-2 -82 -32 -140 -74 -184h-71c32 50 46 99 46 184h99z" />
    <glyph glyph-name="uni0219.sc" horiz-adv-x="430" 
d="M285 128c0 27 -17 48 -67 70l-51 23c-96 43 -131 85 -131 166c0 87 69 153 195 153c49 0 104 -5 143 -20v-78c-42 20 -92 34 -139 34c-58 0 -85 -20 -85 -63c0 -21 11 -46 64 -69l48 -21c108 -48 141 -83 141 -168c0 -98 -75 -167 -212 -167c-51 0 -115 10 -159 26v82
c51 -22 109 -39 160 -39c55 0 93 19 93 71zM260 -63c-2 -82 -32 -140 -74 -184h-71c32 50 46 99 46 184h99z" />
    <glyph glyph-name="uni021A" unicode="&#x21a;" horiz-adv-x="578" 
d="M561 706v-72h-204v-634h-139v634h-200v72h543zM338 -63c-2 -82 -32 -140 -74 -184h-71c32 50 46 99 46 184h99z" />
    <glyph glyph-name="uni021B" unicode="&#x21b;" horiz-adv-x="333" 
d="M330 4c-29 -8 -68 -12 -104 -12c-49 0 -87 15 -109 43c-21 27 -32 67 -32 124v285h-71v62h71s1 23 8 138h121v-138h101v-62h-101v-284c0 -38 6 -60 12 -73c8 -15 30 -23 52 -23c16 0 36 2 52 8v-68zM237 -63c-2 -82 -32 -140 -74 -184h-71c32 50 46 99 46 184h99z" />
    <glyph glyph-name="uni021B.sc" horiz-adv-x="468" 
d="M454 528v-64h-156v-464h-130v464h-154v64h440zM287 -63c-2 -82 -32 -140 -74 -184h-71c32 50 46 99 46 184h99z" />
    <glyph glyph-name="uni0394" unicode="&#x394;" horiz-adv-x="702" 
d="M686 0h-675l276 706h140zM329 599c-21 -62 -39 -115 -181 -500h352c-134 385 -150 436 -171 500z" />
    <glyph glyph-name="uni03A9" unicode="&#x3a9;" horiz-adv-x="711" 
d="M318 0h-272v98h169c-99 53 -165 145 -165 288c0 246 132 335 312 335c197 0 299 -97 299 -334c0 -147 -69 -239 -169 -289h174v-98h-272v105c80 21 121 107 121 279c0 209 -58 268 -155 268c-92 0 -164 -61 -164 -269c0 -177 47 -258 122 -279v-104z" />
    <glyph glyph-name="uni03BC" unicode="&#x3bc;" horiz-adv-x="582" 
d="M197 -211h-129v717h130v-291c0 -46 1 -78 6 -99c8 -36 35 -52 71 -52c34 0 68 15 89 43c17 24 17 48 17 100v299h129v-310c0 -62 3 -128 9 -196h-128c-3 18 -6 46 -7 61c-38 -52 -83 -66 -121 -66c-23 0 -52 7 -66 24v-230z" />
    <glyph glyph-name="uni2215" unicode="&#x2215;" horiz-adv-x="105" 
d="M168 676h74l-304 -676h-74z" />
    <glyph glyph-name="uni2219" unicode="&#x2219;" horiz-adv-x="266" 
d="M211 287c0 -57 -29 -79 -79 -79c-48 0 -77 19 -77 79c0 61 30 82 80 82c48 0 76 -20 76 -82z" />
    <glyph glyph-name="uogonek" unicode="&#x173;" horiz-adv-x="582" 
d="M199 506v-282c0 -53 1 -88 6 -111c8 -36 34 -51 72 -51c34 0 67 15 87 44c17 24 17 43 17 101v299h130v-318c0 -63 3 -128 10 -188h-63c-56 -42 -79 -76 -79 -126c0 -34 20 -57 47 -57c14 0 31 2 48 8l16 -41c-25 -13 -56 -21 -85 -21c-72 0 -107 42 -107 102
c0 52 35 96 102 135h-8c-3 18 -7 46 -8 61c-47 -58 -111 -74 -164 -74c-67 0 -124 21 -142 94c-7 28 -10 74 -10 120v305h131z" />
    <glyph glyph-name="uogonek.sc" horiz-adv-x="591" 
d="M525 528v-314c0 -76 -8 -113 -27 -145c-25 -41 -79 -68 -148 -77c-48 -40 -69 -73 -69 -122c0 -34 19 -58 47 -58c13 0 31 2 49 9l17 -43c-25 -13 -56 -22 -86 -22c-74 0 -109 43 -109 105c0 48 29 90 84 127c-81 3 -161 26 -192 85c-19 35 -24 80 -24 139v316h136v-317
c0 -51 2 -81 10 -104c13 -37 52 -58 103 -58c45 0 77 13 98 42c13 19 19 56 19 116v321h92z" />
    <glyph glyph-name="uring" unicode="&#x16f;" horiz-adv-x="582" 
d="M199 506v-282c0 -53 1 -88 6 -111c8 -36 34 -51 72 -51c34 0 67 15 87 44c17 24 17 43 17 101v299h130v-318c0 -63 3 -128 10 -188h-129c-3 18 -7 46 -8 61c-47 -58 -111 -74 -164 -74c-67 0 -124 21 -142 94c-7 28 -10 74 -10 120v305h131zM298 779
c60 0 104 -35 104 -103c0 -66 -43 -106 -106 -106c-62 0 -107 36 -107 105c0 67 49 104 109 104zM296 741c-30 0 -51 -21 -51 -66c0 -46 20 -66 53 -66c29 0 49 20 49 68c0 45 -21 64 -51 64z" />
    <glyph glyph-name="uring.sc" horiz-adv-x="591" 
d="M525 528v-314c0 -76 -8 -113 -27 -145c-31 -50 -106 -81 -200 -81c-85 0 -174 23 -207 85c-19 35 -24 80 -24 139v316h136v-317c0 -51 2 -81 10 -104c13 -37 52 -58 103 -58c45 0 77 13 98 42c13 19 19 56 19 116v321h92zM303 789c60 0 104 -35 104 -103
c0 -66 -43 -106 -106 -106c-62 0 -107 36 -107 105c0 67 49 104 109 104zM301 751c-30 0 -51 -21 -51 -66c0 -46 20 -66 53 -66c29 0 49 20 49 68c0 45 -21 64 -51 64z" />
    <glyph glyph-name="utilde" unicode="&#x169;" horiz-adv-x="582" 
d="M199 506v-282c0 -53 1 -88 6 -111c8 -36 34 -51 72 -51c34 0 67 15 87 44c17 24 17 43 17 101v299h130v-318c0 -63 3 -128 10 -188h-129c-3 18 -7 46 -8 61c-47 -58 -111 -74 -164 -74c-67 0 -124 21 -142 94c-7 28 -10 74 -10 120v305h131zM182 592l-56 20
c24 63 58 107 110 107c18 0 40 -9 71 -25l16 -8c16 -8 32 -13 43 -13c20 0 37 15 51 49l56 -22c-29 -72 -58 -106 -108 -106c-21 0 -40 6 -62 18l-21 10c-25 13 -39 19 -50 19c-22 0 -35 -14 -50 -49z" />
    <glyph glyph-name="utilde.sc" horiz-adv-x="591" 
d="M525 528v-314c0 -76 -8 -113 -27 -145c-31 -50 -106 -81 -200 -81c-85 0 -174 23 -207 85c-19 35 -24 80 -24 139v316h136v-317c0 -51 2 -81 10 -104c13 -37 52 -58 103 -58c45 0 77 13 98 42c13 19 19 56 19 116v321h92zM189 608l-50 17c24 64 55 104 106 104
c18 0 39 -9 70 -25l17 -8c15 -8 30 -14 41 -14c20 0 38 14 52 45l49 -21c-29 -71 -54 -102 -102 -102c-21 0 -38 6 -61 18l-20 10c-26 13 -41 20 -52 20c-19 0 -35 -11 -50 -44z" />
    <glyph glyph-name="v" unicode="v" horiz-adv-x="511" 
d="M504 506l-189 -506h-117l-188 506h142c82 -241 104 -308 130 -396c25 86 46 154 125 396h97z" />
    <glyph glyph-name="v.sc" horiz-adv-x="528" 
d="M323 0h-129l-181 528h142c97 -293 112 -345 132 -419c22 73 41 132 136 419h96z" />
    <glyph glyph-name="w" unicode="w" horiz-adv-x="768" 
d="M753 506l-138 -506h-121c-73 248 -90 318 -105 381c-17 -64 -37 -133 -115 -381h-120l-135 506h140c50 -231 71 -329 80 -390c15 62 41 160 112 390h111c75 -251 96 -326 111 -391c12 66 30 150 83 391h97z" />
    <glyph glyph-name="w.sc" horiz-adv-x="784" 
d="M626 0h-132c-73 271 -85 323 -101 393c-16 -70 -29 -122 -109 -393h-132l-132 528h142c56 -254 72 -332 85 -407c18 77 36 147 106 407h129c71 -261 90 -334 105 -408c14 78 29 150 87 408h94z" />
    <glyph glyph-name="wacute" unicode="&#x1e83;" horiz-adv-x="768" 
d="M753 506l-138 -506h-121c-73 248 -90 318 -105 381c-17 -64 -37 -133 -115 -381h-120l-135 506h140c50 -231 71 -329 80 -390c15 62 41 160 112 390h111c75 -251 96 -326 111 -391c12 66 30 150 83 391h97zM364 589h-87l113 147h144z" />
    <glyph glyph-name="wacute.sc" horiz-adv-x="784" 
d="M626 0h-132c-73 271 -85 323 -101 393c-16 -70 -29 -122 -109 -393h-132l-132 528h142c56 -254 72 -332 85 -407c18 77 36 147 106 407h129c71 -261 90 -334 105 -408c14 78 29 150 87 408h94zM413 599h-88l114 147h144z" />
    <glyph glyph-name="wcircumflex" unicode="&#x175;" horiz-adv-x="768" 
d="M753 506l-138 -506h-121c-73 248 -90 318 -105 381c-17 -64 -37 -133 -115 -381h-120l-135 506h140c50 -231 71 -329 80 -390c15 62 41 160 112 390h111c75 -251 96 -326 111 -391c12 66 30 150 83 391h97zM569 589h-88l-79 91l-75 -91h-83l111 152h102z" />
    <glyph glyph-name="wcircumflex.sc" horiz-adv-x="784" 
d="M626 0h-132c-73 271 -85 323 -101 393c-16 -70 -29 -122 -109 -393h-132l-132 528h142c56 -254 72 -332 85 -407c18 77 36 147 106 407h129c71 -261 90 -334 105 -408c14 78 29 150 87 408h94zM572 599h-88l-79 91l-75 -91h-83l111 152h102z" />
    <glyph glyph-name="wdieresis" unicode="&#x1e85;" horiz-adv-x="768" 
d="M753 506l-138 -506h-121c-73 248 -90 318 -105 381c-17 -64 -37 -133 -115 -381h-120l-135 506h140c50 -231 71 -329 80 -390c15 62 41 160 112 390h111c75 -251 96 -326 111 -391c12 66 30 150 83 391h97zM368 664c0 -44 -22 -61 -61 -61c-36 0 -58 14 -58 61
s22 64 61 64c36 0 58 -15 58 -64zM565 664c0 -44 -22 -61 -62 -61c-36 0 -57 14 -57 61s22 64 61 64c36 0 58 -15 58 -64z" />
    <glyph glyph-name="wdieresis.sc" horiz-adv-x="784" 
d="M626 0h-132c-73 271 -85 323 -101 393c-16 -70 -29 -122 -109 -393h-132l-132 528h142c56 -254 72 -332 85 -407c18 77 36 147 106 407h129c71 -261 90 -334 105 -408c14 78 29 150 87 408h94zM362 677c0 -45 -22 -61 -61 -61c-36 0 -58 13 -58 61c0 47 22 63 61 63
c36 0 58 -14 58 -63zM559 677c0 -45 -22 -61 -62 -61c-36 0 -57 13 -57 61c0 47 22 63 61 63c36 0 58 -14 58 -63z" />
    <glyph glyph-name="wgrave" unicode="&#x1e81;" horiz-adv-x="768" 
d="M753 506l-138 -506h-121c-73 248 -90 318 -105 381c-17 -64 -37 -133 -115 -381h-120l-135 506h140c50 -231 71 -329 80 -390c15 62 41 160 112 390h111c75 -251 96 -326 111 -391c12 66 30 150 83 391h97zM486 589h-89l-163 147h143z" />
    <glyph glyph-name="wgrave.sc" horiz-adv-x="784" 
d="M626 0h-132c-73 271 -85 323 -101 393c-16 -70 -29 -122 -109 -393h-132l-132 528h142c56 -254 72 -332 85 -407c18 77 36 147 106 407h129c71 -261 90 -334 105 -408c14 78 29 150 87 408h94zM494 599h-92l-163 147h143z" />
    <glyph glyph-name="x" unicode="x" horiz-adv-x="523" 
d="M511 0h-157c-72 113 -94 147 -113 179c-22 -34 -51 -76 -120 -179h-108l181 248l-170 258h155c62 -96 86 -134 104 -164c21 32 50 75 112 164h106l-174 -228z" />
    <glyph glyph-name="x.sc" horiz-adv-x="548" 
d="M533 0h-159c-85 133 -103 160 -124 194c-23 -33 -44 -67 -129 -194h-106l190 259l-178 269h158c78 -120 96 -148 113 -178c19 28 39 60 119 178h102l-178 -238z" />
    <glyph glyph-name="y" unicode="y" horiz-adv-x="514" 
d="M508 506l-174 -509c-32 -95 -51 -142 -78 -171c-33 -37 -78 -52 -137 -52c-24 0 -51 3 -72 8v73c16 -6 41 -10 60 -10c27 0 49 7 69 26c18 17 32 55 43 92l11 37h-28l-190 506h146c77 -220 106 -308 126 -376c21 76 45 161 113 376h111z" />
    <glyph glyph-name="y.sc" horiz-adv-x="530" 
d="M329 0h-131v213l-188 315h154c93 -168 109 -198 130 -241c20 40 36 75 127 241h102l-194 -315v-213z" />
    <glyph glyph-name="yacute" unicode="&#xfd;" horiz-adv-x="514" 
d="M508 506l-174 -509c-32 -95 -51 -142 -78 -171c-33 -37 -78 -52 -137 -52c-24 0 -51 3 -72 8v73c16 -6 41 -10 60 -10c27 0 49 7 69 26c18 17 32 55 43 92l11 37h-28l-190 506h146c77 -220 106 -308 126 -376c21 76 45 161 113 376h111zM271 589h-87l113 147h144z" />
    <glyph glyph-name="yacute.sc" horiz-adv-x="530" 
d="M329 0h-131v213l-188 315h154c93 -168 109 -198 130 -241c20 40 36 75 127 241h102l-194 -315v-213zM285 599h-88l114 147h144z" />
    <glyph glyph-name="ycircumflex" unicode="&#x177;" horiz-adv-x="514" 
d="M508 506l-174 -509c-32 -95 -51 -142 -78 -171c-33 -37 -78 -52 -137 -52c-24 0 -51 3 -72 8v73c16 -6 41 -10 60 -10c27 0 49 7 69 26c18 17 32 55 43 92l11 37h-28l-190 506h146c77 -220 106 -308 126 -376c21 76 45 161 113 376h111zM433 589h-88l-79 91l-75 -91h-83
l111 152h102z" />
    <glyph glyph-name="ycircumflex.sc" horiz-adv-x="530" 
d="M329 0h-131v213l-188 315h154c93 -168 109 -198 130 -241c20 40 36 75 127 241h102l-194 -315v-213zM437 599h-88l-79 91l-75 -91h-83l111 152h102z" />
    <glyph glyph-name="ydieresis" unicode="&#xff;" horiz-adv-x="514" 
d="M508 506l-174 -509c-32 -95 -51 -142 -78 -171c-33 -37 -78 -52 -137 -52c-24 0 -51 3 -72 8v73c16 -6 41 -10 60 -10c27 0 49 7 69 26c18 17 32 55 43 92l11 37h-28l-190 506h146c77 -220 106 -308 126 -376c21 76 45 161 113 376h111zM234 664c0 -44 -22 -61 -61 -61
c-36 0 -58 14 -58 61s22 64 61 64c36 0 58 -15 58 -64zM431 664c0 -44 -22 -61 -62 -61c-36 0 -57 14 -57 61s22 64 61 64c36 0 58 -15 58 -64z" />
    <glyph glyph-name="ydieresis.sc" horiz-adv-x="530" 
d="M329 0h-131v213l-188 315h154c93 -168 109 -198 130 -241c20 40 36 75 127 241h102l-194 -315v-213zM232 677c0 -45 -22 -61 -61 -61c-36 0 -58 13 -58 61c0 47 22 63 61 63c36 0 58 -14 58 -63zM429 677c0 -45 -22 -61 -62 -61c-36 0 -57 13 -57 61c0 47 22 63 61 63
c36 0 58 -14 58 -63z" />
    <glyph glyph-name="yen" unicode="&#xa5;" horiz-adv-x="647" 
d="M215 339h-135v54h105l-162 283h160c118 -223 141 -270 166 -326c26 54 59 118 169 326h109l-163 -283h100v-54h-133l-41 -68v-14h174v-54h-174v-203h-135v203h-175v54h175v14z" />
    </font>
</defs>
</svg>
