<svg id="Layer_1" data-name="Layer 1" xmlns="http://www.w3.org/2000/svg" viewBox="0 0 500 500"><defs><style>.cls-1{fill:#508764;}</style></defs><title>Artboard 1</title><path class="cls-1" d="M398.22,337.55c-9.07-4.93-27.48-6.32-27.48-6.32,8.91-1.21,21-3,28-1a28.75,28.75,0,0,1-.51,7.36m-14.44,7a63.68,63.68,0,0,1,13.89-1.67,27.59,27.59,0,0,1-1,7.3ZM346.92,357s-9.07,7.27-23.89,5.44c0,0,6.67,11.87,13.24,14.64,0,0-10,7.32-16.53,7.27,0,0-.79,8.36,6.73,12.1,0,0-12.07,3.67-19.54-.12,0,0-2.68,8.35,2,12.16l-9.32-1s35.18-55-2.7-101.66c0,0,23.61,19,47.37,22.46a63.35,63.35,0,0,1-25.41,5.46S326.43,348,346.92,357M297.05,213.45c-5.31,1.42-10,4.57-15.49,5.82a29.94,29.94,0,0,1-16.72-.92c-10.62-3.63-12.57-14-12.27-24.09.28-8.3-1.2-22.6,3.36-28.72.7,13.06-.83,47.21,21,46,7.71-.43,15.36-4.14,22.54-6.5,13.25-4.33,17.46,15.56,15.4,22.67-2.26-7.74-8.8-16.7-17.86-14.22m7.64-48.25a16.4,16.4,0,0,1-3.67,1.07,5.6,5.6,0,0,1-4.49-1.1c-3.29-2.68-2.72-8.53.7-10.64-3,1.82-9.81,2.06-10.59-2.73-1.2-7.39-14.64-14.65-19.37-15.54,22.44,1.23,54.64,3.94,59.22,32.69a11.6,11.6,0,0,0-8.66-5.93c-4.53-.85-9,.57-13.14,2.18m14,70.63s9.41,4,12.14,9.2c1.18,2.29,3.07,6.82-3.68,9.13,0,0,2.1-6.09-8.46-18.33m-.36-92.21c-9.95-14.33-36.13-13.49-51.88-14.48a53.57,53.57,0,0,1,26.7-3.58c11.64,1.77,21.56,8.83,25.18,18.06M261.89,56.54C224,54,214,77.85,214,77.85c7.07-42.12,47.9-21.31,47.9-21.31M214.77,91.75c7.13,10.93,10,25.27,9.34,38-1.22-3.15-7.55-15-13.78-11.46-3.32,1.91-2.77,18.7-3.35,22.46A234.14,234.14,0,0,1,195.44,187c-4.37,11.73-8.77,22.76-17.2,32.4,19-26.58,14.23-98.54,14.23-98.54-52.71,7.67-61.69,37.64-61.69,37.64,4.42-43.26,35.77-51.07,35.77-51.07-66.12-10.09-84.83,52.8-84.83,52.8,14.49-67.37,80.93-75.09,80.93-75.09C35.38,61.52,50.74,135.46,50.74,135.46,39.12,94,88.37,72.68,88.37,72.68c22.46-10.33,45.19-11.7,68.15-11,9.1.29,18.89-.61,28.1,3.63,11.15,5.14,20.6,14.3,28.23,23.76a27.85,27.85,0,0,1,1.92,2.68M85.17,245.3a111.26,111.26,0,0,0-10.56-32.84s17.92,32.57,43.22.7c0,0-11.49,25-32.66,32.14M173.84,303s-34.35-14.11-4.17-62.95c0,0-14.11,36.1,4.17,62.95m63.91-133.4c.34-1.24.7-2.45,1.05-3.64,1.4-4,2.72-7.63,4.17-10.68.72-1.52,1.42-2.9,2-4.12s1.26-2.25,1.76-3.09a27.67,27.67,0,0,1,1.69-2.61s-.13,1.15-.38,3.09c-.13,1-.27,2.14-.5,3.47s-.4,2.85-.69,4.47c-.61,3.25-1.15,7.06-2,11-.33,2-.7,4.08-1.13,6.17s-.92,4.22-1.25,6.35-.78,4.25-1.23,6.34c-.24,1-.45,2.09-.68,3.1s-.35,2.06-.52,3.05c-.35,2-.75,3.94-1.14,5.78s-.85,3.56-1.06,5.17c-.57,3.24-1.17,5.95-1.65,7.85s-.81,3-.81,3-.28-1.1-.6-3-.72-4.73-1.05-8.1a37,37,0,0,1-.16-5.43c0-1.92.1-4,.23-6.07.07-1.06.12-2.12.19-3.21s.28-2.16.45-3.25c0-.21.06-.42.1-.64-.18-1.7-.31-3.52-.33-5.44,0-1.58-.13-3.23-.11-4.91s0-3.39.1-5.09.24-3.42.34-5.08.41-3.32.6-4.93a64.62,64.62,0,0,1,1.72-8.6,32.67,32.67,0,0,1,1-3.36,25.31,25.31,0,0,1,.94-2.55,22.18,22.18,0,0,1,1-2.15s-.13.88-.29,2.35c-.12.72-.18,1.63-.28,2.64s-.25,2.17-.32,3.44-.19,2.62-.33,4-.14,3-.28,4.54-.25,3.16-.27,4.82-.15,3.33-.23,5a2.18,2.18,0,0,0,0,.25m57.37,126.52c-1.55-1.94-2.41-5-4.11-7.45-5.52-8.07-15.65-8.76-21.68-16.12-3.32-4.07-18-21.81-10.72-26.52,3.17,5.34,8,9.42,12.49,13.5s9.08,4.66,11.16,10c.9,2.22.36,4.38,2.05,6.19,2.4,2.62,6.37,1.32,8.94,3.42,5.2,4.18.65,9.64,1.87,17M52.9,207.63A11.8,11.8,0,0,1,59.42,212c4.59,6.49,4.65,17.25,7.32,24.81s9.7,12.67,11.69,21.2c1.87,7.91,3.17,15.83,8.46,22.77,4.66,6.11,12.17,9.11,16,15,2.34,3.62,17,7.93,21.26,8.86a83.24,83.24,0,0,1,24.6,9.15c20.54,11.32,39.52,9.94,39.52,9.94,6.06-.1,10.16-6.46,7.69-11.29-16.85-32.83-3.41-59.35,9.44-89.91,13.62-32.35,20.72-60.84,20.4-91.25,0-4.17.85-4.56,1.47-.46,1.68,10.83,3.44,39.76-15.87,90.55-13.05,34.48-16.32,41.13-16,58.92,0,.1,14.08-5.46,26.81,3.18,11.49,7.8,20.62,13.55,23.85,19.53,10.43,19.37,16.52-5.1,13.48-31.57,0,0,8.22,22.88,22.23,31.36,1.25.77,3.64,2,5.81.09,3.4,6.34,10.16,19,13.58,25.27,4.72,8.48,2.86,15.94,4.39,23.42,1.21,6.06,3.15,8.91,2.06,13-1,3.72-2.09,3.75-1.56,8.76.49,4.24-1.71,7.9-2.61,11.34-1.11,4.35-.15,7.85-3.93,10.9-2.4,2-2.07,3.75-4.14,5.93a49.22,49.22,0,0,1-7.19,6.19c-2.5,1.47-13,11.09-32.95,5.15-21.29-6.39-26.62-17.6-27.72-28.28-.22-1.89-1-16.34,7.7-18.88,7.79-2.28,15.82,3.66,17.39-.16,3.42-8.31-8.27-9.35-8.08-16.19s12.88-6.07,2.85-11.64c-11.53-6.38-38.66-7.9-53.91,9.67-11.7,13.42-18.73,36.65-9.63,61.5,7.84,21.59,25.66,36.88,43.85,46.47-1.53.06-3.08.12-4.64.12-38.39,0-75-15.32-103.9-40.21C103.79,402,90.93,386.31,79.91,369.32c-9.69-14.9-.34-32.75,4.62-47.52,3.88-11.56,4.78-26.67,1.12-30.86-5.05-5.78-8.93-15.84-11-27.85-1.66-9.5-8.84-17-10.84-23-3.05-9.3-.19-25.78-10.87-32.41M212.75,405.14c-16.41-35,9.31-43.78,9.31-43.78-10.23,8.8-9.28,28.81-1.21,40.26,13.3,18.94,28.26,20.39,28.26,20.39-15.54,3.81-31.79-7.12-36.36-16.87M346.88,254c25.71-6.26,43.69-2,43.69-2l1.86,8.77C373,254,346.88,254,346.88,254m40.34-18.35c-21.06-2.82-31.76-2.49-31.76-2.49,11.94-6.16,29.23-5.07,29.23-5.07Zm96.38,46.85a.62.62,0,0,0-.12.09h0l-.43.33-.84.63a.25.25,0,0,1,.08-.05c-.27.21-.56.41-.84.62l-.75.58a4.21,4.21,0,0,0-.48.35l-.12.07-1.64,1.19c-.27.19-.52.4-.81.59l-.62.42c-.56.42-1.16.82-1.75,1.22l-.89.63-.68.44c-.61.42-1.24.84-1.89,1.25-.33.23-.67.46-1,.67s-.46.29-.67.44c-.67.4-1.33.83-2,1.26-.36.23-.72.46-1.12.69-.22.15-.45.27-.69.41-.7.44-1.4.86-2.11,1.28-.38.24-.79.48-1.2.71-.24.14-.48.27-.7.41-.73.43-1.48.84-2.23,1.26l-1.31.74-.72.38c-.77.41-1.53.83-2.3,1.23l-1.42.75-.72.36c-.81.42-1.65.82-2.47,1.22-.49.25-1,.49-1.48.73l-.71.33c-.84.4-1.71.79-2.57,1.18-.53.25-1,.5-1.57.72-.24.12-.48.21-.72.31-.89.38-1.78.76-2.69,1.12-.54.26-1.1.48-1.67.72-.24.1-.48.17-.72.27-.89.36-1.81.71-2.73,1.06l-1.79.69-.74.25-2.82,1-1.91.65c-.23.07-.46.13-.69.21-1,.3-2,.6-3,.89-.66.21-1.31.42-2,.61l-.68.17c-1,.28-2,.54-3.05.8-.7.18-1.38.39-2.07.55l-.68.13c-1,.25-2.06.49-3.13.7-.72.17-1.44.34-2.17.48l-.64.12c-1.07.2-2.15.38-3.22.56-.77.14-1.51.28-2.28.4l-.62.09c-1.09.17-2.18.3-3.28.42-.79.12-1.59.23-2.4.32-.19,0-.4,0-.6,0-1.1.13-2.22.21-3.33.28-.84.09-1.68.17-2.51.23l-.56,0c-1.14.07-2.29.09-3.44.14h-.09c-.85,0-1.66.07-2.5.09h-.54c-1.15,0-2.33,0-3.52,0h-.33c-.79,0-1.56,0-2.35,0H379l-3.61-.23-.32,0c-.83-.05-1.62-.08-2.43-.14l-.47-.07c-1.23-.09-2.49-.27-3.71-.41l-.2,0c-.87-.1-1.74-.18-2.62-.29l-.41-.07c-1.26-.19-2.55-.42-3.82-.64-1-.15-1.92-.29-2.9-.47l-.36-.08c-1.27-.25-2.56-.56-3.85-.84a3.18,3.18,0,0,1-.33-.08c-.89-.2-1.76-.36-2.66-.58-.12,0-.23-.07-.35-.09-1.3-.34-2.64-.72-4-1.09l-.31-.1c-.91-.25-1.8-.46-2.72-.74a1.8,1.8,0,0,1-.28-.09c-1.35-.42-2.72-.91-4.09-1.38-1-.33-2-.64-3.05-1l-.25-.09c-1.39-.5-2.76-1.09-4.15-1.64-1-.4-2.07-.78-3.14-1.22l-.19-.09c-1.44-.61-2.87-1.29-4.31-1.94-1-.48-2.07-.92-3.11-1.43l-.17-.08c-1.53-.74-3.08-1.58-4.64-2.39-.51-.28-1-.53-1.56-.79s-.89-.46-1.34-.7a.31.31,0,0,0-.09-.07c-1.75-1-3.49-2-5.24-3.06-.45-.26-.89-.49-1.34-.77s-.74-.41-1.1-.65c0,0,0,0-.06,0-2.6-1.6-5.18-3.27-7.8-5.05.23-1.77.56-3.51.95-5.23,0-.06,0-.11.05-.18a1.47,1.47,0,0,0,.06-.32l0,0c.11-.45.25-.91.37-1.33.29-1.07.59-2.16,1-3.21.26-.72.58-1.42.87-2.15.35-.89.73-1.79,1.15-2.66s.79-1.49,1.22-2.23.9-1.55,1.4-2.3,1-1.51,1.6-2.23,1.06-1.36,1.63-2,1.3-1.47,2-2.18,1.26-1.19,1.9-1.76c.79-.7,1.58-1.4,2.44-2.08.68-.52,1.45-1,2.18-1.53.94-.64,1.87-1.29,2.87-1.9l.33-.21,0,0a55.11,55.11,0,0,1,5-2.68c21.07,27.54,49.81,38.39,79.9,39.07-.29-2.48-.63-4.85-1-6.95A181,181,0,0,1,401,265c34-12.81,51-32.39,55.06-41.16-.91,1-1.83,1.92-2.77,2.88h0c.94-1,1.86-1.91,2.75-2.87-.51.55-1.07,1.06-1.58,1.59-1.41,1.46-2.82,2.91-4.31,4.33-.78.74-1.63,1.43-2.42,2.17-1.31,1.2-2.6,2.38-4,3.53-.88.76-1.82,1.46-2.74,2.19-1.33,1.06-2.66,2.16-4,3.2-2,1.53-4.13,3-6.22,4.4-.3.21-.57.41-.86.6a139.42,139.42,0,0,1-12.18,7.21c-3.33,1.77-6.66,3.42-10,4.79-2.47,1-5,1.94-7.4,2.75-.21-3.59.1-7.93-.32-11.42h0c-.23-2-.56-4.08-1-6.21-.21-1.13-.42-2.23-.71-3.39a.88.88,0,0,0-.07-.29,186.49,186.49,0,0,0-10.66-30.41c-5.18-12-7.17-20.6-8-34-.81-12.81-3.79-24.21-6.39-36.25-2.77-12.72-4.77-24.22-14.47-33.38-7.48-7.1-16.09-12.69-22.14-21.18-3.07-4.33-3.42-5.62-7.62-8.92-3.53-2.77-6.91-3.86-9.54-7.88-3.36-5.07-5.11-10.75-9-15.68-14-17.73-41.71-16.48-61.87-15.41-11.6.58-23.23,2-34.87,2.1-14.4.08-12.6-10.44-24.42-14.05-12.42-3.77-26.27-2.6-38.61.91-5.91,1.69-11.38,4.62-17.4,5.83-7.12,1.38-14.52.77-21.47,3.22-26.66,9.45-44.49,31-67.09,46.79-2.32,1.63-4.7,3.24-7.08,4.82-17,11.28-6.4,39.73-5.42,56.15.39,6.35-2.51,16.72-.75,22.27a17.28,17.28,0,0,0,2.16,4.29,280,280,0,0,0-7.85,66.24c0,127.78,84.36,231.31,188.44,231.31a154.47,154.47,0,0,0,31.41-3.22,88.33,88.33,0,0,0,21.73,4.67c28,1.68,72.16,1.32,109.32-51.64,20.69-29.41,26.74-63.27,27.32-92.31,37.2-5.82,70.65-30.64,79.66-41.13"/></svg>